<?xml version="1.0" standalone="no"?>
<!DOCTYPE svg PUBLIC "-//W3C//DTD SVG 1.1//EN" "http://www.w3.org/Graphics/SVG/1.1/DTD/svg11.dtd" >
<svg xmlns="http://www.w3.org/2000/svg" xmlns:xlink="http://www.w3.org/1999/xlink" version="1.1">
<metadata>
Created by FontForge 20170731 at Wed Oct 28 11:39:09 2020
 By Aleksey,,,
OFL
</metadata>
<defs>
<font id="LeagueSpartan-Extralight" horiz-adv-x="0" >
  <font-face 
    font-family="League Spartan Extralight"
    font-weight="200"
    font-stretch="normal"
    units-per-em="2000"
    panose-1="0 0 0 0 0 0 0 0 0 0"
    ascent="1600"
    descent="-400"
    x-height="821"
    cap-height="1320"
    bbox="-256 -445 2165 2058"
    underline-thickness="50"
    underline-position="-175"
    unicode-range="U+000D-FB02"
  />
<missing-glyph horiz-adv-x="619" 
 />
    <glyph glyph-name="fi" unicode="fi" horiz-adv-x="1015" 
d="M34 821h195v246q0 130 37 202t93 101.5t113 29.5q68 0 106 -19.5t43 -23.5l-31 -56q-6 5 -36.5 21.5t-87.5 16.5q-42 0 -82 -20.5t-66.5 -81.5t-26.5 -183v-233h259v-63h-259v-758h-62v758h-195v63zM759 0v821h64v-821h-64zM792 1197q-27 0 -46 19t-19 46q0 28 19.5 47
t45.5 19q18 0 33.5 -9t25 -23.5t9.5 -33.5q0 -27 -20 -46t-48 -19z" />
    <glyph glyph-name="fl" unicode="fl" horiz-adv-x="983" 
d="M34 821h195v246q0 130 37 202t93 101.5t113 29.5q68 0 106 -19.5t43 -23.5l-31 -56q-6 5 -36.5 21.5t-87.5 16.5q-42 0 -82 -20.5t-66.5 -81.5t-26.5 -183v-233h259v-63h-259v-758h-62v758h-195v63zM810 0h-66v1376h66v-1376z" />
    <glyph glyph-name="f_f" unicode="ff" horiz-adv-x="1210" 
d="M34 821h195v246q0 130 37 202t93 101.5t113 29.5q68 0 106 -19.5t43 -23.5l-31 -56q-6 5 -36.5 21.5t-87.5 16.5q-42 0 -82 -20.5t-66.5 -81.5t-26.5 -183v-233h259v-63h-259v-758h-62v758h-195v63zM634 821h195v246q0 130 37 202t93 101.5t113 29.5q68 0 106 -19.5
t43 -23.5l-31 -56q-6 5 -36.5 21.5t-87.5 16.5q-42 0 -82 -20.5t-66.5 -81.5t-26.5 -183v-233h259v-63h-259v-758h-62v758h-195v63z" />
    <glyph glyph-name="f_f_i" unicode="ffi" horiz-adv-x="1615" 
d="M34 821h195v246q0 130 37 202t93 101.5t113 29.5q68 0 106 -19.5t43 -23.5l-31 -56q-6 5 -36.5 21.5t-87.5 16.5q-42 0 -82 -20.5t-66.5 -81.5t-26.5 -183v-233h259v-63h-259v-758h-62v758h-195v63zM634 821h195v246q0 130 37 202t93 101.5t113 29.5q68 0 106 -19.5
t43 -23.5l-31 -56q-6 5 -36.5 21.5t-87.5 16.5q-42 0 -82 -20.5t-66.5 -81.5t-26.5 -183v-233h259v-63h-259v-758h-62v758h-195v63zM1359 0v821h64v-821h-64zM1392 1197q-27 0 -46 19t-19 46q0 28 19.5 47t45.5 19q18 0 33.5 -9t25 -23.5t9.5 -33.5q0 -27 -20 -46t-48 -19z
" />
    <glyph glyph-name="f_f_l" unicode="ffl" horiz-adv-x="1583" 
d="M34 821h195v246q0 130 37 202t93 101.5t113 29.5q68 0 106 -19.5t43 -23.5l-31 -56q-6 5 -36.5 21.5t-87.5 16.5q-42 0 -82 -20.5t-66.5 -81.5t-26.5 -183v-233h259v-63h-259v-758h-62v758h-195v63zM634 821h195v246q0 130 37 202t93 101.5t113 29.5q68 0 106 -19.5
t43 -23.5l-31 -56q-6 5 -36.5 21.5t-87.5 16.5q-42 0 -82 -20.5t-66.5 -81.5t-26.5 -183v-233h259v-63h-259v-758h-62v758h-195v63zM1410 0h-66v1376h66v-1376z" />
    <glyph glyph-name=".notdef" horiz-adv-x="619" 
 />
    <glyph glyph-name=".null" 
 />
    <glyph glyph-name="nonmarkingreturn" horiz-adv-x="666" 
 />
    <glyph glyph-name="CR" unicode="&#xd;" horiz-adv-x="1200" 
 />
    <glyph glyph-name="space" unicode=" " horiz-adv-x="472" 
 />
    <glyph glyph-name="exclam" unicode="!" horiz-adv-x="630" 
d="M272 312l-18 1064h84l-20 -1064h-46zM294 -24q-26 0 -47.5 12.5t-34 34t-12.5 47.5q0 41 27.5 68.5t66.5 27.5q40 0 67.5 -27.5t27.5 -68.5q0 -39 -27.5 -66.5t-67.5 -27.5z" />
    <glyph glyph-name="quotedbl" unicode="&#x22;" horiz-adv-x="707" 
d="M200 1285q35 0 50.5 -24t15.5 -53v-5q0 -12 -4.5 -43.5t-12 -73.5t-15.5 -87.5t-16 -84.5h-55q-5 39 -10 84.5t-9.5 87.5t-7 73.5t-2.5 43.5v5q0 30 16 53.5t50 23.5zM466 1285q35 0 50 -23.5t15 -53.5v-5q0 -12 -4.5 -43.5t-12.5 -73.5t-16 -87.5t-16 -84.5h-53
q-5 39 -10 84.5t-9.5 87.5t-7 73.5t-2.5 43.5v5q0 30 15.5 53.5t50.5 23.5z" />
    <glyph glyph-name="numbersign" unicode="#" horiz-adv-x="1214" 
d="M582 1320h55l-349 -1320h-54zM925 1320h54l-349 -1320h-54zM259 915h819l-19 -57h-819zM155 464h819l-19 -56h-819z" />
    <glyph glyph-name="dollar" unicode="$" horiz-adv-x="1003" 
d="M483 1534h59v-227h-59v227zM483 21h59v-227h-59v227zM485 1344q107 0 180.5 -25.5t114.5 -53.5t47 -36l-40 -56q-15 14 -52 39.5t-98 46.5t-149 21q-142 0 -223 -61t-81 -168q0 -72 42.5 -125.5t114 -96t157.5 -83.5q65 -31 133 -68t126.5 -86.5t94.5 -115.5t36 -154
q0 -73 -29.5 -136t-85 -110.5t-133 -73.5t-173.5 -26q-108 0 -197 29t-143.5 59.5t-59.5 34.5l45 59q13 -10 42.5 -29.5t74.5 -40t106 -34.5t137 -14q170 0 258.5 81.5t88.5 204.5q0 96 -57 163.5t-142.5 117.5t-173.5 92q-93 46 -168 94.5t-119 111t-44 148.5q0 83 48 149
t132 104t190 38z" />
    <glyph glyph-name="percent" unicode="%" horiz-adv-x="1379" 
d="M1021 1320h65l-768 -1320h-65zM104 1029q0 66 32 116.5t85 79t117 28.5q61 0 113 -28.5t84.5 -79t32.5 -116.5q0 -64 -30.5 -114.5t-82.5 -79.5t-117 -29q-69 0 -121.5 29t-82.5 79.5t-30 114.5zM163 1029q0 -80 47.5 -124t125.5 -44q72 0 122.5 43t50.5 125
q0 78 -51 123.5t-122 45.5q-74 0 -123.5 -45.5t-49.5 -123.5zM773 290q0 66 31.5 116.5t84.5 79t117 28.5q61 0 113.5 -28.5t85 -79t32.5 -116.5q0 -64 -30.5 -114.5t-83 -79.5t-117.5 -29q-68 0 -121 29t-82.5 79.5t-29.5 114.5zM832 290q0 -81 47.5 -124.5t125.5 -43.5
q72 0 122.5 43t50.5 125q0 78 -51 123.5t-122 45.5q-74 0 -123.5 -45.5t-49.5 -123.5z" />
    <glyph glyph-name="ampersand" unicode="&#x26;" horiz-adv-x="1294" 
d="M83 309q0 85 34 150.5t86.5 113t109.5 79t105.5 50t72.5 26.5q-14 14 -43.5 48.5t-61.5 83t-54.5 104t-22.5 110.5q0 78 42.5 139t113 96t154.5 35q90 0 157 -35t104.5 -96t37.5 -139q0 -96 -42 -163.5t-100.5 -110.5t-110 -66t-70.5 -30l362 -400q23 28 59 82t66 118
l46 -32q-9 -23 -33 -63.5t-52 -80t-48 -61.5l250 -267h-87l-203 221q-53 -57 -128.5 -113.5t-170.5 -94t-208 -37.5q-112 0 -194 43.5t-126.5 119t-44.5 170.5zM531 682q-21 -5 -66.5 -21t-100.5 -44.5t-105.5 -71.5t-83.5 -101.5t-33 -134.5q0 -90 43 -151.5t112.5 -92.5
t148.5 -31q100 0 192 36.5t165.5 89t116.5 101.5zM616 1282q-78 0 -133 -31t-84 -79t-29 -98q0 -52 27 -107.5t62.5 -104t64.5 -80t33 -35.5q29 8 79 29.5t101 60t86.5 97t35.5 140.5q0 89 -68.5 148.5t-174.5 59.5z" />
    <glyph glyph-name="quotesingle" unicode="'" horiz-adv-x="424" 
d="M192 1285q35 0 50.5 -24t15.5 -53q0 -25 -14 -109t-34 -185h-55q-8 65 -14.5 126.5t-10.5 107t-4 60.5q0 30 16 53.5t50 23.5z" />
    <glyph glyph-name="parenleft" unicode="(" horiz-adv-x="573" 
d="M381 -397q-56 69 -116 197t-101.5 300.5t-41.5 374.5q0 156 24 297.5t62 261t82.5 211t85.5 147.5l56 -43q-52 -68 -108.5 -196t-95.5 -301t-39 -377q0 -191 38.5 -354.5t94.5 -284.5t107 -186z" />
    <glyph glyph-name="parenright" unicode=")" horiz-adv-x="573" 
d="M120 -397q56 69 116 197t101.5 300.5t41.5 374.5q0 156 -24 297.5t-62 261t-82.5 211t-85.5 147.5l-56 -43q52 -68 108.5 -196t95.5 -301t39 -377q0 -191 -38.5 -354.5t-94.5 -284.5t-107 -186z" />
    <glyph glyph-name="asterisk" unicode="*" horiz-adv-x="853" 
d="M440 1141l203 70l21 -59l-208 -72l120 -179l-50 -34l-120 175l-129 -173l-50 33l131 178l-208 72l20 59l204 -70l2 216h62z" />
    <glyph glyph-name="plus" unicode="+" horiz-adv-x="1085" 
d="M554 634v-381h-61v381h-381v60h381v380h61v-380h379v-60h-379z" />
    <glyph glyph-name="comma" unicode="," horiz-adv-x="531" 
d="M245 176q49 0 83.5 -35t34.5 -85q0 -61 -23.5 -112.5t-62 -90.5t-83.5 -63l-53 47q27 12 57.5 33.5t54.5 49.5t30 61q-23 -11 -48 -11q-43 1 -71 32t-28 65q0 33 14 57.5t38.5 38t56.5 13.5z" />
    <glyph glyph-name="hyphen" unicode="-" horiz-adv-x="779" 
d="M112 426v60h515v-60h-515z" />
    <glyph glyph-name="period" unicode="." horiz-adv-x="630" 
d="M294 -24q-39 0 -66.5 27.5t-27.5 66.5q0 41 27.5 68.5t66.5 27.5q40 0 67.5 -27.5t27.5 -68.5q0 -39 -27.5 -66.5t-67.5 -27.5z" />
    <glyph glyph-name="slash" unicode="/" horiz-adv-x="922" 
d="M728 1376h72l-659 -1568h-72z" />
    <glyph glyph-name="zero" unicode="0" horiz-adv-x="1142" 
d="M86 659q0 180 41 309.5t109 212.5t150.5 123t165.5 40q84 0 166.5 -40t149.5 -123t107.5 -212.5t40.5 -309.5q0 -176 -40.5 -304.5t-107.5 -212.5t-149.5 -125t-166.5 -41q-83 0 -165.5 41t-150.5 125t-109 212.5t-41 304.5zM154 659q0 -206 57 -344t148 -206.5
t193 -68.5q103 0 193.5 68.5t147 206.5t56.5 344q0 210 -56.5 347.5t-147 205.5t-193.5 68q-102 0 -193 -68t-148 -206t-57 -347z" />
    <glyph glyph-name="one" unicode="1" horiz-adv-x="574" 
d="M312 1248l-245 -147v69l248 150h61v-1320h-64v1248z" />
    <glyph glyph-name="two" unicode="2" horiz-adv-x="1046" 
d="M518 1280q-96 0 -167.5 -35t-119 -82t-71.5 -84.5t-26 -41.5l-62 24q2 5 19 35t51.5 71.5t87 82t124.5 67.5t164 27q82 0 149 -21.5t116 -67t75.5 -118t26.5 -174.5q0 -83 -44.5 -177t-115.5 -189.5t-153.5 -183.5t-160.5 -161t-136 -122t-78 -66h677v-64h-789v59
q44 36 114.5 95t153.5 135t164.5 161.5t150 174.5t109.5 175t41 162q0 177 -78 247.5t-222 70.5z" />
    <glyph glyph-name="three" unicode="3" horiz-adv-x="1000" 
d="M114 1155q3 9 24 39t63 64.5t108.5 60t160.5 25.5q127 0 209.5 -47t123 -124t40.5 -168q0 -85 -35 -152.5t-91 -109t-119 -49.5q63 -4 127.5 -43t108 -109.5t43.5 -171.5q0 -110 -51 -199.5t-143 -142t-217 -52.5q-114 0 -196 38t-132.5 93t-70.5 106l58 35
q17 -45 60 -93t113 -81.5t166 -33.5q111 0 188 45t116.5 120t39.5 165q0 102 -49 166t-127.5 94.5t-167.5 30.5h-26v62h34q79 0 149 33t113.5 95.5t43.5 150.5q0 116 -76.5 197t-234.5 81q-83 0 -139 -22.5t-88.5 -52.5t-47 -53.5t-14.5 -25.5z" />
    <glyph glyph-name="four" unicode="4" horiz-adv-x="930" 
d="M682 1320v-978h150v-64h-150v-278h-64v278h-565v61l577 981h52zM618 342v824v0l-485 -824h485z" />
    <glyph glyph-name="five" unicode="5" horiz-adv-x="1037" 
d="M170 224q4 -10 23 -39t56 -62.5t95 -58t141 -24.5q166 0 261.5 107t93.5 285q-2 164 -86.5 251t-220.5 87q-85 0 -148 -31t-103 -76t-56 -87l-68 18l108 726h587v-64h-525l-80 -549q4 11 36.5 41.5t95.5 58t159 27.5q102 0 184 -45.5t131 -135t50 -221.5
q1 -131 -45.5 -234t-140 -162.5t-233.5 -59.5q-99 0 -168.5 27.5t-113.5 65.5t-66 71t-27 44z" />
    <glyph glyph-name="six" unicode="6" horiz-adv-x="1080" 
d="M533 843q119 0 215 -57t153 -155.5t57 -222.5t-60 -221.5t-160.5 -154t-220.5 -56.5q-124 0 -222 58t-155 160t-57 233t47.5 225t115.5 180l386 488h82l-458 -571q30 34 103 64t174 30zM523 38q103 0 187 50.5t134 135t50 187.5t-50 187t-134 134t-187 50t-187.5 -50
t-135 -134t-50.5 -187t50.5 -187.5t135 -135t187.5 -50.5z" />
    <glyph glyph-name="seven" unicode="7" horiz-adv-x="997" 
d="M128 1320h771v-58l-717 -1262h-75l715 1256h-694v64z" />
    <glyph glyph-name="eight" unicode="8" horiz-adv-x="1075" 
d="M518 -24q-120 0 -209 52t-138 138.5t-49 190.5q0 103 36.5 174t96 115.5t127.5 65.5q-48 18 -94.5 56t-77.5 99t-31 147q0 96 44.5 170.5t121 117t172.5 42.5t172 -42.5t120 -117t44 -170.5q0 -129 -62.5 -200.5t-139.5 -101.5q68 -21 127.5 -65.5t96.5 -115.5t37 -174
q0 -104 -48.5 -190.5t-137 -138.5t-208.5 -52zM517 40q91 0 164.5 42t117.5 114t44 162q0 91 -44 163t-117.5 114t-164.5 42t-165.5 -42t-118 -114t-43.5 -163q0 -90 43.5 -162t118 -114t165.5 -42zM517 741q74 0 135 36.5t97.5 98t36.5 135.5t-36.5 135t-97.5 97.5
t-135 36.5t-136 -36.5t-98.5 -97.5t-36.5 -135t36.5 -135.5t98.5 -98t136 -36.5z" />
    <glyph glyph-name="nine" unicode="9" horiz-adv-x="1078" 
d="M528 477q-119 0 -215 57t-153 155.5t-57 222.5t60 221.5t160.5 154t220.5 56.5q124 0 222 -58t155 -160t57 -233t-47.5 -225t-115.5 -180l-386 -488h-82l458 571q-30 -34 -103 -64t-174 -30zM538 1282q-103 0 -187 -50.5t-134 -135t-50 -187.5t50 -187t134 -134t187 -50
t187.5 50t135 134t50.5 187t-50.5 187.5t-135 135t-187.5 50.5z" />
    <glyph glyph-name="colon" unicode=":" horiz-adv-x="488" 
d="M240 -24q-39 0 -66.5 27.5t-27.5 66.5q0 41 27.5 68.5t66.5 27.5q40 0 67.5 -27.5t27.5 -68.5q0 -39 -27.5 -66.5t-67.5 -27.5zM240 656q-39 0 -66.5 27.5t-27.5 66.5q0 41 27.5 68.5t66.5 27.5q40 0 67.5 -27.5t27.5 -68.5q0 -39 -27.5 -66.5t-67.5 -27.5z" />
    <glyph glyph-name="semicolon" unicode=";" horiz-adv-x="510" 
d="M225 658q-39 0 -66.5 27.5t-27.5 66.5q0 41 27.5 68.5t66.5 27.5q40 0 67.5 -27.5t27.5 -68.5q0 -39 -27.5 -66.5t-67.5 -27.5zM232 176q49 0 83.5 -35t34.5 -85q0 -61 -23.5 -112.5t-62 -90.5t-83.5 -63l-53 47q27 12 57.5 33.5t54.5 49.5t30 61q-23 -11 -48 -11
q-43 1 -71 32t-28 65q0 33 14 57.5t38.5 38t56.5 13.5z" />
    <glyph glyph-name="less" unicode="&#x3c;" horiz-adv-x="1067" 
d="M890 237v67l-746 362l746 361v69l-795 -392v-77z" />
    <glyph glyph-name="equal" unicode="=" horiz-adv-x="1005" 
d="M122 789v61h721v-61h-721zM122 482v60h721v-60h-721z" />
    <glyph glyph-name="greater" unicode="&#x3e;" horiz-adv-x="1067" 
d="M112 237v67l746 362l-746 361v69l795 -392v-77z" />
    <glyph glyph-name="question" unicode="?" horiz-adv-x="891" 
d="M390 312v291q0 56 23.5 82t68.5 54q50 32 104.5 77t92.5 105.5t38 136.5q0 111 -81 166.5t-210 55.5q-87 0 -151 -33t-102 -78t-48 -81l-59 30q3 18 20 46t47 59t73 58.5t98.5 45t122.5 17.5q112 0 191 -36.5t121 -100.5t42 -149q0 -81 -36 -145t-96.5 -117t-134.5 -103
q-39 -25 -49.5 -49.5t-10.5 -80.5v-251h-64zM422 -24q-39 0 -66.5 27.5t-27.5 66.5q0 41 27.5 68.5t66.5 27.5t66 -27.5t27 -68.5q0 -39 -27 -66.5t-66 -27.5z" />
    <glyph glyph-name="at" unicode="@" horiz-adv-x="1546" 
d="M757 -24q-147 0 -274.5 49.5t-224 140.5t-151 216.5t-54.5 278.5q0 152 58 277.5t159.5 216.5t232.5 140t278 49q140 0 262 -46t214.5 -130.5t144.5 -201.5t52 -259q0 -114 -44 -194.5t-110.5 -123t-134.5 -42.5q-91 0 -126.5 42.5t-35.5 106.5q-4 -40 -41 -80.5t-98 -68
t-138 -27.5q-107 0 -183 45t-116.5 120t-40.5 165t40.5 164t116.5 118t183 44q82 0 140.5 -29.5t91.5 -63t36 -46.5v115h64v-434q0 -15 7.5 -43t30 -51.5t67.5 -23.5q43 0 96 31.5t92 99.5t39 176q0 121 -46 225.5t-128.5 183.5t-193.5 123t-241 44q-127 0 -246 -45.5
t-213 -129t-149.5 -197.5t-55.5 -250q0 -135 52.5 -249t142.5 -198t205 -130.5t240 -46.5q111 0 200.5 31.5t152.5 77t93 86.5l55 -43q-35 -45 -106.5 -94.5t-171.5 -84t-223 -34.5zM726 379q129 0 199 83t70 196q0 77 -36 135t-97 91t-136 33q-120 0 -198 -76t-78 -191
q0 -113 74.5 -192t201.5 -79z" />
    <glyph glyph-name="A" unicode="A" horiz-adv-x="1086" 
d="M509 1320h77l460 -1320h-67l-129 362h-605l-131 -362h-68zM262 426h572l-285 811h-3z" />
    <glyph glyph-name="B" unicode="B" horiz-adv-x="1021" 
d="M126 1320h295q104 0 197.5 -27t152 -95t58.5 -193q0 -88 -35 -160t-83 -116t-87 -47q29 -1 74.5 -20.5t91.5 -58t77.5 -97t31.5 -138.5q0 -106 -39.5 -189.5t-124 -131t-221.5 -47.5h-388v1320zM187 62h355q121 0 184.5 45t87 114t23.5 139q0 118 -80 200.5t-235 82.5
h-335v-581zM187 704h306q95 0 155 46t89 114t29 133q0 143 -85.5 202t-227.5 59h-266v-554z" />
    <glyph glyph-name="C" unicode="C" horiz-adv-x="1242" 
d="M725 37q150 0 252.5 40t142.5 77l29 -56q-43 -40 -152.5 -81t-265.5 -41q-146 0 -268.5 53t-213 146.5t-140.5 217t-50 265.5t49.5 266.5t140 218.5t213.5 147.5t269 53.5q156 0 265.5 -41t152.5 -81l-29 -56q-40 38 -142.5 77.5t-252.5 39.5q-120 0 -227.5 -44
t-191.5 -126t-132 -196.5t-48 -255.5q0 -142 48 -257t132 -197t191.5 -126t227.5 -44z" />
    <glyph glyph-name="D" unicode="D" horiz-adv-x="1088" 
d="M123 1320h239q211 0 345 -84.5t197.5 -233.5t63.5 -341q0 -193 -63 -342t-197 -234t-346 -85h-239v1320zM184 1256v-1192h174q192 0 312 76t176.5 210t57.5 309t-55 309.5t-177 211t-314 76.5h-174z" />
    <glyph glyph-name="E" unicode="E" horiz-adv-x="1035" 
d="M134 1320h728v-64h-667v-562h648v-64h-648v-566h667v-64h-728v1320z" />
    <glyph glyph-name="F" unicode="F" horiz-adv-x="867" 
d="M126 1320h624v-64h-563v-562h528v-64h-528v-630h-61v1320z" />
    <glyph glyph-name="G" unicode="G" horiz-adv-x="1411" 
d="M661 699h661v-62q0 -135 -49 -254.5t-135.5 -211t-202 -143.5t-249.5 -52q-136 0 -252.5 54.5t-203 149.5t-134.5 218.5t-48 262.5q0 138 48 261.5t134.5 218.5t203 149t252.5 54q75 0 144.5 -17t132 -49.5t116 -77.5t95.5 -101l-46 -40q-76 101 -190 161t-252 60
q-124 0 -229 -49t-182.5 -134.5t-120 -197.5t-42.5 -238t42.5 -238t120 -198.5t182.5 -135.5t229 -49q122 0 224.5 47t179 129.5t120.5 190.5t48 230h-597v62z" />
    <glyph glyph-name="H" unicode="H" horiz-adv-x="1211" 
d="M978 630h-783v-630h-61v1320h61v-626h783v626h60v-1320h-60v630z" />
    <glyph glyph-name="I" unicode="I" horiz-adv-x="405" 
d="M152 1320h64v-1320h-64v1320z" />
    <glyph glyph-name="J" unicode="J" horiz-adv-x="742" 
d="M614 397q0 -129 -32.5 -223.5t-104 -146t-187.5 -51.5q-98 0 -160.5 28t-95 62.5t-40.5 51.5l43 52q10 -19 36 -50.5t78.5 -56.5t138.5 -25q103 0 160 49t79.5 128.5t22.5 170.5v934h62v-923z" />
    <glyph glyph-name="K" unicode="K" horiz-adv-x="890" 
d="M285 654l571 -654h-78l-564 637v-637h-64v1320h64v-659l533 659h77z" />
    <glyph glyph-name="L" unicode="L" horiz-adv-x="864" 
d="M126 1320h63v-1256h553v-64h-616v1320z" />
    <glyph glyph-name="M" unicode="M" horiz-adv-x="1333" 
d="M1150 1320v-1320h-62v1101l5 83l-23 -83l-400 -1053h-64l-400 1053l-22 83l5 -83v-1101h-63v1320h64l440 -1168l8 -35l8 35l442 1168h62z" />
    <glyph glyph-name="N" unicode="N" horiz-adv-x="1280" 
d="M195 1253h2v-1253h-63v1320h101l811 -1253h-1v1253h62v-1320h-101z" />
    <glyph glyph-name="O" unicode="O" horiz-adv-x="1411" 
d="M112 661q0 -176 74.5 -316.5t204 -222.5t295.5 -82q167 0 296 82t202.5 222.5t73.5 316.5t-73.5 316t-202.5 221.5t-296 81.5q-166 0 -295.5 -81.5t-204 -221.5t-74.5 -316zM48 661q0 144 48 268.5t134.5 217.5t203 145t252.5 52q137 0 252.5 -52t202 -145t134 -217.5
t47.5 -268.5q0 -145 -47.5 -269.5t-134 -218t-202 -145.5t-252.5 -52q-136 0 -252.5 52t-203 145.5t-134.5 218t-48 269.5z" />
    <glyph glyph-name="P" unicode="P" horiz-adv-x="978" 
d="M150 1320h284q121 0 218.5 -37t155.5 -119.5t58 -221.5q0 -138 -58 -224.5t-155.5 -127t-218.5 -40.5h-221v-550h-63v1320zM213 614h205q105 0 192 31t139.5 103t52.5 194q0 123 -52.5 191t-139.5 95.5t-192 27.5h-205v-642z" />
    <glyph glyph-name="Q" unicode="Q" horiz-adv-x="1379" 
d="M1064 -90q58 0 98.5 13t63 26.5t24.5 16.5l46 -59q-20 -13 -76.5 -38.5t-160.5 -25.5q-66 0 -114.5 14t-90 32.5t-84.5 32.5t-98 14q-61 0 -110.5 -24t-80 -48.5t-33.5 -28.5l-51 56q66 50 128 79.5t150 29.5q74 0 134.5 -22.5l121 -45t133.5 -22.5zM112 661
q0 -176 74.5 -316.5t204 -222.5t295.5 -82q167 0 296 82t202.5 222.5t73.5 316.5t-73.5 316t-202.5 221.5t-296 81.5q-166 0 -295.5 -81.5t-204 -221.5t-74.5 -316zM48 661q0 144 48 268.5t134.5 217.5t203 145t252.5 52q137 0 252.5 -52t202 -145t134 -217.5t47.5 -268.5
q0 -145 -47.5 -269.5t-134 -218t-202 -145.5t-252.5 -52q-136 0 -252.5 52t-203 145.5t-134.5 218t-48 269.5z" />
    <glyph glyph-name="R" unicode="R" horiz-adv-x="1046" 
d="M138 1320h396q100 0 185.5 -41.5t138 -123t52.5 -201.5t-52 -201t-125 -122t-136 -41l333 -590h-74l-323 586h-333v-586h-62v1320zM200 646h314q150 0 241 76t91 232t-91 229t-241 73h-314v-610z" />
    <glyph glyph-name="S" unicode="S" horiz-adv-x="1003" 
d="M485 1344q107 0 180.5 -25.5t114.5 -53.5t47 -36l-40 -56q-15 14 -52 39.5t-98 46.5t-149 21q-142 0 -223 -61t-81 -168q0 -72 42.5 -125.5t114 -96t157.5 -83.5q65 -31 133 -68t126.5 -86.5t94.5 -115.5t36 -154q0 -73 -29.5 -136t-85 -110.5t-133 -73.5t-173.5 -26
q-108 0 -197 29t-143.5 59.5t-59.5 34.5l45 59q13 -10 42.5 -29.5t74.5 -40t106 -34.5t137 -14q170 0 258.5 81.5t88.5 204.5q0 96 -57 163.5t-142.5 117.5t-173.5 92q-93 46 -168 94.5t-119 111t-44 148.5q0 83 48 149t132 104t190 38z" />
    <glyph glyph-name="T" unicode="T" horiz-adv-x="962" 
d="M429 1256h-392v64h848v-64h-392v-1256h-64v1256z" />
    <glyph glyph-name="U" unicode="U" horiz-adv-x="1218" 
d="M1011 1320h63v-827q0 -163 -66 -279t-175 -177t-239 -61t-240 61t-176 177t-66 279v827h62v-824q0 -137 57 -239.5t152.5 -159.5t210.5 -57t209.5 57t151 159.5t56.5 239.5v824z" />
    <glyph glyph-name="V" unicode="V" horiz-adv-x="1166" 
d="M606 0h-86l-494 1320h70l467 -1259l469 1259h70z" />
    <glyph glyph-name="W" unicode="W" horiz-adv-x="1493" 
d="M1128 0h-93l-328 1290h16l-328 -1290h-93l-257 1320h69l236 -1242h-1l318 1242h96l319 -1242h-2l237 1242h69z" />
    <glyph glyph-name="X" unicode="X" horiz-adv-x="1096" 
d="M579 710l469 -710h-77l-440 661l-445 -661h-76l473 710l-425 610h76l397 -560l392 560h77z" />
    <glyph glyph-name="Y" unicode="Y" horiz-adv-x="1026" 
d="M461 475l-434 845h74l392 -766l390 766h74l-432 -845v-475h-64v475z" />
    <glyph glyph-name="Z" unicode="Z" horiz-adv-x="1107" 
d="M157 1320h846l-816 -1256h773v-64h-896l822 1256h-729v64z" />
    <glyph glyph-name="bracketleft" unicode="[" horiz-adv-x="651" 
d="M128 -416v1792h355v-64h-291v-1664h291v-64h-355z" />
    <glyph glyph-name="backslash" unicode="\" horiz-adv-x="922" 
d="M813 0h-74l-659 1376h74z" />
    <glyph glyph-name="bracketright" unicode="]" horiz-adv-x="651" 
d="M451 -416v1792h-355v-64h291v-1664h-291v-64h355z" />
    <glyph glyph-name="asciicircum" unicode="^" horiz-adv-x="866" 
d="M758 968h-76l-268 334l-267 -334h-78l312 376h67z" />
    <glyph glyph-name="underscore" unicode="_" horiz-adv-x="797" 
d="M27 -126v62h736v-62h-736z" />
    <glyph glyph-name="grave" unicode="`" horiz-adv-x="693" 
d="M478 1002l-308 200l59 75l288 -226z" />
    <glyph glyph-name="a" unicode="a" horiz-adv-x="1008" 
d="M802 0v182q-6 -28 -46.5 -77.5t-112.5 -89t-171 -39.5q-109 0 -203.5 50t-152.5 147t-58 237t58 237t152.5 147.5t203.5 50.5q99 0 171.5 -38.5t114 -87.5t44.5 -81v183h62v-821h-62zM122 410q0 -116 50 -199t129 -127t165 -44q95 0 170 45t118.5 128t43.5 197t-43.5 197
t-118.5 128.5t-170 45.5q-86 0 -165 -44.5t-129 -127.5t-50 -199z" />
    <glyph glyph-name="b" unicode="b" horiz-adv-x="989" 
d="M120 0v1376h67v-738q4 34 47.5 83t119.5 86.5t176 37.5q110 0 200 -50.5t144 -147.5t54 -237t-54 -237t-144 -147t-200 -50q-101 0 -178 39t-121 88t-47 79v-182h-64zM862 410q0 116 -46 199t-120 127.5t-160 44.5q-95 0 -174.5 -45.5t-127 -128.5t-47.5 -197t47.5 -197
t127 -128t174.5 -45q86 0 160 44t120 127t46 199z" />
    <glyph glyph-name="c" unicode="c" horiz-adv-x="811" 
d="M461 40q96 0 153 29.5t69 39.5l39 -56q-6 -5 -42 -24t-94.5 -36t-132.5 -17q-88 0 -176.5 47.5t-148 144.5t-59.5 243q0 147 59.5 243t148 143.5t176.5 47.5q74 0 129.5 -19t90 -41t42.5 -31l-38 -56q-9 9 -35.5 29t-71.5 37t-109 17q-77 0 -153 -42.5t-125.5 -125
t-49.5 -202.5t49.5 -203t125.5 -125.5t153 -42.5z" />
    <glyph glyph-name="d" unicode="d" horiz-adv-x="989" 
d="M904 0v1376h-67v-738q-4 34 -47.5 83t-119.5 86.5t-176 37.5q-110 0 -200 -50.5t-144 -147.5t-54 -237t54 -237t144 -147t200 -50q101 0 178 39t121 88t47 79v-182h64zM162 410q0 116 46 199t120 127.5t160 44.5q95 0 174.5 -45.5t127 -128.5t47.5 -197t-47.5 -197
t-127 -128t-174.5 -45q-86 0 -160 44t-120 127t-46 199z" />
    <glyph glyph-name="e" unicode="e" horiz-adv-x="919" 
d="M126 416q0 -97 36 -183.5t110 -140.5t187 -54q91 0 149.5 31t92 72.5t46.5 72.5l59 -40q-40 -65 -89 -109.5t-112.5 -66.5t-148.5 -22q-129 0 -218 60.5t-134.5 162t-45.5 222.5q0 120 46.5 216t135 152t213.5 56q111 0 193.5 -51.5t128.5 -140.5t46 -203q0 -9 -1 -17.5
t-1 -16.5h-693zM750 480q-2 65 -29.5 135t-91.5 118.5t-176 48.5q-118 0 -186.5 -47t-99 -117t-36.5 -138h619z" />
    <glyph glyph-name="f" unicode="f" horiz-adv-x="610" 
d="M34 821h195v246q0 130 37 202t93 101.5t113 29.5q68 0 106 -19.5t43 -23.5l-31 -56q-6 5 -36.5 21.5t-87.5 16.5q-42 0 -82 -20.5t-66.5 -81.5t-26.5 -183v-233h259v-63h-259v-758h-62v758h-195v63z" />
    <glyph glyph-name="g" unicode="g" horiz-adv-x="1018" 
d="M482 -438q-106 0 -179.5 24t-119.5 60.5t-69 73.5l60 45q16 -25 47.5 -57.5t93 -56.5t167.5 -24t177 49.5t107 130.5t36 175v32h62v-38q0 -134 -51.5 -226.5t-138 -140t-192.5 -47.5zM802 0v182q-6 -28 -46.5 -77.5t-112.5 -89t-171 -39.5q-109 0 -203.5 50t-152.5 147
t-58 237t58 237t152.5 147.5t203.5 50.5q99 0 171.5 -38.5t114 -87.5t44.5 -81v183h62v-821h-62zM122 410q0 -116 50 -199t129 -127t165 -44q95 0 170 45t118.5 128t43.5 197t-43.5 197t-118.5 128.5t-170 45.5q-86 0 -165 -44.5t-129 -127.5t-50 -199z" />
    <glyph glyph-name="h" unicode="h" horiz-adv-x="970" 
d="M498 845q75 0 147 -33t118.5 -104.5t46.5 -185.5v-522h-66v501q0 151 -70 215.5t-178 64.5q-72 0 -139 -42t-110.5 -114t-43.5 -161v-464h-67v1376h67v-723q6 36 46.5 81t105.5 78t143 33z" />
    <glyph glyph-name="i" unicode="i" horiz-adv-x="405" 
d="M149 0v821h64v-821h-64zM182 1197q-27 0 -46 19t-19 46q0 28 19.5 47t45.5 19q18 0 33.5 -9t25 -23.5t9.5 -33.5q0 -27 -20 -46t-48 -19z" />
    <glyph glyph-name="j" unicode="j" horiz-adv-x="427" 
d="M51 -440q-48 0 -82 12.5t-47 24.5l40 54q11 -10 28.5 -18.5t59.5 -8.5q59 0 87 36.5t36.5 101.5t8.5 150v909h64v-947q0 -98 -17 -168.5t-59.5 -108t-118.5 -37.5zM221 1197q-28 0 -47 19t-19 46q0 18 9 33t24 24t33 9q19 0 33.5 -9t23 -24t8.5 -33q0 -27 -18.5 -46
t-46.5 -19z" />
    <glyph glyph-name="k" unicode="k" horiz-adv-x="723" 
d="M576 821h96l-454 -391l473 -430h-96l-435 392v-392h-64v1376h64v-914z" />
    <glyph glyph-name="l" unicode="l" horiz-adv-x="373" 
d="M200 0h-66v1376h66v-1376z" />
    <glyph glyph-name="m" unicode="m" horiz-adv-x="1424" 
d="M986 845q90 0 149.5 -40.5t89 -122.5t29.5 -208v-474h-64v448q0 174 -46.5 252.5t-162.5 78.5q-57 0 -115.5 -32.5t-98 -105t-39.5 -193.5v-448h-64v448q0 174 -60.5 252.5t-153.5 78.5q-58 0 -115 -31t-94.5 -103.5t-37.5 -196.5v-448h-64v821h64v-133q10 31 43.5 67.5
t89 63t128.5 26.5q76 0 126.5 -37.5t77.5 -87.5t31 -88q15 50 53.5 99t98 81.5t135.5 32.5z" />
    <glyph glyph-name="n" unicode="n" horiz-adv-x="954" 
d="M493 845q75 0 147 -33t118.5 -104.5t46.5 -185.5v-522h-66v501q0 151 -70 215.5t-178 64.5q-72 0 -139 -42t-110.5 -114t-43.5 -161v-464h-64v821h64v-168q6 36 47 81t106 78t142 33z" />
    <glyph glyph-name="o" unicode="o" horiz-adv-x="978" 
d="M470 -24q-120 0 -213 58t-146 156t-53 218t53 219.5t146 158.5t213 59t212.5 -59t145 -158.5t52.5 -219.5t-52.5 -218t-145 -156t-212.5 -58zM470 40q104 0 182 48.5t121 132t43 187.5t-43 188.5t-121 134.5t-182 50t-182.5 -50t-122 -134.5t-43.5 -188.5t43.5 -187.5
t122 -132t182.5 -48.5z" />
    <glyph glyph-name="p" unicode="p" horiz-adv-x="1021" 
d="M195 -416h-65v1237h68v-183q4 34 47 83t118.5 86.5t175.5 37.5q110 0 200.5 -50.5t145 -147.5t54.5 -237t-54.5 -237t-145 -147t-200.5 -50q-100 0 -176.5 39t-120 88t-47.5 79v-598zM874 410q0 116 -46.5 199t-121 127.5t-160.5 44.5q-95 0 -174.5 -45.5t-126.5 -128.5
t-47 -197t47 -197t126.5 -128t174.5 -45q86 0 160.5 44t121 127t46.5 199z" />
    <glyph glyph-name="q" unicode="q" horiz-adv-x="1021" 
d="M826 -416h65v1237h-68v-183q-4 34 -47 83t-118.5 86.5t-175.5 37.5q-110 0 -200.5 -50.5t-145 -147.5t-54.5 -237t54.5 -237t145 -147t200.5 -50q100 0 176.5 39t120 88t47.5 79v-598zM147 410q0 116 46.5 199t121 127.5t160.5 44.5q95 0 174.5 -45.5t126.5 -128.5
t47 -197t-47 -197t-126.5 -128t-174.5 -45q-86 0 -160.5 44t-121 127t-46.5 199z" />
    <glyph glyph-name="r" unicode="r" horiz-adv-x="621" 
d="M203 0h-62v821h62v-154h-5q3 27 35.5 69t89 75.5t130.5 33.5q58 0 98 -14t54 -28l-31 -57q-14 11 -49 23t-85 12q-70 0 -123.5 -50t-83.5 -119t-30 -126v-486z" />
    <glyph glyph-name="s" unicode="s" horiz-adv-x="758" 
d="M379 845q51 0 97 -12.5t82 -31t56 -35.5l-43 -52q-22 21 -74 44t-118 23q-88 0 -150.5 -38t-62.5 -109q0 -69 62.5 -109.5t161.5 -66.5q74 -19 131.5 -46.5t90.5 -73t33 -120.5q0 -60 -24 -105.5t-66.5 -75.5t-98.5 -45.5t-120 -15.5q-61 0 -114.5 14.5t-93.5 35.5
t-62 40l46 59q26 -28 86 -56.5t143 -28.5q101 0 168 49.5t67 128.5q0 59 -32 94t-83 55.5t-107 34.5q-54 14 -100.5 33t-81.5 46.5t-54.5 65.5t-19.5 88q0 62 38 109t102 74t141 27z" />
    <glyph glyph-name="t" unicode="t" horiz-adv-x="608" 
d="M53 821h179v337h64v-337h234v-64h-234v-555q0 -91 34 -126.5t80 -35.5q47 0 70 16t27 21l39 -53q-5 -5 -22 -17t-45.5 -21.5t-70.5 -9.5q-73 0 -124.5 49.5t-51.5 160.5v571h-179v64z" />
    <glyph glyph-name="u" unicode="u" horiz-adv-x="962" 
d="M181 379q0 -156 70.5 -247.5t209.5 -91.5t209.5 91.5t70.5 247.5v442h64v-459q0 -110 -40 -197.5t-116.5 -138t-187.5 -50.5q-110 0 -187 50.5t-117 138t-40 197.5v459h64v-442z" />
    <glyph glyph-name="v" unicode="v" horiz-adv-x="904" 
d="M35 821h69l328 -757l326 757h69l-357 -821h-76z" />
    <glyph glyph-name="w" unicode="w" horiz-adv-x="1211" 
d="M586 733l-223 -733h-96l-182 821h69l163 -746l221 730h96l220 -730l165 746h69l-182 -821h-96z" />
    <glyph glyph-name="x" unicode="x" horiz-adv-x="942" 
d="M494 429l362 -429h-83l-322 389l-320 -389h-83l360 429l-323 392h83l283 -347l285 347h83z" />
    <glyph glyph-name="y" unicode="y" horiz-adv-x="835" 
d="M402 70l323 751h70l-545 -1237h-69l184 416l-335 821h71z" />
    <glyph glyph-name="z" unicode="z" horiz-adv-x="794" 
d="M83 821h634l-560 -757h549v-64h-671l560 757h-512v64z" />
    <glyph glyph-name="braceleft" unicode="{" horiz-adv-x="674" 
d="M126 514q82 0 107.5 45t25.5 100v507q0 68 14.5 115t52.5 71t108 24h75v-64h-75q-57 0 -83 -25.5t-26 -83.5v-552q0 -67 -30.5 -117t-86.5 -56q56 -7 86.5 -55t30.5 -114v-552q0 -44 19.5 -76.5t89.5 -32.5h75v-64h-75q-70 0 -108 24t-52.5 71t-14.5 115v507
q0 55 -25.5 101t-107.5 46v66z" />
    <glyph glyph-name="bar" unicode="|" horiz-adv-x="349" 
d="M184 -242h-61v1650h61v-1650z" />
    <glyph glyph-name="braceright" unicode="}" horiz-adv-x="786" 
d="M604 514q-82 0 -107.5 45t-25.5 100v507q0 68 -14.5 115t-52.5 71t-108 24h-75v-64h75q57 0 83 -25.5t26 -83.5v-552q0 -67 30.5 -117t86.5 -56q-56 -7 -86.5 -55t-30.5 -114v-552q0 -44 -19.5 -76.5t-89.5 -32.5h-75v-64h75q70 0 108 24t52.5 71t14.5 115v507
q0 55 25.5 101t107.5 46v66z" />
    <glyph glyph-name="asciitilde" unicode="~" horiz-adv-x="1182" 
d="M1030 736q-20 -41 -58.5 -86.5t-91.5 -77t-118 -31.5q-64 0 -112.5 28t-89.5 64t-83.5 64t-95.5 28q-48 0 -87 -25.5t-66.5 -62.5t-41.5 -72l-74 29q20 42 58.5 87t92 76.5t118.5 31.5q66 0 115 -28t90 -64t83.5 -64t95.5 -28q49 0 88 25t67.5 62t42.5 71z" />
    <glyph glyph-name="uni00A0" unicode="&#xa0;" horiz-adv-x="472" 
 />
    <glyph glyph-name="exclamdown" unicode="&#xa1;" horiz-adv-x="630" 
d="M288 1010l-18 -1064h84l-20 1064h-46zM310 1346q-26 0 -47.5 -12.5t-34 -34t-12.5 -47.5q0 -41 27.5 -68.5t66.5 -27.5q40 0 67.5 27.5t27.5 68.5q0 39 -27.5 66.5t-67.5 27.5z" />
    <glyph glyph-name="cent" unicode="&#xa2;" horiz-adv-x="811" 
d="M427 1018h59v-228h-59v228zM427 21h59v-227h-59v227zM461 40q96 0 153 29.5t69 39.5l39 -56q-6 -5 -42 -24t-94.5 -36t-132.5 -17q-88 0 -176.5 47.5t-148 144.5t-59.5 243q0 147 59.5 243t148 143.5t176.5 47.5q74 0 129.5 -19t90 -41t42.5 -31l-38 -56q-9 9 -35.5 29
t-71.5 37t-109 17q-77 0 -153 -42.5t-125.5 -125t-49.5 -202.5t49.5 -203t125.5 -125.5t153 -42.5z" />
    <glyph glyph-name="sterling" unicode="&#xa3;" horiz-adv-x="1190" 
d="M314 579q-4 7 -20 47t-35.5 99t-34 124.5t-14.5 123.5q0 99 40 184t126.5 137t226.5 52q108 0 189 -39.5t134.5 -96t75.5 -108.5l-56 -33q-18 46 -63.5 95t-115.5 83.5t-164 34.5q-152 0 -240.5 -79.5t-88.5 -231.5q0 -48 13.5 -109t32.5 -120t36.5 -103.5t24.5 -59.5
q30 -80 42 -127.5t12 -101.5q0 -51 -11 -92.5t-14 -52.5q53 -6 101 -31.5t96 -56.5t98.5 -54t107.5 -23q61 0 101.5 25.5t63 62t27.5 70.5l59 -25q-13 -42 -46 -88t-84.5 -77.5t-122.5 -31.5q-74 0 -130 27t-104 62.5t-97.5 62.5t-111.5 27q-56 0 -97.5 -30t-64.5 -66.5
t-25 -58.5h-67q5 45 40.5 94t88 83t106.5 34q4 11 14 50t10 89q0 59 -14.5 111t-44.5 118zM114 608h702v-62h-702v62z" />
    <glyph glyph-name="currency" unicode="&#xa4;" horiz-adv-x="938" 
d="M878 1024l42 -42l-160 -161l-43 43zM173 320l43 -43l-162 -160l-41 41zM54 1024l162 -160l-43 -43l-160 161zM760 320l160 -162l-42 -41l-161 160zM470 136q-120 0 -213 58t-146 156t-53 218t53 219.5t146 158.5t213 59t212.5 -59t145 -158.5t52.5 -219.5t-52.5 -218
t-145 -156t-212.5 -58zM470 200q104 0 182 48.5t121 132t43 187.5t-43 188.5t-121 134.5t-182 50t-182.5 -50t-122 -134.5t-43.5 -188.5t43.5 -187.5t122 -132t182.5 -48.5z" />
    <glyph glyph-name="yen" unicode="&#xa5;" horiz-adv-x="1026" 
d="M74 576h838v-62h-838v62zM74 370h838v-63h-838v63zM461 475l-434 845h74l392 -766l390 766h74l-432 -845v-475h-64v475z" />
    <glyph glyph-name="brokenbar" unicode="&#xa6;" horiz-adv-x="349" 
d="M176 845h-45v531h45v-531zM176 0h-45v531h45v-531z" />
    <glyph glyph-name="section" unicode="&#xa7;" horiz-adv-x="1096" 
d="M477 -440q-101 0 -176 37.5t-122 92t-65 104.5l59 28q13 -43 50.5 -89.5t101 -79t152.5 -32.5q123 0 193 36.5t99 97t29 131.5q0 88 -45 146.5t-121 100t-168 77.5q-154 60 -234.5 127.5t-80.5 176.5q0 75 42 129t96 86.5t91 41.5q-49 35 -93 73.5t-71.5 91.5t-27.5 130
q0 73 39.5 136t118 102.5t194.5 39.5q96 0 164.5 -35t110.5 -85.5t56 -97.5l-48 -35q-13 42 -48.5 87t-93 76t-138.5 31q-130 0 -211.5 -59t-81.5 -151q0 -89 47 -149.5t117.5 -100t139.5 -67.5q99 -40 178 -82.5t125.5 -101t46.5 -147.5q0 -70 -31 -122.5t-76.5 -87.5
t-88.5 -55q75 -43 116.5 -113.5t41.5 -154.5q0 -51 -17.5 -109t-60 -109t-118 -83.5t-191.5 -32.5zM440 739q-50 -14 -103 -43t-88.5 -74.5t-35.5 -111.5q0 -81 70.5 -136.5t164.5 -93.5q77 -31 128 -52.5t78 -32.5q28 9 72 39t79 79.5t35 118.5q0 61 -42 110t-110.5 88
t-149.5 71q-19 7 -41 15.5t-38 15t-19 7.5z" />
    <glyph glyph-name="dieresis" unicode="&#xa8;" horiz-adv-x="970" 
d="M275 1192q29 0 51.5 -22t22.5 -52t-22.5 -51.5t-51.5 -21.5q-30 0 -51.5 22.5t-21.5 50.5q0 29 21.5 51.5t51.5 22.5zM654 1192q29 0 51.5 -22t22.5 -52t-22.5 -51.5t-51.5 -21.5q-30 0 -51.5 22.5t-21.5 50.5q0 29 21.5 51.5t51.5 22.5z" />
    <glyph glyph-name="copyright" unicode="&#xa9;" horiz-adv-x="1514" 
d="M53 659q0 142 53 266t147.5 218t218 147.5t264.5 53.5q142 0 266 -53.5t218 -147.5t147.5 -218t53.5 -266q0 -141 -53.5 -264.5t-147.5 -218t-218 -147.5t-266 -53q-141 0 -264.5 53t-218 147.5t-147.5 218t-53 264.5zM106 659q0 -129 49 -243t136 -201t201 -136.5
t244 -49.5t244.5 49.5t201.5 136.5t136.5 201t49.5 243q0 130 -49.5 244.5t-136.5 201.5t-201.5 136.5t-244.5 49.5t-244 -49.5t-201 -136.5t-136 -201.5t-49 -244.5zM739 872q56 0 96.5 -17t57.5 -33l25 52q-2 3 -47.5 27t-129.5 24q-83 0 -147.5 -36.5t-101 -100
t-36.5 -143.5q0 -76 36.5 -138t101 -99t147.5 -37q37 0 71 7.5t62 19t44 21.5l-24 48q-16 -13 -57 -27t-95 -14q-97 0 -162.5 57t-65.5 165q0 106 64 165t161 59z" />
    <glyph glyph-name="ordfeminine" unicode="&#xaa;" horiz-adv-x="818" 
d="M138 1075q0 88 36 147.5t94.5 90.5t126.5 31q80 0 127.5 -34.5t48.5 -56.5v77l71 -2v-507h-69v78h-2q0 -12 -21.5 -34.5t-60.5 -41t-94 -18.5q-68 0 -126.5 31t-94.5 91t-36 148zM202 1075q0 -96 56 -148.5t123 -52.5q80 0 136.5 57.5t56.5 143.5q0 88 -57.5 144
t-135.5 56q-68 0 -123.5 -52.5t-55.5 -147.5z" />
    <glyph glyph-name="guillemotleft" unicode="&#xab;" horiz-adv-x="928" 
d="M403 123l-38 -32l-279 354l279 352l38 -29l-259 -323zM768 123l-40 -32l-277 354l277 352l40 -29l-259 -323z" />
    <glyph glyph-name="logicalnot" unicode="&#xac;" horiz-adv-x="779" 
d="M627 486v-288h-61v228h-454v60h515z" />
    <glyph glyph-name="uni00AD" unicode="&#xad;" horiz-adv-x="779" 
d="M112 426v60h515v-60h-515z" />
    <glyph glyph-name="registered" unicode="&#xae;" horiz-adv-x="862" 
d="M53 984q0 99 48.5 180.5t129.5 130.5t179 49q100 0 181.5 -49t130 -130.5t48.5 -180.5q0 -98 -48.5 -179.5t-130 -129.5t-181.5 -48q-98 0 -179 48t-129.5 129.5t-48.5 179.5zM106 984q0 -85 41 -154t110.5 -109.5t152.5 -40.5q86 0 155.5 40.5t110.5 109.5t41 154
t-41 154.5t-110.5 111t-155.5 41.5q-83 0 -152.5 -41.5t-110.5 -111t-41 -154.5zM318 1152h100q47 0 77.5 -25t30.5 -73q0 -38 -17 -61.5t-47 -34.5l77 -137h-54l-69 131h-48v-131h-50v331zM368 992h42q31 0 49 14t18 48q0 35 -22 43.5t-52 8.5h-35v-114z" />
    <glyph glyph-name="macron" unicode="&#xaf;" horiz-adv-x="949" 
d="M189 1078v64h533v-64h-533z" />
    <glyph glyph-name="degree" unicode="&#xb0;" horiz-adv-x="578" 
d="M139 1235q0 56 38 90.5t92 34.5t91.5 -34.5t37.5 -90.5q0 -55 -36.5 -90t-92.5 -35q-58 0 -94 35t-36 90zM184 1235q0 -34 24 -58.5t61 -24.5q36 0 61 24.5t25 58.5q0 35 -25 58.5t-61 23.5q-35 0 -60 -23.5t-25 -58.5z" />
    <glyph glyph-name="plusminus" unicode="&#xb1;" horiz-adv-x="1085" 
d="M554 770v-381h-61v381h-381v60h381v380h61v-380h379v-60h-379zM119.421 149v61h806.763v-61h-806.763z" />
    <glyph glyph-name="uni00B2" unicode="&#xb2;" horiz-adv-x="462" 
d="M254.648 1319.28q-37.3711 0 -65.2051 -13.625t-46.3242 -31.9209q-18.4912 -18.2959 -27.834 -32.8945q-9.34277 -14.5977 -10.1211 -16.1553l-24.1357 9.34277q0.77832 1.94629 7.39648 13.625t20.0479 27.834q13.4307 16.1553 33.8672 31.9209
q20.4375 15.7656 48.4658 26.2764t63.8428 10.5107q31.9209 0 58.0029 -8.36914q26.082 -8.37012 45.1562 -26.082q19.0752 -17.7129 29.3916 -45.9355q10.3154 -28.2227 10.3154 -67.9297q0 -32.3105 -17.3232 -68.9033q-17.3223 -36.5928 -44.9619 -73.7686
q-27.6387 -37.1768 -59.7549 -71.4336q-32.1152 -34.2568 -62.4795 -62.6738q-30.3643 -28.418 -52.9424 -47.4932q-22.5781 -19.0742 -30.3643 -25.6924h263.544v-24.9141h-307.144v22.9678q17.1289 14.0137 44.5732 36.9814t59.7549 52.5537
q32.3096 29.585 64.0361 62.8691q31.7266 33.2832 58.3926 67.9297q26.666 34.6455 42.627 68.124q15.96 33.4785 15.96 63.0635q0 68.9033 -30.3643 96.3477q-30.3633 27.4443 -86.4199 27.4443z" />
    <glyph glyph-name="uni00B3" unicode="&#xb3;" horiz-adv-x="426" 
d="M66.1719 1273.66q1.18848 3.56641 9.50977 15.4541q8.32031 11.8867 24.9629 25.5566q16.6416 13.6709 42.9922 23.7744q26.3496 10.1045 63.5957 10.1045q50.3232 0 83.0127 -18.623q32.6904 -18.623 48.7373 -49.1338q16.0479 -30.5107 16.0479 -66.5684
q0 -33.6807 -13.8682 -60.4268t-36.0576 -43.1904t-47.1533 -19.6143q24.9639 -1.58398 50.5215 -17.0381q25.5566 -15.4531 42.7939 -43.3877q17.2363 -27.9355 17.2363 -67.9551q0 -43.5869 -20.208 -79.0508q-20.209 -35.4629 -56.6631 -56.2656t-85.9834 -20.8027
q-45.1719 0 -77.6641 15.0566q-32.4912 15.0576 -52.501 36.8506q-20.0107 21.7939 -27.9355 42.002l22.9824 13.8682q6.73535 -17.8311 23.7744 -36.8506q17.0381 -19.0195 44.7754 -32.293q27.7363 -13.2744 65.7754 -13.2744q43.9824 0 74.4932 17.8311t46.1621 47.5488
t15.6514 65.3799q0 40.416 -19.416 65.7754t-50.5205 37.4443q-31.1045 12.0859 -66.3701 12.0859h-10.3027v24.5664h13.4727q31.3027 0 59.04 13.0762q27.7363 13.0762 44.9727 37.8408q17.2373 24.7656 17.2373 59.6348q0 45.9629 -30.3125 78.0586t-92.9189 32.0957
q-32.8877 0 -55.0771 -8.91504q-22.1895 -8.91602 -35.0674 -20.8027q-12.8779 -11.8877 -18.623 -21.1992t-5.74512 -10.1045z" />
    <glyph glyph-name="acute" unicode="&#xb4;" horiz-adv-x="978" 
d="M318 1002l-38 49l286 226l61 -75z" />
    <glyph glyph-name="uni00B5" unicode="&#xb5;" horiz-adv-x="962" 
d="M117 821h64v-1213h-64v1213zM181 379q0 -156 70.5 -247.5t209.5 -91.5t209.5 91.5t70.5 247.5v442h64v-459q0 -110 -40 -197.5t-116.5 -138t-187.5 -50.5q-110 0 -187 50.5t-117 138t-40 197.5v459h64v-442z" />
    <glyph glyph-name="paragraph" unicode="&#xb6;" horiz-adv-x="941" 
d="M757 0h-55v1254h-128v-1254h-54v650h-54q-104 0 -176.5 33t-117.5 85t-65.5 112t-20.5 114q0 73 37.5 148t121 126.5t221.5 51.5h291v-1320z" />
    <glyph glyph-name="periodcentered" unicode="&#xb7;" horiz-adv-x="488" 
d="M240 333q-39 0 -66.5 27.5t-27.5 66.5q0 41 27.5 68.5t66.5 27.5q40 0 67.5 -27.5t27.5 -68.5q0 -39 -27.5 -66.5t-67.5 -27.5z" />
    <glyph glyph-name="cedilla" unicode="&#xb8;" horiz-adv-x="786" 
d="M350 42l55 -28l-55 -160q41 15 96.5 11t97.5 -32t42 -86q0 -56 -32.5 -93t-81 -55t-96.5 -18q-56 0 -106.5 17.5t-75.5 33.5l43 54q19 -14 57.5 -29t81.5 -15q59 0 100 25t41 67q0 41 -27.5 60.5t-73.5 19.5q-31 0 -59 -4.5t-42 -9.5l-41 22z" />
    <glyph glyph-name="uni00B9" unicode="&#xb9;" horiz-adv-x="242" 
d="M144.123 1293.49l-92.7568 -55.6543v26.123l93.8936 56.791h23.0938v-499.754h-24.2305v472.494z" />
    <glyph glyph-name="ordmasculine" unicode="&#xba;" horiz-adv-x="842" 
d="M136 1074q0 79 39.5 140t101 95.5t126.5 34.5q64 0 124.5 -34.5t99.5 -95.5t39 -140q0 -78 -37.5 -138.5t-97.5 -95t-128 -34.5q-72 0 -132.5 34.5t-97.5 95t-37 138.5zM208 1074q0 -90 57.5 -149t136.5 -59q75 0 135 59t60 149q0 62 -28.5 109t-73.5 73.5t-93 26.5
t-92.5 -26.5t-73 -73.5t-28.5 -109z" />
    <glyph glyph-name="guillemotright" unicode="&#xbb;" horiz-adv-x="928" 
d="M450 123l38 -32l279 354l-279 352l-38 -29l259 -323zM85 123l40 -32l277 354l-277 352l-40 -29l259 -323z" />
    <glyph glyph-name="onequarter" unicode="&#xbc;" horiz-adv-x="1312" 
d="M995 1320h46l-768 -1320h-46zM272.832 1281.33l-143.57 -86.1416v40.4336l145.328 87.8994h35.7461v-773.518h-37.5039v731.326zM1099.82 769.973v-570.479h87.4971v-37.332h-87.4971v-162.161h-37.332v162.161h-329.571v35.582l336.571 572.229h30.332zM1062.49 199.493
v480.649v0l-282.906 -480.649h282.906z" />
    <glyph glyph-name="onehalf" unicode="&#xbd;" horiz-adv-x="1458" 
d="M1010 1320h46l-768 -1320h-46zM1119.45 744.844q-56.2383 0 -98.124 -20.5039q-41.8857 -20.5029 -69.7119 -48.0361q-27.8262 -27.5342 -41.8857 -49.502t-15.2314 -24.3115l-36.3203 14.0596q1.17188 2.92969 11.1309 20.5039q9.95801 17.5742 30.1689 41.8857
t50.9658 48.0371q30.7559 23.7256 72.9346 39.542q42.1787 15.8174 96.0732 15.8174q48.0371 0 87.2871 -12.5947q39.249 -12.5957 67.9541 -39.25t44.2295 -69.126q15.5234 -42.4717 15.5234 -102.225q0 -48.623 -26.0684 -103.689q-26.0693 -55.0664 -67.6621 -111.013
q-41.5928 -55.9453 -89.9219 -107.497q-48.3301 -51.5518 -94.0234 -94.3164q-45.6943 -42.7637 -79.6709 -71.4688q-33.9775 -28.7051 -45.6943 -38.6641h396.598v-37.4922h-462.209v34.5635q25.7764 21.0889 67.0762 55.6523q41.2998 34.5625 89.9229 79.085
q48.623 44.5215 96.3662 94.6094q47.7441 50.0869 87.873 102.225q40.1279 52.1377 64.1465 102.518t24.0186 94.9023q0 103.689 -45.6934 144.989q-45.6943 41.2998 -130.052 41.2998zM288.832 1281.33l-143.57 -86.1416v40.4336l145.328 87.8994h35.7461v-773.518
h-37.5039v731.326z" />
    <glyph glyph-name="threequarters" unicode="&#xbe;" horiz-adv-x="1483" 
d="M1184 1320h46l-768 -1320h-46zM117.428 1235.02q1.74805 5.24414 13.9854 22.7256q12.2363 17.4814 36.71 37.584q24.4736 20.1035 63.2236 34.9619q38.749 14.8594 93.5234 14.8594q74.0029 0 122.076 -27.3867q48.0732 -27.3877 71.6729 -72.2559
q23.5996 -44.8672 23.5996 -97.8936q0 -49.5303 -20.3945 -88.8623q-20.3955 -39.332 -53.0264 -63.5146q-32.6318 -24.1816 -69.3418 -28.8438q36.71 -2.33105 74.2949 -25.0557q37.584 -22.7256 62.9316 -63.8066q25.3477 -41.0801 25.3477 -99.9336
q0 -64.0967 -29.7178 -116.249q-29.7178 -52.1514 -83.3262 -82.7432q-53.6094 -30.5918 -126.447 -30.5918q-66.4277 0 -114.209 22.1426q-47.7822 22.1426 -77.208 54.1914q-29.4268 32.0479 -41.0811 61.7656l33.7969 20.3945q9.90625 -26.2207 34.9619 -54.1904
q25.0566 -27.9697 65.8457 -47.4902t96.7285 -19.5205q64.6797 0 109.548 26.2207q44.8682 26.2217 67.8848 69.9248q23.0176 43.7021 23.0176 96.1455q0 59.4355 -28.5527 96.7285t-74.2949 55.0654t-97.6025 17.7725h-15.1504v36.1279h19.8115q46.0342 0 86.8232 19.2295
q40.7891 19.2285 66.1367 55.6475t25.3477 87.6973q0 67.5938 -44.5771 114.792q-44.5762 47.1992 -136.644 47.1992q-48.3643 0 -80.9951 -13.1104q-32.6318 -13.1113 -51.5693 -30.5928q-18.9385 -17.4805 -27.3877 -31.1738t-8.44922 -14.8594zM1255.82 769.973v-570.479
h87.4971v-37.332h-87.4971v-162.161h-37.332v162.161h-329.571v35.582l336.571 572.229h30.332zM1218.49 199.493v480.649v0l-282.906 -480.649h282.906z" />
    <glyph glyph-name="questiondown" unicode="&#xbf;" horiz-adv-x="891" 
d="M428 1010v-291q0 -56 -23.5 -82t-68.5 -54q-50 -32 -104.5 -77t-92.5 -105.5t-38 -136.5q0 -111 81 -166.5t210 -55.5q87 0 151 33t102 78t48 81l59 -30q-3 -18 -20 -46t-47 -59t-73 -58.5t-98.5 -45t-122.5 -17.5q-112 0 -191 36.5t-121 100.5t-42 149q0 81 36 145
t96.5 117t134.5 103q39 25 49.5 49.5t10.5 80.5v251h64zM396 1346q39 0 66.5 -27.5t27.5 -66.5q0 -41 -27.5 -68.5t-66.5 -27.5t-66 27.5t-27 68.5q0 39 27 66.5t66 27.5z" />
    <glyph glyph-name="Agrave" unicode="&#xc0;" horiz-adv-x="1086" 
d="M509 1320h77l460 -1320h-67l-129 362h-605l-131 -362h-68zM262 426h572l-285 811h-3zM603 1376l-308 200l59 75l288 -226z" />
    <glyph glyph-name="Aacute" unicode="&#xc1;" horiz-adv-x="1086" 
d="M509 1320h77l460 -1320h-67l-129 362h-605l-131 -362h-68zM262 426h572l-285 811h-3zM473 1376l-39 49l288 226l59 -75z" />
    <glyph glyph-name="Acircumflex" unicode="&#xc2;" horiz-adv-x="1086" 
d="M509 1320h77l460 -1320h-67l-129 362h-605l-131 -362h-68zM262 426h572l-285 811h-3zM341 1409l-49 65l254 186l255 -187l-48 -66l-207 152z" />
    <glyph glyph-name="Atilde" unicode="&#xc3;" horiz-adv-x="1086" 
d="M509 1320h77l460 -1320h-67l-129 362h-605l-131 -362h-68zM262 426h572l-285 811h-3zM441 1492q-38 0 -63.5 -26t-34.5 -51h-96q10 34 32.5 69.5t56.5 60.5t78 25q60 0 97 -19.5t69.5 -39t78.5 -19.5q41 0 63.5 26.5t28.5 51.5h96q-11 -33 -34.5 -69t-58.5 -61t-79 -25
q-60 0 -98.5 19.5t-69 38.5t-66.5 19z" />
    <glyph glyph-name="Adieresis" unicode="&#xc4;" horiz-adv-x="1086" 
d="M509 1320h77l460 -1320h-67l-129 362h-605l-131 -362h-68zM262 426h572l-285 811h-3zM357 1566q29 0 51.5 -22t22.5 -52t-22.5 -51.5t-51.5 -21.5q-30 0 -51.5 22.5t-21.5 50.5q0 29 21.5 51.5t51.5 22.5zM736 1566q29 0 51.5 -22t22.5 -52t-22.5 -51.5t-51.5 -21.5
q-30 0 -51.5 22.5t-21.5 50.5q0 29 21.5 51.5t51.5 22.5z" />
    <glyph glyph-name="Aring" unicode="&#xc5;" horiz-adv-x="1086" 
d="M509 1320h77l460 -1320h-67l-129 362h-605l-131 -362h-68zM262 426h572l-285 811h-3zM385 1526q0 62 47.5 104t114.5 42q68 0 114.5 -42t46.5 -104q0 -64 -45 -104.5t-116 -40.5q-73 0 -117.5 40.5t-44.5 104.5zM457 1526q0 -43 27.5 -67t62.5 -24q38 0 63.5 24t25.5 67
q0 44 -25.5 67.5t-63.5 23.5q-35 0 -62.5 -23.5t-27.5 -67.5z" />
    <glyph glyph-name="AE" unicode="&#xc6;" horiz-adv-x="1603" 
d="M774 1320h79l14 -958h-566l-207 -362h-67zM330 426h483v824l-3 16zM804 1320h728v-64h-667v-562h648v-64h-648v-566h667v-64h-728v1320z" />
    <glyph glyph-name="Ccedilla" unicode="&#xc7;" horiz-adv-x="1242" 
d="M725 37q150 0 252.5 40t142.5 77l29 -56q-43 -40 -152.5 -81t-265.5 -41q-146 0 -268.5 53t-213 146.5t-140.5 217t-50 265.5t49.5 266.5t140 218.5t213.5 147.5t269 53.5q156 0 265.5 -41t152.5 -81l-29 -56q-40 38 -142.5 77.5t-252.5 39.5q-120 0 -227.5 -44
t-191.5 -126t-132 -196.5t-48 -255.5q0 -142 48 -257t132 -197t191.5 -126t227.5 -44zM701 42l55 -28l-55 -160q41 15 96.5 11t97.5 -32t42 -86q0 -56 -32.5 -93t-81 -55t-96.5 -18q-56 0 -106.5 17.5t-75.5 33.5l43 54q19 -14 57.5 -29t81.5 -15q59 0 100 25t41 67
q0 41 -27.5 60.5t-73.5 19.5q-31 0 -59 -4.5t-42 -9.5l-41 22z" />
    <glyph glyph-name="Egrave" unicode="&#xc8;" horiz-adv-x="1035" 
d="M134 1320h728v-64h-667v-562h648v-64h-648v-566h667v-64h-728v1320zM563 1376l-308 200l59 75l288 -226z" />
    <glyph glyph-name="Eacute" unicode="&#xc9;" horiz-adv-x="1035" 
d="M134 1320h728v-64h-667v-562h648v-64h-648v-566h667v-64h-728v1320zM433 1376l-39 49l288 226l59 -75z" />
    <glyph glyph-name="Ecircumflex" unicode="&#xca;" horiz-adv-x="1035" 
d="M134 1320h728v-64h-667v-562h648v-64h-648v-566h667v-64h-728v1320zM301 1409l-49 65l254 186l255 -187l-48 -66l-207 152z" />
    <glyph glyph-name="Edieresis" unicode="&#xcb;" horiz-adv-x="1035" 
d="M134 1320h728v-64h-667v-562h648v-64h-648v-566h667v-64h-728v1320zM317 1566q29 0 51.5 -22t22.5 -52t-22.5 -51.5t-51.5 -21.5q-30 0 -51.5 22.5t-21.5 50.5q0 29 21.5 51.5t51.5 22.5zM696 1566q29 0 51.5 -22t22.5 -52t-22.5 -51.5t-51.5 -21.5q-30 0 -51.5 22.5
t-21.5 50.5q0 29 21.5 51.5t51.5 22.5z" />
    <glyph glyph-name="Igrave" unicode="&#xcc;" horiz-adv-x="405" 
d="M152 1320h64v-1320h-64v1320zM238 1376l-308 200l59 75l288 -226z" />
    <glyph glyph-name="Iacute" unicode="&#xcd;" horiz-adv-x="405" 
d="M152 1320h64v-1320h-64v1320zM108 1376l-39 49l288 226l59 -75z" />
    <glyph glyph-name="Icircumflex" unicode="&#xce;" horiz-adv-x="405" 
d="M152 1320h64v-1320h-64v1320zM-24 1409l-49 65l254 186l255 -187l-48 -66l-207 152z" />
    <glyph glyph-name="Idieresis" unicode="&#xcf;" horiz-adv-x="405" 
d="M152 1320h64v-1320h-64v1320zM-8 1566q29 0 51.5 -22t22.5 -52t-22.5 -51.5t-51.5 -21.5q-30 0 -51.5 22.5t-21.5 50.5q0 29 21.5 51.5t51.5 22.5zM371 1566q29 0 51.5 -22t22.5 -52t-22.5 -51.5t-51.5 -21.5q-30 0 -51.5 22.5t-21.5 50.5q0 29 21.5 51.5t51.5 22.5z" />
    <glyph glyph-name="Eth" unicode="&#xd0;" horiz-adv-x="1088" 
d="M123 1320h239q211 0 345 -84.5t197.5 -233.5t63.5 -341q0 -193 -63 -342t-197 -234t-346 -85h-239v1320zM184 1256v-1192h174q192 0 312 76t176.5 210t57.5 309t-55 309.5t-177 211t-314 76.5h-174zM-12 628v60h515v-60h-515z" />
    <glyph glyph-name="Ntilde" unicode="&#xd1;" horiz-adv-x="1280" 
d="M195 1253h2v-1253h-63v1320h101l811 -1253h-1v1253h62v-1320h-101zM571 1621q-38 0 -63.5 -26t-34.5 -51h-96q10 34 32.5 69.5t56.5 60.5t78 25q60 0 97 -19.5t69.5 -39t78.5 -19.5q41 0 63.5 26.5t28.5 51.5h96q-11 -33 -34.5 -69t-58.5 -61t-79 -25q-60 0 -98.5 19.5
t-69 38.5t-66.5 19z" />
    <glyph glyph-name="Ograve" unicode="&#xd2;" horiz-adv-x="1411" 
d="M112 661q0 -176 74.5 -316.5t204 -222.5t295.5 -82q167 0 296 82t202.5 222.5t73.5 316.5t-73.5 316t-202.5 221.5t-296 81.5q-166 0 -295.5 -81.5t-204 -221.5t-74.5 -316zM48 661q0 144 48 268.5t134.5 217.5t203 145t252.5 52q137 0 252.5 -52t202 -145t134 -217.5
t47.5 -268.5q0 -145 -47.5 -269.5t-134 -218t-202 -145.5t-252.5 -52q-136 0 -252.5 52t-203 145.5t-134.5 218t-48 269.5zM742 1376l-308 200l59 75l288 -226z" />
    <glyph glyph-name="Oacute" unicode="&#xd3;" horiz-adv-x="1411" 
d="M112 661q0 -176 74.5 -316.5t204 -222.5t295.5 -82q167 0 296 82t202.5 222.5t73.5 316.5t-73.5 316t-202.5 221.5t-296 81.5q-166 0 -295.5 -81.5t-204 -221.5t-74.5 -316zM48 661q0 144 48 268.5t134.5 217.5t203 145t252.5 52q137 0 252.5 -52t202 -145t134 -217.5
t47.5 -268.5q0 -145 -47.5 -269.5t-134 -218t-202 -145.5t-252.5 -52q-136 0 -252.5 52t-203 145.5t-134.5 218t-48 269.5zM612 1376l-39 49l288 226l59 -75z" />
    <glyph glyph-name="Ocircumflex" unicode="&#xd4;" horiz-adv-x="1411" 
d="M112 661q0 -176 74.5 -316.5t204 -222.5t295.5 -82q167 0 296 82t202.5 222.5t73.5 316.5t-73.5 316t-202.5 221.5t-296 81.5q-166 0 -295.5 -81.5t-204 -221.5t-74.5 -316zM48 661q0 144 48 268.5t134.5 217.5t203 145t252.5 52q137 0 252.5 -52t202 -145t134 -217.5
t47.5 -268.5q0 -145 -47.5 -269.5t-134 -218t-202 -145.5t-252.5 -52q-136 0 -252.5 52t-203 145.5t-134.5 218t-48 269.5zM480 1409l-49 65l254 186l255 -187l-48 -66l-207 152z" />
    <glyph glyph-name="Otilde" unicode="&#xd5;" horiz-adv-x="1411" 
d="M112 661q0 -176 74.5 -316.5t204 -222.5t295.5 -82q167 0 296 82t202.5 222.5t73.5 316.5t-73.5 316t-202.5 221.5t-296 81.5q-166 0 -295.5 -81.5t-204 -221.5t-74.5 -316zM48 661q0 144 48 268.5t134.5 217.5t203 145t252.5 52q137 0 252.5 -52t202 -145t134 -217.5
t47.5 -268.5q0 -145 -47.5 -269.5t-134 -218t-202 -145.5t-252.5 -52q-136 0 -252.5 52t-203 145.5t-134.5 218t-48 269.5zM596 1621q-38 0 -63.5 -26t-34.5 -51h-96q10 34 32.5 69.5t56.5 60.5t78 25q60 0 97 -19.5t69.5 -39t78.5 -19.5q41 0 63.5 26.5t28.5 51.5h96
q-11 -33 -34.5 -69t-58.5 -61t-79 -25q-60 0 -98.5 19.5t-69 38.5t-66.5 19z" />
    <glyph glyph-name="Odieresis" unicode="&#xd6;" horiz-adv-x="1411" 
d="M112 661q0 -176 74.5 -316.5t204 -222.5t295.5 -82q167 0 296 82t202.5 222.5t73.5 316.5t-73.5 316t-202.5 221.5t-296 81.5q-166 0 -295.5 -81.5t-204 -221.5t-74.5 -316zM48 661q0 144 48 268.5t134.5 217.5t203 145t252.5 52q137 0 252.5 -52t202 -145t134 -217.5
t47.5 -268.5q0 -145 -47.5 -269.5t-134 -218t-202 -145.5t-252.5 -52q-136 0 -252.5 52t-203 145.5t-134.5 218t-48 269.5zM496 1566q29 0 51.5 -22t22.5 -52t-22.5 -51.5t-51.5 -21.5q-30 0 -51.5 22.5t-21.5 50.5q0 29 21.5 51.5t51.5 22.5zM875 1566q29 0 51.5 -22
t22.5 -52t-22.5 -51.5t-51.5 -21.5q-30 0 -51.5 22.5t-21.5 50.5q0 29 21.5 51.5t51.5 22.5z" />
    <glyph glyph-name="multiply" unicode="&#xd7;" horiz-adv-x="982" 
d="M515 664l304 -302l-43 -44l-302 303l-304 -303l-44 44l304 302l-302 302l43 44l303 -303l300 303l44 -44z" />
    <glyph glyph-name="Oslash" unicode="&#xd8;" horiz-adv-x="1379" 
d="M1293 1307l45 -41l-1269 -1287l-45 42zM112 661q0 -176 74.5 -316.5t204 -222.5t295.5 -82q167 0 296 82t202.5 222.5t73.5 316.5t-73.5 316t-202.5 221.5t-296 81.5q-166 0 -295.5 -81.5t-204 -221.5t-74.5 -316zM48 661q0 144 48 268.5t134.5 217.5t203 145t252.5 52
q137 0 252.5 -52t202 -145t134 -217.5t47.5 -268.5q0 -145 -47.5 -269.5t-134 -218t-202 -145.5t-252.5 -52q-136 0 -252.5 52t-203 145.5t-134.5 218t-48 269.5z" />
    <glyph glyph-name="Ugrave" unicode="&#xd9;" horiz-adv-x="1218" 
d="M1011 1320h63v-827q0 -163 -66 -279t-175 -177t-239 -61t-240 61t-176 177t-66 279v827h62v-824q0 -137 57 -239.5t152.5 -159.5t210.5 -57t209.5 57t151 159.5t56.5 239.5v824zM650 1376l-308 200l59 75l288 -226z" />
    <glyph glyph-name="Uacute" unicode="&#xda;" horiz-adv-x="1218" 
d="M1011 1320h63v-827q0 -163 -66 -279t-175 -177t-239 -61t-240 61t-176 177t-66 279v827h62v-824q0 -137 57 -239.5t152.5 -159.5t210.5 -57t209.5 57t151 159.5t56.5 239.5v824zM520 1376l-39 49l288 226l59 -75z" />
    <glyph glyph-name="Ucircumflex" unicode="&#xdb;" horiz-adv-x="1218" 
d="M1011 1320h63v-827q0 -163 -66 -279t-175 -177t-239 -61t-240 61t-176 177t-66 279v827h62v-824q0 -137 57 -239.5t152.5 -159.5t210.5 -57t209.5 57t151 159.5t56.5 239.5v824zM388 1409l-49 65l254 186l255 -187l-48 -66l-207 152z" />
    <glyph glyph-name="Udieresis" unicode="&#xdc;" horiz-adv-x="1218" 
d="M1011 1320h63v-827q0 -163 -66 -279t-175 -177t-239 -61t-240 61t-176 177t-66 279v827h62v-824q0 -137 57 -239.5t152.5 -159.5t210.5 -57t209.5 57t151 159.5t56.5 239.5v824zM404 1566q29 0 51.5 -22t22.5 -52t-22.5 -51.5t-51.5 -21.5q-30 0 -51.5 22.5t-21.5 50.5
q0 29 21.5 51.5t51.5 22.5zM783 1566q29 0 51.5 -22t22.5 -52t-22.5 -51.5t-51.5 -21.5q-30 0 -51.5 22.5t-21.5 50.5q0 29 21.5 51.5t51.5 22.5z" />
    <glyph glyph-name="Yacute" unicode="&#xdd;" horiz-adv-x="1026" 
d="M461 475l-434 845h74l392 -766l390 766h74l-432 -845v-475h-64v475zM419 1376l-39 49l288 226l59 -75z" />
    <glyph glyph-name="Thorn" unicode="&#xde;" horiz-adv-x="962" 
d="M134 1320h61v-245h290q112 0 197.5 -44.5t133.5 -134.5t48 -227q0 -136 -48 -230.5t-133.5 -144t-197.5 -49.5h-290v-245h-61v1320zM195 307h285q149 0 236 95t87 270q0 176 -87 258.5t-236 82.5h-285v-706z" />
    <glyph glyph-name="germandbls" unicode="&#xdf;" horiz-adv-x="926" 
d="M362 40q135 0 220 45.5t125 120t40 159.5q0 155 -102 239t-283 84v64q159 0 248 91.5t89 233.5q0 99 -35 155.5t-91.5 80t-122.5 23.5q-98 0 -162.5 -51t-96 -131.5t-31.5 -167.5v-986h-64v995q0 120 46 211.5t126 142.5t182 51q139 0 227.5 -83.5t88.5 -247.5
q0 -96 -44 -170t-105 -119t-111 -54q66 -8 137 -54t120.5 -123.5t49.5 -180.5q0 -126 -53.5 -213.5t-154.5 -133t-243 -45.5v64z" />
    <glyph glyph-name="agrave" unicode="&#xe0;" horiz-adv-x="1008" 
d="M802 0v182q-6 -28 -46.5 -77.5t-112.5 -89t-171 -39.5q-109 0 -203.5 50t-152.5 147t-58 237t58 237t152.5 147.5t203.5 50.5q99 0 171.5 -38.5t114 -87.5t44.5 -81v183h62v-821h-62zM122 410q0 -116 50 -199t129 -127t165 -44q95 0 170 45t118.5 128t43.5 197t-43.5 197
t-118.5 128.5t-170 45.5q-86 0 -165 -44.5t-129 -127.5t-50 -199zM645 1002l-308 200l59 75l288 -226z" />
    <glyph glyph-name="aacute" unicode="&#xe1;" horiz-adv-x="1008" 
d="M802 0v182q-6 -28 -46.5 -77.5t-112.5 -89t-171 -39.5q-109 0 -203.5 50t-152.5 147t-58 237t58 237t152.5 147.5t203.5 50.5q99 0 171.5 -38.5t114 -87.5t44.5 -81v183h62v-821h-62zM122 410q0 -116 50 -199t129 -127t165 -44q95 0 170 45t118.5 128t43.5 197t-43.5 197
t-118.5 128.5t-170 45.5q-86 0 -165 -44.5t-129 -127.5t-50 -199zM374 1002l-38 49l286 226l61 -75z" />
    <glyph glyph-name="acircumflex" unicode="&#xe2;" horiz-adv-x="1008" 
d="M802 0v182q-6 -28 -46.5 -77.5t-112.5 -89t-171 -39.5q-109 0 -203.5 50t-152.5 147t-58 237t58 237t152.5 147.5t203.5 50.5q99 0 171.5 -38.5t114 -87.5t44.5 -81v183h62v-821h-62zM122 410q0 -116 50 -199t129 -127t165 -44q95 0 170 45t118.5 128t43.5 197t-43.5 197
t-118.5 128.5t-170 45.5q-86 0 -165 -44.5t-129 -127.5t-50 -199zM288 938l-49 65l254 186l255 -187l-48 -66l-207 152z" />
    <glyph glyph-name="atilde" unicode="&#xe3;" horiz-adv-x="1008" 
d="M802 0v182q-6 -28 -46.5 -77.5t-112.5 -89t-171 -39.5q-109 0 -203.5 50t-152.5 147t-58 237t58 237t152.5 147.5t203.5 50.5q99 0 171.5 -38.5t114 -87.5t44.5 -81v183h62v-821h-62zM122 410q0 -116 50 -199t129 -127t165 -44q95 0 170 45t118.5 128t43.5 197t-43.5 197
t-118.5 128.5t-170 45.5q-86 0 -165 -44.5t-129 -127.5t-50 -199zM403 1122q-38 0 -63.5 -26t-34.5 -51h-96q10 34 32.5 69.5t56.5 60.5t78 25q60 0 97 -19.5t69.5 -39t78.5 -19.5q41 0 63.5 26.5t28.5 51.5h96q-11 -33 -34.5 -69t-58.5 -61t-79 -25q-60 0 -98.5 19.5
t-69 38.5t-66.5 19z" />
    <glyph glyph-name="adieresis" unicode="&#xe4;" horiz-adv-x="1008" 
d="M802 0v182q-6 -28 -46.5 -77.5t-112.5 -89t-171 -39.5q-109 0 -203.5 50t-152.5 147t-58 237t58 237t152.5 147.5t203.5 50.5q99 0 171.5 -38.5t114 -87.5t44.5 -81v183h62v-821h-62zM122 410q0 -116 50 -199t129 -127t165 -44q95 0 170 45t118.5 128t43.5 197t-43.5 197
t-118.5 128.5t-170 45.5q-86 0 -165 -44.5t-129 -127.5t-50 -199zM318 1063q29 0 51.5 -22t22.5 -52t-22.5 -51.5t-51.5 -21.5q-30 0 -51.5 22.5t-21.5 50.5q0 29 21.5 51.5t51.5 22.5zM697 1063q29 0 51.5 -22t22.5 -52t-22.5 -51.5t-51.5 -21.5q-30 0 -51.5 22.5
t-21.5 50.5q0 29 21.5 51.5t51.5 22.5z" />
    <glyph glyph-name="aring" unicode="&#xe5;" horiz-adv-x="1008" 
d="M802 0v182q-6 -28 -46.5 -77.5t-112.5 -89t-171 -39.5q-109 0 -203.5 50t-152.5 147t-58 237t58 237t152.5 147.5t203.5 50.5q99 0 171.5 -38.5t114 -87.5t44.5 -81v183h62v-821h-62zM122 410q0 -116 50 -199t129 -127t165 -44q95 0 170 45t118.5 128t43.5 197t-43.5 197
t-118.5 128.5t-170 45.5q-86 0 -165 -44.5t-129 -127.5t-50 -199zM331 1075q0 42 22 75t58.5 52t81.5 19q46 0 82 -19t57.5 -52t21.5 -75q0 -64 -45 -104.5t-116 -40.5q-73 0 -117.5 40.5t-44.5 104.5zM403 1075q0 -43 27.5 -67t62.5 -24q38 0 63.5 24t25.5 67
q0 44 -25.5 67.5t-63.5 23.5q-35 0 -62.5 -23.5t-27.5 -67.5z" />
    <glyph glyph-name="ae" unicode="&#xe6;" horiz-adv-x="1412" 
d="M366 -24q-81 0 -151.5 28.5t-113.5 89.5t-43 156q0 82 44 141.5t115.5 92.5t155.5 33q71 0 124.5 -17.5t86.5 -39t42 -33.5v51q0 94 -26 153.5t-65.5 92t-80.5 45t-72 12.5q-80 0 -142 -35t-88 -69l-50 62q30 34 103.5 70t176.5 36q90 0 150 -35t95 -86t50 -100
q11 48 52.5 99.5t105 86.5t138.5 35q105 0 181.5 -49t118 -145.5t41.5 -240.5q0 -9 -1 -9.5t-1 -8.5h-616q0 -113 29 -192t91.5 -119.5t162.5 -40.5q76 0 131 33.5t88.5 74t43.5 60.5l57 -37q-20 -34 -64.5 -80t-110.5 -80.5t-151 -34.5q-73 0 -138.5 25.5t-111.5 67
t-64 89.5q-10 -30 -49.5 -73t-101.5 -76t-142 -33zM357 40q78 -1 138.5 32t95.5 84t35 103q0 90 -71 142t-174 52q-60 0 -119.5 -23.5t-99 -69t-39.5 -112.5q0 -90 67 -148t167 -60zM704 453h536q-1 32 -10 86.5t-35.5 110t-78 93.5t-137.5 38q-126 0 -195.5 -89t-79.5 -239
z" />
    <glyph glyph-name="ccedilla" unicode="&#xe7;" horiz-adv-x="811" 
d="M461 40q96 0 153 29.5t69 39.5l39 -56q-6 -5 -42 -24t-94.5 -36t-132.5 -17q-88 0 -176.5 47.5t-148 144.5t-59.5 243q0 147 59.5 243t148 143.5t176.5 47.5q74 0 129.5 -19t90 -41t42.5 -31l-38 -56q-9 9 -35.5 29t-71.5 37t-109 17q-77 0 -153 -42.5t-125.5 -125
t-49.5 -202.5t49.5 -203t125.5 -125.5t153 -42.5zM366 42l55 -28l-55 -160q41 15 96.5 11t97.5 -32t42 -86q0 -56 -32.5 -93t-81 -55t-96.5 -18q-56 0 -106.5 17.5t-75.5 33.5l43 54q19 -14 57.5 -29t81.5 -15q59 0 100 25t41 67q0 41 -27.5 60.5t-73.5 19.5q-31 0 -59 -4.5
t-42 -9.5l-41 22z" />
    <glyph glyph-name="egrave" unicode="&#xe8;" horiz-adv-x="919" 
d="M126 416q0 -97 36 -183.5t110 -140.5t187 -54q91 0 149.5 31t92 72.5t46.5 72.5l59 -40q-40 -65 -89 -109.5t-112.5 -66.5t-148.5 -22q-129 0 -218 60.5t-134.5 162t-45.5 222.5q0 120 46.5 216t135 152t213.5 56q111 0 193.5 -51.5t128.5 -140.5t46 -203q0 -9 -1 -17.5
t-1 -16.5h-693zM750 480q-2 65 -29.5 135t-91.5 118.5t-176 48.5q-118 0 -186.5 -47t-99 -117t-36.5 -138h619zM598 1002l-308 200l59 75l288 -226z" />
    <glyph glyph-name="eacute" unicode="&#xe9;" horiz-adv-x="919" 
d="M126 416q0 -97 36 -183.5t110 -140.5t187 -54q91 0 149.5 31t92 72.5t46.5 72.5l59 -40q-40 -65 -89 -109.5t-112.5 -66.5t-148.5 -22q-129 0 -218 60.5t-134.5 162t-45.5 222.5q0 120 46.5 216t135 152t213.5 56q111 0 193.5 -51.5t128.5 -140.5t46 -203q0 -9 -1 -17.5
t-1 -16.5h-693zM750 480q-2 65 -29.5 135t-91.5 118.5t-176 48.5q-118 0 -186.5 -47t-99 -117t-36.5 -138h619zM327 1002l-38 49l286 226l61 -75z" />
    <glyph glyph-name="ecircumflex" unicode="&#xea;" horiz-adv-x="919" 
d="M126 416q0 -97 36 -183.5t110 -140.5t187 -54q91 0 149.5 31t92 72.5t46.5 72.5l59 -40q-40 -65 -89 -109.5t-112.5 -66.5t-148.5 -22q-129 0 -218 60.5t-134.5 162t-45.5 222.5q0 120 46.5 216t135 152t213.5 56q111 0 193.5 -51.5t128.5 -140.5t46 -203q0 -9 -1 -17.5
t-1 -16.5h-693zM750 480q-2 65 -29.5 135t-91.5 118.5t-176 48.5q-118 0 -186.5 -47t-99 -117t-36.5 -138h619zM241 938l-49 65l254 186l255 -187l-48 -66l-207 152z" />
    <glyph glyph-name="edieresis" unicode="&#xeb;" horiz-adv-x="919" 
d="M126 416q0 -97 36 -183.5t110 -140.5t187 -54q91 0 149.5 31t92 72.5t46.5 72.5l59 -40q-40 -65 -89 -109.5t-112.5 -66.5t-148.5 -22q-129 0 -218 60.5t-134.5 162t-45.5 222.5q0 120 46.5 216t135 152t213.5 56q111 0 193.5 -51.5t128.5 -140.5t46 -203q0 -9 -1 -17.5
t-1 -16.5h-693zM750 480q-2 65 -29.5 135t-91.5 118.5t-176 48.5q-118 0 -186.5 -47t-99 -117t-36.5 -138h619zM271 1063q29 0 51.5 -22t22.5 -52t-22.5 -51.5t-51.5 -21.5q-30 0 -51.5 22.5t-21.5 50.5q0 29 21.5 51.5t51.5 22.5zM650 1063q29 0 51.5 -22t22.5 -52
t-22.5 -51.5t-51.5 -21.5q-30 0 -51.5 22.5t-21.5 50.5q0 29 21.5 51.5t51.5 22.5z" />
    <glyph glyph-name="igrave" unicode="&#xec;" horiz-adv-x="339" 
d="M118 0v821h64v-821h-64zM302 1002l-308 200l59 75l288 -226z" />
    <glyph glyph-name="iacute" unicode="&#xed;" horiz-adv-x="339" 
d="M118 0v821h64v-821h-64zM31 1002l-38 49l286 226l61 -75z" />
    <glyph glyph-name="icircumflex" unicode="&#xee;" horiz-adv-x="339" 
d="M118 0v821h64v-821h-64zM-55 938l-49 65l254 186l255 -187l-48 -66l-207 152z" />
    <glyph glyph-name="idieresis" unicode="&#xef;" horiz-adv-x="339" 
d="M118 0v821h64v-821h-64zM-25 1063q29 0 51.5 -22t22.5 -52t-22.5 -51.5t-51.5 -21.5q-30 0 -51.5 22.5t-21.5 50.5q0 29 21.5 51.5t51.5 22.5zM354 1063q29 0 51.5 -22t22.5 -52t-22.5 -51.5t-51.5 -21.5q-30 0 -51.5 22.5t-21.5 50.5q0 29 21.5 51.5t51.5 22.5z" />
    <glyph glyph-name="eth" unicode="&#xf0;" horiz-adv-x="1070" 
d="M93 410q0 101 33.5 181.5t92 137t134.5 86.5t162 30q104 0 173 -25t107.5 -54.5t50.5 -42.5q-21 71 -76 145t-129 139t-153 107l-157 -170l-59 56l142 144q-23 12 -63 27t-80 27.5t-63 17.5l27 58q40 -10 86.5 -26t85 -30.5t54.5 -22.5l137 149l72 -56l-139 -126
q118 -65 214.5 -158.5t154 -233t57.5 -344.5q0 -126 -48.5 -228t-144 -162t-236.5 -60q-138 0 -235.5 55.5t-148.5 153.5t-51 225zM157 410q0 -106 45 -190.5t127.5 -133t196.5 -48.5q125 0 206.5 49.5t121 133.5t39.5 189q0 189 -94 280t-273 91q-166 0 -267.5 -99
t-101.5 -272z" />
    <glyph glyph-name="ntilde" unicode="&#xf1;" horiz-adv-x="954" 
d="M493 845q75 0 147 -33t118.5 -104.5t46.5 -185.5v-522h-66v501q0 151 -70 215.5t-178 64.5q-72 0 -139 -42t-110.5 -114t-43.5 -161v-464h-64v821h64v-168q6 36 47 81t106 78t142 33zM352 1122q-38 0 -63.5 -26t-34.5 -51h-96q10 34 32.5 69.5t56.5 60.5t78 25
q60 0 97 -19.5t69.5 -39t78.5 -19.5q41 0 63.5 26.5t28.5 51.5h96q-11 -33 -34.5 -69t-58.5 -61t-79 -25q-60 0 -98.5 19.5t-69 38.5t-66.5 19z" />
    <glyph glyph-name="ograve" unicode="&#xf2;" horiz-adv-x="978" 
d="M470 -24q-120 0 -213 58t-146 156t-53 218t53 219.5t146 158.5t213 59t212.5 -59t145 -158.5t52.5 -219.5t-52.5 -218t-145 -156t-212.5 -58zM470 40q104 0 182 48.5t121 132t43 187.5t-43 188.5t-121 134.5t-182 50t-182.5 -50t-122 -134.5t-43.5 -188.5t43.5 -187.5
t122 -132t182.5 -48.5zM621 1002l-308 200l59 75l288 -226z" />
    <glyph glyph-name="oacute" unicode="&#xf3;" horiz-adv-x="978" 
d="M470 -24q-120 0 -213 58t-146 156t-53 218t53 219.5t146 158.5t213 59t212.5 -59t145 -158.5t52.5 -219.5t-52.5 -218t-145 -156t-212.5 -58zM470 40q104 0 182 48.5t121 132t43 187.5t-43 188.5t-121 134.5t-182 50t-182.5 -50t-122 -134.5t-43.5 -188.5t43.5 -187.5
t122 -132t182.5 -48.5zM350 1002l-38 49l286 226l61 -75z" />
    <glyph glyph-name="ocircumflex" unicode="&#xf4;" horiz-adv-x="978" 
d="M470 -24q-120 0 -213 58t-146 156t-53 218t53 219.5t146 158.5t213 59t212.5 -59t145 -158.5t52.5 -219.5t-52.5 -218t-145 -156t-212.5 -58zM470 40q104 0 182 48.5t121 132t43 187.5t-43 188.5t-121 134.5t-182 50t-182.5 -50t-122 -134.5t-43.5 -188.5t43.5 -187.5
t122 -132t182.5 -48.5zM264 938l-49 65l254 186l255 -187l-48 -66l-207 152z" />
    <glyph glyph-name="otilde" unicode="&#xf5;" horiz-adv-x="978" 
d="M470 -24q-120 0 -213 58t-146 156t-53 218t53 219.5t146 158.5t213 59t212.5 -59t145 -158.5t52.5 -219.5t-52.5 -218t-145 -156t-212.5 -58zM470 40q104 0 182 48.5t121 132t43 187.5t-43 188.5t-121 134.5t-182 50t-182.5 -50t-122 -134.5t-43.5 -188.5t43.5 -187.5
t122 -132t182.5 -48.5zM360 1122q-38 0 -63.5 -26t-34.5 -51h-96q10 34 32.5 69.5t56.5 60.5t78 25q60 0 97 -19.5t69.5 -39t78.5 -19.5q41 0 63.5 26.5t28.5 51.5h96q-11 -33 -34.5 -69t-58.5 -61t-79 -25q-60 0 -98.5 19.5t-69 38.5t-66.5 19z" />
    <glyph glyph-name="odieresis" unicode="&#xf6;" horiz-adv-x="978" 
d="M470 -24q-120 0 -213 58t-146 156t-53 218t53 219.5t146 158.5t213 59t212.5 -59t145 -158.5t52.5 -219.5t-52.5 -218t-145 -156t-212.5 -58zM470 40q104 0 182 48.5t121 132t43 187.5t-43 188.5t-121 134.5t-182 50t-182.5 -50t-122 -134.5t-43.5 -188.5t43.5 -187.5
t122 -132t182.5 -48.5zM294 1063q29 0 51.5 -22t22.5 -52t-22.5 -51.5t-51.5 -21.5q-30 0 -51.5 22.5t-21.5 50.5q0 29 21.5 51.5t51.5 22.5zM673 1063q29 0 51.5 -22t22.5 -52t-22.5 -51.5t-51.5 -21.5q-30 0 -51.5 22.5t-21.5 50.5q0 29 21.5 51.5t51.5 22.5z" />
    <glyph glyph-name="divide" unicode="&#xf7;" horiz-adv-x="1005" 
d="M480 1037q32 0 53 -22t21 -52q0 -28 -21 -49t-53 -21q-28 0 -49 21t-21 49q0 32 21 53t49 21zM122 629v61h721v-61h-721zM480 434q32 0 53 -21t21 -53q0 -28 -22 -48.5t-52 -20.5q-28 0 -49 20.5t-21 48.5q0 32 21 53t49 21z" />
    <glyph glyph-name="oslash" unicode="&#xf8;" horiz-adv-x="978" 
d="M858 848l44 -42l-816 -827l-44 42zM470 -24q-120 0 -213 58t-146 156t-53 218t53 219.5t146 158.5t213 59t212.5 -59t145 -158.5t52.5 -219.5t-52.5 -218t-145 -156t-212.5 -58zM470 40q104 0 182 48.5t121 132t43 187.5t-43 188.5t-121 134.5t-182 50t-182.5 -50
t-122 -134.5t-43.5 -188.5t43.5 -187.5t122 -132t182.5 -48.5z" />
    <glyph glyph-name="ugrave" unicode="&#xf9;" horiz-adv-x="962" 
d="M181 379q0 -156 70.5 -247.5t209.5 -91.5t209.5 91.5t70.5 247.5v442h64v-459q0 -110 -40 -197.5t-116.5 -138t-187.5 -50.5q-110 0 -187 50.5t-117 138t-40 197.5v459h64v-442zM613 1002l-308 200l59 75l288 -226z" />
    <glyph glyph-name="uacute" unicode="&#xfa;" horiz-adv-x="962" 
d="M181 379q0 -156 70.5 -247.5t209.5 -91.5t209.5 91.5t70.5 247.5v442h64v-459q0 -110 -40 -197.5t-116.5 -138t-187.5 -50.5q-110 0 -187 50.5t-117 138t-40 197.5v459h64v-442zM342 1002l-38 49l286 226l61 -75z" />
    <glyph glyph-name="ucircumflex" unicode="&#xfb;" horiz-adv-x="962" 
d="M181 379q0 -156 70.5 -247.5t209.5 -91.5t209.5 91.5t70.5 247.5v442h64v-459q0 -110 -40 -197.5t-116.5 -138t-187.5 -50.5q-110 0 -187 50.5t-117 138t-40 197.5v459h64v-442zM256 938l-49 65l254 186l255 -187l-48 -66l-207 152z" />
    <glyph glyph-name="udieresis" unicode="&#xfc;" horiz-adv-x="962" 
d="M181 379q0 -156 70.5 -247.5t209.5 -91.5t209.5 91.5t70.5 247.5v442h64v-459q0 -110 -40 -197.5t-116.5 -138t-187.5 -50.5q-110 0 -187 50.5t-117 138t-40 197.5v459h64v-442zM286 1063q29 0 51.5 -22t22.5 -52t-22.5 -51.5t-51.5 -21.5q-30 0 -51.5 22.5t-21.5 50.5
q0 29 21.5 51.5t51.5 22.5zM665 1063q29 0 51.5 -22t22.5 -52t-22.5 -51.5t-51.5 -21.5q-30 0 -51.5 22.5t-21.5 50.5q0 29 21.5 51.5t51.5 22.5z" />
    <glyph glyph-name="yacute" unicode="&#xfd;" horiz-adv-x="835" 
d="M402 70l323 751h70l-545 -1237h-69l184 416l-335 821h71zM279 1002l-38 49l286 226l61 -75z" />
    <glyph glyph-name="thorn" unicode="&#xfe;" horiz-adv-x="989" 
d="M120 0h64v-416h-64v416zM120 0v1376h67v-738q4 34 47.5 83t119.5 86.5t176 37.5q110 0 200 -50.5t144 -147.5t54 -237t-54 -237t-144 -147t-200 -50q-101 0 -178 39t-121 88t-47 79v-182h-64zM862 410q0 116 -46 199t-120 127.5t-160 44.5q-95 0 -174.5 -45.5
t-127 -128.5t-47.5 -197t47.5 -197t127 -128t174.5 -45q86 0 160 44t120 127t46 199z" />
    <glyph glyph-name="ydieresis" unicode="&#xff;" horiz-adv-x="835" 
d="M402 70l323 751h70l-545 -1237h-69l184 416l-335 821h71zM223 1063q29 0 51.5 -22t22.5 -52t-22.5 -51.5t-51.5 -21.5q-30 0 -51.5 22.5t-21.5 50.5q0 29 21.5 51.5t51.5 22.5zM602 1063q29 0 51.5 -22t22.5 -52t-22.5 -51.5t-51.5 -21.5q-30 0 -51.5 22.5t-21.5 50.5
q0 29 21.5 51.5t51.5 22.5z" />
    <glyph glyph-name="Amacron" unicode="&#x100;" horiz-adv-x="1086" 
d="M509 1320h77l460 -1320h-67l-129 362h-605l-131 -362h-68zM262 426h572l-285 811h-3zM280 1466v64h533v-64h-533z" />
    <glyph glyph-name="amacron" unicode="&#x101;" horiz-adv-x="1045" 
d="M802 0v182q-6 -28 -46.5 -77.5t-112.5 -89t-171 -39.5q-109 0 -203.5 50t-152.5 147t-58 237t58 237t152.5 147.5t203.5 50.5q99 0 171.5 -38.5t114 -87.5t44.5 -81v183h62v-821h-62zM122 410q0 -116 50 -199t129 -127t165 -44q95 0 170 45t118.5 128t43.5 197t-43.5 197
t-118.5 128.5t-170 45.5q-86 0 -165 -44.5t-129 -127.5t-50 -199zM237 1078v64h533v-64h-533z" />
    <glyph glyph-name="Abreve" unicode="&#x102;" horiz-adv-x="1086" 
d="M509 1320h77l460 -1320h-67l-129 362h-605l-131 -362h-68zM262 426h572l-285 811h-3zM779 1559q-4 -35 -31.5 -77t-78 -72t-122.5 -30t-122 29.5t-78 71t-32 78.5l83 21q6 -27 24 -57t49.5 -50.5t75.5 -20.5t75 20.5t49 50.5t23 57z" />
    <glyph glyph-name="abreve" unicode="&#x103;" horiz-adv-x="1045" 
d="M802 0v182q-6 -28 -46.5 -77.5t-112.5 -89t-171 -39.5q-109 0 -203.5 50t-152.5 147t-58 237t58 237t152.5 147.5t203.5 50.5q99 0 171.5 -38.5t114 -87.5t44.5 -81v183h62v-821h-62zM122 410q0 -116 50 -199t129 -127t165 -44q95 0 170 45t118.5 128t43.5 197t-43.5 197
t-118.5 128.5t-170 45.5q-86 0 -165 -44.5t-129 -127.5t-50 -199zM730 1224q-4 -35 -31.5 -77t-78 -72t-122.5 -30q-71 0 -121.5 29.5t-78.5 71t-32 78.5l83 21q6 -27 24 -57t49.5 -50.5t75.5 -20.5t75 20.5t49 50.5t23 57z" />
    <glyph glyph-name="Aogonek" unicode="&#x104;" horiz-adv-x="1102" 
d="M509 1320h77l460 -1320h-67l-129 362h-605l-131 -362h-68zM262 426h572l-285 811h-3zM988 -421q-42 0 -87 14t-76 51t-31 106q0 53 30 108t73.5 102.5t83.5 79.5l43 -40q-32 -29 -68.5 -70.5t-62 -87.5t-25.5 -87q0 -68 41.5 -91.5t97.5 -23.5q49 0 87.5 24.5t57.5 52.5
l55 -42q-23 -38 -87 -67t-132 -29z" />
    <glyph glyph-name="aogonek" unicode="&#x105;" horiz-adv-x="1045" 
d="M802 0v182q-6 -28 -46.5 -77.5t-112.5 -89t-171 -39.5q-109 0 -203.5 50t-152.5 147t-58 237t58 237t152.5 147.5t203.5 50.5q99 0 171.5 -38.5t114 -87.5t44.5 -81v183h62v-821h-62zM122 410q0 -116 50 -199t129 -127t165 -44q95 0 170 45t118.5 128t43.5 197t-43.5 197
t-118.5 128.5t-170 45.5q-86 0 -165 -44.5t-129 -127.5t-50 -199zM824 -421q-42 0 -87 14t-76 51t-31 106q0 53 30 108t73.5 102.5t83.5 79.5l43 -40q-32 -29 -68.5 -70.5t-62 -87.5t-25.5 -87q0 -68 41.5 -91.5t97.5 -23.5q49 0 87.5 24.5t57.5 52.5l55 -42
q-23 -38 -87 -67t-132 -29z" />
    <glyph glyph-name="Cacute" unicode="&#x106;" horiz-adv-x="1242" 
d="M725 37q150 0 252.5 40t142.5 77l29 -56q-43 -40 -152.5 -81t-265.5 -41q-146 0 -268.5 53t-213 146.5t-140.5 217t-50 265.5t49.5 266.5t140 218.5t213.5 147.5t269 53.5q156 0 265.5 -41t152.5 -81l-29 -56q-40 38 -142.5 77.5t-252.5 39.5q-120 0 -227.5 -44
t-191.5 -126t-132 -196.5t-48 -255.5q0 -142 48 -257t132 -197t191.5 -126t227.5 -44zM651 1376l-39 49l288 226l59 -75z" />
    <glyph glyph-name="cacute" unicode="&#x107;" horiz-adv-x="811" 
d="M461 40q96 0 153 29.5t69 39.5l39 -56q-6 -5 -42 -24t-94.5 -36t-132.5 -17q-88 0 -176.5 47.5t-148 144.5t-59.5 243q0 147 59.5 243t148 143.5t176.5 47.5q74 0 129.5 -19t90 -41t42.5 -31l-38 -56q-9 9 -35.5 29t-71.5 37t-109 17q-77 0 -153 -42.5t-125.5 -125
t-49.5 -202.5t49.5 -203t125.5 -125.5t153 -42.5zM382 1002l-38 49l286 226l61 -75z" />
    <glyph glyph-name="Ccircumflex" unicode="&#x108;" horiz-adv-x="1242" 
d="M725 37q150 0 252.5 40t142.5 77l29 -56q-43 -40 -152.5 -81t-265.5 -41q-146 0 -268.5 53t-213 146.5t-140.5 217t-50 265.5t49.5 266.5t140 218.5t213.5 147.5t269 53.5q156 0 265.5 -41t152.5 -81l-29 -56q-40 38 -142.5 77.5t-252.5 39.5q-120 0 -227.5 -44
t-191.5 -126t-132 -196.5t-48 -255.5q0 -142 48 -257t132 -197t191.5 -126t227.5 -44zM519 1409l-49 65l254 186l255 -187l-48 -66l-207 152z" />
    <glyph glyph-name="ccircumflex" unicode="&#x109;" horiz-adv-x="811" 
d="M461 40q96 0 153 29.5t69 39.5l39 -56q-6 -5 -42 -24t-94.5 -36t-132.5 -17q-88 0 -176.5 47.5t-148 144.5t-59.5 243q0 147 59.5 243t148 143.5t176.5 47.5q74 0 129.5 -19t90 -41t42.5 -31l-38 -56q-9 9 -35.5 29t-71.5 37t-109 17q-77 0 -153 -42.5t-125.5 -125
t-49.5 -202.5t49.5 -203t125.5 -125.5t153 -42.5zM181 938l-49 65l254 186l255 -187l-48 -66l-207 152z" />
    <glyph glyph-name="Cdotaccent" unicode="&#x10a;" horiz-adv-x="1242" 
d="M725 37q150 0 252.5 40t142.5 77l29 -56q-43 -40 -152.5 -81t-265.5 -41q-146 0 -268.5 53t-213 146.5t-140.5 217t-50 265.5t49.5 266.5t140 218.5t213.5 147.5t269 53.5q156 0 265.5 -41t152.5 -81l-29 -56q-40 38 -142.5 77.5t-252.5 39.5q-120 0 -227.5 -44
t-191.5 -126t-132 -196.5t-48 -255.5q0 -142 48 -257t132 -197t191.5 -126t227.5 -44zM724 1566q29 0 51.5 -22t22.5 -52t-22.5 -51.5t-51.5 -21.5q-30 0 -51.5 22.5t-21.5 50.5q0 29 21.5 51.5t51.5 22.5z" />
    <glyph glyph-name="cdotaccent" unicode="&#x10b;" horiz-adv-x="811" 
d="M461 40q96 0 153 29.5t69 39.5l39 -56q-6 -5 -42 -24t-94.5 -36t-132.5 -17q-88 0 -176.5 47.5t-148 144.5t-59.5 243q0 147 59.5 243t148 143.5t176.5 47.5q74 0 129.5 -19t90 -41t42.5 -31l-38 -56q-9 9 -35.5 29t-71.5 37t-109 17q-77 0 -153 -42.5t-125.5 -125
t-49.5 -202.5t49.5 -203t125.5 -125.5t153 -42.5zM435 1192q29 0 51.5 -22t22.5 -52t-22.5 -51.5t-51.5 -21.5q-30 0 -51.5 22.5t-21.5 50.5q0 29 21.5 51.5t51.5 22.5z" />
    <glyph glyph-name="Ccaron" unicode="&#x10c;" horiz-adv-x="1242" 
d="M725 37q150 0 252.5 40t142.5 77l29 -56q-43 -40 -152.5 -81t-265.5 -41q-146 0 -268.5 53t-213 146.5t-140.5 217t-50 265.5t49.5 266.5t140 218.5t213.5 147.5t269 53.5q156 0 265.5 -41t152.5 -81l-29 -56q-40 38 -142.5 77.5t-252.5 39.5q-120 0 -227.5 -44
t-191.5 -126t-132 -196.5t-48 -255.5q0 -142 48 -257t132 -197t191.5 -126t227.5 -44zM503 1544l43 57l179 -129l181 131l41 -58l-222 -163z" />
    <glyph glyph-name="ccaron" unicode="&#x10d;" horiz-adv-x="811" 
d="M461 40q96 0 153 29.5t69 39.5l39 -56q-6 -5 -42 -24t-94.5 -36t-132.5 -17q-88 0 -176.5 47.5t-148 144.5t-59.5 243q0 147 59.5 243t148 143.5t176.5 47.5q74 0 129.5 -19t90 -41t42.5 -31l-38 -56q-9 9 -35.5 29t-71.5 37t-109 17q-77 0 -153 -42.5t-125.5 -125
t-49.5 -202.5t49.5 -203t125.5 -125.5t153 -42.5zM181 1165l49 65l205 -148l207 150l48 -66l-255 -187z" />
    <glyph glyph-name="Dcaron" unicode="&#x10e;" horiz-adv-x="1088" 
d="M123 1320h239q211 0 345 -84.5t197.5 -233.5t63.5 -341q0 -193 -63 -342t-197 -234t-346 -85h-239v1320zM184 1256v-1192h174q192 0 312 76t176.5 210t57.5 309t-55 309.5t-177 211t-314 76.5h-174zM296 1544l43 57l179 -129l181 131l41 -58l-222 -163z" />
    <glyph glyph-name="dcaron" unicode="&#x10f;" horiz-adv-x="1043" 
d="M904 0v1376h-67v-738q-4 34 -47.5 83t-119.5 86.5t-176 37.5q-110 0 -200 -50.5t-144 -147.5t-54 -237t54 -237t144 -147t200 -50q101 0 178 39t121 88t47 79v-182h64zM162 410q0 116 46 199t120 127.5t160 44.5q95 0 174.5 -45.5t127 -128.5t47.5 -197t-47.5 -197
t-127 -128t-174.5 -45q-86 0 -160 44t-120 127t-46 199zM1109.51 1394.94q32.292 0 55.0283 -23.0664q22.7373 -23.0664 22.7373 -56.0186q0 -40.2012 -15.4863 -74.1406q-15.4883 -33.9404 -40.8604 -59.6436q-25.373 -25.7021 -55.0303 -41.5186l-34.9287 30.9746
q17.7939 7.9082 37.8945 22.0771q20.1006 14.1699 35.918 32.6221q15.8164 18.4531 19.7705 40.2012q-15.1582 -7.24902 -31.6338 -7.24902q-28.3379 0.65918 -46.791 21.0889q-18.4531 20.4307 -18.4531 42.8379q0 21.748 9.22656 37.8936q9.22656 16.1475 25.3721 25.0439
q16.1465 8.89746 37.2363 8.89746z" />
    <glyph glyph-name="Dcroat" unicode="&#x110;" horiz-adv-x="1088" 
d="M123 1320h239q211 0 345 -84.5t197.5 -233.5t63.5 -341q0 -193 -63 -342t-197 -234t-346 -85h-239v1320zM184 1256v-1192h174q192 0 312 76t176.5 210t57.5 309t-55 309.5t-177 211t-314 76.5h-174zM-12 628v60h515v-60h-515z" />
    <glyph glyph-name="dcroat" unicode="&#x111;" horiz-adv-x="989" 
d="M573 1045v62h419v-62h-419zM904 0h-64v182q-3 -30 -47 -79t-121 -88t-178 -39q-109 0 -199.5 50t-144.5 147t-54 237t54 237t144.5 147.5t199.5 50.5q100 0 176 -37.5t120 -86.5t47 -83v738h67v-1376zM162 410q0 -116 46 -199t120.5 -127t159.5 -44q95 0 174.5 45
t127 128t47.5 197t-47.5 197t-127 128.5t-174.5 45.5q-85 0 -159.5 -44.5t-120.5 -127.5t-46 -199z" />
    <glyph glyph-name="Emacron" unicode="&#x112;" horiz-adv-x="1035" 
d="M134 1320h728v-64h-667v-562h648v-64h-648v-566h667v-64h-728v1320zM240 1466v64h533v-64h-533z" />
    <glyph glyph-name="emacron" unicode="&#x113;" horiz-adv-x="941" 
d="M126 416q0 -97 36 -183.5t110 -140.5t187 -54q91 0 149.5 31t92 72.5t46.5 72.5l59 -40q-40 -65 -89 -109.5t-112.5 -66.5t-148.5 -22q-129 0 -218 60.5t-134.5 162t-45.5 222.5q0 120 46.5 216t135 152t213.5 56q111 0 193.5 -51.5t128.5 -140.5t46 -203q0 -9 -1 -17.5
t-1 -16.5h-693zM750 480q-2 65 -29.5 135t-91.5 118.5t-176 48.5q-118 0 -186.5 -47t-99 -117t-36.5 -138h619zM189 1078v64h533v-64h-533z" />
    <glyph glyph-name="Ebreve" unicode="&#x114;" horiz-adv-x="1035" 
d="M134 1320h728v-64h-667v-562h648v-64h-648v-566h667v-64h-728v1320zM739 1559q-4 -35 -31.5 -77t-78 -72t-122.5 -30t-122 29.5t-78 71t-32 78.5l83 21q6 -27 24 -57t49.5 -50.5t75.5 -20.5t75 20.5t49 50.5t23 57z" />
    <glyph glyph-name="ebreve" unicode="&#x115;" horiz-adv-x="919" 
d="M126 416q0 -97 36 -183.5t110 -140.5t187 -54q91 0 149.5 31t92 72.5t46.5 72.5l59 -40q-40 -65 -89 -109.5t-112.5 -66.5t-148.5 -22q-129 0 -218 60.5t-134.5 162t-45.5 222.5q0 120 46.5 216t135 152t213.5 56q111 0 193.5 -51.5t128.5 -140.5t46 -203q0 -9 -1 -17.5
t-1 -16.5h-693zM750 480q-2 65 -29.5 135t-91.5 118.5t-176 48.5q-118 0 -186.5 -47t-99 -117t-36.5 -138h619zM678 1128q-4 -35 -31.5 -77t-78 -72t-122.5 -30q-71 0 -121.5 29.5t-78.5 71t-32 78.5l83 21q6 -27 24 -57t49.5 -50.5t75.5 -20.5t75 20.5t49 50.5t23 57z" />
    <glyph glyph-name="Edotaccent" unicode="&#x116;" horiz-adv-x="1035" 
d="M134 1320h728v-64h-667v-562h648v-64h-648v-566h667v-64h-728v1320zM506 1566q29 0 51.5 -22t22.5 -52t-22.5 -51.5t-51.5 -21.5q-30 0 -51.5 22.5t-21.5 50.5q0 29 21.5 51.5t51.5 22.5z" />
    <glyph glyph-name="edotaccent" unicode="&#x117;" horiz-adv-x="941" 
d="M126 416q0 -97 36 -183.5t110 -140.5t187 -54q91 0 149.5 31t92 72.5t46.5 72.5l59 -40q-40 -65 -89 -109.5t-112.5 -66.5t-148.5 -22q-129 0 -218 60.5t-134.5 162t-45.5 222.5q0 120 46.5 216t135 152t213.5 56q111 0 193.5 -51.5t128.5 -140.5t46 -203q0 -9 -1 -17.5
t-1 -16.5h-693zM750 480q-2 65 -29.5 135t-91.5 118.5t-176 48.5q-118 0 -186.5 -47t-99 -117t-36.5 -138h619zM451 1192q29 0 51.5 -22t22.5 -52t-22.5 -51.5t-51.5 -21.5q-30 0 -51.5 22.5t-21.5 50.5q0 29 21.5 51.5t51.5 22.5z" />
    <glyph glyph-name="Eogonek" unicode="&#x118;" horiz-adv-x="1035" 
d="M134 1320h728v-64h-667v-562h648v-64h-648v-566h667v-64h-728v1320zM623 -445q-42 0 -87 14t-76 51t-31 106q0 53 30 108t73.5 102.5t83.5 79.5l43 -40q-32 -29 -68.5 -70.5t-62 -87.5t-25.5 -87q0 -68 41.5 -91.5t97.5 -23.5q49 0 87.5 24.5t57.5 52.5l55 -42
q-23 -38 -87 -67t-132 -29z" />
    <glyph glyph-name="eogonek" unicode="&#x119;" horiz-adv-x="941" 
d="M126 416q0 -97 36 -183.5t110 -140.5t187 -54q91 0 149.5 31t92 72.5t46.5 72.5l59 -40q-40 -65 -89 -109.5t-112.5 -66.5t-148.5 -22q-129 0 -218 60.5t-134.5 162t-45.5 222.5q0 120 46.5 216t135 152t213.5 56q111 0 193.5 -51.5t128.5 -140.5t46 -203q0 -9 -1 -17.5
t-1 -16.5h-693zM750 480q-2 65 -29.5 135t-91.5 118.5t-176 48.5q-118 0 -186.5 -47t-99 -117t-36.5 -138h619zM554 -421q-42 0 -87 14t-76 51t-31 106q0 53 30 108t73.5 102.5t83.5 79.5l43 -40q-32 -29 -68.5 -70.5t-62 -87.5t-25.5 -87q0 -68 41.5 -91.5t97.5 -23.5
q49 0 87.5 24.5t57.5 52.5l55 -42q-23 -38 -87 -67t-132 -29z" />
    <glyph glyph-name="Ecaron" unicode="&#x11a;" horiz-adv-x="1035" 
d="M134 1320h728v-64h-667v-562h648v-64h-648v-566h667v-64h-728v1320zM285 1544l43 57l179 -129l181 131l41 -58l-222 -163z" />
    <glyph glyph-name="ecaron" unicode="&#x11b;" horiz-adv-x="941" 
d="M126 416q0 -97 36 -183.5t110 -140.5t187 -54q91 0 149.5 31t92 72.5t46.5 72.5l59 -40q-40 -65 -89 -109.5t-112.5 -66.5t-148.5 -22q-129 0 -218 60.5t-134.5 162t-45.5 222.5q0 120 46.5 216t135 152t213.5 56q111 0 193.5 -51.5t128.5 -140.5t46 -203q0 -9 -1 -17.5
t-1 -16.5h-693zM750 480q-2 65 -29.5 135t-91.5 118.5t-176 48.5q-118 0 -186.5 -47t-99 -117t-36.5 -138h619zM197 1165l49 65l205 -148l207 150l48 -66l-255 -187z" />
    <glyph glyph-name="Gcircumflex" unicode="&#x11c;" horiz-adv-x="1411" 
d="M661 699h661v-62q0 -135 -49 -254.5t-135.5 -211t-202 -143.5t-249.5 -52q-136 0 -252.5 54.5t-203 149.5t-134.5 218.5t-48 262.5q0 138 48 261.5t134.5 218.5t203 149t252.5 54q75 0 144.5 -17t132 -49.5t116 -77.5t95.5 -101l-46 -40q-76 101 -190 161t-252 60
q-124 0 -229 -49t-182.5 -134.5t-120 -197.5t-42.5 -238t42.5 -238t120 -198.5t182.5 -135.5t229 -49q122 0 224.5 47t179 129.5t120.5 190.5t48 230h-597v62zM480 1409l-49 65l254 186l255 -187l-48 -66l-207 152z" />
    <glyph glyph-name="gcircumflex" unicode="&#x11d;" horiz-adv-x="1018" 
d="M482 -438q-106 0 -179.5 24t-119.5 60.5t-69 73.5l60 45q16 -25 47.5 -57.5t93 -56.5t167.5 -24t177 49.5t107 130.5t36 175v32h62v-38q0 -134 -51.5 -226.5t-138 -140t-192.5 -47.5zM802 0v182q-6 -28 -46.5 -77.5t-112.5 -89t-171 -39.5q-109 0 -203.5 50t-152.5 147
t-58 237t58 237t152.5 147.5t203.5 50.5q99 0 171.5 -38.5t114 -87.5t44.5 -81v183h62v-821h-62zM122 410q0 -116 50 -199t129 -127t165 -44q95 0 170 45t118.5 128t43.5 197t-43.5 197t-118.5 128.5t-170 45.5q-86 0 -165 -44.5t-129 -127.5t-50 -199zM318 938l-49 65
l254 186l255 -187l-48 -66l-207 152z" />
    <glyph glyph-name="Gbreve" unicode="&#x11e;" horiz-adv-x="1411" 
d="M661 699h661v-62q0 -135 -49 -254.5t-135.5 -211t-202 -143.5t-249.5 -52q-136 0 -252.5 54.5t-203 149.5t-134.5 218.5t-48 262.5q0 138 48 261.5t134.5 218.5t203 149t252.5 54q75 0 144.5 -17t132 -49.5t116 -77.5t95.5 -101l-46 -40q-76 101 -190 161t-252 60
q-124 0 -229 -49t-182.5 -134.5t-120 -197.5t-42.5 -238t42.5 -238t120 -198.5t182.5 -135.5t229 -49q122 0 224.5 47t179 129.5t120.5 190.5t48 230h-597v62zM918 1559q-4 -35 -31.5 -77t-78 -72t-122.5 -30t-122 29.5t-78 71t-32 78.5l83 21q6 -27 24 -57t49.5 -50.5
t75.5 -20.5t75 20.5t49 50.5t23 57z" />
    <glyph glyph-name="gbreve" unicode="&#x11f;" horiz-adv-x="1045" 
d="M482 -438q-106 0 -179.5 24t-119.5 60.5t-69 73.5l60 45q16 -25 47.5 -57.5t93 -56.5t167.5 -24t177 49.5t107 130.5t36 175v32h62v-38q0 -134 -51.5 -226.5t-138 -140t-192.5 -47.5zM802 0v182q-6 -28 -46.5 -77.5t-112.5 -89t-171 -39.5q-109 0 -203.5 50t-152.5 147
t-58 237t58 237t152.5 147.5t203.5 50.5q99 0 171.5 -38.5t114 -87.5t44.5 -81v183h62v-821h-62zM122 410q0 -116 50 -199t129 -127t165 -44q95 0 170 45t118.5 128t43.5 197t-43.5 197t-118.5 128.5t-170 45.5q-86 0 -165 -44.5t-129 -127.5t-50 -199zM714 1224
q-4 -35 -31.5 -77t-78 -72t-122.5 -30q-71 0 -121.5 29.5t-78.5 71t-32 78.5l83 21q6 -27 24 -57t49.5 -50.5t75.5 -20.5t75 20.5t49 50.5t23 57z" />
    <glyph glyph-name="Gdotaccent" unicode="&#x120;" horiz-adv-x="1411" 
d="M661 699h661v-62q0 -135 -49 -254.5t-135.5 -211t-202 -143.5t-249.5 -52q-136 0 -252.5 54.5t-203 149.5t-134.5 218.5t-48 262.5q0 138 48 261.5t134.5 218.5t203 149t252.5 54q75 0 144.5 -17t132 -49.5t116 -77.5t95.5 -101l-46 -40q-76 101 -190 161t-252 60
q-124 0 -229 -49t-182.5 -134.5t-120 -197.5t-42.5 -238t42.5 -238t120 -198.5t182.5 -135.5t229 -49q122 0 224.5 47t179 129.5t120.5 190.5t48 230h-597v62zM685 1566q29 0 51.5 -22t22.5 -52t-22.5 -51.5t-51.5 -21.5q-30 0 -51.5 22.5t-21.5 50.5q0 29 21.5 51.5
t51.5 22.5z" />
    <glyph glyph-name="gdotaccent" unicode="&#x121;" horiz-adv-x="1045" 
d="M482 -438q-106 0 -179.5 24t-119.5 60.5t-69 73.5l60 45q16 -25 47.5 -57.5t93 -56.5t167.5 -24t177 49.5t107 130.5t36 175v32h62v-38q0 -134 -51.5 -226.5t-138 -140t-192.5 -47.5zM802 0v182q-6 -28 -46.5 -77.5t-112.5 -89t-171 -39.5q-109 0 -203.5 50t-152.5 147
t-58 237t58 237t152.5 147.5t203.5 50.5q99 0 171.5 -38.5t114 -87.5t44.5 -81v183h62v-821h-62zM122 410q0 -116 50 -199t129 -127t165 -44q95 0 170 45t118.5 128t43.5 197t-43.5 197t-118.5 128.5t-170 45.5q-86 0 -165 -44.5t-129 -127.5t-50 -199zM485 1192
q29 0 51.5 -22t22.5 -52t-22.5 -51.5t-51.5 -21.5q-30 0 -51.5 22.5t-21.5 50.5q0 29 21.5 51.5t51.5 22.5z" />
    <glyph glyph-name="uni0122" unicode="&#x122;" horiz-adv-x="1411" 
d="M661 699h661v-62q0 -135 -49 -254.5t-135.5 -211t-202 -143.5t-249.5 -52q-136 0 -252.5 54.5t-203 149.5t-134.5 218.5t-48 262.5q0 138 48 261.5t134.5 218.5t203 149t252.5 54q75 0 144.5 -17t132 -49.5t116 -77.5t95.5 -101l-46 -40q-76 101 -190 161t-252 60
q-124 0 -229 -49t-182.5 -134.5t-120 -197.5t-42.5 -238t42.5 -238t120 -198.5t182.5 -135.5t229 -49q122 0 224.5 47t179 129.5t120.5 190.5t48 230h-597v62zM702 -105q38 0 65 -27t27 -66q0 -48 -18.5 -88t-48.5 -70t-65 -49l-41 36q32 14 67.5 44t42.5 68q-17 -8 -37 -8
q-33 0 -55 24t-22 51q0 39 24 62t61 23z" />
    <glyph glyph-name="uni0123" unicode="&#x123;" horiz-adv-x="1018" 
d="M482 -438q-106 0 -179.5 24t-119.5 60.5t-69 73.5l60 45q16 -25 47.5 -57.5t93 -56.5t167.5 -24t177 49.5t107 130.5t36 175v32h62v-38q0 -134 -51.5 -226.5t-138 -140t-192.5 -47.5zM802 0v182q-6 -28 -46.5 -77.5t-112.5 -89t-171 -39.5q-109 0 -203.5 50t-152.5 147
t-58 237t58 237t152.5 147.5t203.5 50.5q99 0 171.5 -38.5t114 -87.5t44.5 -81v183h62v-821h-62zM122 410q0 -116 50 -199t129 -127t165 -44q95 0 170 45t118.5 128t43.5 197t-43.5 197t-118.5 128.5t-170 45.5q-86 0 -165 -44.5t-129 -127.5t-50 -199zM491.026 950.259
q-34.3457 0 -58.5273 24.5332q-24.1836 24.5322 -24.1836 59.5791q0 42.7568 16.4717 78.8545q16.4727 36.0986 43.458 63.4355q26.9863 27.3359 58.5283 44.1582l37.1504 -32.9434q-18.9258 -8.41113 -40.3037 -23.4814q-21.3789 -15.0703 -38.2012 -34.6963
t-21.0283 -42.7568q16.1211 7.70996 33.6445 7.70996q30.1406 -0.701172 49.7666 -22.4297q19.626 -21.7295 19.626 -45.5605q0 -23.1309 -9.8125 -40.3037q-9.81348 -17.1738 -26.9854 -26.6357q-17.1738 -9.46289 -39.6035 -9.46289z" />
    <glyph glyph-name="Hcircumflex" unicode="&#x124;" horiz-adv-x="1211" 
d="M978 630h-783v-630h-61v1320h61v-626h783v626h60v-1320h-60v630zM380 1409l-49 65l254 186l255 -187l-48 -66l-207 152z" />
    <glyph glyph-name="hcircumflex" unicode="&#x125;" horiz-adv-x="970" 
d="M498 845q75 0 147 -33t118.5 -104.5t46.5 -185.5v-522h-66v501q0 151 -70 215.5t-178 64.5q-72 0 -139 -42t-110.5 -114t-43.5 -161v-464h-67v1376h67v-723q6 36 46.5 81t105.5 78t143 33zM245 1557l-49 65l254 186l255 -187l-48 -66l-207 152z" />
    <glyph glyph-name="Hbar" unicode="&#x126;" horiz-adv-x="1211" 
d="M79 1069h1019v-63h-1019v63zM978 630h-783v-630h-61v1320h61v-626h783v626h60v-1320h-60v630z" />
    <glyph glyph-name="hbar" unicode="&#x127;" horiz-adv-x="970" 
d="M22 1045v62h420v-62h-420zM498 845q75 0 147 -33t118.5 -104.5t46.5 -185.5v-522h-66v501q0 151 -70 215.5t-178 64.5q-72 0 -139 -42t-110.5 -114t-43.5 -161v-464h-67v1376h67v-723q6 36 46.5 81t105.5 78t143 33z" />
    <glyph glyph-name="Itilde" unicode="&#x128;" horiz-adv-x="405" 
d="M152 1320h64v-1320h-64v1320zM76 1492q-38 0 -63.5 -26t-34.5 -51h-96q10 34 32.5 69.5t56.5 60.5t78 25q60 0 97 -19.5t69.5 -39t78.5 -19.5q41 0 63.5 26.5t28.5 51.5h96q-11 -33 -34.5 -69t-58.5 -61t-79 -25q-60 0 -98.5 19.5t-69 38.5t-66.5 19z" />
    <glyph glyph-name="itilde" unicode="&#x129;" horiz-adv-x="339" 
d="M118 0v821h64v-821h-64zM60 1122q-38 0 -63.5 -26t-34.5 -51h-96q10 34 32.5 69.5t56.5 60.5t78 25q60 0 97 -19.5t69.5 -39t78.5 -19.5q41 0 63.5 26.5t28.5 51.5h96q-11 -33 -34.5 -69t-58.5 -61t-79 -25q-60 0 -98.5 19.5t-69 38.5t-66.5 19z" />
    <glyph glyph-name="Imacron" unicode="&#x12a;" horiz-adv-x="405" 
d="M152 1320h64v-1320h-64v1320zM-85 1466v64h533v-64h-533z" />
    <glyph glyph-name="imacron" unicode="&#x12b;" horiz-adv-x="339" 
d="M118 0v821h64v-821h-64zM-115 1078v64h533v-64h-533z" />
    <glyph glyph-name="Ibreve" unicode="&#x12c;" horiz-adv-x="405" 
d="M152 1320h64v-1320h-64v1320zM414 1559q-4 -35 -31.5 -77t-78 -72t-122.5 -30t-122 29.5t-78 71t-32 78.5l83 21q6 -27 24 -57t49.5 -50.5t75.5 -20.5t75 20.5t49 50.5t23 57z" />
    <glyph glyph-name="ibreve" unicode="&#x12d;" horiz-adv-x="339" 
d="M118 0v821h64v-821h-64zM382 1128q-4 -35 -31.5 -77t-78 -72t-122.5 -30q-71 0 -121.5 29.5t-78.5 71t-32 78.5l83 21q6 -27 24 -57t49.5 -50.5t75.5 -20.5t75 20.5t49 50.5t23 57z" />
    <glyph glyph-name="Iogonek" unicode="&#x12e;" horiz-adv-x="405" 
d="M152 1320h64v-1320h-64v1320zM181 -421q-42 0 -87 14t-76 51t-31 106q0 53 30 108t73.5 102.5t83.5 79.5l43 -40q-32 -29 -68.5 -70.5t-62 -87.5t-25.5 -87q0 -68 41.5 -91.5t97.5 -23.5q49 0 87.5 24.5t57.5 52.5l55 -42q-23 -38 -87 -67t-132 -29z" />
    <glyph glyph-name="iogonek" unicode="&#x12f;" horiz-adv-x="405" 
d="M149 0v821h64v-821h-64zM182 1197q-27 0 -46 19t-19 46q0 28 19.5 47t45.5 19q18 0 33.5 -9t25 -23.5t9.5 -33.5q0 -27 -20 -46t-48 -19zM183 -421q-42 0 -87 14t-76 51t-31 106q0 53 30 108t73.5 102.5t83.5 79.5l43 -40q-32 -29 -68.5 -70.5t-62 -87.5t-25.5 -87
q0 -68 41.5 -91.5t97.5 -23.5q49 0 87.5 24.5t57.5 52.5l55 -42q-23 -38 -87 -67t-132 -29z" />
    <glyph glyph-name="Idotaccent" unicode="&#x130;" horiz-adv-x="405" 
d="M152 1320h64v-1320h-64v1320zM181 1566q29 0 51.5 -22t22.5 -52t-22.5 -51.5t-51.5 -21.5q-30 0 -51.5 22.5t-21.5 50.5q0 29 21.5 51.5t51.5 22.5z" />
    <glyph glyph-name="dotlessi" unicode="&#x131;" horiz-adv-x="339" 
d="M118 0v821h64v-821h-64z" />
    <glyph glyph-name="Jcircumflex" unicode="&#x134;" horiz-adv-x="742" 
d="M614 397q0 -129 -32.5 -223.5t-104 -146t-187.5 -51.5q-98 0 -160.5 28t-95 62.5t-40.5 51.5l43 52q10 -19 36 -50.5t78.5 -56.5t138.5 -25q103 0 160 49t79.5 128.5t22.5 170.5v934h62v-923zM376 1409l-49 65l254 186l255 -187l-48 -66l-207 152z" />
    <glyph glyph-name="jcircumflex" unicode="&#x135;" horiz-adv-x="427" 
d="M51 -440q-48 0 -82 12.5t-47 24.5l40 54q11 -10 28.5 -18.5t59.5 -8.5q59 0 87 36.5t36.5 101.5t8.5 150v909h64v-947q0 -98 -17 -168.5t-59.5 -108t-118.5 -37.5zM9 938l-49 65l254 186l255 -187l-48 -66l-207 152z" />
    <glyph glyph-name="uni0136" unicode="&#x136;" horiz-adv-x="890" 
d="M285 654l571 -654h-78l-564 637v-637h-64v1320h64v-659l533 659h77zM454 -105q38 0 65 -27t27 -66q0 -48 -18.5 -88t-48.5 -70t-65 -49l-41 36q32 14 67.5 44t42.5 68q-17 -8 -37 -8q-33 0 -55 24t-22 51q0 39 24 62t61 23z" />
    <glyph glyph-name="uni0137" unicode="&#x137;" horiz-adv-x="723" 
d="M576 821h96l-454 -391l473 -430h-96l-435 392v-392h-64v1376h64v-914zM354.688 -78.0156q38.1377 0 64.9893 -27.2412q26.8525 -27.2412 26.8525 -66.1572q0 -47.4775 -18.29 -87.5605q-18.291 -40.084 -48.2559 -70.4385q-29.9658 -30.3545 -64.9902 -49.0342
l-41.251 36.5811q21.0146 9.33984 44.7529 26.0732q23.7393 16.7344 42.4189 38.5273t23.3496 47.4775q-17.9014 -8.56152 -37.3594 -8.56152q-33.4678 0.77832 -55.2607 24.9062t-21.793 50.5908q0 25.6846 10.8965 44.7529q10.8965 19.0693 29.9648 29.5762
q19.0693 10.5078 43.9756 10.5078z" />
    <glyph glyph-name="kgreenlandic" unicode="&#x138;" horiz-adv-x="734" 
d="M285 424l416 -424h-85l-402 406v-406h-64v821h64v-391l372 391h83z" />
    <glyph glyph-name="Lacute" unicode="&#x139;" horiz-adv-x="864" 
d="M126 1320h63v-1256h553v-64h-616v1320zM339 1376l-39 49l288 226l59 -75z" />
    <glyph glyph-name="lacute" unicode="&#x13a;" horiz-adv-x="373" 
d="M200 0h-66v1376h66v-1376zM105 1557l-38 49l286 226l61 -75z" />
    <glyph glyph-name="uni013B" unicode="&#x13b;" horiz-adv-x="864" 
d="M126 1320h63v-1256h553v-64h-616v1320zM430 -105q38 0 65 -27t27 -66q0 -48 -18.5 -88t-48.5 -70t-65 -49l-41 36q32 14 67.5 44t42.5 68q-17 -8 -37 -8q-33 0 -55 24t-22 51q0 39 24 62t61 23z" />
    <glyph glyph-name="uni013C" unicode="&#x13c;" horiz-adv-x="373" 
d="M200 0h-66v1376h66v-1376zM184.688 -78.0156q38.1377 0 64.9893 -27.2412q26.8525 -27.2412 26.8525 -66.1572q0 -47.4775 -18.29 -87.5605q-18.291 -40.084 -48.2559 -70.4385q-29.9658 -30.3545 -64.9902 -49.0342l-41.251 36.5811q21.0146 9.33984 44.7529 26.0732
q23.7393 16.7344 42.4189 38.5273t23.3496 47.4775q-17.9014 -8.56152 -37.3594 -8.56152q-33.4678 0.77832 -55.2607 24.9062t-21.793 50.5908q0 25.6846 10.8965 44.7529q10.8965 19.0693 29.9648 29.5762q19.0693 10.5078 43.9756 10.5078z" />
    <glyph glyph-name="Lcaron" unicode="&#x13d;" horiz-adv-x="864" 
d="M126 1320h63v-1256h553v-64h-616v1320zM823.898 1303.31q30.6445 0 52.2207 -21.8896q21.5771 -21.8887 21.5771 -53.1592q0 -38.1494 -14.6963 -70.3574q-14.6982 -32.208 -38.7754 -56.5986q-24.0781 -24.3906 -52.2217 -39.4004l-33.1465 29.3936
q16.8867 7.50488 35.9609 20.9512q19.0752 13.4463 34.085 30.957q15.0088 17.5117 18.7617 38.1494q-14.3848 -6.87891 -30.0195 -6.87891q-26.8926 0.625 -44.4033 20.0127q-17.5117 19.3877 -17.5117 40.6514q0 20.6377 8.75586 35.96q8.75586 15.3232 24.0781 23.7656
q15.3223 8.44336 35.335 8.44336z" />
    <glyph glyph-name="lcaron" unicode="&#x13e;" horiz-adv-x="373" 
d="M200 0h-66v1376h66v-1376zM528.604 1344.53q31.0293 0 52.875 -22.1631q21.8477 -22.1631 21.8477 -53.8252q0 -38.6279 -14.8809 -71.2393q-14.8818 -32.6123 -39.2607 -57.3086q-24.3809 -24.6963 -52.876 -39.8945l-33.5615 29.7627q17.0967 7.59863 36.4102 21.2129
q19.3145 13.6152 34.5127 31.3457q15.1973 17.7305 18.9971 38.6279q-14.5645 -6.96582 -30.3955 -6.96582q-27.2295 0.632812 -44.96 20.2637q-17.7314 19.6309 -17.7314 41.1602q0 20.8975 8.86523 36.4111q8.86621 15.5146 24.3799 24.0635
q15.5146 8.54883 35.7783 8.54883z" />
    <glyph glyph-name="Ldot" unicode="&#x13f;" horiz-adv-x="864" 
d="M126 1320h63v-1256h553v-64h-616v1320zM523 552q-39 0 -66.5 27.5t-27.5 66.5q0 41 27.5 68.5t66.5 27.5q40 0 67.5 -27.5t27.5 -68.5q0 -39 -27.5 -66.5t-67.5 -27.5z" />
    <glyph glyph-name="ldot" unicode="&#x140;" horiz-adv-x="472" 
d="M200 0h-66v1376h66v-1376zM378 597q-39 0 -66.5 27.5t-27.5 66.5q0 41 27.5 68.5t66.5 27.5q40 0 67.5 -27.5t27.5 -68.5q0 -39 -27.5 -66.5t-67.5 -27.5z" />
    <glyph glyph-name="Lslash" unicode="&#x141;" horiz-adv-x="944" 
d="M210 0v659l-151 -118v104l151 118v557h60v-510l116 91v-104l-116 -91v-642h554v-64h-614z" />
    <glyph glyph-name="lslash" unicode="&#x142;" horiz-adv-x="458" 
d="M163 0v608l-89 -70v107l89 70v661h66v-608l115 90v-108l-115 -89v-661h-66z" />
    <glyph glyph-name="Nacute" unicode="&#x143;" horiz-adv-x="1280" 
d="M195 1253h2v-1253h-63v1320h101l811 -1253h-1v1253h62v-1320h-101zM587 1376l-39 49l288 226l59 -75z" />
    <glyph glyph-name="nacute" unicode="&#x144;" horiz-adv-x="954" 
d="M493 845q75 0 147 -33t118.5 -104.5t46.5 -185.5v-522h-66v501q0 151 -70 215.5t-178 64.5q-72 0 -139 -42t-110.5 -114t-43.5 -161v-464h-64v821h64v-168q6 36 47 81t106 78t142 33zM446 1002l-38 49l286 226l61 -75z" />
    <glyph glyph-name="uni0145" unicode="&#x145;" horiz-adv-x="1280" 
d="M195 1253h2v-1253h-63v1320h101l811 -1253h-1v1253h62v-1320h-101zM657 -105q38 0 65 -27t27 -66q0 -48 -18.5 -88t-48.5 -70t-65 -49l-41 36q32 14 67.5 44t42.5 68q-17 -8 -37 -8q-33 0 -55 24t-22 51q0 39 24 62t61 23z" />
    <glyph glyph-name="uni0146" unicode="&#x146;" horiz-adv-x="954" 
d="M493 845q75 0 147 -33t118.5 -104.5t46.5 -185.5v-522h-66v501q0 151 -70 215.5t-178 64.5q-72 0 -139 -42t-110.5 -114t-43.5 -161v-464h-64v821h64v-168q6 36 47 81t106 78t142 33zM460.688 -78.0156q38.1377 0 64.9893 -27.2412q26.8525 -27.2412 26.8525 -66.1572
q0 -47.4775 -18.29 -87.5605q-18.291 -40.084 -48.2559 -70.4385q-29.9658 -30.3545 -64.9902 -49.0342l-41.251 36.5811q21.0146 9.33984 44.7529 26.0732q23.7393 16.7344 42.4189 38.5273t23.3496 47.4775q-17.9014 -8.56152 -37.3594 -8.56152
q-33.4678 0.77832 -55.2607 24.9062t-21.793 50.5908q0 25.6846 10.8965 44.7529q10.8965 19.0693 29.9648 29.5762q19.0693 10.5078 43.9756 10.5078z" />
    <glyph glyph-name="Ncaron" unicode="&#x147;" horiz-adv-x="1280" 
d="M195 1253h2v-1253h-63v1320h101l811 -1253h-1v1253h62v-1320h-101zM439 1544l43 57l179 -129l181 131l41 -58l-222 -163z" />
    <glyph glyph-name="ncaron" unicode="&#x148;" horiz-adv-x="954" 
d="M493 845q75 0 147 -33t118.5 -104.5t46.5 -185.5v-522h-66v501q0 151 -70 215.5t-178 64.5q-72 0 -139 -42t-110.5 -114t-43.5 -161v-464h-64v821h64v-168q6 36 47 81t106 78t142 33zM200 1165l49 65l205 -148l207 150l48 -66l-255 -187z" />
    <glyph glyph-name="Eng" unicode="&#x14a;" horiz-adv-x="1280" 
d="M1107 0h-61v-40q0 -152 -38.5 -236t-127.5 -84q-40 0 -72 11t-46 21l-40 -54q7 -5 55 -23.5t100 -18.5q76 0 127 45.5t77 130t26 202.5v46zM195 1253h2v-1253h-63v1320h101l811 -1253h-1v1253h62v-1320h-101z" />
    <glyph glyph-name="eng" unicode="&#x14b;" horiz-adv-x="954" 
d="M805 0h-66v-72q0 -69 -5 -135.5t-29.5 -109.5t-83.5 -43q-37 0 -63.5 11t-37.5 21l-37 -66q2 -2 36 -16t91 -14q59 0 96.5 23t59.5 64t30.5 95t8.5 116v126zM493 845q75 0 147 -33t118.5 -104.5t46.5 -185.5v-522h-66v501q0 151 -70 215.5t-178 64.5q-72 0 -139 -42
t-110.5 -114t-43.5 -161v-464h-64v821h64v-168q6 36 47 81t106 78t142 33z" />
    <glyph glyph-name="Omacron" unicode="&#x14c;" horiz-adv-x="1411" 
d="M112 661q0 -176 74.5 -316.5t204 -222.5t295.5 -82q167 0 296 82t202.5 222.5t73.5 316.5t-73.5 316t-202.5 221.5t-296 81.5q-166 0 -295.5 -81.5t-204 -221.5t-74.5 -316zM48 661q0 144 48 268.5t134.5 217.5t203 145t252.5 52q137 0 252.5 -52t202 -145t134 -217.5
t47.5 -268.5q0 -145 -47.5 -269.5t-134 -218t-202 -145.5t-252.5 -52q-136 0 -252.5 52t-203 145.5t-134.5 218t-48 269.5zM437 1577v64h533v-64h-533z" />
    <glyph glyph-name="omacron" unicode="&#x14d;" horiz-adv-x="978" 
d="M470 -24q-120 0 -213 58t-146 156t-53 218t53 219.5t146 158.5t213 59t212.5 -59t145 -158.5t52.5 -219.5t-52.5 -218t-145 -156t-212.5 -58zM470 40q104 0 182 48.5t121 132t43 187.5t-43 188.5t-121 134.5t-182 50t-182.5 -50t-122 -134.5t-43.5 -188.5t43.5 -187.5
t122 -132t182.5 -48.5zM202 1078v64h533v-64h-533z" />
    <glyph glyph-name="Obreve" unicode="&#x14e;" horiz-adv-x="1411" 
d="M112 661q0 -176 74.5 -316.5t204 -222.5t295.5 -82q167 0 296 82t202.5 222.5t73.5 316.5t-73.5 316t-202.5 221.5t-296 81.5q-166 0 -295.5 -81.5t-204 -221.5t-74.5 -316zM48 661q0 144 48 268.5t134.5 217.5t203 145t252.5 52q137 0 252.5 -52t202 -145t134 -217.5
t47.5 -268.5q0 -145 -47.5 -269.5t-134 -218t-202 -145.5t-252.5 -52q-136 0 -252.5 52t-203 145.5t-134.5 218t-48 269.5zM918 1559q-4 -35 -31.5 -77t-78 -72t-122.5 -30t-122 29.5t-78 71t-32 78.5l83 21q6 -27 24 -57t49.5 -50.5t75.5 -20.5t75 20.5t49 50.5t23 57z" />
    <glyph glyph-name="obreve" unicode="&#x14f;" horiz-adv-x="978" 
d="M470 -24q-120 0 -213 58t-146 156t-53 218t53 219.5t146 158.5t213 59t212.5 -59t145 -158.5t52.5 -219.5t-52.5 -218t-145 -156t-212.5 -58zM470 40q104 0 182 48.5t121 132t43 187.5t-43 188.5t-121 134.5t-182 50t-182.5 -50t-122 -134.5t-43.5 -188.5t43.5 -187.5
t122 -132t182.5 -48.5zM701 1128q-4 -35 -31.5 -77t-78 -72t-122.5 -30q-71 0 -121.5 29.5t-78.5 71t-32 78.5l83 21q6 -27 24 -57t49.5 -50.5t75.5 -20.5t75 20.5t49 50.5t23 57z" />
    <glyph glyph-name="Ohungarumlaut" unicode="&#x150;" horiz-adv-x="1379" 
d="M112 661q0 -176 74.5 -316.5t204 -222.5t295.5 -82q167 0 296 82t202.5 222.5t73.5 316.5t-73.5 316t-202.5 221.5t-296 81.5q-166 0 -295.5 -81.5t-204 -221.5t-74.5 -316zM48 661q0 144 48 268.5t134.5 217.5t203 145t252.5 52q137 0 252.5 -52t202 -145t134 -217.5
t47.5 -268.5q0 -145 -47.5 -269.5t-134 -218t-202 -145.5t-252.5 -52q-136 0 -252.5 52t-203 145.5t-134.5 218t-48 269.5zM410 1490l-40 38l262 277l62 -79zM755 1490l-40 38l263 277l62 -79z" />
    <glyph glyph-name="ohungarumlaut" unicode="&#x151;" horiz-adv-x="978" 
d="M470 -24q-120 0 -213 58t-146 156t-53 218t53 219.5t146 158.5t213 59t212.5 -59t145 -158.5t52.5 -219.5t-52.5 -218t-145 -156t-212.5 -58zM470 40q104 0 182 48.5t121 132t43 187.5t-43 188.5t-121 134.5t-182 50t-182.5 -50t-122 -134.5t-43.5 -188.5t43.5 -187.5
t122 -132t182.5 -48.5zM210 994l-40 38l262 277l62 -79zM555 994l-40 38l263 277l62 -79z" />
    <glyph glyph-name="OE" unicode="&#x152;" horiz-adv-x="1542" 
d="M677 0q-149 0 -262.5 48.5t-190 137t-115.5 209.5t-39 266q0 144 43.5 265t124 209t192 136.5t247.5 48.5h713v-64h-593v-562h574v-64h-574v-566h593v-64h-713zM667 58h69v1208h-69q-167 0 -286 -82.5t-182 -219.5t-63 -303t59.5 -302.5t177.5 -218.5t294 -82z" />
    <glyph glyph-name="oe" unicode="&#x153;" horiz-adv-x="1674" 
d="M470 -24q-120 0 -213 58t-146 156t-53 218t53 219.5t146 158.5t213 59t212.5 -59t145 -158.5t52.5 -219.5t-52.5 -218t-145 -156t-212.5 -58zM470 40q104 0 182 48.5t121 132t43 187.5t-43 188.5t-121 134.5t-182 50t-182.5 -50t-122 -134.5t-43.5 -188.5t43.5 -187.5
t122 -132t182.5 -48.5zM881 416q0 -97 36 -183.5t110 -140.5t187 -54q91 0 149.5 31t92 72.5t46.5 72.5l59 -40q-40 -65 -89 -109.5t-112.5 -66.5t-148.5 -22q-129 0 -218 60.5t-134.5 162t-45.5 222.5q0 120 46.5 216t135 152t213.5 56q111 0 193.5 -51.5t128.5 -140.5
t46 -203q0 -9 -1 -17.5t-1 -16.5h-693zM1505 480q-2 65 -29.5 135t-91.5 118.5t-176 48.5q-118 0 -186.5 -47t-99 -117t-36.5 -138h619z" />
    <glyph glyph-name="Racute" unicode="&#x154;" horiz-adv-x="1046" 
d="M138 1320h396q100 0 185.5 -41.5t138 -123t52.5 -201.5t-52 -201t-125 -122t-136 -41l333 -590h-74l-323 586h-333v-586h-62v1320zM200 646h314q150 0 241 76t91 232t-91 229t-241 73h-314v-610zM406 1376l-39 49l288 226l59 -75z" />
    <glyph glyph-name="racute" unicode="&#x155;" horiz-adv-x="669" 
d="M203 0h-62v821h62v-154h-5q3 27 35.5 69t89 75.5t130.5 33.5q58 0 98 -14t54 -28l-31 -57q-14 11 -49 23t-85 12q-70 0 -123.5 -50t-83.5 -119t-30 -126v-486zM238 1002l-38 49l286 226l61 -75z" />
    <glyph glyph-name="uni0156" unicode="&#x156;" horiz-adv-x="1046" 
d="M138 1320h396q100 0 185.5 -41.5t138 -123t52.5 -201.5t-52 -201t-125 -122t-136 -41l333 -590h-74l-323 586h-333v-586h-62v1320zM200 646h314q150 0 241 76t91 232t-91 229t-241 73h-314v-610zM476 -105q38 0 65 -27t27 -66q0 -48 -18.5 -88t-48.5 -70t-65 -49l-41 36
q32 14 67.5 44t42.5 68q-17 -8 -37 -8q-33 0 -55 24t-22 51q0 39 24 62t61 23z" />
    <glyph glyph-name="uni0157" unicode="&#x157;" horiz-adv-x="621" 
d="M203 0h-62v821h62v-154h-5q3 27 35.5 69t89 75.5t130.5 33.5q58 0 98 -14t54 -28l-31 -57q-14 11 -49 23t-85 12q-70 0 -123.5 -50t-83.5 -119t-30 -126v-486zM335.688 -78.0156q38.1377 0 64.9893 -27.2412q26.8525 -27.2412 26.8525 -66.1572
q0 -47.4775 -18.29 -87.5605q-18.291 -40.084 -48.2559 -70.4385q-29.9658 -30.3545 -64.9902 -49.0342l-41.251 36.5811q21.0146 9.33984 44.7529 26.0732q23.7393 16.7344 42.4189 38.5273t23.3496 47.4775q-17.9014 -8.56152 -37.3594 -8.56152
q-33.4678 0.77832 -55.2607 24.9062t-21.793 50.5908q0 25.6846 10.8965 44.7529q10.8965 19.0693 29.9648 29.5762q19.0693 10.5078 43.9756 10.5078z" />
    <glyph glyph-name="Rcaron" unicode="&#x158;" horiz-adv-x="1046" 
d="M138 1320h396q100 0 185.5 -41.5t138 -123t52.5 -201.5t-52 -201t-125 -122t-136 -41l333 -590h-74l-323 586h-333v-586h-62v1320zM200 646h314q150 0 241 76t91 232t-91 229t-241 73h-314v-610zM258 1544l43 57l179 -129l181 131l41 -58l-222 -163z" />
    <glyph glyph-name="rcaron" unicode="&#x159;" horiz-adv-x="669" 
d="M203 0h-62v821h62v-154h-5q3 27 35.5 69t89 75.5t130.5 33.5q58 0 98 -14t54 -28l-31 -57q-14 11 -49 23t-85 12q-70 0 -123.5 -50t-83.5 -119t-30 -126v-486zM66 1165l49 65l205 -148l207 150l48 -66l-255 -187z" />
    <glyph glyph-name="Sacute" unicode="&#x15a;" horiz-adv-x="1003" 
d="M485 1344q107 0 180.5 -25.5t114.5 -53.5t47 -36l-40 -56q-15 14 -52 39.5t-98 46.5t-149 21q-142 0 -223 -61t-81 -168q0 -72 42.5 -125.5t114 -96t157.5 -83.5q65 -31 133 -68t126.5 -86.5t94.5 -115.5t36 -154q0 -73 -29.5 -136t-85 -110.5t-133 -73.5t-173.5 -26
q-108 0 -197 29t-143.5 59.5t-59.5 34.5l45 59q13 -10 42.5 -29.5t74.5 -40t106 -34.5t137 -14q170 0 258.5 81.5t88.5 204.5q0 96 -57 163.5t-142.5 117.5t-173.5 92q-93 46 -168 94.5t-119 111t-44 148.5q0 83 48 149t132 104t190 38zM408 1376l-39 49l288 226l59 -75z
" />
    <glyph glyph-name="sacute" unicode="&#x15b;" horiz-adv-x="758" 
d="M379 845q51 0 97 -12.5t82 -31t56 -35.5l-43 -52q-22 21 -74 44t-118 23q-88 0 -150.5 -38t-62.5 -109q0 -69 62.5 -109.5t161.5 -66.5q74 -19 131.5 -46.5t90.5 -73t33 -120.5q0 -60 -24 -105.5t-66.5 -75.5t-98.5 -45.5t-120 -15.5q-61 0 -114.5 14.5t-93.5 35.5
t-62 40l46 59q26 -28 86 -56.5t143 -28.5q101 0 168 49.5t67 128.5q0 59 -32 94t-83 55.5t-107 34.5q-54 14 -100.5 33t-81.5 46.5t-54.5 65.5t-19.5 88q0 62 38 109t102 74t141 27zM270 1002l-38 49l286 226l61 -75z" />
    <glyph glyph-name="Scircumflex" unicode="&#x15c;" horiz-adv-x="1003" 
d="M485 1344q107 0 180.5 -25.5t114.5 -53.5t47 -36l-40 -56q-15 14 -52 39.5t-98 46.5t-149 21q-142 0 -223 -61t-81 -168q0 -72 42.5 -125.5t114 -96t157.5 -83.5q65 -31 133 -68t126.5 -86.5t94.5 -115.5t36 -154q0 -73 -29.5 -136t-85 -110.5t-133 -73.5t-173.5 -26
q-108 0 -197 29t-143.5 59.5t-59.5 34.5l45 59q13 -10 42.5 -29.5t74.5 -40t106 -34.5t137 -14q170 0 258.5 81.5t88.5 204.5q0 96 -57 163.5t-142.5 117.5t-173.5 92q-93 46 -168 94.5t-119 111t-44 148.5q0 83 48 149t132 104t190 38zM276 1409l-49 65l254 186l255 -187
l-48 -66l-207 152z" />
    <glyph glyph-name="scircumflex" unicode="&#x15d;" horiz-adv-x="758" 
d="M379 845q51 0 97 -12.5t82 -31t56 -35.5l-43 -52q-22 21 -74 44t-118 23q-88 0 -150.5 -38t-62.5 -109q0 -69 62.5 -109.5t161.5 -66.5q74 -19 131.5 -46.5t90.5 -73t33 -120.5q0 -60 -24 -105.5t-66.5 -75.5t-98.5 -45.5t-120 -15.5q-61 0 -114.5 14.5t-93.5 35.5
t-62 40l46 59q26 -28 86 -56.5t143 -28.5q101 0 168 49.5t67 128.5q0 59 -32 94t-83 55.5t-107 34.5q-54 14 -100.5 33t-81.5 46.5t-54.5 65.5t-19.5 88q0 62 38 109t102 74t141 27zM155 938l-49 65l254 186l255 -187l-48 -66l-207 152z" />
    <glyph glyph-name="Scedilla" unicode="&#x15e;" horiz-adv-x="1003" 
d="M485 1344q107 0 180.5 -25.5t114.5 -53.5t47 -36l-40 -56q-15 14 -52 39.5t-98 46.5t-149 21q-142 0 -223 -61t-81 -168q0 -72 42.5 -125.5t114 -96t157.5 -83.5q65 -31 133 -68t126.5 -86.5t94.5 -115.5t36 -154q0 -73 -29.5 -136t-85 -110.5t-133 -73.5t-173.5 -26
q-108 0 -197 29t-143.5 59.5t-59.5 34.5l45 59q13 -10 42.5 -29.5t74.5 -40t106 -34.5t137 -14q170 0 258.5 81.5t88.5 204.5q0 96 -57 163.5t-142.5 117.5t-173.5 92q-93 46 -168 94.5t-119 111t-44 148.5q0 83 48 149t132 104t190 38zM442 42l55 -28l-55 -160
q41 15 96.5 11t97.5 -32t42 -86q0 -56 -32.5 -93t-81 -55t-96.5 -18q-56 0 -106.5 17.5t-75.5 33.5l43 54q19 -14 57.5 -29t81.5 -15q59 0 100 25t41 67q0 41 -27.5 60.5t-73.5 19.5q-31 0 -59 -4.5t-42 -9.5l-41 22z" />
    <glyph glyph-name="scedilla" unicode="&#x15f;" horiz-adv-x="758" 
d="M379 845q51 0 97 -12.5t82 -31t56 -35.5l-43 -52q-22 21 -74 44t-118 23q-88 0 -150.5 -38t-62.5 -109q0 -69 62.5 -109.5t161.5 -66.5q74 -19 131.5 -46.5t90.5 -73t33 -120.5q0 -60 -24 -105.5t-66.5 -75.5t-98.5 -45.5t-120 -15.5q-61 0 -114.5 14.5t-93.5 35.5
t-62 40l46 59q26 -28 86 -56.5t143 -28.5q101 0 168 49.5t67 128.5q0 59 -32 94t-83 55.5t-107 34.5q-54 14 -100.5 33t-81.5 46.5t-54.5 65.5t-19.5 88q0 62 38 109t102 74t141 27zM350 42l55 -28l-55 -160q41 15 96.5 11t97.5 -32t42 -86q0 -56 -32.5 -93t-81 -55
t-96.5 -18q-56 0 -106.5 17.5t-75.5 33.5l43 54q19 -14 57.5 -29t81.5 -15q59 0 100 25t41 67q0 41 -27.5 60.5t-73.5 19.5q-31 0 -59 -4.5t-42 -9.5l-41 22z" />
    <glyph glyph-name="Scaron" unicode="&#x160;" horiz-adv-x="1003" 
d="M485 1344q107 0 180.5 -25.5t114.5 -53.5t47 -36l-40 -56q-15 14 -52 39.5t-98 46.5t-149 21q-142 0 -223 -61t-81 -168q0 -72 42.5 -125.5t114 -96t157.5 -83.5q65 -31 133 -68t126.5 -86.5t94.5 -115.5t36 -154q0 -73 -29.5 -136t-85 -110.5t-133 -73.5t-173.5 -26
q-108 0 -197 29t-143.5 59.5t-59.5 34.5l45 59q13 -10 42.5 -29.5t74.5 -40t106 -34.5t137 -14q170 0 258.5 81.5t88.5 204.5q0 96 -57 163.5t-142.5 117.5t-173.5 92q-93 46 -168 94.5t-119 111t-44 148.5q0 83 48 149t132 104t190 38zM260 1544l43 57l179 -129l181 131
l41 -58l-222 -163z" />
    <glyph glyph-name="scaron" unicode="&#x161;" horiz-adv-x="758" 
d="M379 845q51 0 97 -12.5t82 -31t56 -35.5l-43 -52q-22 21 -74 44t-118 23q-88 0 -150.5 -38t-62.5 -109q0 -69 62.5 -109.5t161.5 -66.5q74 -19 131.5 -46.5t90.5 -73t33 -120.5q0 -60 -24 -105.5t-66.5 -75.5t-98.5 -45.5t-120 -15.5q-61 0 -114.5 14.5t-93.5 35.5
t-62 40l46 59q26 -28 86 -56.5t143 -28.5q101 0 168 49.5t67 128.5q0 59 -32 94t-83 55.5t-107 34.5q-54 14 -100.5 33t-81.5 46.5t-54.5 65.5t-19.5 88q0 62 38 109t102 74t141 27zM111 1165l49 65l205 -148l207 150l48 -66l-255 -187z" />
    <glyph glyph-name="uni0162" unicode="&#x162;" horiz-adv-x="962" 
d="M429 1256h-392v64h848v-64h-392v-1256h-64v1256zM432 42l55 -28l-55 -160q41 15 96.5 11t97.5 -32t42 -86q0 -56 -32.5 -93t-81 -55t-96.5 -18q-56 0 -106.5 17.5t-75.5 33.5l43 54q19 -14 57.5 -29t81.5 -15q59 0 100 25t41 67q0 41 -27.5 60.5t-73.5 19.5
q-31 0 -59 -4.5t-42 -9.5l-41 22z" />
    <glyph glyph-name="uni0163" unicode="&#x163;" horiz-adv-x="608" 
d="M53 821h179v337h64v-337h234v-64h-234v-555q0 -91 34 -126.5t80 -35.5q47 0 70 16t27 21l39 -53q-5 -5 -22 -17t-45.5 -21.5t-70.5 -9.5q-73 0 -124.5 49.5t-51.5 160.5v571h-179v64zM379 34l55 -28l-55 -160q41 15 96.5 11t97.5 -32t42 -86q0 -56 -32.5 -93t-81 -55
t-96.5 -18q-56 0 -106.5 17.5t-75.5 33.5l43 54q19 -14 57.5 -29t81.5 -15q59 0 100 25t41 67q0 41 -27.5 60.5t-73.5 19.5q-31 0 -59 -4.5t-42 -9.5l-41 22z" />
    <glyph glyph-name="Tcaron" unicode="&#x164;" horiz-adv-x="962" 
d="M429 1256h-392v64h848v-64h-392v-1256h-64v1256zM239 1544l43 57l179 -129l181 131l41 -58l-222 -163z" />
    <glyph glyph-name="tcaron" unicode="&#x165;" horiz-adv-x="608" 
d="M53 821h179v337h64v-337h234v-64h-234v-555q0 -91 34 -126.5t80 -35.5q47 0 70 16t27 21l39 -53q-5 -5 -22 -17t-45.5 -21.5t-70.5 -9.5q-73 0 -124.5 49.5t-51.5 160.5v571h-179v64zM688.836 1273.3q31.6289 0 53.8984 -22.5918q22.2695 -22.5928 22.2695 -54.8672
q0 -39.376 -15.168 -72.6182q-15.1699 -33.2441 -40.0215 -58.418q-24.8516 -25.1748 -53.8994 -40.666l-34.2109 30.3379q17.4287 7.74609 37.1152 21.624q19.6885 13.8779 35.1807 31.9521q15.4912 18.0742 19.3643 39.375q-14.8457 -7.09961 -30.9834 -7.09961
q-27.7568 0.645508 -45.8301 20.6553q-18.0742 20.0107 -18.0742 41.957q0 21.3018 9.03711 37.1162q9.03711 15.8154 24.8506 24.5283q15.8154 8.71484 36.4717 8.71484z" />
    <glyph glyph-name="Tbar" unicode="&#x166;" horiz-adv-x="962" 
d="M53 765h809v-64h-809v64zM429 1256h-392v64h848v-64h-392v-1256h-64v1256z" />
    <glyph glyph-name="tbar" unicode="&#x167;" horiz-adv-x="608" 
d="M54 549h477v-64h-477v64zM53 821h179v337h64v-337h234v-64h-234v-555q0 -91 34 -126.5t80 -35.5q47 0 70 16t27 21l39 -53q-5 -5 -22 -17t-45.5 -21.5t-70.5 -9.5q-73 0 -124.5 49.5t-51.5 160.5v571h-179v64z" />
    <glyph glyph-name="Utilde" unicode="&#x168;" horiz-adv-x="1218" 
d="M1011 1320h63v-827q0 -163 -66 -279t-175 -177t-239 -61t-240 61t-176 177t-66 279v827h62v-824q0 -137 57 -239.5t152.5 -159.5t210.5 -57t209.5 57t151 159.5t56.5 239.5v824zM488 1492q-38 0 -63.5 -26t-34.5 -51h-96q10 34 32.5 69.5t56.5 60.5t78 25q60 0 97 -19.5
t69.5 -39t78.5 -19.5q41 0 63.5 26.5t28.5 51.5h96q-11 -33 -34.5 -69t-58.5 -61t-79 -25q-60 0 -98.5 19.5t-69 38.5t-66.5 19z" />
    <glyph glyph-name="utilde" unicode="&#x169;" horiz-adv-x="962" 
d="M181 379q0 -156 70.5 -247.5t209.5 -91.5t209.5 91.5t70.5 247.5v442h64v-459q0 -110 -40 -197.5t-116.5 -138t-187.5 -50.5q-110 0 -187 50.5t-117 138t-40 197.5v459h64v-442zM371 1122q-38 0 -63.5 -26t-34.5 -51h-96q10 34 32.5 69.5t56.5 60.5t78 25q60 0 97 -19.5
t69.5 -39t78.5 -19.5q41 0 63.5 26.5t28.5 51.5h96q-11 -33 -34.5 -69t-58.5 -61t-79 -25q-60 0 -98.5 19.5t-69 38.5t-66.5 19z" />
    <glyph glyph-name="Umacron" unicode="&#x16a;" horiz-adv-x="1218" 
d="M1011 1320h63v-827q0 -163 -66 -279t-175 -177t-239 -61t-240 61t-176 177t-66 279v827h62v-824q0 -137 57 -239.5t152.5 -159.5t210.5 -57t209.5 57t151 159.5t56.5 239.5v824zM327 1466v64h533v-64h-533z" />
    <glyph glyph-name="umacron" unicode="&#x16b;" horiz-adv-x="962" 
d="M181 379q0 -156 70.5 -247.5t209.5 -91.5t209.5 91.5t70.5 247.5v442h64v-459q0 -110 -40 -197.5t-116.5 -138t-187.5 -50.5q-110 0 -187 50.5t-117 138t-40 197.5v459h64v-442zM189 1078v64h533v-64h-533z" />
    <glyph glyph-name="Ubreve" unicode="&#x16c;" horiz-adv-x="1218" 
d="M1011 1320h63v-827q0 -163 -66 -279t-175 -177t-239 -61t-240 61t-176 177t-66 279v827h62v-824q0 -137 57 -239.5t152.5 -159.5t210.5 -57t209.5 57t151 159.5t56.5 239.5v824zM826 1559q-4 -35 -31.5 -77t-78 -72t-122.5 -30t-122 29.5t-78 71t-32 78.5l83 21
q6 -27 24 -57t49.5 -50.5t75.5 -20.5t75 20.5t49 50.5t23 57z" />
    <glyph glyph-name="ubreve" unicode="&#x16d;" horiz-adv-x="962" 
d="M181 379q0 -156 70.5 -247.5t209.5 -91.5t209.5 91.5t70.5 247.5v442h64v-459q0 -110 -40 -197.5t-116.5 -138t-187.5 -50.5q-110 0 -187 50.5t-117 138t-40 197.5v459h64v-442zM693 1128q-4 -35 -31.5 -77t-78 -72t-122.5 -30q-71 0 -121.5 29.5t-78.5 71t-32 78.5
l83 21q6 -27 24 -57t49.5 -50.5t75.5 -20.5t75 20.5t49 50.5t23 57z" />
    <glyph glyph-name="Uring" unicode="&#x16e;" horiz-adv-x="1218" 
d="M1011 1320h63v-827q0 -163 -66 -279t-175 -177t-239 -61t-240 61t-176 177t-66 279v827h62v-824q0 -137 57 -239.5t152.5 -159.5t210.5 -57t209.5 57t151 159.5t56.5 239.5v824zM432 1526q0 62 47.5 104t114.5 42q68 0 114.5 -42t46.5 -104q0 -64 -45 -104.5t-116 -40.5
q-73 0 -117.5 40.5t-44.5 104.5zM504 1526q0 -43 27.5 -67t62.5 -24q38 0 63.5 24t25.5 67q0 44 -25.5 67.5t-63.5 23.5q-35 0 -62.5 -23.5t-27.5 -67.5z" />
    <glyph glyph-name="uring" unicode="&#x16f;" horiz-adv-x="962" 
d="M181 379q0 -156 70.5 -247.5t209.5 -91.5t209.5 91.5t70.5 247.5v442h64v-459q0 -110 -40 -197.5t-116.5 -138t-187.5 -50.5q-110 0 -187 50.5t-117 138t-40 197.5v459h64v-442zM299 1075q0 42 22 75t58.5 52t81.5 19q46 0 82 -19t57.5 -52t21.5 -75q0 -64 -45 -104.5
t-116 -40.5q-73 0 -117.5 40.5t-44.5 104.5zM371 1075q0 -43 27.5 -67t62.5 -24q38 0 63.5 24t25.5 67q0 44 -25.5 67.5t-63.5 23.5q-35 0 -62.5 -23.5t-27.5 -67.5z" />
    <glyph glyph-name="Uhungarumlaut" unicode="&#x170;" horiz-adv-x="1218" 
d="M1011 1320h63v-827q0 -163 -66 -279t-175 -177t-239 -61t-240 61t-176 177t-66 279v827h62v-824q0 -137 57 -239.5t152.5 -159.5t210.5 -57t209.5 57t151 159.5t56.5 239.5v824zM299 1378l-40 38l262 277l62 -79zM644 1378l-40 38l263 277l62 -79z" />
    <glyph glyph-name="uhungarumlaut" unicode="&#x171;" horiz-adv-x="962" 
d="M181 379q0 -156 70.5 -247.5t209.5 -91.5t209.5 91.5t70.5 247.5v442h64v-459q0 -110 -40 -197.5t-116.5 -138t-187.5 -50.5q-110 0 -187 50.5t-117 138t-40 197.5v459h64v-442zM210 994l-40 38l262 277l62 -79zM555 994l-40 38l263 277l62 -79z" />
    <glyph glyph-name="Uogonek" unicode="&#x172;" horiz-adv-x="1218" 
d="M1011 1320h63v-827q0 -163 -66 -279t-175 -177t-239 -61t-240 61t-176 177t-66 279v827h62v-824q0 -137 57 -239.5t152.5 -159.5t210.5 -57t209.5 57t151 159.5t56.5 239.5v824zM645 -421q-42 0 -87 14t-76 51t-31 106q0 53 30 108t73.5 102.5t83.5 79.5l43 -40
q-32 -29 -68.5 -70.5t-62 -87.5t-25.5 -87q0 -68 41.5 -91.5t97.5 -23.5q49 0 87.5 24.5t57.5 52.5l55 -42q-23 -38 -87 -67t-132 -29z" />
    <glyph glyph-name="uogonek" unicode="&#x173;" horiz-adv-x="962" 
d="M181 379q0 -156 70.5 -247.5t209.5 -91.5t209.5 91.5t70.5 247.5v442h64v-459q0 -110 -40 -197.5t-116.5 -138t-187.5 -50.5q-110 0 -187 50.5t-117 138t-40 197.5v459h64v-442zM490 -421q-42 0 -87 14t-76 51t-31 106q0 53 30 108t73.5 102.5t83.5 79.5l43 -40
q-32 -29 -68.5 -70.5t-62 -87.5t-25.5 -87q0 -68 41.5 -91.5t97.5 -23.5q49 0 87.5 24.5t57.5 52.5l55 -42q-23 -38 -87 -67t-132 -29z" />
    <glyph glyph-name="Wcircumflex" unicode="&#x174;" horiz-adv-x="1493" 
d="M1128 0h-93l-328 1290h16l-328 -1290h-93l-257 1320h69l236 -1242h-1l318 1242h96l319 -1242h-2l237 1242h69zM520 1409l-49 65l254 186l255 -187l-48 -66l-207 152z" />
    <glyph glyph-name="wcircumflex" unicode="&#x175;" horiz-adv-x="1211" 
d="M586 733l-223 -733h-96l-182 821h69l163 -746l221 730h96l220 -730l165 746h69l-182 -821h-96zM381 938l-49 65l254 186l255 -187l-48 -66l-207 152z" />
    <glyph glyph-name="Ycircumflex" unicode="&#x176;" horiz-adv-x="1026" 
d="M461 475l-434 845h74l392 -766l390 766h74l-432 -845v-475h-64v475zM287 1409l-49 65l254 186l255 -187l-48 -66l-207 152z" />
    <glyph glyph-name="ycircumflex" unicode="&#x177;" horiz-adv-x="835" 
d="M402 70l323 751h70l-545 -1237h-69l184 416l-335 821h71zM193 938l-49 65l254 186l255 -187l-48 -66l-207 152z" />
    <glyph glyph-name="Ydieresis" unicode="&#x178;" horiz-adv-x="1026" 
d="M461 475l-434 845h74l392 -766l390 766h74l-432 -845v-475h-64v475zM303 1566q29 0 51.5 -22t22.5 -52t-22.5 -51.5t-51.5 -21.5q-30 0 -51.5 22.5t-21.5 50.5q0 29 21.5 51.5t51.5 22.5zM682 1566q29 0 51.5 -22t22.5 -52t-22.5 -51.5t-51.5 -21.5q-30 0 -51.5 22.5
t-21.5 50.5q0 29 21.5 51.5t51.5 22.5z" />
    <glyph glyph-name="Zacute" unicode="&#x179;" horiz-adv-x="1107" 
d="M157 1320h846l-816 -1256h773v-64h-896l822 1256h-729v64zM460 1376l-39 49l288 226l59 -75z" />
    <glyph glyph-name="zacute" unicode="&#x17a;" horiz-adv-x="794" 
d="M83 821h634l-560 -757h549v-64h-671l560 757h-512v64zM318 1002l-38 49l286 226l61 -75z" />
    <glyph glyph-name="Zdotaccent" unicode="&#x17b;" horiz-adv-x="1107" 
d="M157 1320h846l-816 -1256h773v-64h-896l822 1256h-729v64zM533 1566q29 0 51.5 -22t22.5 -52t-22.5 -51.5t-51.5 -21.5q-30 0 -51.5 22.5t-21.5 50.5q0 29 21.5 51.5t51.5 22.5z" />
    <glyph glyph-name="zdotaccent" unicode="&#x17c;" horiz-adv-x="794" 
d="M83 821h634l-560 -757h549v-64h-671l560 757h-512v64zM376 1192q29 0 51.5 -22t22.5 -52t-22.5 -51.5t-51.5 -21.5q-30 0 -51.5 22.5t-21.5 50.5q0 29 21.5 51.5t51.5 22.5z" />
    <glyph glyph-name="Zcaron" unicode="&#x17d;" horiz-adv-x="1107" 
d="M157 1320h846l-816 -1256h773v-64h-896l822 1256h-729v64zM312 1544l43 57l179 -129l181 131l41 -58l-222 -163z" />
    <glyph glyph-name="zcaron" unicode="&#x17e;" horiz-adv-x="794" 
d="M83 821h634l-560 -757h549v-64h-671l560 757h-512v64zM133 1165l49 65l205 -148l207 150l48 -66l-255 -187z" />
    <glyph glyph-name="uni018F" unicode="&#x18f;" horiz-adv-x="1316" 
d="M624 -13q-131 0 -237.5 53t-182 146t-116 214t-40.5 258q0 6 0.5 11.5t1 11.5t0.5 10h1108q0 185 -65 317.5t-183.5 203t-280.5 70.5q-110 0 -194 -32.5t-143 -79.5t-93.5 -91.5t-44.5 -68.5l-60 40q25 58 98.5 126.5t186 118t253.5 49.5q178 0 311.5 -77t208.5 -224
t75 -357q0 -196 -72 -354.5t-207 -251.5t-324 -93zM624 51q129 0 228 49t166 131.5t101.5 185t34.5 210.5h-1036q0 -105 34 -207.5t99 -186t159 -133t214 -49.5z" />
    <glyph glyph-name="florin" unicode="&#x192;" horiz-adv-x="610" 
d="M-112 -427q-68 0 -103.5 19.5t-40.5 23.5l38 56q6 -6 34.5 -22t85.5 -16q42 0 85 20.5t78 81.5t52 182l120 840h-195l9 63h195l34 246q18 130 64.5 202t107 101.5t118.5 29.5q68 0 103.5 -19t40.5 -24l-39 -56q-6 6 -34 22t-86 16q-41 0 -84.5 -20.5t-78 -81.5
t-51.5 -183l-32 -233h259l-10 -63h-259l-121 -852q-18 -130 -65 -202.5t-107.5 -101.5t-117.5 -29z" />
    <glyph glyph-name="Ohorn" unicode="&#x1a0;" horiz-adv-x="1411" 
d="M112 661q0 -176 74.5 -316.5t204 -222.5t295.5 -82q167 0 296 82t202.5 222.5t73.5 316.5t-73.5 316t-202.5 221.5t-296 81.5q-166 0 -295.5 -81.5t-204 -221.5t-74.5 -316zM48 661q0 144 48 268.5t134.5 217.5t203 145t252.5 52q137 0 252.5 -52t202 -145t134 -217.5
t47.5 -268.5q0 -145 -47.5 -269.5t-134 -218t-202 -145.5t-252.5 -52q-136 0 -252.5 52t-203 145.5t-134.5 218t-48 269.5zM1182 1114q-29 0 -56.5 9.5t-50.5 22.5v56q15 -13 42 -23.5t57 -10.5q65 0 97 43t32 95q0 44 -6 66.5t-18 50.5h63q8 -14 16.5 -42t8.5 -80
q0 -45 -24.5 -88t-66 -71t-94.5 -28z" />
    <glyph glyph-name="ohorn" unicode="&#x1a1;" horiz-adv-x="978" 
d="M470 -24q-120 0 -213 58t-146 156t-53 218t53 219.5t146 158.5t213 59t212.5 -59t145 -158.5t52.5 -219.5t-52.5 -218t-145 -156t-212.5 -58zM470 40q104 0 182 48.5t121 132t43 187.5t-43 188.5t-121 134.5t-182 50t-182.5 -50t-122 -134.5t-43.5 -188.5t43.5 -187.5
t122 -132t182.5 -48.5zM785 693q-29 0 -56.5 9.5t-50.5 22.5v56q15 -13 42 -23.5t57 -10.5q65 0 97 43t32 95q0 44 -6 66.5t-18 50.5h63q8 -14 16.5 -42t8.5 -80q0 -45 -24.5 -88t-66 -71t-94.5 -28z" />
    <glyph glyph-name="Uhorn" unicode="&#x1af;" horiz-adv-x="1355" 
d="M1011 1320h63v-827q0 -163 -66 -279t-175 -177t-239 -61t-240 61t-176 177t-66 279v827h62v-824q0 -137 57 -239.5t152.5 -159.5t210.5 -57t209.5 57t151 159.5t56.5 239.5v824zM1181 1232q-29 0 -56.5 9.5t-50.5 22.5v56q15 -13 42 -23.5t57 -10.5q65 0 97 43t32 95
q0 44 -6 66.5t-18 50.5h63q8 -14 16.5 -42t8.5 -80q0 -45 -24.5 -88t-66 -71t-94.5 -28z" />
    <glyph glyph-name="uhorn" unicode="&#x1b0;" horiz-adv-x="1086" 
d="M181 379q0 -156 70.5 -247.5t209.5 -91.5t209.5 91.5t70.5 247.5v442h64v-459q0 -110 -40 -197.5t-116.5 -138t-187.5 -50.5q-110 0 -187 50.5t-117 138t-40 197.5v459h64v-442zM912 733q-29 0 -56.5 9.5t-50.5 22.5v56q15 -13 42 -23.5t57 -10.5q65 0 97 43t32 95
q0 44 -6 66.5t-18 50.5h63q8 -14 16.5 -42t8.5 -80q0 -45 -24.5 -88t-66 -71t-94.5 -28z" />
    <glyph glyph-name="uni01C4" unicode="&#x1c4;" horiz-adv-x="2195" 
d="M123 1320h239q211 0 345 -84.5t197.5 -233.5t63.5 -341q0 -193 -63 -342t-197 -234t-346 -85h-239v1320zM184 1256v-1192h174q192 0 312 76t176.5 210t57.5 309t-55 309.5t-177 211t-314 76.5h-174zM1245 1320h846l-816 -1256h773v-64h-896l822 1256h-729v64zM1384 1664
l49 65l205 -148l207 150l48 -66l-255 -187z" />
    <glyph glyph-name="uni01C5" unicode="&#x1c5;" horiz-adv-x="1882" 
d="M123 1320h239q211 0 345 -84.5t197.5 -233.5t63.5 -341q0 -193 -63 -342t-197 -234t-346 -85h-239v1320zM184 1256v-1192h174q192 0 312 76t176.5 210t57.5 309t-55 309.5t-177 211t-314 76.5h-174zM1171 821h634l-560 -757h549v-64h-671l560 757h-512v64zM1228 1165
l49 65l205 -148l207 150l48 -66l-255 -187z" />
    <glyph glyph-name="uni01C6" unicode="&#x1c6;" horiz-adv-x="1783" 
d="M904 0v1376h-67v-738q-4 34 -47.5 83t-119.5 86.5t-176 37.5q-110 0 -200 -50.5t-144 -147.5t-54 -237t54 -237t144 -147t200 -50q101 0 178 39t121 88t47 79v-182h64zM162 410q0 116 46 199t120 127.5t160 44.5q95 0 174.5 -45.5t127 -128.5t47.5 -197t-47.5 -197
t-127 -128t-174.5 -45q-86 0 -160 44t-120 127t-46 199zM1072 821h634l-560 -757h549v-64h-671l560 757h-512v64zM1129 1165l49 65l205 -148l207 150l48 -66l-255 -187z" />
    <glyph glyph-name="uni01C7" unicode="&#x1c7;" horiz-adv-x="1606" 
d="M126 1320h63v-1256h553v-64h-616v1320zM1478 397q0 -129 -32.5 -223.5t-104 -146t-187.5 -51.5q-98 0 -160.5 28t-95 62.5t-40.5 51.5l43 52q10 -19 36 -50.5t78.5 -56.5t138.5 -25q103 0 160 49t79.5 128.5t22.5 170.5v934h62v-923z" />
    <glyph glyph-name="uni01C8" unicode="&#x1c8;" horiz-adv-x="1291" 
d="M126 1320h63v-1256h553v-64h-616v1320zM915 -440q-48 0 -82 12.5t-47 24.5l40 54q11 -10 28.5 -18.5t59.5 -8.5q59 0 87 36.5t36.5 101.5t8.5 150v909h64v-947q0 -98 -17 -168.5t-59.5 -108t-118.5 -37.5zM1085 1197q-28 0 -47 19t-19 46q0 18 9 33t24 24t33 9
q19 0 33.5 -9t23 -24t8.5 -33q0 -27 -18.5 -46t-46.5 -19z" />
    <glyph glyph-name="uni01C9" unicode="&#x1c9;" horiz-adv-x="800" 
d="M200 0h-66v1376h66v-1376zM424 -440q-48 0 -82 12.5t-47 24.5l40 54q11 -10 28.5 -18.5t59.5 -8.5q59 0 87 36.5t36.5 101.5t8.5 150v909h64v-947q0 -98 -17 -168.5t-59.5 -108t-118.5 -37.5zM594 1197q-28 0 -47 19t-19 46q0 18 9 33t24 24t33 9q19 0 33.5 -9t23 -24
t8.5 -33q0 -27 -18.5 -46t-46.5 -19z" />
    <glyph glyph-name="uni01CA" unicode="&#x1ca;" horiz-adv-x="2022" 
d="M195 1253h2v-1253h-63v1320h101l811 -1253h-1v1253h62v-1320h-101zM1894 397q0 -129 -32.5 -223.5t-104 -146t-187.5 -51.5q-98 0 -160.5 28t-95 62.5t-40.5 51.5l43 52q10 -19 36 -50.5t78.5 -56.5t138.5 -25q103 0 160 49t79.5 128.5t22.5 170.5v934h62v-923z" />
    <glyph glyph-name="uni01CB" unicode="&#x1cb;" horiz-adv-x="1707" 
d="M195 1253h2v-1253h-63v1320h101l811 -1253h-1v1253h62v-1320h-101zM1331 -440q-48 0 -82 12.5t-47 24.5l40 54q11 -10 28.5 -18.5t59.5 -8.5q59 0 87 36.5t36.5 101.5t8.5 150v909h64v-947q0 -98 -17 -168.5t-59.5 -108t-118.5 -37.5zM1501 1197q-28 0 -47 19t-19 46
q0 18 9 33t24 24t33 9q19 0 33.5 -9t23 -24t8.5 -33q0 -27 -18.5 -46t-46.5 -19z" />
    <glyph glyph-name="uni01CC" unicode="&#x1cc;" horiz-adv-x="1381" 
d="M493 845q75 0 147 -33t118.5 -104.5t46.5 -185.5v-522h-66v501q0 151 -70 215.5t-178 64.5q-72 0 -139 -42t-110.5 -114t-43.5 -161v-464h-64v821h64v-168q6 36 47 81t106 78t142 33zM1005 -440q-48 0 -82 12.5t-47 24.5l40 54q11 -10 28.5 -18.5t59.5 -8.5q59 0 87 36.5
t36.5 101.5t8.5 150v909h64v-947q0 -98 -17 -168.5t-59.5 -108t-118.5 -37.5zM1175 1197q-28 0 -47 19t-19 46q0 18 9 33t24 24t33 9q19 0 33.5 -9t23 -24t8.5 -33q0 -27 -18.5 -46t-46.5 -19z" />
    <glyph glyph-name="uni01CE" unicode="&#x1ce;" horiz-adv-x="1008" 
d="M802 0v182q-6 -28 -46.5 -77.5t-112.5 -89t-171 -39.5q-109 0 -203.5 50t-152.5 147t-58 237t58 237t152.5 147.5t203.5 50.5q99 0 171.5 -38.5t114 -87.5t44.5 -81v183h62v-821h-62zM122 410q0 -116 50 -199t129 -127t165 -44q95 0 170 45t118.5 128t43.5 197t-43.5 197
t-118.5 128.5t-170 45.5q-86 0 -165 -44.5t-129 -127.5t-50 -199zM255 1165l49 65l205 -148l207 150l48 -66l-255 -187z" />
    <glyph glyph-name="uni01D0" unicode="&#x1d0;" horiz-adv-x="339" 
d="M118 0v821h64v-821h-64zM-88 1165l49 65l205 -148l207 150l48 -66l-255 -187z" />
    <glyph glyph-name="uni01D2" unicode="&#x1d2;" horiz-adv-x="978" 
d="M470 -24q-120 0 -213 58t-146 156t-53 218t53 219.5t146 158.5t213 59t212.5 -59t145 -158.5t52.5 -219.5t-52.5 -218t-145 -156t-212.5 -58zM470 40q104 0 182 48.5t121 132t43 187.5t-43 188.5t-121 134.5t-182 50t-182.5 -50t-122 -134.5t-43.5 -188.5t43.5 -187.5
t122 -132t182.5 -48.5zM231 1165l49 65l205 -148l207 150l48 -66l-255 -187z" />
    <glyph glyph-name="uni01D4" unicode="&#x1d4;" horiz-adv-x="962" 
d="M181 379q0 -156 70.5 -247.5t209.5 -91.5t209.5 91.5t70.5 247.5v442h64v-459q0 -110 -40 -197.5t-116.5 -138t-187.5 -50.5q-110 0 -187 50.5t-117 138t-40 197.5v459h64v-442zM223 1165l49 65l205 -148l207 150l48 -66l-255 -187z" />
    <glyph glyph-name="uni01D6" unicode="&#x1d6;" horiz-adv-x="962" 
d="M181 379q0 -156 70.5 -247.5t209.5 -91.5t209.5 91.5t70.5 247.5v442h64v-459q0 -110 -40 -197.5t-116.5 -138t-187.5 -50.5q-110 0 -187 50.5t-117 138t-40 197.5v459h64v-442zM286 1063q29 0 51.5 -22t22.5 -52t-22.5 -51.5t-51.5 -21.5q-30 0 -51.5 22.5t-21.5 50.5
q0 29 21.5 51.5t51.5 22.5zM665 1063q29 0 51.5 -22t22.5 -52t-22.5 -51.5t-51.5 -21.5q-30 0 -51.5 22.5t-21.5 50.5q0 29 21.5 51.5t51.5 22.5zM212 1320v64h533v-64h-533z" />
    <glyph glyph-name="uni01D8" unicode="&#x1d8;" horiz-adv-x="962" 
d="M181 379q0 -156 70.5 -247.5t209.5 -91.5t209.5 91.5t70.5 247.5v442h64v-459q0 -110 -40 -197.5t-116.5 -138t-187.5 -50.5q-110 0 -187 50.5t-117 138t-40 197.5v459h64v-442zM286 1063q29 0 51.5 -22t22.5 -52t-22.5 -51.5t-51.5 -21.5q-30 0 -51.5 22.5t-21.5 50.5
q0 29 21.5 51.5t51.5 22.5zM665 1063q29 0 51.5 -22t22.5 -52t-22.5 -51.5t-51.5 -21.5q-30 0 -51.5 22.5t-21.5 50.5q0 29 21.5 51.5t51.5 22.5zM342 1244l-38 49l286 226l61 -75z" />
    <glyph glyph-name="uni01DA" unicode="&#x1da;" horiz-adv-x="962" 
d="M181 379q0 -156 70.5 -247.5t209.5 -91.5t209.5 91.5t70.5 247.5v442h64v-459q0 -110 -40 -197.5t-116.5 -138t-187.5 -50.5q-110 0 -187 50.5t-117 138t-40 197.5v459h64v-442zM286 1063q29 0 51.5 -22t22.5 -52t-22.5 -51.5t-51.5 -21.5q-30 0 -51.5 22.5t-21.5 50.5
q0 29 21.5 51.5t51.5 22.5zM665 1063q29 0 51.5 -22t22.5 -52t-22.5 -51.5t-51.5 -21.5q-30 0 -51.5 22.5t-21.5 50.5q0 29 21.5 51.5t51.5 22.5zM223 1407l49 65l205 -148l207 150l48 -66l-255 -187z" />
    <glyph glyph-name="uni01DC" unicode="&#x1dc;" horiz-adv-x="962" 
d="M181 379q0 -156 70.5 -247.5t209.5 -91.5t209.5 91.5t70.5 247.5v442h64v-459q0 -110 -40 -197.5t-116.5 -138t-187.5 -50.5q-110 0 -187 50.5t-117 138t-40 197.5v459h64v-442zM286 1063q29 0 51.5 -22t22.5 -52t-22.5 -51.5t-51.5 -21.5q-30 0 -51.5 22.5t-21.5 50.5
q0 29 21.5 51.5t51.5 22.5zM665 1063q29 0 51.5 -22t22.5 -52t-22.5 -51.5t-51.5 -21.5q-30 0 -51.5 22.5t-21.5 50.5q0 29 21.5 51.5t51.5 22.5zM613 1244l-308 200l59 75l288 -226z" />
    <glyph glyph-name="Gcaron" unicode="&#x1e6;" horiz-adv-x="1411" 
d="M661 699h661v-62q0 -135 -49 -254.5t-135.5 -211t-202 -143.5t-249.5 -52q-136 0 -252.5 54.5t-203 149.5t-134.5 218.5t-48 262.5q0 138 48 261.5t134.5 218.5t203 149t252.5 54q75 0 144.5 -17t132 -49.5t116 -77.5t95.5 -101l-46 -40q-76 101 -190 161t-252 60
q-124 0 -229 -49t-182.5 -134.5t-120 -197.5t-42.5 -238t42.5 -238t120 -198.5t182.5 -135.5t229 -49q122 0 224.5 47t179 129.5t120.5 190.5t48 230h-597v62zM464 1544l43 57l179 -129l181 131l41 -58l-222 -163z" />
    <glyph glyph-name="gcaron" unicode="&#x1e7;" horiz-adv-x="1018" 
d="M482 -438q-106 0 -179.5 24t-119.5 60.5t-69 73.5l60 45q16 -25 47.5 -57.5t93 -56.5t167.5 -24t177 49.5t107 130.5t36 175v32h62v-38q0 -134 -51.5 -226.5t-138 -140t-192.5 -47.5zM802 0v182q-6 -28 -46.5 -77.5t-112.5 -89t-171 -39.5q-109 0 -203.5 50t-152.5 147
t-58 237t58 237t152.5 147.5t203.5 50.5q99 0 171.5 -38.5t114 -87.5t44.5 -81v183h62v-821h-62zM122 410q0 -116 50 -199t129 -127t165 -44q95 0 170 45t118.5 128t43.5 197t-43.5 197t-118.5 128.5t-170 45.5q-86 0 -165 -44.5t-129 -127.5t-50 -199zM285 1165l49 65
l205 -148l207 150l48 -66l-255 -187z" />
    <glyph glyph-name="uni01EA" unicode="&#x1ea;" horiz-adv-x="1411" 
d="M112 661q0 -176 74.5 -316.5t204 -222.5t295.5 -82q167 0 296 82t202.5 222.5t73.5 316.5t-73.5 316t-202.5 221.5t-296 81.5q-166 0 -295.5 -81.5t-204 -221.5t-74.5 -316zM48 661q0 144 48 268.5t134.5 217.5t203 145t252.5 52q137 0 252.5 -52t202 -145t134 -217.5
t47.5 -268.5q0 -145 -47.5 -269.5t-134 -218t-202 -145.5t-252.5 -52q-136 0 -252.5 52t-203 145.5t-134.5 218t-48 269.5zM818 -421q-42 0 -87 14t-76 51t-31 106q0 53 30 108t73.5 102.5t83.5 79.5l43 -40q-32 -29 -68.5 -70.5t-62 -87.5t-25.5 -87q0 -68 41.5 -91.5
t97.5 -23.5q49 0 87.5 24.5t57.5 52.5l55 -42q-23 -38 -87 -67t-132 -29z" />
    <glyph glyph-name="uni01EB" unicode="&#x1eb;" horiz-adv-x="978" 
d="M470 -24q-120 0 -213 58t-146 156t-53 218t53 219.5t146 158.5t213 59t212.5 -59t145 -158.5t52.5 -219.5t-52.5 -218t-145 -156t-212.5 -58zM470 40q104 0 182 48.5t121 132t43 187.5t-43 188.5t-121 134.5t-182 50t-182.5 -50t-122 -134.5t-43.5 -188.5t43.5 -187.5
t122 -132t182.5 -48.5zM619 -421q-42 0 -87 14t-76 51t-31 106q0 53 30 108t73.5 102.5t83.5 79.5l43 -40q-32 -29 -68.5 -70.5t-62 -87.5t-25.5 -87q0 -68 41.5 -91.5t97.5 -23.5q49 0 87.5 24.5t57.5 52.5l55 -42q-23 -38 -87 -67t-132 -29z" />
    <glyph glyph-name="Aringacute" unicode="&#x1fa;" horiz-adv-x="1086" 
d="M509 1320h77l460 -1320h-67l-129 362h-605l-131 -362h-68zM262 426h572l-285 811h-3zM385 1526q0 62 47.5 104t114.5 42q68 0 114.5 -42t46.5 -104q0 -64 -45 -104.5t-116 -40.5q-73 0 -117.5 40.5t-44.5 104.5zM457 1526q0 -43 27.5 -67t62.5 -24q38 0 63.5 24t25.5 67
q0 44 -25.5 67.5t-63.5 23.5q-35 0 -62.5 -23.5t-27.5 -67.5zM473 1728l-39 49l288 226l59 -75z" />
    <glyph glyph-name="aringacute" unicode="&#x1fb;" horiz-adv-x="1008" 
d="M802 0v182q-6 -28 -46.5 -77.5t-112.5 -89t-171 -39.5q-109 0 -203.5 50t-152.5 147t-58 237t58 237t152.5 147.5t203.5 50.5q99 0 171.5 -38.5t114 -87.5t44.5 -81v183h62v-821h-62zM122 410q0 -116 50 -199t129 -127t165 -44q95 0 170 45t118.5 128t43.5 197t-43.5 197
t-118.5 128.5t-170 45.5q-86 0 -165 -44.5t-129 -127.5t-50 -199zM331 1075q0 42 22 75t58.5 52t81.5 19q46 0 82 -19t57.5 -52t21.5 -75q0 -64 -45 -104.5t-116 -40.5q-73 0 -117.5 40.5t-44.5 104.5zM403 1075q0 -43 27.5 -67t62.5 -24q38 0 63.5 24t25.5 67
q0 44 -25.5 67.5t-63.5 23.5q-35 0 -62.5 -23.5t-27.5 -67.5zM374 1402l-38 49l286 226l61 -75z" />
    <glyph glyph-name="AEacute" unicode="&#x1fc;" horiz-adv-x="1603" 
d="M774 1320h79l14 -958h-566l-207 -362h-67zM330 426h483v824l-3 16zM804 1320h728v-64h-667v-562h648v-64h-648v-566h667v-64h-728v1320zM1058 1501l-38 49l286 226l61 -75z" />
    <glyph glyph-name="aeacute" unicode="&#x1fd;" horiz-adv-x="1412" 
d="M366 -24q-81 0 -151.5 28.5t-113.5 89.5t-43 156q0 82 44 141.5t115.5 92.5t155.5 33q71 0 124.5 -17.5t86.5 -39t42 -33.5v51q0 94 -26 153.5t-65.5 92t-80.5 45t-72 12.5q-80 0 -142 -35t-88 -69l-50 62q30 34 103.5 70t176.5 36q90 0 150 -35t95 -86t50 -100
q11 48 52.5 99.5t105 86.5t138.5 35q105 0 181.5 -49t118 -145.5t41.5 -240.5q0 -9 -1 -9.5t-1 -8.5h-616q0 -113 29 -192t91.5 -119.5t162.5 -40.5q76 0 131 33.5t88.5 74t43.5 60.5l57 -37q-20 -34 -64.5 -80t-110.5 -80.5t-151 -34.5q-73 0 -138.5 25.5t-111.5 67
t-64 89.5q-10 -30 -49.5 -73t-101.5 -76t-142 -33zM357 40q78 -1 138.5 32t95.5 84t35 103q0 90 -71 142t-174 52q-60 0 -119.5 -23.5t-99 -69t-39.5 -112.5q0 -90 67 -148t167 -60zM704 453h536q-1 32 -10 86.5t-35.5 110t-78 93.5t-137.5 38q-126 0 -195.5 -89t-79.5 -239
zM567 1002l-38 49l286 226l61 -75z" />
    <glyph glyph-name="Oslashacute" unicode="&#x1fe;" horiz-adv-x="1379" 
d="M1293 1307l45 -41l-1269 -1287l-45 42zM112 661q0 -176 74.5 -316.5t204 -222.5t295.5 -82q167 0 296 82t202.5 222.5t73.5 316.5t-73.5 316t-202.5 221.5t-296 81.5q-166 0 -295.5 -81.5t-204 -221.5t-74.5 -316zM48 661q0 144 48 268.5t134.5 217.5t203 145t252.5 52
q137 0 252.5 -52t202 -145t134 -217.5t47.5 -268.5q0 -145 -47.5 -269.5t-134 -218t-202 -145.5t-252.5 -52q-136 0 -252.5 52t-203 145.5t-134.5 218t-48 269.5zM567 1501l-38 49l286 226l61 -75z" />
    <glyph glyph-name="oslashacute" unicode="&#x1ff;" horiz-adv-x="978" 
d="M858 848l44 -42l-816 -827l-44 42zM470 -24q-120 0 -213 58t-146 156t-53 218t53 219.5t146 158.5t213 59t212.5 -59t145 -158.5t52.5 -219.5t-52.5 -218t-145 -156t-212.5 -58zM470 40q104 0 182 48.5t121 132t43 187.5t-43 188.5t-121 134.5t-182 50t-182.5 -50
t-122 -134.5t-43.5 -188.5t43.5 -187.5t122 -132t182.5 -48.5zM350 1002l-38 49l286 226l61 -75z" />
    <glyph glyph-name="uni0200" unicode="&#x200;" horiz-adv-x="1086" 
d="M509 1320h77l460 -1320h-67l-129 362h-605l-131 -362h-68zM262 426h572l-285 811h-3zM846 1371l-308 200l59 75l288 -226zM516 1371l-308 200l59 75l288 -226z" />
    <glyph glyph-name="uni0201" unicode="&#x201;" horiz-adv-x="1008" 
d="M802 0v182q-6 -28 -46.5 -77.5t-112.5 -89t-171 -39.5q-109 0 -203.5 50t-152.5 147t-58 237t58 237t152.5 147.5t203.5 50.5q99 0 171.5 -38.5t114 -87.5t44.5 -81v183h62v-821h-62zM122 410q0 -116 50 -199t129 -127t165 -44q95 0 170 45t118.5 128t43.5 197t-43.5 197
t-118.5 128.5t-170 45.5q-86 0 -165 -44.5t-129 -127.5t-50 -199zM824 1002l-308 200l59 75l288 -226zM494 1002l-308 200l59 75l288 -226z" />
    <glyph glyph-name="uni0202" unicode="&#x202;" horiz-adv-x="1086" 
d="M509 1320h77l460 -1320h-67l-129 362h-605l-131 -362h-68zM262 426h572l-285 811h-3zM315 1430q4 35 31.5 77t78 72t122.5 30t122 -29.5t78 -71t32 -78.5l-83 -21q-5 28 -23.5 57.5t-50 50t-75.5 20.5t-75 -20.5t-48.5 -50t-23.5 -57.5z" />
    <glyph glyph-name="uni0203" unicode="&#x203;" horiz-adv-x="1008" 
d="M802 0v182q-6 -28 -46.5 -77.5t-112.5 -89t-171 -39.5q-109 0 -203.5 50t-152.5 147t-58 237t58 237t152.5 147.5t203.5 50.5q99 0 171.5 -38.5t114 -87.5t44.5 -81v183h62v-821h-62zM122 410q0 -116 50 -199t129 -127t165 -44q95 0 170 45t118.5 128t43.5 197t-43.5 197
t-118.5 128.5t-170 45.5q-86 0 -165 -44.5t-129 -127.5t-50 -199zM260 1010q4 35 31.5 77t78 72t122.5 30q71 0 121.5 -29.5t78.5 -71t32 -78.5l-83 -21q-6 27 -24 57t-49.5 50.5t-75.5 20.5t-75 -20.5t-49 -50.5t-23 -57z" />
    <glyph glyph-name="uni0204" unicode="&#x204;" horiz-adv-x="1035" 
d="M134 1320h728v-64h-667v-562h648v-64h-648v-566h667v-64h-728v1320zM806 1371l-308 200l59 75l288 -226zM476 1371l-308 200l59 75l288 -226z" />
    <glyph glyph-name="uni0205" unicode="&#x205;" horiz-adv-x="919" 
d="M126 416q0 -97 36 -183.5t110 -140.5t187 -54q91 0 149.5 31t92 72.5t46.5 72.5l59 -40q-40 -65 -89 -109.5t-112.5 -66.5t-148.5 -22q-129 0 -218 60.5t-134.5 162t-45.5 222.5q0 120 46.5 216t135 152t213.5 56q111 0 193.5 -51.5t128.5 -140.5t46 -203q0 -9 -1 -17.5
t-1 -16.5h-693zM750 480q-2 65 -29.5 135t-91.5 118.5t-176 48.5q-118 0 -186.5 -47t-99 -117t-36.5 -138h619zM777 1002l-308 200l59 75l288 -226zM447 1002l-308 200l59 75l288 -226z" />
    <glyph glyph-name="uni0206" unicode="&#x206;" horiz-adv-x="1035" 
d="M134 1320h728v-64h-667v-562h648v-64h-648v-566h667v-64h-728v1320zM275 1430q4 35 31.5 77t78 72t122.5 30t122 -29.5t78 -71t32 -78.5l-83 -21q-5 28 -23.5 57.5t-50 50t-75.5 20.5t-75 -20.5t-48.5 -50t-23.5 -57.5z" />
    <glyph glyph-name="uni0207" unicode="&#x207;" horiz-adv-x="919" 
d="M126 416q0 -97 36 -183.5t110 -140.5t187 -54q91 0 149.5 31t92 72.5t46.5 72.5l59 -40q-40 -65 -89 -109.5t-112.5 -66.5t-148.5 -22q-129 0 -218 60.5t-134.5 162t-45.5 222.5q0 120 46.5 216t135 152t213.5 56q111 0 193.5 -51.5t128.5 -140.5t46 -203q0 -9 -1 -17.5
t-1 -16.5h-693zM750 480q-2 65 -29.5 135t-91.5 118.5t-176 48.5q-118 0 -186.5 -47t-99 -117t-36.5 -138h619zM213 1010q4 35 31.5 77t78 72t122.5 30q71 0 121.5 -29.5t78.5 -71t32 -78.5l-83 -21q-6 27 -24 57t-49.5 50.5t-75.5 20.5t-75 -20.5t-49 -50.5t-23 -57z" />
    <glyph glyph-name="uni0208" unicode="&#x208;" horiz-adv-x="405" 
d="M152 1320h64v-1320h-64v1320zM481 1371l-308 200l59 75l288 -226zM151 1371l-308 200l59 75l288 -226z" />
    <glyph glyph-name="uni0209" unicode="&#x209;" horiz-adv-x="339" 
d="M118 0v821h64v-821h-64zM481 1002l-308 200l59 75l288 -226zM151 1002l-308 200l59 75l288 -226z" />
    <glyph glyph-name="uni020A" unicode="&#x20a;" horiz-adv-x="405" 
d="M152 1320h64v-1320h-64v1320zM-50 1430q4 35 31.5 77t78 72t122.5 30t122 -29.5t78 -71t32 -78.5l-83 -21q-5 28 -23.5 57.5t-50 50t-75.5 20.5t-75 -20.5t-48.5 -50t-23.5 -57.5z" />
    <glyph glyph-name="uni020B" unicode="&#x20b;" horiz-adv-x="339" 
d="M118 0v821h64v-821h-64zM-83 1010q4 35 31.5 77t78 72t122.5 30q71 0 121.5 -29.5t78.5 -71t32 -78.5l-83 -21q-6 27 -24 57t-49.5 50.5t-75.5 20.5t-75 -20.5t-49 -50.5t-23 -57z" />
    <glyph glyph-name="uni020C" unicode="&#x20c;" horiz-adv-x="1411" 
d="M112 661q0 -176 74.5 -316.5t204 -222.5t295.5 -82q167 0 296 82t202.5 222.5t73.5 316.5t-73.5 316t-202.5 221.5t-296 81.5q-166 0 -295.5 -81.5t-204 -221.5t-74.5 -316zM48 661q0 144 48 268.5t134.5 217.5t203 145t252.5 52q137 0 252.5 -52t202 -145t134 -217.5
t47.5 -268.5q0 -145 -47.5 -269.5t-134 -218t-202 -145.5t-252.5 -52q-136 0 -252.5 52t-203 145.5t-134.5 218t-48 269.5zM985 1371l-308 200l59 75l288 -226zM655 1371l-308 200l59 75l288 -226z" />
    <glyph glyph-name="uni020D" unicode="&#x20d;" horiz-adv-x="978" 
d="M470 -24q-120 0 -213 58t-146 156t-53 218t53 219.5t146 158.5t213 59t212.5 -59t145 -158.5t52.5 -219.5t-52.5 -218t-145 -156t-212.5 -58zM470 40q104 0 182 48.5t121 132t43 187.5t-43 188.5t-121 134.5t-182 50t-182.5 -50t-122 -134.5t-43.5 -188.5t43.5 -187.5
t122 -132t182.5 -48.5zM800 1002l-308 200l59 75l288 -226zM470 1002l-308 200l59 75l288 -226z" />
    <glyph glyph-name="uni020E" unicode="&#x20e;" horiz-adv-x="1411" 
d="M112 661q0 -176 74.5 -316.5t204 -222.5t295.5 -82q167 0 296 82t202.5 222.5t73.5 316.5t-73.5 316t-202.5 221.5t-296 81.5q-166 0 -295.5 -81.5t-204 -221.5t-74.5 -316zM48 661q0 144 48 268.5t134.5 217.5t203 145t252.5 52q137 0 252.5 -52t202 -145t134 -217.5
t47.5 -268.5q0 -145 -47.5 -269.5t-134 -218t-202 -145.5t-252.5 -52q-136 0 -252.5 52t-203 145.5t-134.5 218t-48 269.5zM453 1509q4 35 31.5 77t78 72t122.5 30q71 0 121.5 -29.5t78.5 -71t32 -78.5l-83 -21q-6 27 -24 57t-49.5 50.5t-75.5 20.5t-75 -20.5t-49 -50.5
t-23 -57z" />
    <glyph glyph-name="uni020F" unicode="&#x20f;" horiz-adv-x="978" 
d="M470 -24q-120 0 -213 58t-146 156t-53 218t53 219.5t146 158.5t213 59t212.5 -59t145 -158.5t52.5 -219.5t-52.5 -218t-145 -156t-212.5 -58zM470 40q104 0 182 48.5t121 132t43 187.5t-43 188.5t-121 134.5t-182 50t-182.5 -50t-122 -134.5t-43.5 -188.5t43.5 -187.5
t122 -132t182.5 -48.5zM236 1010q4 35 31.5 77t78 72t122.5 30q71 0 121.5 -29.5t78.5 -71t32 -78.5l-83 -21q-6 27 -24 57t-49.5 50.5t-75.5 20.5t-75 -20.5t-49 -50.5t-23 -57z" />
    <glyph glyph-name="uni0210" unicode="&#x210;" horiz-adv-x="1046" 
d="M138 1320h396q100 0 185.5 -41.5t138 -123t52.5 -201.5t-52 -201t-125 -122t-136 -41l333 -590h-74l-323 586h-333v-586h-62v1320zM200 646h314q150 0 241 76t91 232t-91 229t-241 73h-314v-610zM779 1371l-308 200l59 75l288 -226zM449 1371l-308 200l59 75l288 -226z
" />
    <glyph glyph-name="uni0211" unicode="&#x211;" horiz-adv-x="621" 
d="M203 0h-62v821h62v-154h-5q3 27 35.5 69t89 75.5t130.5 33.5q58 0 98 -14t54 -28l-31 -57q-14 11 -49 23t-85 12q-70 0 -123.5 -50t-83.5 -119t-30 -126v-486zM648 1002l-308 200l59 75l288 -226zM318 1002l-308 200l59 75l288 -226z" />
    <glyph glyph-name="uni0212" unicode="&#x212;" horiz-adv-x="1046" 
d="M138 1320h396q100 0 185.5 -41.5t138 -123t52.5 -201.5t-52 -201t-125 -122t-136 -41l333 -590h-74l-323 586h-333v-586h-62v1320zM200 646h314q150 0 241 76t91 232t-91 229t-241 73h-314v-610zM248 1430q4 35 31.5 77t78 72t122.5 30t122 -29.5t78 -71t32 -78.5
l-83 -21q-5 28 -23.5 57.5t-50 50t-75.5 20.5t-75 -20.5t-48.5 -50t-23.5 -57.5z" />
    <glyph glyph-name="uni0213" unicode="&#x213;" horiz-adv-x="621" 
d="M203 0h-62v821h62v-154h-5q3 27 35.5 69t89 75.5t130.5 33.5q58 0 98 -14t54 -28l-31 -57q-14 11 -49 23t-85 12q-70 0 -123.5 -50t-83.5 -119t-30 -126v-486zM84 1010q4 35 31.5 77t78 72t122.5 30q71 0 121.5 -29.5t78.5 -71t32 -78.5l-83 -21q-6 27 -24 57t-49.5 50.5
t-75.5 20.5t-75 -20.5t-49 -50.5t-23 -57z" />
    <glyph glyph-name="uni0214" unicode="&#x214;" horiz-adv-x="1218" 
d="M1011 1320h63v-827q0 -163 -66 -279t-175 -177t-239 -61t-240 61t-176 177t-66 279v827h62v-824q0 -137 57 -239.5t152.5 -159.5t210.5 -57t209.5 57t151 159.5t56.5 239.5v824zM893 1371l-308 200l59 75l288 -226zM563 1371l-308 200l59 75l288 -226z" />
    <glyph glyph-name="uni0215" unicode="&#x215;" horiz-adv-x="962" 
d="M181 379q0 -156 70.5 -247.5t209.5 -91.5t209.5 91.5t70.5 247.5v442h64v-459q0 -110 -40 -197.5t-116.5 -138t-187.5 -50.5q-110 0 -187 50.5t-117 138t-40 197.5v459h64v-442zM792 1002l-308 200l59 75l288 -226zM462 1002l-308 200l59 75l288 -226z" />
    <glyph glyph-name="uni0216" unicode="&#x216;" horiz-adv-x="1218" 
d="M1011 1320h63v-827q0 -163 -66 -279t-175 -177t-239 -61t-240 61t-176 177t-66 279v827h62v-824q0 -137 57 -239.5t152.5 -159.5t210.5 -57t209.5 57t151 159.5t56.5 239.5v824zM362 1430q4 35 31.5 77t78 72t122.5 30t122 -29.5t78 -71t32 -78.5l-83 -21
q-5 28 -23.5 57.5t-50 50t-75.5 20.5t-75 -20.5t-48.5 -50t-23.5 -57.5z" />
    <glyph glyph-name="uni0217" unicode="&#x217;" horiz-adv-x="962" 
d="M181 379q0 -156 70.5 -247.5t209.5 -91.5t209.5 91.5t70.5 247.5v442h64v-459q0 -110 -40 -197.5t-116.5 -138t-187.5 -50.5q-110 0 -187 50.5t-117 138t-40 197.5v459h64v-442zM228 1010q4 35 31.5 77t78 72t122.5 30q71 0 121.5 -29.5t78.5 -71t32 -78.5l-83 -21
q-6 27 -24 57t-49.5 50.5t-75.5 20.5t-75 -20.5t-49 -50.5t-23 -57z" />
    <glyph glyph-name="uni0218" unicode="&#x218;" horiz-adv-x="1003" 
d="M485 1344q107 0 180.5 -25.5t114.5 -53.5t47 -36l-40 -56q-15 14 -52 39.5t-98 46.5t-149 21q-142 0 -223 -61t-81 -168q0 -72 42.5 -125.5t114 -96t157.5 -83.5q65 -31 133 -68t126.5 -86.5t94.5 -115.5t36 -154q0 -73 -29.5 -136t-85 -110.5t-133 -73.5t-173.5 -26
q-108 0 -197 29t-143.5 59.5t-59.5 34.5l45 59q13 -10 42.5 -29.5t74.5 -40t106 -34.5t137 -14q170 0 258.5 81.5t88.5 204.5q0 96 -57 163.5t-142.5 117.5t-173.5 92q-93 46 -168 94.5t-119 111t-44 148.5q0 83 48 149t132 104t190 38zM478 -105q38 0 65 -27t27 -66
q0 -48 -18.5 -88t-48.5 -70t-65 -49l-41 36q32 14 67.5 44t42.5 68q-17 -8 -37 -8q-33 0 -55 24t-22 51q0 39 24 62t61 23z" />
    <glyph glyph-name="uni0219" unicode="&#x219;" horiz-adv-x="758" 
d="M379 845q51 0 97 -12.5t82 -31t56 -35.5l-43 -52q-22 21 -74 44t-118 23q-88 0 -150.5 -38t-62.5 -109q0 -69 62.5 -109.5t161.5 -66.5q74 -19 131.5 -46.5t90.5 -73t33 -120.5q0 -60 -24 -105.5t-66.5 -75.5t-98.5 -45.5t-120 -15.5q-61 0 -114.5 14.5t-93.5 35.5
t-62 40l46 59q26 -28 86 -56.5t143 -28.5q101 0 168 49.5t67 128.5q0 59 -32 94t-83 55.5t-107 34.5q-54 14 -100.5 33t-81.5 46.5t-54.5 65.5t-19.5 88q0 62 38 109t102 74t141 27zM378.688 -78.0156q38.1377 0 64.9893 -27.2412q26.8525 -27.2412 26.8525 -66.1572
q0 -47.4775 -18.29 -87.5605q-18.291 -40.084 -48.2559 -70.4385q-29.9658 -30.3545 -64.9902 -49.0342l-41.251 36.5811q21.0146 9.33984 44.7529 26.0732q23.7393 16.7344 42.4189 38.5273t23.3496 47.4775q-17.9014 -8.56152 -37.3594 -8.56152
q-33.4678 0.77832 -55.2607 24.9062t-21.793 50.5908q0 25.6846 10.8965 44.7529q10.8965 19.0693 29.9648 29.5762q19.0693 10.5078 43.9756 10.5078z" />
    <glyph glyph-name="uni021A" unicode="&#x21a;" horiz-adv-x="962" 
d="M429 1256h-392v64h848v-64h-392v-1256h-64v1256zM457 -105q38 0 65 -27t27 -66q0 -48 -18.5 -88t-48.5 -70t-65 -49l-41 36q32 14 67.5 44t42.5 68q-17 -8 -37 -8q-33 0 -55 24t-22 51q0 39 24 62t61 23z" />
    <glyph glyph-name="uni021B" unicode="&#x21b;" horiz-adv-x="608" 
d="M53 821h179v337h64v-337h234v-64h-234v-555q0 -91 34 -126.5t80 -35.5q47 0 70 16t27 21l39 -53q-5 -5 -22 -17t-45.5 -21.5t-70.5 -9.5q-73 0 -124.5 49.5t-51.5 160.5v571h-179v64zM426.688 -86.0156q38.1377 0 64.9893 -27.2412q26.8525 -27.2412 26.8525 -66.1572
q0 -47.4775 -18.29 -87.5605q-18.291 -40.084 -48.2559 -70.4385q-29.9658 -30.3545 -64.9902 -49.0342l-41.251 36.5811q21.0146 9.33984 44.7529 26.0732q23.7393 16.7344 42.4189 38.5273t23.3496 47.4775q-17.9014 -8.56152 -37.3594 -8.56152
q-33.4678 0.77832 -55.2607 24.9062t-21.793 50.5908q0 25.6846 10.8965 44.7529q10.8965 19.0693 29.9648 29.5762q19.0693 10.5078 43.9756 10.5078z" />
    <glyph glyph-name="uni022A" unicode="&#x22a;" horiz-adv-x="1411" 
d="M112 661q0 -176 74.5 -316.5t204 -222.5t295.5 -82q167 0 296 82t202.5 222.5t73.5 316.5t-73.5 316t-202.5 221.5t-296 81.5q-166 0 -295.5 -81.5t-204 -221.5t-74.5 -316zM48 661q0 144 48 268.5t134.5 217.5t203 145t252.5 52q137 0 252.5 -52t202 -145t134 -217.5
t47.5 -268.5q0 -145 -47.5 -269.5t-134 -218t-202 -145.5t-252.5 -52q-136 0 -252.5 52t-203 145.5t-134.5 218t-48 269.5zM496 1566q29 0 51.5 -22t22.5 -52t-22.5 -51.5t-51.5 -21.5q-30 0 -51.5 22.5t-21.5 50.5q0 29 21.5 51.5t51.5 22.5zM875 1566q29 0 51.5 -22
t22.5 -52t-22.5 -51.5t-51.5 -21.5q-30 0 -51.5 22.5t-21.5 50.5q0 29 21.5 51.5t51.5 22.5zM419 1712v64h533v-64h-533z" />
    <glyph glyph-name="uni022B" unicode="&#x22b;" horiz-adv-x="978" 
d="M470 -24q-120 0 -213 58t-146 156t-53 218t53 219.5t146 158.5t213 59t212.5 -59t145 -158.5t52.5 -219.5t-52.5 -218t-145 -156t-212.5 -58zM470 40q104 0 182 48.5t121 132t43 187.5t-43 188.5t-121 134.5t-182 50t-182.5 -50t-122 -134.5t-43.5 -188.5t43.5 -187.5
t122 -132t182.5 -48.5zM294 1063q29 0 51.5 -22t22.5 -52t-22.5 -51.5t-51.5 -21.5q-30 0 -51.5 22.5t-21.5 50.5q0 29 21.5 51.5t51.5 22.5zM673 1063q29 0 51.5 -22t22.5 -52t-22.5 -51.5t-51.5 -21.5q-30 0 -51.5 22.5t-21.5 50.5q0 29 21.5 51.5t51.5 22.5zM220 1320v64
h533v-64h-533z" />
    <glyph glyph-name="uni022C" unicode="&#x22c;" horiz-adv-x="1411" 
d="M112 661q0 -176 74.5 -316.5t204 -222.5t295.5 -82q167 0 296 82t202.5 222.5t73.5 316.5t-73.5 316t-202.5 221.5t-296 81.5q-166 0 -295.5 -81.5t-204 -221.5t-74.5 -316zM48 661q0 144 48 268.5t134.5 217.5t203 145t252.5 52q137 0 252.5 -52t202 -145t134 -217.5
t47.5 -268.5q0 -145 -47.5 -269.5t-134 -218t-202 -145.5t-252.5 -52q-136 0 -252.5 52t-203 145.5t-134.5 218t-48 269.5zM596 1621q-38 0 -63.5 -26t-34.5 -51h-96q10 34 32.5 69.5t56.5 60.5t78 25q60 0 97 -19.5t69.5 -39t78.5 -19.5q41 0 63.5 26.5t28.5 51.5h96
q-11 -33 -34.5 -69t-58.5 -61t-79 -25q-60 0 -98.5 19.5t-69 38.5t-66.5 19zM437 1956v64h533v-64h-533z" />
    <glyph glyph-name="uni022D" unicode="&#x22d;" horiz-adv-x="978" 
d="M470 -24q-120 0 -213 58t-146 156t-53 218t53 219.5t146 158.5t213 59t212.5 -59t145 -158.5t52.5 -219.5t-52.5 -218t-145 -156t-212.5 -58zM470 40q104 0 182 48.5t121 132t43 187.5t-43 188.5t-121 134.5t-182 50t-182.5 -50t-122 -134.5t-43.5 -188.5t43.5 -187.5
t122 -132t182.5 -48.5zM379 1122q-38 0 -63.5 -26t-34.5 -51h-96q10 34 32.5 69.5t56.5 60.5t78 25q60 0 97 -19.5t69.5 -39t78.5 -19.5q41 0 63.5 26.5t28.5 51.5h96q-11 -33 -34.5 -69t-58.5 -61t-79 -25q-60 0 -98.5 19.5t-69 38.5t-66.5 19zM220 1457v64h533v-64h-533z
" />
    <glyph glyph-name="uni0230" unicode="&#x230;" horiz-adv-x="1411" 
d="M112 661q0 -176 74.5 -316.5t204 -222.5t295.5 -82q167 0 296 82t202.5 222.5t73.5 316.5t-73.5 316t-202.5 221.5t-296 81.5q-166 0 -295.5 -81.5t-204 -221.5t-74.5 -316zM48 661q0 144 48 268.5t134.5 217.5t203 145t252.5 52q137 0 252.5 -52t202 -145t134 -217.5
t47.5 -268.5q0 -145 -47.5 -269.5t-134 -218t-202 -145.5t-252.5 -52q-136 0 -252.5 52t-203 145.5t-134.5 218t-48 269.5zM685 1566q29 0 51.5 -22t22.5 -52t-22.5 -51.5t-51.5 -21.5q-30 0 -51.5 22.5t-21.5 50.5q0 29 21.5 51.5t51.5 22.5zM419 1712v64h533v-64h-533z
" />
    <glyph glyph-name="uni0231" unicode="&#x231;" horiz-adv-x="978" 
d="M470 -24q-120 0 -213 58t-146 156t-53 218t53 219.5t146 158.5t213 59t212.5 -59t145 -158.5t52.5 -219.5t-52.5 -218t-145 -156t-212.5 -58zM470 40q104 0 182 48.5t121 132t43 187.5t-43 188.5t-121 134.5t-182 50t-182.5 -50t-122 -134.5t-43.5 -188.5t43.5 -187.5
t122 -132t182.5 -48.5zM485 1192q29 0 51.5 -22t22.5 -52t-22.5 -51.5t-51.5 -21.5q-30 0 -51.5 22.5t-21.5 50.5q0 29 21.5 51.5t51.5 22.5zM220 1449v64h533v-64h-533z" />
    <glyph glyph-name="uni0232" unicode="&#x232;" horiz-adv-x="1026" 
d="M461 475l-434 845h74l392 -766l390 766h74l-432 -845v-475h-64v475zM226 1466v64h533v-64h-533z" />
    <glyph glyph-name="uni0233" unicode="&#x233;" horiz-adv-x="835" 
d="M402 70l323 751h70l-545 -1237h-69l184 416l-335 821h71zM149 1078v64h533v-64h-533z" />
    <glyph glyph-name="uni0237" unicode="&#x237;" horiz-adv-x="427" 
d="M51 -440q-48 0 -82 12.5t-47 24.5l40 54q11 -10 28.5 -18.5t59.5 -8.5q59 0 87 36.5t36.5 101.5t8.5 150v909h64v-947q0 -98 -17 -168.5t-59.5 -108t-118.5 -37.5z" />
    <glyph glyph-name="uni0259" unicode="&#x259;" horiz-adv-x="919" 
d="M793 405q0 97 -36 183.5t-110 140.5t-187 54q-91 0 -149.5 -31t-92 -72.5t-46.5 -72.5l-59 40q40 65 89 109.5t112.5 66.5t148.5 22q129 0 218 -60.5t134.5 -162t45.5 -222.5q0 -120 -46.5 -216t-135 -152t-213.5 -56q-111 0 -193.5 51.5t-128.5 140.5t-46 203
q0 9 1 17.5t1 16.5h693zM169 341q2 -65 29.5 -135t91.5 -118.5t176 -48.5q118 0 186.5 47t99 117t36.5 138h-619z" />
    <glyph glyph-name="uni02BC" unicode="&#x2bc;" horiz-adv-x="424" 
d="M192 1285q35 0 50.5 -24t15.5 -53q0 -25 -14 -109t-34 -185h-55q-8 65 -14.5 126.5t-10.5 107t-4 60.5q0 30 16 53.5t50 23.5z" />
    <glyph glyph-name="circumflex" unicode="&#x2c6;" horiz-adv-x="1003" 
d="M278 1061l-49 65l254 186l255 -187l-48 -66l-207 152z" />
    <glyph glyph-name="caron" unicode="&#x2c7;" horiz-adv-x="1003" 
d="M229 1165l49 65l205 -148l207 150l48 -66l-255 -187z" />
    <glyph glyph-name="uni02C9" unicode="&#x2c9;" horiz-adv-x="949" 
d="M189 1078v64h533v-64h-533z" />
    <glyph glyph-name="breve" unicode="&#x2d8;" horiz-adv-x="1035" 
d="M730 1224q-4 -35 -31.5 -77t-78 -72t-122.5 -30q-71 0 -121.5 29.5t-78.5 71t-32 78.5l83 21q6 -27 24 -57t49.5 -50.5t75.5 -20.5t75 20.5t49 50.5t23 57z" />
    <glyph glyph-name="dotaccent" unicode="&#x2d9;" horiz-adv-x="590" 
d="M275 1192q29 0 51.5 -22t22.5 -52t-22.5 -51.5t-51.5 -21.5q-30 0 -51.5 22.5t-21.5 50.5q0 29 21.5 51.5t51.5 22.5z" />
    <glyph glyph-name="ring" unicode="&#x2da;" horiz-adv-x="811" 
d="M224 1171q0 42 22 75t58.5 52t81.5 19q46 0 82 -19t57.5 -52t21.5 -75q0 -64 -45 -104.5t-116 -40.5q-73 0 -117.5 40.5t-44.5 104.5zM296 1171q0 -43 27.5 -67t62.5 -24q38 0 63.5 24t25.5 67q0 44 -25.5 67.5t-63.5 23.5q-35 0 -62.5 -23.5t-27.5 -67.5z" />
    <glyph glyph-name="ogonek" unicode="&#x2db;" horiz-adv-x="717" 
d="M330 -421q-42 0 -87 14t-76 51t-31 106q0 53 30 108t73.5 102.5t83.5 79.5l43 -40q-32 -29 -68.5 -70.5t-62 -87.5t-25.5 -87q0 -68 41.5 -91.5t97.5 -23.5q49 0 87.5 24.5t57.5 52.5l55 -42q-23 -38 -87 -67t-132 -29z" />
    <glyph glyph-name="tilde" unicode="&#x2dc;" horiz-adv-x="1035" 
d="M392 1122q-38 0 -63.5 -26t-34.5 -51h-96q10 34 32.5 69.5t56.5 60.5t78 25q60 0 97 -19.5t69.5 -39t78.5 -19.5q41 0 63.5 26.5t28.5 51.5h96q-11 -33 -34.5 -69t-58.5 -61t-79 -25q-60 0 -98.5 19.5t-69 38.5t-66.5 19z" />
    <glyph glyph-name="hungarumlaut" unicode="&#x2dd;" horiz-adv-x="1042" 
d="M242 994l-40 38l262 277l62 -79zM587 994l-40 38l263 277l62 -79z" />
    <glyph glyph-name="gravecomb" unicode="&#x300;" 
d="M494 1002l-308 200l59 75l288 -226z" />
    <glyph glyph-name="acutecomb" unicode="&#x301;" 
d="M334 1002l-38 49l286 226l61 -75z" />
    <glyph glyph-name="uni0302" unicode="&#x302;" 
d="M294 1061l-49 65l254 186l255 -187l-48 -66l-207 152z" />
    <glyph glyph-name="tildecomb" unicode="&#x303;" 
d="M408 1122q-38 0 -63.5 -26t-34.5 -51h-96q10 34 32.5 69.5t56.5 60.5t78 25q60 0 97 -19.5t69.5 -39t78.5 -19.5q41 0 63.5 26.5t28.5 51.5h96q-11 -33 -34.5 -69t-58.5 -61t-79 -25q-60 0 -98.5 19.5t-69 38.5t-66.5 19z" />
    <glyph glyph-name="uni0304" unicode="&#x304;" 
d="M205 1078v64h533v-64h-533z" />
    <glyph glyph-name="uni0306" unicode="&#x306;" 
d="M746 1224q-4 -35 -31.5 -77t-78 -72t-122.5 -30q-71 0 -121.5 29.5t-78.5 71t-32 78.5l83 21q6 -27 24 -57t49.5 -50.5t75.5 -20.5t75 20.5t49 50.5t23 57z" />
    <glyph glyph-name="uni0307" unicode="&#x307;" 
d="M291 1192q29 0 51.5 -22t22.5 -52t-22.5 -51.5t-51.5 -21.5q-30 0 -51.5 22.5t-21.5 50.5q0 29 21.5 51.5t51.5 22.5z" />
    <glyph glyph-name="uni0308" unicode="&#x308;" 
d="M291 1192q29 0 51.5 -22t22.5 -52t-22.5 -51.5t-51.5 -21.5q-30 0 -51.5 22.5t-21.5 50.5q0 29 21.5 51.5t51.5 22.5zM670 1192q29 0 51.5 -22t22.5 -52t-22.5 -51.5t-51.5 -21.5q-30 0 -51.5 22.5t-21.5 50.5q0 29 21.5 51.5t51.5 22.5z" />
    <glyph glyph-name="hookabovecomb" unicode="&#x309;" 
d="M488 930l38 -52q33 14 69.5 34t69.5 49.5t53.5 70.5t20.5 96q0 70 -28 108.5t-73 54t-96 15.5q-80 0 -131 -18t-69 -30v-64q30 15 84 32t97 17q31 0 65.5 -6.5t59 -32t24.5 -84.5q0 -58 -34.5 -98t-78 -62.5t-71.5 -29.5z" />
    <glyph glyph-name="uni030A" unicode="&#x30a;" 
d="M240 1171q0 42 22 75t58.5 52t81.5 19q46 0 82 -19t57.5 -52t21.5 -75q0 -64 -45 -104.5t-116 -40.5q-73 0 -117.5 40.5t-44.5 104.5zM312 1171q0 -43 27.5 -67t62.5 -24q38 0 63.5 24t25.5 67q0 44 -25.5 67.5t-63.5 23.5q-35 0 -62.5 -23.5t-27.5 -67.5z" />
    <glyph glyph-name="uni030B" unicode="&#x30b;" 
d="M258 994l-40 38l262 277l62 -79zM603 994l-40 38l263 277l62 -79z" />
    <glyph glyph-name="uni030C" unicode="&#x30c;" 
d="M245 1165l49 65l205 -148l207 150l48 -66l-255 -187z" />
    <glyph glyph-name="uni030F" unicode="&#x30f;" 
d="M856 1002l-308 200l59 75l288 -226zM526 1002l-308 200l59 75l288 -226z" />
    <glyph glyph-name="uni0311" unicode="&#x311;" 
d="M249 1010q4 35 31.5 77t78 72t122.5 30q71 0 121.5 -29.5t78.5 -71t32 -78.5l-83 -21q-6 27 -24 57t-49.5 50.5t-75.5 20.5t-75 -20.5t-49 -50.5t-23 -57z" />
    <glyph glyph-name="uni0312" unicode="&#x312;" 
d="M246.026 950.259q-34.3457 0 -58.5273 24.5332q-24.1836 24.5322 -24.1836 59.5791q0 42.7568 16.4717 78.8545q16.4727 36.0986 43.458 63.4355q26.9863 27.3359 58.5283 44.1582l37.1504 -32.9434q-18.9258 -8.41113 -40.3037 -23.4814
q-21.3789 -15.0703 -38.2012 -34.6963t-21.0283 -42.7568q16.1211 7.70996 33.6445 7.70996q30.1406 -0.701172 49.7666 -22.4297q19.626 -21.7295 19.626 -45.5605q0 -23.1309 -9.8125 -40.3037q-9.81348 -17.1738 -26.9854 -26.6357q-17.1738 -9.46289 -39.6035 -9.46289z
" />
    <glyph glyph-name="uni031B" unicode="&#x31b;" 
d="M501 976q-29 0 -56.5 9.5t-50.5 22.5v56q15 -13 42 -23.5t57 -10.5q65 0 97 43t32 95q0 44 -6 66.5t-18 50.5h63q8 -14 16.5 -42t8.5 -80q0 -45 -24.5 -88t-66 -71t-94.5 -28z" />
    <glyph glyph-name="dotbelowcomb" unicode="&#x323;" 
d="M275 -96q29 0 51.5 -22t22.5 -52t-22.5 -51.5t-51.5 -21.5q-30 0 -51.5 22.5t-21.5 50.5q0 29 21.5 51.5t51.5 22.5z" />
    <glyph glyph-name="uni0324" unicode="&#x324;" 
d="M275 -72q29 0 51.5 -22t22.5 -52t-22.5 -51.5t-51.5 -21.5q-30 0 -51.5 22.5t-21.5 50.5q0 29 21.5 51.5t51.5 22.5zM654 -72q29 0 51.5 -22t22.5 -52t-22.5 -51.5t-51.5 -21.5q-30 0 -51.5 22.5t-21.5 50.5q0 29 21.5 51.5t51.5 22.5z" />
    <glyph glyph-name="uni0326" unicode="&#x326;" 
d="M268.688 -78.0156q38.1377 0 64.9893 -27.2412q26.8525 -27.2412 26.8525 -66.1572q0 -47.4775 -18.29 -87.5605q-18.291 -40.084 -48.2559 -70.4385q-29.9658 -30.3545 -64.9902 -49.0342l-41.251 36.5811q21.0146 9.33984 44.7529 26.0732
q23.7393 16.7344 42.4189 38.5273t23.3496 47.4775q-17.9014 -8.56152 -37.3594 -8.56152q-33.4678 0.77832 -55.2607 24.9062t-21.793 50.5908q0 25.6846 10.8965 44.7529q10.8965 19.0693 29.9648 29.5762q19.0693 10.5078 43.9756 10.5078z" />
    <glyph glyph-name="uni0327" unicode="&#x327;" 
d="M366 42l55 -28l-55 -160q41 15 96.5 11t97.5 -32t42 -86q0 -56 -32.5 -93t-81 -55t-96.5 -18q-56 0 -106.5 17.5t-75.5 33.5l43 54q19 -14 57.5 -29t81.5 -15q59 0 100 25t41 67q0 41 -27.5 60.5t-73.5 19.5q-31 0 -59 -4.5t-42 -9.5l-41 22z" />
    <glyph glyph-name="uni0328" unicode="&#x328;" 
d="M346 -421q-42 0 -87 14t-76 51t-31 106q0 53 30 108t73.5 102.5t83.5 79.5l43 -40q-32 -29 -68.5 -70.5t-62 -87.5t-25.5 -87q0 -68 41.5 -91.5t97.5 -23.5q49 0 87.5 24.5t57.5 52.5l55 -42q-23 -38 -87 -67t-132 -29z" />
    <glyph glyph-name="uni032E" unicode="&#x32e;" 
d="M714 -130q-4 -35 -31.5 -77t-78 -72t-122.5 -30q-71 0 -121.5 29.5t-78.5 71t-32 78.5l83 21q6 -27 24 -57t49.5 -50.5t75.5 -20.5t75 20.5t49 50.5t23 57z" />
    <glyph glyph-name="uni0331" unicode="&#x331;" 
d="M189 -205v64h533v-64h-533z" />
    <glyph glyph-name="Wgrave" unicode="&#x1e80;" horiz-adv-x="1493" 
d="M1128 0h-93l-328 1290h16l-328 -1290h-93l-257 1320h69l236 -1242h-1l318 1242h96l319 -1242h-2l237 1242h69zM782 1376l-308 200l59 75l288 -226z" />
    <glyph glyph-name="wgrave" unicode="&#x1e81;" horiz-adv-x="1211" 
d="M586 733l-223 -733h-96l-182 821h69l163 -746l221 730h96l220 -730l165 746h69l-182 -821h-96zM738 1002l-308 200l59 75l288 -226z" />
    <glyph glyph-name="Wacute" unicode="&#x1e82;" horiz-adv-x="1493" 
d="M1128 0h-93l-328 1290h16l-328 -1290h-93l-257 1320h69l236 -1242h-1l318 1242h96l319 -1242h-2l237 1242h69zM652 1376l-39 49l288 226l59 -75z" />
    <glyph glyph-name="wacute" unicode="&#x1e83;" horiz-adv-x="1211" 
d="M586 733l-223 -733h-96l-182 821h69l163 -746l221 730h96l220 -730l165 746h69l-182 -821h-96zM467 1002l-38 49l286 226l61 -75z" />
    <glyph glyph-name="Wdieresis" unicode="&#x1e84;" horiz-adv-x="1493" 
d="M1128 0h-93l-328 1290h16l-328 -1290h-93l-257 1320h69l236 -1242h-1l318 1242h96l319 -1242h-2l237 1242h69zM536 1566q29 0 51.5 -22t22.5 -52t-22.5 -51.5t-51.5 -21.5q-30 0 -51.5 22.5t-21.5 50.5q0 29 21.5 51.5t51.5 22.5zM915 1566q29 0 51.5 -22t22.5 -52
t-22.5 -51.5t-51.5 -21.5q-30 0 -51.5 22.5t-21.5 50.5q0 29 21.5 51.5t51.5 22.5z" />
    <glyph glyph-name="wdieresis" unicode="&#x1e85;" horiz-adv-x="1211" 
d="M586 733l-223 -733h-96l-182 821h69l163 -746l221 730h96l220 -730l165 746h69l-182 -821h-96zM411 1063q29 0 51.5 -22t22.5 -52t-22.5 -51.5t-51.5 -21.5q-30 0 -51.5 22.5t-21.5 50.5q0 29 21.5 51.5t51.5 22.5zM790 1063q29 0 51.5 -22t22.5 -52t-22.5 -51.5
t-51.5 -21.5q-30 0 -51.5 22.5t-21.5 50.5q0 29 21.5 51.5t51.5 22.5z" />
    <glyph glyph-name="uni1E9E" unicode="&#x1e9e;" horiz-adv-x="1196" 
d="M408 93q54 -20 124.5 -33.5t134.5 -13.5q178 0 259.5 95.5t81.5 239.5q0 169 -108 249t-356 40v74l342 514q-67 17 -141 25t-134 8q-148 0 -241 -43.5t-136.5 -140t-43.5 -256.5v-851h-64v882q0 169 56.5 272t162.5 150.5t255 47.5q51 0 106.5 -5t117 -14.5t130.5 -23.5
l-5 -63l-335 -510q85 10 166.5 -1t148 -50t106 -110.5t39.5 -182.5q0 -134 -53.5 -225.5t-144.5 -138t-204 -46.5q-156 0 -264 44v67z" />
    <glyph glyph-name="uni1EA0" unicode="&#x1ea0;" horiz-adv-x="1086" 
d="M509 1320h77l460 -1320h-67l-129 362h-605l-131 -362h-68zM262 426h572l-285 811h-3zM546 -96q29 0 51.5 -22t22.5 -52t-22.5 -51.5t-51.5 -21.5q-30 0 -51.5 22.5t-21.5 50.5q0 29 21.5 51.5t51.5 22.5z" />
    <glyph glyph-name="uni1EA1" unicode="&#x1ea1;" horiz-adv-x="1008" 
d="M802 0v182q-6 -28 -46.5 -77.5t-112.5 -89t-171 -39.5q-109 0 -203.5 50t-152.5 147t-58 237t58 237t152.5 147.5t203.5 50.5q99 0 171.5 -38.5t114 -87.5t44.5 -81v183h62v-821h-62zM122 410q0 -116 50 -199t129 -127t165 -44q95 0 170 45t118.5 128t43.5 197t-43.5 197
t-118.5 128.5t-170 45.5q-86 0 -165 -44.5t-129 -127.5t-50 -199zM493 -96q29 0 51.5 -22t22.5 -52t-22.5 -51.5t-51.5 -21.5q-30 0 -51.5 22.5t-21.5 50.5q0 29 21.5 51.5t51.5 22.5z" />
    <glyph glyph-name="uni1EA2" unicode="&#x1ea2;" horiz-adv-x="1086" 
d="M509 1320h77l460 -1320h-67l-129 362h-605l-131 -362h-68zM262 426h572l-285 811h-3zM494 1454l38 -52q33 14 69.5 32.5t69.5 44t53.5 60.5t20.5 83q0 65 -28 101.5t-73 51.5t-96 15q-80 0 -131 -18t-69 -30v-64q30 15 84 32t97 17q31 0 65.5 -6t59 -29.5t24.5 -77.5
q0 -48 -34.5 -81.5t-78 -52.5t-71.5 -26z" />
    <glyph glyph-name="uni1EA3" unicode="&#x1ea3;" horiz-adv-x="1008" 
d="M802 0v182q-6 -28 -46.5 -77.5t-112.5 -89t-171 -39.5q-109 0 -203.5 50t-152.5 147t-58 237t58 237t152.5 147.5t203.5 50.5q99 0 171.5 -38.5t114 -87.5t44.5 -81v183h62v-821h-62zM122 410q0 -116 50 -199t129 -127t165 -44q95 0 170 45t118.5 128t43.5 197t-43.5 197
t-118.5 128.5t-170 45.5q-86 0 -165 -44.5t-129 -127.5t-50 -199zM440 930l38 -52q33 14 69.5 34t69.5 49.5t53.5 70.5t20.5 96q0 70 -28 108.5t-73 54t-96 15.5q-80 0 -131 -18t-69 -30v-64q30 15 84 32t97 17q31 0 65.5 -6.5t59 -32t24.5 -84.5q0 -58 -34.5 -98t-78 -62.5
t-71.5 -29.5z" />
    <glyph glyph-name="uni1EA4" unicode="&#x1ea4;" horiz-adv-x="1086" 
d="M509 1320h77l460 -1320h-67l-129 362h-605l-131 -362h-68zM262 426h572l-285 811h-3zM342 1429l-49 65l254 186l255 -187l-48 -66l-207 152zM731 1666l-38 49l286 226l61 -75z" />
    <glyph glyph-name="uni1EA5" unicode="&#x1ea5;" horiz-adv-x="1008" 
d="M802 0v182q-6 -28 -46.5 -77.5t-112.5 -89t-171 -39.5q-109 0 -203.5 50t-152.5 147t-58 237t58 237t152.5 147.5t203.5 50.5q99 0 171.5 -38.5t114 -87.5t44.5 -81v183h62v-821h-62zM122 410q0 -116 50 -199t129 -127t165 -44q95 0 170 45t118.5 128t43.5 197t-43.5 197
t-118.5 128.5t-170 45.5q-86 0 -165 -44.5t-129 -127.5t-50 -199zM288 938l-49 65l254 186l255 -187l-48 -66l-207 152zM374 1370l-38 49l286 226l61 -75z" />
    <glyph glyph-name="uni1EA6" unicode="&#x1ea6;" horiz-adv-x="1086" 
d="M509 1320h77l460 -1320h-67l-129 362h-605l-131 -362h-68zM262 426h572l-285 811h-3zM347 1412l-49 65l254 186l255 -187l-48 -66l-207 152zM893 1632l-308 200l59 75l288 -226z" />
    <glyph glyph-name="uni1EA7" unicode="&#x1ea7;" horiz-adv-x="1008" 
d="M802 0v182q-6 -28 -46.5 -77.5t-112.5 -89t-171 -39.5q-109 0 -203.5 50t-152.5 147t-58 237t58 237t152.5 147.5t203.5 50.5q99 0 171.5 -38.5t114 -87.5t44.5 -81v183h62v-821h-62zM122 410q0 -116 50 -199t129 -127t165 -44q95 0 170 45t118.5 128t43.5 197t-43.5 197
t-118.5 128.5t-170 45.5q-86 0 -165 -44.5t-129 -127.5t-50 -199zM288 938l-49 65l254 186l255 -187l-48 -66l-207 152zM645 1370l-308 200l59 75l288 -226z" />
    <glyph glyph-name="uni1EA8" unicode="&#x1ea8;" horiz-adv-x="1086" 
d="M509 1320h77l460 -1320h-67l-129 362h-605l-131 -362h-68zM262 426h572l-285 811h-3zM343 1415l-49 65l254 186l255 -187l-48 -66l-207 152zM690 1682l38 -52q33 14 69.5 34t69.5 49.5t53.5 70.5t20.5 96q0 70 -28 108.5t-73 54t-96 15.5q-80 0 -131 -18t-69 -30v-64
q30 15 84 32t97 17q31 0 65.5 -6.5t59 -32t24.5 -84.5q0 -58 -34.5 -98t-78 -62.5t-71.5 -29.5z" />
    <glyph glyph-name="uni1EA9" unicode="&#x1ea9;" horiz-adv-x="1008" 
d="M802 0v182q-6 -28 -46.5 -77.5t-112.5 -89t-171 -39.5q-109 0 -203.5 50t-152.5 147t-58 237t58 237t152.5 147.5t203.5 50.5q99 0 171.5 -38.5t114 -87.5t44.5 -81v183h62v-821h-62zM122 410q0 -116 50 -199t129 -127t165 -44q95 0 170 45t118.5 128t43.5 197t-43.5 197
t-118.5 128.5t-170 45.5q-86 0 -165 -44.5t-129 -127.5t-50 -199zM288 938l-49 65l254 186l255 -187l-48 -66l-207 152zM440 1298l38 -52q33 14 69.5 34t69.5 49.5t53.5 70.5t20.5 96q0 70 -28 108.5t-73 54t-96 15.5q-80 0 -131 -18t-69 -30v-64q30 15 84 32t97 17
q31 0 65.5 -6.5t59 -32t24.5 -84.5q0 -58 -34.5 -98t-78 -62.5t-71.5 -29.5z" />
    <glyph glyph-name="uni1EAA" unicode="&#x1eaa;" horiz-adv-x="1086" 
d="M509 1320h77l460 -1320h-67l-129 362h-605l-131 -362h-68zM262 426h572l-285 811h-3zM338 1409l-49 65l254 186l255 -187l-48 -66l-207 152zM443 1806q-38 0 -63.5 -26t-34.5 -51h-96q10 34 32.5 69.5t56.5 60.5t78 25q60 0 97 -19.5t69.5 -39t78.5 -19.5q41 0 63.5 26.5
t28.5 51.5h96q-11 -33 -34.5 -69t-58.5 -61t-79 -25q-60 0 -98.5 19.5t-69 38.5t-66.5 19z" />
    <glyph glyph-name="uni1EAB" unicode="&#x1eab;" horiz-adv-x="1008" 
d="M802 0v182q-6 -28 -46.5 -77.5t-112.5 -89t-171 -39.5q-109 0 -203.5 50t-152.5 147t-58 237t58 237t152.5 147.5t203.5 50.5q99 0 171.5 -38.5t114 -87.5t44.5 -81v183h62v-821h-62zM122 410q0 -116 50 -199t129 -127t165 -44q95 0 170 45t118.5 128t43.5 197t-43.5 197
t-118.5 128.5t-170 45.5q-86 0 -165 -44.5t-129 -127.5t-50 -199zM288 938l-49 65l254 186l255 -187l-48 -66l-207 152zM403 1490q-38 0 -63.5 -26t-34.5 -51h-96q10 34 32.5 69.5t56.5 60.5t78 25q60 0 97 -19.5t69.5 -39t78.5 -19.5q41 0 63.5 26.5t28.5 51.5h96
q-11 -33 -34.5 -69t-58.5 -61t-79 -25q-60 0 -98.5 19.5t-69 38.5t-66.5 19z" />
    <glyph glyph-name="uni1EAC" unicode="&#x1eac;" horiz-adv-x="1086" 
d="M509 1320h77l460 -1320h-67l-129 362h-605l-131 -362h-68zM262 426h572l-285 811h-3zM546 -96q29 0 51.5 -22t22.5 -52t-22.5 -51.5t-51.5 -21.5q-30 0 -51.5 22.5t-21.5 50.5q0 29 21.5 51.5t51.5 22.5zM341 1409l-49 65l254 186l255 -187l-48 -66l-207 152z" />
    <glyph glyph-name="uni1EAD" unicode="&#x1ead;" horiz-adv-x="1008" 
d="M802 0v182q-6 -28 -46.5 -77.5t-112.5 -89t-171 -39.5q-109 0 -203.5 50t-152.5 147t-58 237t58 237t152.5 147.5t203.5 50.5q99 0 171.5 -38.5t114 -87.5t44.5 -81v183h62v-821h-62zM122 410q0 -116 50 -199t129 -127t165 -44q95 0 170 45t118.5 128t43.5 197t-43.5 197
t-118.5 128.5t-170 45.5q-86 0 -165 -44.5t-129 -127.5t-50 -199zM493 -96q29 0 51.5 -22t22.5 -52t-22.5 -51.5t-51.5 -21.5q-30 0 -51.5 22.5t-21.5 50.5q0 29 21.5 51.5t51.5 22.5zM288 938l-49 65l254 186l255 -187l-48 -66l-207 152z" />
    <glyph glyph-name="uni1EAE" unicode="&#x1eae;" horiz-adv-x="1086" 
d="M509 1320h77l460 -1320h-67l-129 362h-605l-131 -362h-68zM262 426h572l-285 811h-3zM779 1559q-4 -35 -31.5 -77t-78 -72t-122.5 -30t-122 29.5t-78 71t-32 78.5l83 21q6 -27 24 -57t49.5 -50.5t75.5 -20.5t75 20.5t49 50.5t23 57zM473 1636l-39 49l288 226l59 -75z" />
    <glyph glyph-name="uni1EAF" unicode="&#x1eaf;" horiz-adv-x="1008" 
d="M802 0v182q-6 -28 -46.5 -77.5t-112.5 -89t-171 -39.5q-109 0 -203.5 50t-152.5 147t-58 237t58 237t152.5 147.5t203.5 50.5q99 0 171.5 -38.5t114 -87.5t44.5 -81v183h62v-821h-62zM122 410q0 -116 50 -199t129 -127t165 -44q95 0 170 45t118.5 128t43.5 197t-43.5 197
t-118.5 128.5t-170 45.5q-86 0 -165 -44.5t-129 -127.5t-50 -199zM725 1128q-4 -35 -31.5 -77t-78 -72t-122.5 -30q-71 0 -121.5 29.5t-78.5 71t-32 78.5l83 21q6 -27 24 -57t49.5 -50.5t75.5 -20.5t75 20.5t49 50.5t23 57zM374 1330l-38 49l286 226l61 -75z" />
    <glyph glyph-name="uni1EB0" unicode="&#x1eb0;" horiz-adv-x="1086" 
d="M509 1320h77l460 -1320h-67l-129 362h-605l-131 -362h-68zM262 426h572l-285 811h-3zM779 1559q-4 -35 -31.5 -77t-78 -72t-122.5 -30t-122 29.5t-78 71t-32 78.5l83 21q6 -27 24 -57t49.5 -50.5t75.5 -20.5t75 20.5t49 50.5t23 57zM603 1636l-308 200l59 75l288 -226z
" />
    <glyph glyph-name="uni1EB1" unicode="&#x1eb1;" horiz-adv-x="1008" 
d="M802 0v182q-6 -28 -46.5 -77.5t-112.5 -89t-171 -39.5q-109 0 -203.5 50t-152.5 147t-58 237t58 237t152.5 147.5t203.5 50.5q99 0 171.5 -38.5t114 -87.5t44.5 -81v183h62v-821h-62zM122 410q0 -116 50 -199t129 -127t165 -44q95 0 170 45t118.5 128t43.5 197t-43.5 197
t-118.5 128.5t-170 45.5q-86 0 -165 -44.5t-129 -127.5t-50 -199zM725 1128q-4 -35 -31.5 -77t-78 -72t-122.5 -30q-71 0 -121.5 29.5t-78.5 71t-32 78.5l83 21q6 -27 24 -57t49.5 -50.5t75.5 -20.5t75 20.5t49 50.5t23 57zM645 1330l-308 200l59 75l288 -226z" />
    <glyph glyph-name="uni1EB2" unicode="&#x1eb2;" horiz-adv-x="1086" 
d="M509 1320h77l460 -1320h-67l-129 362h-605l-131 -362h-68zM262 426h572l-285 811h-3zM779 1559q-4 -35 -31.5 -77t-78 -72t-122.5 -30t-122 29.5t-78 71t-32 78.5l83 21q6 -27 24 -57t49.5 -50.5t75.5 -20.5t75 20.5t49 50.5t23 57zM494 1714l38 -52q33 14 69.5 32.5
t69.5 44t53.5 60.5t20.5 83q0 65 -28 101.5t-73 51.5t-96 15q-80 0 -131 -18t-69 -30v-64q30 15 84 32t97 17q31 0 65.5 -6t59 -29.5t24.5 -77.5q0 -48 -34.5 -81.5t-78 -52.5t-71.5 -26z" />
    <glyph glyph-name="uni1EB3" unicode="&#x1eb3;" horiz-adv-x="1008" 
d="M802 0v182q-6 -28 -46.5 -77.5t-112.5 -89t-171 -39.5q-109 0 -203.5 50t-152.5 147t-58 237t58 237t152.5 147.5t203.5 50.5q99 0 171.5 -38.5t114 -87.5t44.5 -81v183h62v-821h-62zM122 410q0 -116 50 -199t129 -127t165 -44q95 0 170 45t118.5 128t43.5 197t-43.5 197
t-118.5 128.5t-170 45.5q-86 0 -165 -44.5t-129 -127.5t-50 -199zM725 1128q-4 -35 -31.5 -77t-78 -72t-122.5 -30q-71 0 -121.5 29.5t-78.5 71t-32 78.5l83 21q6 -27 24 -57t49.5 -50.5t75.5 -20.5t75 20.5t49 50.5t23 57zM440 1258l38 -52q33 14 69.5 34t69.5 49.5
t53.5 70.5t20.5 96q0 70 -28 108.5t-73 54t-96 15.5q-80 0 -131 -18t-69 -30v-64q30 15 84 32t97 17q31 0 65.5 -6.5t59 -32t24.5 -84.5q0 -58 -34.5 -98t-78 -62.5t-71.5 -29.5z" />
    <glyph glyph-name="uni1EB4" unicode="&#x1eb4;" horiz-adv-x="1086" 
d="M509 1320h77l460 -1320h-67l-129 362h-605l-131 -362h-68zM262 426h572l-285 811h-3zM779 1559q-4 -35 -31.5 -77t-78 -72t-122.5 -30t-122 29.5t-78 71t-32 78.5l83 21q6 -27 24 -57t49.5 -50.5t75.5 -20.5t75 20.5t49 50.5t23 57zM441 1752q-38 0 -63.5 -26t-34.5 -51
h-96q10 34 32.5 69.5t56.5 60.5t78 25q60 0 97 -19.5t69.5 -39t78.5 -19.5q41 0 63.5 26.5t28.5 51.5h96q-11 -33 -34.5 -69t-58.5 -61t-79 -25q-60 0 -98.5 19.5t-69 38.5t-66.5 19z" />
    <glyph glyph-name="uni1EB5" unicode="&#x1eb5;" horiz-adv-x="1008" 
d="M802 0v182q-6 -28 -46.5 -77.5t-112.5 -89t-171 -39.5q-109 0 -203.5 50t-152.5 147t-58 237t58 237t152.5 147.5t203.5 50.5q99 0 171.5 -38.5t114 -87.5t44.5 -81v183h62v-821h-62zM122 410q0 -116 50 -199t129 -127t165 -44q95 0 170 45t118.5 128t43.5 197t-43.5 197
t-118.5 128.5t-170 45.5q-86 0 -165 -44.5t-129 -127.5t-50 -199zM725 1128q-4 -35 -31.5 -77t-78 -72t-122.5 -30q-71 0 -121.5 29.5t-78.5 71t-32 78.5l83 21q6 -27 24 -57t49.5 -50.5t75.5 -20.5t75 20.5t49 50.5t23 57zM403 1450q-38 0 -63.5 -26t-34.5 -51h-96
q10 34 32.5 69.5t56.5 60.5t78 25q60 0 97 -19.5t69.5 -39t78.5 -19.5q41 0 63.5 26.5t28.5 51.5h96q-11 -33 -34.5 -69t-58.5 -61t-79 -25q-60 0 -98.5 19.5t-69 38.5t-66.5 19z" />
    <glyph glyph-name="uni1EB6" unicode="&#x1eb6;" horiz-adv-x="1086" 
d="M509 1320h77l460 -1320h-67l-129 362h-605l-131 -362h-68zM262 426h572l-285 811h-3zM546 -96q29 0 51.5 -22t22.5 -52t-22.5 -51.5t-51.5 -21.5q-30 0 -51.5 22.5t-21.5 50.5q0 29 21.5 51.5t51.5 22.5zM779 1559q-4 -35 -31.5 -77t-78 -72t-122.5 -30t-122 29.5t-78 71
t-32 78.5l83 21q6 -27 24 -57t49.5 -50.5t75.5 -20.5t75 20.5t49 50.5t23 57z" />
    <glyph glyph-name="uni1EB7" unicode="&#x1eb7;" horiz-adv-x="1008" 
d="M802 0v182q-6 -28 -46.5 -77.5t-112.5 -89t-171 -39.5q-109 0 -203.5 50t-152.5 147t-58 237t58 237t152.5 147.5t203.5 50.5q99 0 171.5 -38.5t114 -87.5t44.5 -81v183h62v-821h-62zM122 410q0 -116 50 -199t129 -127t165 -44q95 0 170 45t118.5 128t43.5 197t-43.5 197
t-118.5 128.5t-170 45.5q-86 0 -165 -44.5t-129 -127.5t-50 -199zM493 -96q29 0 51.5 -22t22.5 -52t-22.5 -51.5t-51.5 -21.5q-30 0 -51.5 22.5t-21.5 50.5q0 29 21.5 51.5t51.5 22.5zM725 1128q-4 -35 -31.5 -77t-78 -72t-122.5 -30q-71 0 -121.5 29.5t-78.5 71t-32 78.5
l83 21q6 -27 24 -57t49.5 -50.5t75.5 -20.5t75 20.5t49 50.5t23 57z" />
    <glyph glyph-name="uni1EB8" unicode="&#x1eb8;" horiz-adv-x="1035" 
d="M134 1320h728v-64h-667v-562h648v-64h-648v-566h667v-64h-728v1320zM450 -96q29 0 51.5 -22t22.5 -52t-22.5 -51.5t-51.5 -21.5q-30 0 -51.5 22.5t-21.5 50.5q0 29 21.5 51.5t51.5 22.5z" />
    <glyph glyph-name="uni1EB9" unicode="&#x1eb9;" horiz-adv-x="919" 
d="M126 416q0 -97 36 -183.5t110 -140.5t187 -54q91 0 149.5 31t92 72.5t46.5 72.5l59 -40q-40 -65 -89 -109.5t-112.5 -66.5t-148.5 -22q-129 0 -218 60.5t-134.5 162t-45.5 222.5q0 120 46.5 216t135 152t213.5 56q111 0 193.5 -51.5t128.5 -140.5t46 -203q0 -9 -1 -17.5
t-1 -16.5h-693zM750 480q-2 65 -29.5 135t-91.5 118.5t-176 48.5q-118 0 -186.5 -47t-99 -117t-36.5 -138h619zM446 -96q29 0 51.5 -22t22.5 -52t-22.5 -51.5t-51.5 -21.5q-30 0 -51.5 22.5t-21.5 50.5q0 29 21.5 51.5t51.5 22.5z" />
    <glyph glyph-name="uni1EBA" unicode="&#x1eba;" horiz-adv-x="1035" 
d="M134 1320h728v-64h-667v-562h648v-64h-648v-566h667v-64h-728v1320zM454 1454l38 -52q33 14 69.5 32.5t69.5 44t53.5 60.5t20.5 83q0 65 -28 101.5t-73 51.5t-96 15q-80 0 -131 -18t-69 -30v-64q30 15 84 32t97 17q31 0 65.5 -6t59 -29.5t24.5 -77.5q0 -48 -34.5 -81.5
t-78 -52.5t-71.5 -26z" />
    <glyph glyph-name="uni1EBB" unicode="&#x1ebb;" horiz-adv-x="919" 
d="M126 416q0 -97 36 -183.5t110 -140.5t187 -54q91 0 149.5 31t92 72.5t46.5 72.5l59 -40q-40 -65 -89 -109.5t-112.5 -66.5t-148.5 -22q-129 0 -218 60.5t-134.5 162t-45.5 222.5q0 120 46.5 216t135 152t213.5 56q111 0 193.5 -51.5t128.5 -140.5t46 -203q0 -9 -1 -17.5
t-1 -16.5h-693zM750 480q-2 65 -29.5 135t-91.5 118.5t-176 48.5q-118 0 -186.5 -47t-99 -117t-36.5 -138h619zM393 930l38 -52q33 14 69.5 34t69.5 49.5t53.5 70.5t20.5 96q0 70 -28 108.5t-73 54t-96 15.5q-80 0 -131 -18t-69 -30v-64q30 15 84 32t97 17q31 0 65.5 -6.5
t59 -32t24.5 -84.5q0 -58 -34.5 -98t-78 -62.5t-71.5 -29.5z" />
    <glyph glyph-name="uni1EBC" unicode="&#x1ebc;" horiz-adv-x="1035" 
d="M134 1320h728v-64h-667v-562h648v-64h-648v-566h667v-64h-728v1320zM401 1492q-38 0 -63.5 -26t-34.5 -51h-96q10 34 32.5 69.5t56.5 60.5t78 25q60 0 97 -19.5t69.5 -39t78.5 -19.5q41 0 63.5 26.5t28.5 51.5h96q-11 -33 -34.5 -69t-58.5 -61t-79 -25q-60 0 -98.5 19.5
t-69 38.5t-66.5 19z" />
    <glyph glyph-name="uni1EBD" unicode="&#x1ebd;" horiz-adv-x="919" 
d="M126 416q0 -97 36 -183.5t110 -140.5t187 -54q91 0 149.5 31t92 72.5t46.5 72.5l59 -40q-40 -65 -89 -109.5t-112.5 -66.5t-148.5 -22q-129 0 -218 60.5t-134.5 162t-45.5 222.5q0 120 46.5 216t135 152t213.5 56q111 0 193.5 -51.5t128.5 -140.5t46 -203q0 -9 -1 -17.5
t-1 -16.5h-693zM750 480q-2 65 -29.5 135t-91.5 118.5t-176 48.5q-118 0 -186.5 -47t-99 -117t-36.5 -138h619zM356 1122q-38 0 -63.5 -26t-34.5 -51h-96q10 34 32.5 69.5t56.5 60.5t78 25q60 0 97 -19.5t69.5 -39t78.5 -19.5q41 0 63.5 26.5t28.5 51.5h96
q-11 -33 -34.5 -69t-58.5 -61t-79 -25q-60 0 -98.5 19.5t-69 38.5t-66.5 19z" />
    <glyph glyph-name="uni1EBE" unicode="&#x1ebe;" horiz-adv-x="1035" 
d="M134 1320h728v-64h-667v-562h648v-64h-648v-566h667v-64h-728v1320zM302 1429l-49 65l254 186l255 -187l-48 -66l-207 152zM691 1666l-38 49l286 226l61 -75z" />
    <glyph glyph-name="uni1EBF" unicode="&#x1ebf;" horiz-adv-x="919" 
d="M126 416q0 -97 36 -183.5t110 -140.5t187 -54q91 0 149.5 31t92 72.5t46.5 72.5l59 -40q-40 -65 -89 -109.5t-112.5 -66.5t-148.5 -22q-129 0 -218 60.5t-134.5 162t-45.5 222.5q0 120 46.5 216t135 152t213.5 56q111 0 193.5 -51.5t128.5 -140.5t46 -203q0 -9 -1 -17.5
t-1 -16.5h-693zM750 480q-2 65 -29.5 135t-91.5 118.5t-176 48.5q-118 0 -186.5 -47t-99 -117t-36.5 -138h619zM241 938l-49 65l254 186l255 -187l-48 -66l-207 152zM327 1370l-38 49l286 226l61 -75z" />
    <glyph glyph-name="uni1EC0" unicode="&#x1ec0;" horiz-adv-x="1035" 
d="M134 1320h728v-64h-667v-562h648v-64h-648v-566h667v-64h-728v1320zM307 1412l-49 65l254 186l255 -187l-48 -66l-207 152zM853 1632l-308 200l59 75l288 -226z" />
    <glyph glyph-name="uni1EC1" unicode="&#x1ec1;" horiz-adv-x="919" 
d="M126 416q0 -97 36 -183.5t110 -140.5t187 -54q91 0 149.5 31t92 72.5t46.5 72.5l59 -40q-40 -65 -89 -109.5t-112.5 -66.5t-148.5 -22q-129 0 -218 60.5t-134.5 162t-45.5 222.5q0 120 46.5 216t135 152t213.5 56q111 0 193.5 -51.5t128.5 -140.5t46 -203q0 -9 -1 -17.5
t-1 -16.5h-693zM750 480q-2 65 -29.5 135t-91.5 118.5t-176 48.5q-118 0 -186.5 -47t-99 -117t-36.5 -138h619zM241 938l-49 65l254 186l255 -187l-48 -66l-207 152zM598 1370l-308 200l59 75l288 -226z" />
    <glyph glyph-name="uni1EC2" unicode="&#x1ec2;" horiz-adv-x="1035" 
d="M134 1320h728v-64h-667v-562h648v-64h-648v-566h667v-64h-728v1320zM303 1415l-49 65l254 186l255 -187l-48 -66l-207 152zM650 1682l38 -52q33 14 69.5 34t69.5 49.5t53.5 70.5t20.5 96q0 70 -28 108.5t-73 54t-96 15.5q-80 0 -131 -18t-69 -30v-64q30 15 84 32t97 17
q31 0 65.5 -6.5t59 -32t24.5 -84.5q0 -58 -34.5 -98t-78 -62.5t-71.5 -29.5z" />
    <glyph glyph-name="uni1EC3" unicode="&#x1ec3;" horiz-adv-x="919" 
d="M126 416q0 -97 36 -183.5t110 -140.5t187 -54q91 0 149.5 31t92 72.5t46.5 72.5l59 -40q-40 -65 -89 -109.5t-112.5 -66.5t-148.5 -22q-129 0 -218 60.5t-134.5 162t-45.5 222.5q0 120 46.5 216t135 152t213.5 56q111 0 193.5 -51.5t128.5 -140.5t46 -203q0 -9 -1 -17.5
t-1 -16.5h-693zM750 480q-2 65 -29.5 135t-91.5 118.5t-176 48.5q-118 0 -186.5 -47t-99 -117t-36.5 -138h619zM241 938l-49 65l254 186l255 -187l-48 -66l-207 152zM393 1298l38 -52q33 14 69.5 34t69.5 49.5t53.5 70.5t20.5 96q0 70 -28 108.5t-73 54t-96 15.5
q-80 0 -131 -18t-69 -30v-64q30 15 84 32t97 17q31 0 65.5 -6.5t59 -32t24.5 -84.5q0 -58 -34.5 -98t-78 -62.5t-71.5 -29.5z" />
    <glyph glyph-name="uni1EC4" unicode="&#x1ec4;" horiz-adv-x="1035" 
d="M134 1320h728v-64h-667v-562h648v-64h-648v-566h667v-64h-728v1320zM298 1409l-49 65l254 186l255 -187l-48 -66l-207 152zM403 1806q-38 0 -63.5 -26t-34.5 -51h-96q10 34 32.5 69.5t56.5 60.5t78 25q60 0 97 -19.5t69.5 -39t78.5 -19.5q41 0 63.5 26.5t28.5 51.5h96
q-11 -33 -34.5 -69t-58.5 -61t-79 -25q-60 0 -98.5 19.5t-69 38.5t-66.5 19z" />
    <glyph glyph-name="uni1EC5" unicode="&#x1ec5;" horiz-adv-x="919" 
d="M126 416q0 -97 36 -183.5t110 -140.5t187 -54q91 0 149.5 31t92 72.5t46.5 72.5l59 -40q-40 -65 -89 -109.5t-112.5 -66.5t-148.5 -22q-129 0 -218 60.5t-134.5 162t-45.5 222.5q0 120 46.5 216t135 152t213.5 56q111 0 193.5 -51.5t128.5 -140.5t46 -203q0 -9 -1 -17.5
t-1 -16.5h-693zM750 480q-2 65 -29.5 135t-91.5 118.5t-176 48.5q-118 0 -186.5 -47t-99 -117t-36.5 -138h619zM241 938l-49 65l254 186l255 -187l-48 -66l-207 152zM356 1490q-38 0 -63.5 -26t-34.5 -51h-96q10 34 32.5 69.5t56.5 60.5t78 25q60 0 97 -19.5t69.5 -39
t78.5 -19.5q41 0 63.5 26.5t28.5 51.5h96q-11 -33 -34.5 -69t-58.5 -61t-79 -25q-60 0 -98.5 19.5t-69 38.5t-66.5 19z" />
    <glyph glyph-name="uni1EC6" unicode="&#x1ec6;" horiz-adv-x="1035" 
d="M134 1320h728v-64h-667v-562h648v-64h-648v-566h667v-64h-728v1320zM450 -96q29 0 51.5 -22t22.5 -52t-22.5 -51.5t-51.5 -21.5q-30 0 -51.5 22.5t-21.5 50.5q0 29 21.5 51.5t51.5 22.5zM301 1409l-49 65l254 186l255 -187l-48 -66l-207 152z" />
    <glyph glyph-name="uni1EC7" unicode="&#x1ec7;" horiz-adv-x="919" 
d="M126 416q0 -97 36 -183.5t110 -140.5t187 -54q91 0 149.5 31t92 72.5t46.5 72.5l59 -40q-40 -65 -89 -109.5t-112.5 -66.5t-148.5 -22q-129 0 -218 60.5t-134.5 162t-45.5 222.5q0 120 46.5 216t135 152t213.5 56q111 0 193.5 -51.5t128.5 -140.5t46 -203q0 -9 -1 -17.5
t-1 -16.5h-693zM750 480q-2 65 -29.5 135t-91.5 118.5t-176 48.5q-118 0 -186.5 -47t-99 -117t-36.5 -138h619zM446 -96q29 0 51.5 -22t22.5 -52t-22.5 -51.5t-51.5 -21.5q-30 0 -51.5 22.5t-21.5 50.5q0 29 21.5 51.5t51.5 22.5zM241 938l-49 65l254 186l255 -187l-48 -66
l-207 152z" />
    <glyph glyph-name="uni1EC8" unicode="&#x1ec8;" horiz-adv-x="405" 
d="M152 1320h64v-1320h-64v1320zM129 1454l38 -52q33 14 69.5 32.5t69.5 44t53.5 60.5t20.5 83q0 65 -28 101.5t-73 51.5t-96 15q-80 0 -131 -18t-69 -30v-64q30 15 84 32t97 17q31 0 65.5 -6t59 -29.5t24.5 -77.5q0 -48 -34.5 -81.5t-78 -52.5t-71.5 -26z" />
    <glyph glyph-name="uni1EC9" unicode="&#x1ec9;" horiz-adv-x="339" 
d="M118 0v821h64v-821h-64zM97 930l38 -52q33 14 69.5 34t69.5 49.5t53.5 70.5t20.5 96q0 70 -28 108.5t-73 54t-96 15.5q-80 0 -131 -18t-69 -30v-64q30 15 84 32t97 17q31 0 65.5 -6.5t59 -32t24.5 -84.5q0 -58 -34.5 -98t-78 -62.5t-71.5 -29.5z" />
    <glyph glyph-name="uni1ECA" unicode="&#x1eca;" horiz-adv-x="405" 
d="M152 1320h64v-1320h-64v1320zM181 -96q29 0 51.5 -22t22.5 -52t-22.5 -51.5t-51.5 -21.5q-30 0 -51.5 22.5t-21.5 50.5q0 29 21.5 51.5t51.5 22.5z" />
    <glyph glyph-name="uni1ECB" unicode="&#x1ecb;" horiz-adv-x="405" 
d="M149 0v821h64v-821h-64zM182 1197q-27 0 -46 19t-19 46q0 28 19.5 47t45.5 19q18 0 33.5 -9t25 -23.5t9.5 -33.5q0 -27 -20 -46t-48 -19zM182 -96q29 0 51.5 -22t22.5 -52t-22.5 -51.5t-51.5 -21.5q-30 0 -51.5 22.5t-21.5 50.5q0 29 21.5 51.5t51.5 22.5z" />
    <glyph glyph-name="uni1ECC" unicode="&#x1ecc;" horiz-adv-x="1411" 
d="M112 661q0 -176 74.5 -316.5t204 -222.5t295.5 -82q167 0 296 82t202.5 222.5t73.5 316.5t-73.5 316t-202.5 221.5t-296 81.5q-166 0 -295.5 -81.5t-204 -221.5t-74.5 -316zM48 661q0 144 48 268.5t134.5 217.5t203 145t252.5 52q137 0 252.5 -52t202 -145t134 -217.5
t47.5 -268.5q0 -145 -47.5 -269.5t-134 -218t-202 -145.5t-252.5 -52q-136 0 -252.5 52t-203 145.5t-134.5 218t-48 269.5zM685 -261q29 0 51.5 -22t22.5 -52t-22.5 -51.5t-51.5 -21.5q-30 0 -51.5 22.5t-21.5 50.5q0 29 21.5 51.5t51.5 22.5z" />
    <glyph glyph-name="uni1ECD" unicode="&#x1ecd;" horiz-adv-x="978" 
d="M470 -24q-120 0 -213 58t-146 156t-53 218t53 219.5t146 158.5t213 59t212.5 -59t145 -158.5t52.5 -219.5t-52.5 -218t-145 -156t-212.5 -58zM470 40q104 0 182 48.5t121 132t43 187.5t-43 188.5t-121 134.5t-182 50t-182.5 -50t-122 -134.5t-43.5 -188.5t43.5 -187.5
t122 -132t182.5 -48.5zM469 -198q29 0 51.5 -22t22.5 -52t-22.5 -51.5t-51.5 -21.5q-30 0 -51.5 22.5t-21.5 50.5q0 29 21.5 51.5t51.5 22.5z" />
    <glyph glyph-name="uni1ECE" unicode="&#x1ece;" horiz-adv-x="1411" 
d="M112 661q0 -176 74.5 -316.5t204 -222.5t295.5 -82q167 0 296 82t202.5 222.5t73.5 316.5t-73.5 316t-202.5 221.5t-296 81.5q-166 0 -295.5 -81.5t-204 -221.5t-74.5 -316zM48 661q0 144 48 268.5t134.5 217.5t203 145t252.5 52q137 0 252.5 -52t202 -145t134 -217.5
t47.5 -268.5q0 -145 -47.5 -269.5t-134 -218t-202 -145.5t-252.5 -52q-136 0 -252.5 52t-203 145.5t-134.5 218t-48 269.5zM633 1454l38 -52q33 14 69.5 32.5t69.5 44t53.5 60.5t20.5 83q0 65 -28 101.5t-73 51.5t-96 15q-80 0 -131 -18t-69 -30v-64q30 15 84 32t97 17
q31 0 65.5 -6t59 -29.5t24.5 -77.5q0 -48 -34.5 -81.5t-78 -52.5t-71.5 -26z" />
    <glyph glyph-name="uni1ECF" unicode="&#x1ecf;" horiz-adv-x="978" 
d="M470 -24q-120 0 -213 58t-146 156t-53 218t53 219.5t146 158.5t213 59t212.5 -59t145 -158.5t52.5 -219.5t-52.5 -218t-145 -156t-212.5 -58zM470 40q104 0 182 48.5t121 132t43 187.5t-43 188.5t-121 134.5t-182 50t-182.5 -50t-122 -134.5t-43.5 -188.5t43.5 -187.5
t122 -132t182.5 -48.5zM416 930l38 -52q33 14 69.5 34t69.5 49.5t53.5 70.5t20.5 96q0 70 -28 108.5t-73 54t-96 15.5q-80 0 -131 -18t-69 -30v-64q30 15 84 32t97 17q31 0 65.5 -6.5t59 -32t24.5 -84.5q0 -58 -34.5 -98t-78 -62.5t-71.5 -29.5z" />
    <glyph glyph-name="uni1ED0" unicode="&#x1ed0;" horiz-adv-x="1411" 
d="M112 661q0 -176 74.5 -316.5t204 -222.5t295.5 -82q167 0 296 82t202.5 222.5t73.5 316.5t-73.5 316t-202.5 221.5t-296 81.5q-166 0 -295.5 -81.5t-204 -221.5t-74.5 -316zM48 661q0 144 48 268.5t134.5 217.5t203 145t252.5 52q137 0 252.5 -52t202 -145t134 -217.5
t47.5 -268.5q0 -145 -47.5 -269.5t-134 -218t-202 -145.5t-252.5 -52q-136 0 -252.5 52t-203 145.5t-134.5 218t-48 269.5zM481 1429l-49 65l254 186l255 -187l-48 -66l-207 152zM870 1666l-38 49l286 226l61 -75z" />
    <glyph glyph-name="uni1ED1" unicode="&#x1ed1;" horiz-adv-x="978" 
d="M470 -24q-120 0 -213 58t-146 156t-53 218t53 219.5t146 158.5t213 59t212.5 -59t145 -158.5t52.5 -219.5t-52.5 -218t-145 -156t-212.5 -58zM470 40q104 0 182 48.5t121 132t43 187.5t-43 188.5t-121 134.5t-182 50t-182.5 -50t-122 -134.5t-43.5 -188.5t43.5 -187.5
t122 -132t182.5 -48.5zM264 938l-49 65l254 186l255 -187l-48 -66l-207 152zM350 1370l-38 49l286 226l61 -75z" />
    <glyph glyph-name="uni1ED2" unicode="&#x1ed2;" horiz-adv-x="1411" 
d="M112 661q0 -176 74.5 -316.5t204 -222.5t295.5 -82q167 0 296 82t202.5 222.5t73.5 316.5t-73.5 316t-202.5 221.5t-296 81.5q-166 0 -295.5 -81.5t-204 -221.5t-74.5 -316zM48 661q0 144 48 268.5t134.5 217.5t203 145t252.5 52q137 0 252.5 -52t202 -145t134 -217.5
t47.5 -268.5q0 -145 -47.5 -269.5t-134 -218t-202 -145.5t-252.5 -52q-136 0 -252.5 52t-203 145.5t-134.5 218t-48 269.5zM486 1412l-49 65l254 186l255 -187l-48 -66l-207 152zM1032 1632l-308 200l59 75l288 -226z" />
    <glyph glyph-name="uni1ED3" unicode="&#x1ed3;" horiz-adv-x="978" 
d="M470 -24q-120 0 -213 58t-146 156t-53 218t53 219.5t146 158.5t213 59t212.5 -59t145 -158.5t52.5 -219.5t-52.5 -218t-145 -156t-212.5 -58zM470 40q104 0 182 48.5t121 132t43 187.5t-43 188.5t-121 134.5t-182 50t-182.5 -50t-122 -134.5t-43.5 -188.5t43.5 -187.5
t122 -132t182.5 -48.5zM264 938l-49 65l254 186l255 -187l-48 -66l-207 152zM621 1370l-308 200l59 75l288 -226z" />
    <glyph glyph-name="uni1ED4" unicode="&#x1ed4;" horiz-adv-x="1411" 
d="M112 661q0 -176 74.5 -316.5t204 -222.5t295.5 -82q167 0 296 82t202.5 222.5t73.5 316.5t-73.5 316t-202.5 221.5t-296 81.5q-166 0 -295.5 -81.5t-204 -221.5t-74.5 -316zM48 661q0 144 48 268.5t134.5 217.5t203 145t252.5 52q137 0 252.5 -52t202 -145t134 -217.5
t47.5 -268.5q0 -145 -47.5 -269.5t-134 -218t-202 -145.5t-252.5 -52q-136 0 -252.5 52t-203 145.5t-134.5 218t-48 269.5zM482 1415l-49 65l254 186l255 -187l-48 -66l-207 152zM829 1682l38 -52q33 14 69.5 34t69.5 49.5t53.5 70.5t20.5 96q0 70 -28 108.5t-73 54
t-96 15.5q-80 0 -131 -18t-69 -30v-64q30 15 84 32t97 17q31 0 65.5 -6.5t59 -32t24.5 -84.5q0 -58 -34.5 -98t-78 -62.5t-71.5 -29.5z" />
    <glyph glyph-name="uni1ED5" unicode="&#x1ed5;" horiz-adv-x="978" 
d="M470 -24q-120 0 -213 58t-146 156t-53 218t53 219.5t146 158.5t213 59t212.5 -59t145 -158.5t52.5 -219.5t-52.5 -218t-145 -156t-212.5 -58zM470 40q104 0 182 48.5t121 132t43 187.5t-43 188.5t-121 134.5t-182 50t-182.5 -50t-122 -134.5t-43.5 -188.5t43.5 -187.5
t122 -132t182.5 -48.5zM264 938l-49 65l254 186l255 -187l-48 -66l-207 152zM416 1298l38 -52q33 14 69.5 34t69.5 49.5t53.5 70.5t20.5 96q0 70 -28 108.5t-73 54t-96 15.5q-80 0 -131 -18t-69 -30v-64q30 15 84 32t97 17q31 0 65.5 -6.5t59 -32t24.5 -84.5
q0 -58 -34.5 -98t-78 -62.5t-71.5 -29.5z" />
    <glyph glyph-name="uni1ED6" unicode="&#x1ed6;" horiz-adv-x="1411" 
d="M112 661q0 -176 74.5 -316.5t204 -222.5t295.5 -82q167 0 296 82t202.5 222.5t73.5 316.5t-73.5 316t-202.5 221.5t-296 81.5q-166 0 -295.5 -81.5t-204 -221.5t-74.5 -316zM48 661q0 144 48 268.5t134.5 217.5t203 145t252.5 52q137 0 252.5 -52t202 -145t134 -217.5
t47.5 -268.5q0 -145 -47.5 -269.5t-134 -218t-202 -145.5t-252.5 -52q-136 0 -252.5 52t-203 145.5t-134.5 218t-48 269.5zM477 1409l-49 65l254 186l255 -187l-48 -66l-207 152zM582 1806q-38 0 -63.5 -26t-34.5 -51h-96q10 34 32.5 69.5t56.5 60.5t78 25q60 0 97 -19.5
t69.5 -39t78.5 -19.5q41 0 63.5 26.5t28.5 51.5h96q-11 -33 -34.5 -69t-58.5 -61t-79 -25q-60 0 -98.5 19.5t-69 38.5t-66.5 19z" />
    <glyph glyph-name="uni1ED7" unicode="&#x1ed7;" horiz-adv-x="978" 
d="M470 -24q-120 0 -213 58t-146 156t-53 218t53 219.5t146 158.5t213 59t212.5 -59t145 -158.5t52.5 -219.5t-52.5 -218t-145 -156t-212.5 -58zM470 40q104 0 182 48.5t121 132t43 187.5t-43 188.5t-121 134.5t-182 50t-182.5 -50t-122 -134.5t-43.5 -188.5t43.5 -187.5
t122 -132t182.5 -48.5zM264 938l-49 65l254 186l255 -187l-48 -66l-207 152zM379 1490q-38 0 -63.5 -26t-34.5 -51h-96q10 34 32.5 69.5t56.5 60.5t78 25q60 0 97 -19.5t69.5 -39t78.5 -19.5q41 0 63.5 26.5t28.5 51.5h96q-11 -33 -34.5 -69t-58.5 -61t-79 -25
q-60 0 -98.5 19.5t-69 38.5t-66.5 19z" />
    <glyph glyph-name="uni1ED8" unicode="&#x1ed8;" horiz-adv-x="1411" 
d="M112 661q0 -176 74.5 -316.5t204 -222.5t295.5 -82q167 0 296 82t202.5 222.5t73.5 316.5t-73.5 316t-202.5 221.5t-296 81.5q-166 0 -295.5 -81.5t-204 -221.5t-74.5 -316zM48 661q0 144 48 268.5t134.5 217.5t203 145t252.5 52q137 0 252.5 -52t202 -145t134 -217.5
t47.5 -268.5q0 -145 -47.5 -269.5t-134 -218t-202 -145.5t-252.5 -52q-136 0 -252.5 52t-203 145.5t-134.5 218t-48 269.5zM685 -261q29 0 51.5 -22t22.5 -52t-22.5 -51.5t-51.5 -21.5q-30 0 -51.5 22.5t-21.5 50.5q0 29 21.5 51.5t51.5 22.5zM480 1409l-49 65l254 186
l255 -187l-48 -66l-207 152z" />
    <glyph glyph-name="uni1ED9" unicode="&#x1ed9;" horiz-adv-x="978" 
d="M470 -24q-120 0 -213 58t-146 156t-53 218t53 219.5t146 158.5t213 59t212.5 -59t145 -158.5t52.5 -219.5t-52.5 -218t-145 -156t-212.5 -58zM470 40q104 0 182 48.5t121 132t43 187.5t-43 188.5t-121 134.5t-182 50t-182.5 -50t-122 -134.5t-43.5 -188.5t43.5 -187.5
t122 -132t182.5 -48.5zM469 -198q29 0 51.5 -22t22.5 -52t-22.5 -51.5t-51.5 -21.5q-30 0 -51.5 22.5t-21.5 50.5q0 29 21.5 51.5t51.5 22.5zM264 938l-49 65l254 186l255 -187l-48 -66l-207 152z" />
    <glyph glyph-name="uni1EDA" unicode="&#x1eda;" horiz-adv-x="1411" 
d="M112 661q0 -176 74.5 -316.5t204 -222.5t295.5 -82q167 0 296 82t202.5 222.5t73.5 316.5t-73.5 316t-202.5 221.5t-296 81.5q-166 0 -295.5 -81.5t-204 -221.5t-74.5 -316zM48 661q0 144 48 268.5t134.5 217.5t203 145t252.5 52q137 0 252.5 -52t202 -145t134 -217.5
t47.5 -268.5q0 -145 -47.5 -269.5t-134 -218t-202 -145.5t-252.5 -52q-136 0 -252.5 52t-203 145.5t-134.5 218t-48 269.5zM1182 1114q-29 0 -56.5 9.5t-50.5 22.5v56q15 -13 42 -23.5t57 -10.5q65 0 97 43t32 95q0 44 -6 66.5t-18 50.5h63q8 -14 16.5 -42t8.5 -80
q0 -45 -24.5 -88t-66 -71t-94.5 -28zM567 1501l-38 49l286 226l61 -75z" />
    <glyph glyph-name="uni1EDB" unicode="&#x1edb;" horiz-adv-x="978" 
d="M470 -24q-120 0 -213 58t-146 156t-53 218t53 219.5t146 158.5t213 59t212.5 -59t145 -158.5t52.5 -219.5t-52.5 -218t-145 -156t-212.5 -58zM470 40q104 0 182 48.5t121 132t43 187.5t-43 188.5t-121 134.5t-182 50t-182.5 -50t-122 -134.5t-43.5 -188.5t43.5 -187.5
t122 -132t182.5 -48.5zM785 693q-29 0 -56.5 9.5t-50.5 22.5v56q15 -13 42 -23.5t57 -10.5q65 0 97 43t32 95q0 44 -6 66.5t-18 50.5h63q8 -14 16.5 -42t8.5 -80q0 -45 -24.5 -88t-66 -71t-94.5 -28zM350 1002l-38 49l286 226l61 -75z" />
    <glyph glyph-name="uni1EDC" unicode="&#x1edc;" horiz-adv-x="1411" 
d="M112 661q0 -176 74.5 -316.5t204 -222.5t295.5 -82q167 0 296 82t202.5 222.5t73.5 316.5t-73.5 316t-202.5 221.5t-296 81.5q-166 0 -295.5 -81.5t-204 -221.5t-74.5 -316zM48 661q0 144 48 268.5t134.5 217.5t203 145t252.5 52q137 0 252.5 -52t202 -145t134 -217.5
t47.5 -268.5q0 -145 -47.5 -269.5t-134 -218t-202 -145.5t-252.5 -52q-136 0 -252.5 52t-203 145.5t-134.5 218t-48 269.5zM1182 1114q-29 0 -56.5 9.5t-50.5 22.5v56q15 -13 42 -23.5t57 -10.5q65 0 97 43t32 95q0 44 -6 66.5t-18 50.5h63q8 -14 16.5 -42t8.5 -80
q0 -45 -24.5 -88t-66 -71t-94.5 -28zM838 1501l-308 200l59 75l288 -226z" />
    <glyph glyph-name="uni1EDD" unicode="&#x1edd;" horiz-adv-x="978" 
d="M470 -24q-120 0 -213 58t-146 156t-53 218t53 219.5t146 158.5t213 59t212.5 -59t145 -158.5t52.5 -219.5t-52.5 -218t-145 -156t-212.5 -58zM470 40q104 0 182 48.5t121 132t43 187.5t-43 188.5t-121 134.5t-182 50t-182.5 -50t-122 -134.5t-43.5 -188.5t43.5 -187.5
t122 -132t182.5 -48.5zM785 693q-29 0 -56.5 9.5t-50.5 22.5v56q15 -13 42 -23.5t57 -10.5q65 0 97 43t32 95q0 44 -6 66.5t-18 50.5h63q8 -14 16.5 -42t8.5 -80q0 -45 -24.5 -88t-66 -71t-94.5 -28zM621 1002l-308 200l59 75l288 -226z" />
    <glyph glyph-name="uni1EDE" unicode="&#x1ede;" horiz-adv-x="1411" 
d="M112 661q0 -176 74.5 -316.5t204 -222.5t295.5 -82q167 0 296 82t202.5 222.5t73.5 316.5t-73.5 316t-202.5 221.5t-296 81.5q-166 0 -295.5 -81.5t-204 -221.5t-74.5 -316zM48 661q0 144 48 268.5t134.5 217.5t203 145t252.5 52q137 0 252.5 -52t202 -145t134 -217.5
t47.5 -268.5q0 -145 -47.5 -269.5t-134 -218t-202 -145.5t-252.5 -52q-136 0 -252.5 52t-203 145.5t-134.5 218t-48 269.5zM1182 1114q-29 0 -56.5 9.5t-50.5 22.5v56q15 -13 42 -23.5t57 -10.5q65 0 97 43t32 95q0 44 -6 66.5t-18 50.5h63q8 -14 16.5 -42t8.5 -80
q0 -45 -24.5 -88t-66 -71t-94.5 -28zM633 1429l38 -52q33 14 69.5 34t69.5 49.5t53.5 70.5t20.5 96q0 70 -28 108.5t-73 54t-96 15.5q-80 0 -131 -18t-69 -30v-64q30 15 84 32t97 17q31 0 65.5 -6.5t59 -32t24.5 -84.5q0 -58 -34.5 -98t-78 -62.5t-71.5 -29.5z" />
    <glyph glyph-name="uni1EDF" unicode="&#x1edf;" horiz-adv-x="978" 
d="M470 -24q-120 0 -213 58t-146 156t-53 218t53 219.5t146 158.5t213 59t212.5 -59t145 -158.5t52.5 -219.5t-52.5 -218t-145 -156t-212.5 -58zM470 40q104 0 182 48.5t121 132t43 187.5t-43 188.5t-121 134.5t-182 50t-182.5 -50t-122 -134.5t-43.5 -188.5t43.5 -187.5
t122 -132t182.5 -48.5zM785 693q-29 0 -56.5 9.5t-50.5 22.5v56q15 -13 42 -23.5t57 -10.5q65 0 97 43t32 95q0 44 -6 66.5t-18 50.5h63q8 -14 16.5 -42t8.5 -80q0 -45 -24.5 -88t-66 -71t-94.5 -28zM416 930l38 -52q33 14 69.5 34t69.5 49.5t53.5 70.5t20.5 96
q0 70 -28 108.5t-73 54t-96 15.5q-80 0 -131 -18t-69 -30v-64q30 15 84 32t97 17q31 0 65.5 -6.5t59 -32t24.5 -84.5q0 -58 -34.5 -98t-78 -62.5t-71.5 -29.5z" />
    <glyph glyph-name="uni1EE0" unicode="&#x1ee0;" horiz-adv-x="1411" 
d="M112 661q0 -176 74.5 -316.5t204 -222.5t295.5 -82q167 0 296 82t202.5 222.5t73.5 316.5t-73.5 316t-202.5 221.5t-296 81.5q-166 0 -295.5 -81.5t-204 -221.5t-74.5 -316zM48 661q0 144 48 268.5t134.5 217.5t203 145t252.5 52q137 0 252.5 -52t202 -145t134 -217.5
t47.5 -268.5q0 -145 -47.5 -269.5t-134 -218t-202 -145.5t-252.5 -52q-136 0 -252.5 52t-203 145.5t-134.5 218t-48 269.5zM1182 1114q-29 0 -56.5 9.5t-50.5 22.5v56q15 -13 42 -23.5t57 -10.5q65 0 97 43t32 95q0 44 -6 66.5t-18 50.5h63q8 -14 16.5 -42t8.5 -80
q0 -45 -24.5 -88t-66 -71t-94.5 -28zM596 1621q-38 0 -63.5 -26t-34.5 -51h-96q10 34 32.5 69.5t56.5 60.5t78 25q60 0 97 -19.5t69.5 -39t78.5 -19.5q41 0 63.5 26.5t28.5 51.5h96q-11 -33 -34.5 -69t-58.5 -61t-79 -25q-60 0 -98.5 19.5t-69 38.5t-66.5 19z" />
    <glyph glyph-name="uni1EE1" unicode="&#x1ee1;" horiz-adv-x="978" 
d="M470 -24q-120 0 -213 58t-146 156t-53 218t53 219.5t146 158.5t213 59t212.5 -59t145 -158.5t52.5 -219.5t-52.5 -218t-145 -156t-212.5 -58zM470 40q104 0 182 48.5t121 132t43 187.5t-43 188.5t-121 134.5t-182 50t-182.5 -50t-122 -134.5t-43.5 -188.5t43.5 -187.5
t122 -132t182.5 -48.5zM785 693q-29 0 -56.5 9.5t-50.5 22.5v56q15 -13 42 -23.5t57 -10.5q65 0 97 43t32 95q0 44 -6 66.5t-18 50.5h63q8 -14 16.5 -42t8.5 -80q0 -45 -24.5 -88t-66 -71t-94.5 -28zM379 1122q-38 0 -63.5 -26t-34.5 -51h-96q10 34 32.5 69.5t56.5 60.5
t78 25q60 0 97 -19.5t69.5 -39t78.5 -19.5q41 0 63.5 26.5t28.5 51.5h96q-11 -33 -34.5 -69t-58.5 -61t-79 -25q-60 0 -98.5 19.5t-69 38.5t-66.5 19z" />
    <glyph glyph-name="uni1EE2" unicode="&#x1ee2;" horiz-adv-x="1411" 
d="M112 661q0 -176 74.5 -316.5t204 -222.5t295.5 -82q167 0 296 82t202.5 222.5t73.5 316.5t-73.5 316t-202.5 221.5t-296 81.5q-166 0 -295.5 -81.5t-204 -221.5t-74.5 -316zM48 661q0 144 48 268.5t134.5 217.5t203 145t252.5 52q137 0 252.5 -52t202 -145t134 -217.5
t47.5 -268.5q0 -145 -47.5 -269.5t-134 -218t-202 -145.5t-252.5 -52q-136 0 -252.5 52t-203 145.5t-134.5 218t-48 269.5zM1182 1114q-29 0 -56.5 9.5t-50.5 22.5v56q15 -13 42 -23.5t57 -10.5q65 0 97 43t32 95q0 44 -6 66.5t-18 50.5h63q8 -14 16.5 -42t8.5 -80
q0 -45 -24.5 -88t-66 -71t-94.5 -28zM686 -261q29 0 51.5 -22t22.5 -52t-22.5 -51.5t-51.5 -21.5q-30 0 -51.5 22.5t-21.5 50.5q0 29 21.5 51.5t51.5 22.5z" />
    <glyph glyph-name="uni1EE3" unicode="&#x1ee3;" horiz-adv-x="978" 
d="M470 -24q-120 0 -213 58t-146 156t-53 218t53 219.5t146 158.5t213 59t212.5 -59t145 -158.5t52.5 -219.5t-52.5 -218t-145 -156t-212.5 -58zM470 40q104 0 182 48.5t121 132t43 187.5t-43 188.5t-121 134.5t-182 50t-182.5 -50t-122 -134.5t-43.5 -188.5t43.5 -187.5
t122 -132t182.5 -48.5zM785 693q-29 0 -56.5 9.5t-50.5 22.5v56q15 -13 42 -23.5t57 -10.5q65 0 97 43t32 95q0 44 -6 66.5t-18 50.5h63q8 -14 16.5 -42t8.5 -80q0 -45 -24.5 -88t-66 -71t-94.5 -28zM469 -198q29 0 51.5 -22t22.5 -52t-22.5 -51.5t-51.5 -21.5
q-30 0 -51.5 22.5t-21.5 50.5q0 29 21.5 51.5t51.5 22.5z" />
    <glyph glyph-name="uni1EE4" unicode="&#x1ee4;" horiz-adv-x="1218" 
d="M1011 1320h63v-827q0 -163 -66 -279t-175 -177t-239 -61t-240 61t-176 177t-66 279v827h62v-824q0 -137 57 -239.5t152.5 -159.5t210.5 -57t209.5 57t151 159.5t56.5 239.5v824zM593 -96q29 0 51.5 -22t22.5 -52t-22.5 -51.5t-51.5 -21.5q-30 0 -51.5 22.5t-21.5 50.5
q0 29 21.5 51.5t51.5 22.5z" />
    <glyph glyph-name="uni1EE5" unicode="&#x1ee5;" horiz-adv-x="962" 
d="M181 379q0 -156 70.5 -247.5t209.5 -91.5t209.5 91.5t70.5 247.5v442h64v-459q0 -110 -40 -197.5t-116.5 -138t-187.5 -50.5q-110 0 -187 50.5t-117 138t-40 197.5v459h64v-442zM461 -96q29 0 51.5 -22t22.5 -52t-22.5 -51.5t-51.5 -21.5q-30 0 -51.5 22.5t-21.5 50.5
q0 29 21.5 51.5t51.5 22.5z" />
    <glyph glyph-name="uni1EE6" unicode="&#x1ee6;" horiz-adv-x="1218" 
d="M1011 1320h63v-827q0 -163 -66 -279t-175 -177t-239 -61t-240 61t-176 177t-66 279v827h62v-824q0 -137 57 -239.5t152.5 -159.5t210.5 -57t209.5 57t151 159.5t56.5 239.5v824zM541 1454l38 -52q33 14 69.5 32.5t69.5 44t53.5 60.5t20.5 83q0 65 -28 101.5t-73 51.5
t-96 15q-80 0 -131 -18t-69 -30v-64q30 15 84 32t97 17q31 0 65.5 -6t59 -29.5t24.5 -77.5q0 -48 -34.5 -81.5t-78 -52.5t-71.5 -26z" />
    <glyph glyph-name="uni1EE7" unicode="&#x1ee7;" horiz-adv-x="962" 
d="M181 379q0 -156 70.5 -247.5t209.5 -91.5t209.5 91.5t70.5 247.5v442h64v-459q0 -110 -40 -197.5t-116.5 -138t-187.5 -50.5q-110 0 -187 50.5t-117 138t-40 197.5v459h64v-442zM408 930l38 -52q33 14 69.5 34t69.5 49.5t53.5 70.5t20.5 96q0 70 -28 108.5t-73 54
t-96 15.5q-80 0 -131 -18t-69 -30v-64q30 15 84 32t97 17q31 0 65.5 -6.5t59 -32t24.5 -84.5q0 -58 -34.5 -98t-78 -62.5t-71.5 -29.5z" />
    <glyph glyph-name="uni1EE8" unicode="&#x1ee8;" horiz-adv-x="1355" 
d="M1011 1320h63v-827q0 -163 -66 -279t-175 -177t-239 -61t-240 61t-176 177t-66 279v827h62v-824q0 -137 57 -239.5t152.5 -159.5t210.5 -57t209.5 57t151 159.5t56.5 239.5v824zM1181 1232q-29 0 -56.5 9.5t-50.5 22.5v56q15 -13 42 -23.5t57 -10.5q65 0 97 43t32 95
q0 44 -6 66.5t-18 50.5h63q8 -14 16.5 -42t8.5 -80q0 -45 -24.5 -88t-66 -71t-94.5 -28zM475 1501l-38 49l286 226l61 -75z" />
    <glyph glyph-name="uni1EE9" unicode="&#x1ee9;" horiz-adv-x="1086" 
d="M181 379q0 -156 70.5 -247.5t209.5 -91.5t209.5 91.5t70.5 247.5v442h64v-459q0 -110 -40 -197.5t-116.5 -138t-187.5 -50.5q-110 0 -187 50.5t-117 138t-40 197.5v459h64v-442zM912 733q-29 0 -56.5 9.5t-50.5 22.5v56q15 -13 42 -23.5t57 -10.5q65 0 97 43t32 95
q0 44 -6 66.5t-18 50.5h63q8 -14 16.5 -42t8.5 -80q0 -45 -24.5 -88t-66 -71t-94.5 -28zM342 1002l-38 49l286 226l61 -75z" />
    <glyph glyph-name="uni1EEA" unicode="&#x1eea;" horiz-adv-x="1355" 
d="M1011 1320h63v-827q0 -163 -66 -279t-175 -177t-239 -61t-240 61t-176 177t-66 279v827h62v-824q0 -137 57 -239.5t152.5 -159.5t210.5 -57t209.5 57t151 159.5t56.5 239.5v824zM1181 1232q-29 0 -56.5 9.5t-50.5 22.5v56q15 -13 42 -23.5t57 -10.5q65 0 97 43t32 95
q0 44 -6 66.5t-18 50.5h63q8 -14 16.5 -42t8.5 -80q0 -45 -24.5 -88t-66 -71t-94.5 -28zM746 1501l-308 200l59 75l288 -226z" />
    <glyph glyph-name="uni1EEB" unicode="&#x1eeb;" horiz-adv-x="1086" 
d="M181 379q0 -156 70.5 -247.5t209.5 -91.5t209.5 91.5t70.5 247.5v442h64v-459q0 -110 -40 -197.5t-116.5 -138t-187.5 -50.5q-110 0 -187 50.5t-117 138t-40 197.5v459h64v-442zM912 733q-29 0 -56.5 9.5t-50.5 22.5v56q15 -13 42 -23.5t57 -10.5q65 0 97 43t32 95
q0 44 -6 66.5t-18 50.5h63q8 -14 16.5 -42t8.5 -80q0 -45 -24.5 -88t-66 -71t-94.5 -28zM613 1002l-308 200l59 75l288 -226z" />
    <glyph glyph-name="uni1EEC" unicode="&#x1eec;" horiz-adv-x="1355" 
d="M1011 1320h63v-827q0 -163 -66 -279t-175 -177t-239 -61t-240 61t-176 177t-66 279v827h62v-824q0 -137 57 -239.5t152.5 -159.5t210.5 -57t209.5 57t151 159.5t56.5 239.5v824zM1181 1232q-29 0 -56.5 9.5t-50.5 22.5v56q15 -13 42 -23.5t57 -10.5q65 0 97 43t32 95
q0 44 -6 66.5t-18 50.5h63q8 -14 16.5 -42t8.5 -80q0 -45 -24.5 -88t-66 -71t-94.5 -28zM541 1429l38 -52q33 14 69.5 34t69.5 49.5t53.5 70.5t20.5 96q0 70 -28 108.5t-73 54t-96 15.5q-80 0 -131 -18t-69 -30v-64q30 15 84 32t97 17q31 0 65.5 -6.5t59 -32t24.5 -84.5
q0 -58 -34.5 -98t-78 -62.5t-71.5 -29.5z" />
    <glyph glyph-name="uni1EED" unicode="&#x1eed;" horiz-adv-x="1086" 
d="M181 379q0 -156 70.5 -247.5t209.5 -91.5t209.5 91.5t70.5 247.5v442h64v-459q0 -110 -40 -197.5t-116.5 -138t-187.5 -50.5q-110 0 -187 50.5t-117 138t-40 197.5v459h64v-442zM912 733q-29 0 -56.5 9.5t-50.5 22.5v56q15 -13 42 -23.5t57 -10.5q65 0 97 43t32 95
q0 44 -6 66.5t-18 50.5h63q8 -14 16.5 -42t8.5 -80q0 -45 -24.5 -88t-66 -71t-94.5 -28zM408 930l38 -52q33 14 69.5 34t69.5 49.5t53.5 70.5t20.5 96q0 70 -28 108.5t-73 54t-96 15.5q-80 0 -131 -18t-69 -30v-64q30 15 84 32t97 17q31 0 65.5 -6.5t59 -32t24.5 -84.5
q0 -58 -34.5 -98t-78 -62.5t-71.5 -29.5z" />
    <glyph glyph-name="uni1EEE" unicode="&#x1eee;" horiz-adv-x="1355" 
d="M1011 1320h63v-827q0 -163 -66 -279t-175 -177t-239 -61t-240 61t-176 177t-66 279v827h62v-824q0 -137 57 -239.5t152.5 -159.5t210.5 -57t209.5 57t151 159.5t56.5 239.5v824zM1181 1232q-29 0 -56.5 9.5t-50.5 22.5v56q15 -13 42 -23.5t57 -10.5q65 0 97 43t32 95
q0 44 -6 66.5t-18 50.5h63q8 -14 16.5 -42t8.5 -80q0 -45 -24.5 -88t-66 -71t-94.5 -28zM504 1621q-38 0 -63.5 -26t-34.5 -51h-96q10 34 32.5 69.5t56.5 60.5t78 25q60 0 97 -19.5t69.5 -39t78.5 -19.5q41 0 63.5 26.5t28.5 51.5h96q-11 -33 -34.5 -69t-58.5 -61t-79 -25
q-60 0 -98.5 19.5t-69 38.5t-66.5 19z" />
    <glyph glyph-name="uni1EEF" unicode="&#x1eef;" horiz-adv-x="1086" 
d="M181 379q0 -156 70.5 -247.5t209.5 -91.5t209.5 91.5t70.5 247.5v442h64v-459q0 -110 -40 -197.5t-116.5 -138t-187.5 -50.5q-110 0 -187 50.5t-117 138t-40 197.5v459h64v-442zM912 733q-29 0 -56.5 9.5t-50.5 22.5v56q15 -13 42 -23.5t57 -10.5q65 0 97 43t32 95
q0 44 -6 66.5t-18 50.5h63q8 -14 16.5 -42t8.5 -80q0 -45 -24.5 -88t-66 -71t-94.5 -28zM371 1122q-38 0 -63.5 -26t-34.5 -51h-96q10 34 32.5 69.5t56.5 60.5t78 25q60 0 97 -19.5t69.5 -39t78.5 -19.5q41 0 63.5 26.5t28.5 51.5h96q-11 -33 -34.5 -69t-58.5 -61t-79 -25
q-60 0 -98.5 19.5t-69 38.5t-66.5 19z" />
    <glyph glyph-name="uni1EF0" unicode="&#x1ef0;" horiz-adv-x="1355" 
d="M1011 1320h63v-827q0 -163 -66 -279t-175 -177t-239 -61t-240 61t-176 177t-66 279v827h62v-824q0 -137 57 -239.5t152.5 -159.5t210.5 -57t209.5 57t151 159.5t56.5 239.5v824zM1181 1232q-29 0 -56.5 9.5t-50.5 22.5v56q15 -13 42 -23.5t57 -10.5q65 0 97 43t32 95
q0 44 -6 66.5t-18 50.5h63q8 -14 16.5 -42t8.5 -80q0 -45 -24.5 -88t-66 -71t-94.5 -28zM594 -96q29 0 51.5 -22t22.5 -52t-22.5 -51.5t-51.5 -21.5q-30 0 -51.5 22.5t-21.5 50.5q0 29 21.5 51.5t51.5 22.5z" />
    <glyph glyph-name="uni1EF1" unicode="&#x1ef1;" horiz-adv-x="1086" 
d="M181 379q0 -156 70.5 -247.5t209.5 -91.5t209.5 91.5t70.5 247.5v442h64v-459q0 -110 -40 -197.5t-116.5 -138t-187.5 -50.5q-110 0 -187 50.5t-117 138t-40 197.5v459h64v-442zM912 733q-29 0 -56.5 9.5t-50.5 22.5v56q15 -13 42 -23.5t57 -10.5q65 0 97 43t32 95
q0 44 -6 66.5t-18 50.5h63q8 -14 16.5 -42t8.5 -80q0 -45 -24.5 -88t-66 -71t-94.5 -28zM461 -96q29 0 51.5 -22t22.5 -52t-22.5 -51.5t-51.5 -21.5q-30 0 -51.5 22.5t-21.5 50.5q0 29 21.5 51.5t51.5 22.5z" />
    <glyph glyph-name="Ygrave" unicode="&#x1ef2;" horiz-adv-x="1026" 
d="M461 475l-434 845h74l392 -766l390 766h74l-432 -845v-475h-64v475zM549 1376l-308 200l59 75l288 -226z" />
    <glyph glyph-name="ygrave" unicode="&#x1ef3;" horiz-adv-x="835" 
d="M402 70l323 751h70l-545 -1237h-69l184 416l-335 821h71zM550 1002l-308 200l59 75l288 -226z" />
    <glyph glyph-name="uni1EF4" unicode="&#x1ef4;" horiz-adv-x="1026" 
d="M461 475l-434 845h74l392 -766l390 766h74l-432 -845v-475h-64v475zM492 -96q29 0 51.5 -22t22.5 -52t-22.5 -51.5t-51.5 -21.5q-30 0 -51.5 22.5t-21.5 50.5q0 29 21.5 51.5t51.5 22.5z" />
    <glyph glyph-name="uni1EF5" unicode="&#x1ef5;" horiz-adv-x="835" 
d="M402 70l323 751h70l-545 -1237h-69l184 416l-335 821h71zM398 -96q29 0 51.5 -22t22.5 -52t-22.5 -51.5t-51.5 -21.5q-30 0 -51.5 22.5t-21.5 50.5q0 29 21.5 51.5t51.5 22.5z" />
    <glyph glyph-name="uni1EF6" unicode="&#x1ef6;" horiz-adv-x="1026" 
d="M461 475l-434 845h74l392 -766l390 766h74l-432 -845v-475h-64v475zM440 1454l38 -52q33 14 69.5 32.5t69.5 44t53.5 60.5t20.5 83q0 65 -28 101.5t-73 51.5t-96 15q-80 0 -131 -18t-69 -30v-64q30 15 84 32t97 17q31 0 65.5 -6t59 -29.5t24.5 -77.5q0 -48 -34.5 -81.5
t-78 -52.5t-71.5 -26z" />
    <glyph glyph-name="uni1EF7" unicode="&#x1ef7;" horiz-adv-x="835" 
d="M402 70l323 751h70l-545 -1237h-69l184 416l-335 821h71zM345 930l38 -52q33 14 69.5 34t69.5 49.5t53.5 70.5t20.5 96q0 70 -28 108.5t-73 54t-96 15.5q-80 0 -131 -18t-69 -30v-64q30 15 84 32t97 17q31 0 65.5 -6.5t59 -32t24.5 -84.5q0 -58 -34.5 -98t-78 -62.5
t-71.5 -29.5z" />
    <glyph glyph-name="uni1EF8" unicode="&#x1ef8;" horiz-adv-x="1026" 
d="M461 475l-434 845h74l392 -766l390 766h74l-432 -845v-475h-64v475zM387 1492q-38 0 -63.5 -26t-34.5 -51h-96q10 34 32.5 69.5t56.5 60.5t78 25q60 0 97 -19.5t69.5 -39t78.5 -19.5q41 0 63.5 26.5t28.5 51.5h96q-11 -33 -34.5 -69t-58.5 -61t-79 -25q-60 0 -98.5 19.5
t-69 38.5t-66.5 19z" />
    <glyph glyph-name="uni1EF9" unicode="&#x1ef9;" horiz-adv-x="835" 
d="M402 70l323 751h70l-545 -1237h-69l184 416l-335 821h71zM308 1122q-38 0 -63.5 -26t-34.5 -51h-96q10 34 32.5 69.5t56.5 60.5t78 25q60 0 97 -19.5t69.5 -39t78.5 -19.5q41 0 63.5 26.5t28.5 51.5h96q-11 -33 -34.5 -69t-58.5 -61t-79 -25q-60 0 -98.5 19.5t-69 38.5
t-66.5 19z" />
    <glyph glyph-name="endash" unicode="&#x2013;" horiz-adv-x="856" 
d="M26 426v60h764v-60h-764z" />
    <glyph glyph-name="emdash" unicode="&#x2014;" horiz-adv-x="1576" 
d="M43 426v60h1448v-60h-1448z" />
    <glyph glyph-name="quoteleft" unicode="&#x2018;" horiz-adv-x="424" 
d="M210 923q-54 0 -90.5 37.5t-36.5 103.5q0 67 25.5 117t61.5 84t67 52l37 -58q-26 -9 -51 -35t-41.5 -57t-18.5 -58q8 12 29 22t46 10q41 0 69.5 -27.5t28.5 -68.5q0 -55 -35.5 -88.5t-90.5 -33.5z" />
    <glyph glyph-name="quoteright" unicode="&#x2019;" horiz-adv-x="424" 
d="M177 1279q54 0 90.5 -37.5t36.5 -103.5q0 -67 -25.5 -117t-61.5 -84t-67 -52l-37 58q26 9 51 35t41.5 57t18.5 58q-8 -12 -29 -22t-46 -10q-41 0 -69.5 27.5t-28.5 68.5q0 55 35.5 88.5t90.5 33.5z" />
    <glyph glyph-name="quotesinglbase" unicode="&#x201a;" horiz-adv-x="459" 
d="M229 176q49 0 83.5 -35t34.5 -85q0 -61 -23.5 -112.5t-62 -90.5t-83.5 -63l-53 47q27 12 57.5 33.5t54.5 49.5t30 61q-23 -11 -48 -11q-43 0 -71 31.5t-28 65.5q0 33 14 57.5t38.5 38t56.5 13.5z" />
    <glyph glyph-name="quotedblleft" unicode="&#x201c;" horiz-adv-x="816" 
d="M607 923q-54 0 -90.5 37.5t-36.5 103.5q0 67 25.5 117t61.5 84t67 52l37 -58q-26 -9 -51 -35t-41.5 -57t-18.5 -58q8 12 29 22t46 10q41 0 69.5 -27.5t28.5 -68.5q0 -55 -35.5 -88.5t-90.5 -33.5zM258 923q-54 0 -90.5 37.5t-36.5 103.5q0 67 25.5 117t61.5 84t67 52
l37 -58q-26 -9 -51 -35t-41.5 -57t-18.5 -58q8 12 29 22t46 10q41 0 69.5 -27.5t28.5 -68.5q0 -55 -35.5 -88.5t-90.5 -33.5z" />
    <glyph glyph-name="quotedblright" unicode="&#x201d;" horiz-adv-x="816" 
d="M209 1269q54 0 90.5 -37.5t36.5 -103.5q0 -67 -25.5 -117t-61.5 -84t-67 -52l-37 58q26 9 51 35t41.5 57t18.5 58q-8 -12 -29 -22t-46 -10q-41 0 -69.5 27.5t-28.5 68.5q0 55 35.5 88.5t90.5 33.5zM558 1269q54 0 90.5 -37.5t36.5 -103.5q0 -67 -25.5 -117t-61.5 -84
t-67 -52l-37 58q26 9 51 35t41.5 57t18.5 58q-8 -12 -29 -22t-46 -10q-41 0 -69.5 27.5t-28.5 68.5q0 55 35.5 88.5t90.5 33.5z" />
    <glyph glyph-name="quotedblbase" unicode="&#x201e;" horiz-adv-x="771" 
d="M573 176q49 0 83.5 -35t34.5 -85q0 -61 -23.5 -112.5t-62 -90.5t-83.5 -63l-53 47q27 12 57.5 33.5t54.5 49.5t30 61q-23 -11 -48 -11q-43 0 -71 31.5t-28 65.5q0 33 14 57.5t38.5 38t56.5 13.5zM229 176q49 0 83.5 -35t34.5 -85q0 -61 -23.5 -112.5t-62 -90.5t-83.5 -63
l-53 47q27 12 57.5 33.5t54.5 49.5t30 61q-23 -11 -48 -11q-43 0 -71 31.5t-28 65.5q0 33 14 57.5t38.5 38t56.5 13.5z" />
    <glyph glyph-name="dagger" unicode="&#x2020;" horiz-adv-x="819" 
d="M427 -242h-61v1650h61v-1650zM115.475 888v60h572.254v-60h-572.254z" />
    </font>
</defs>
</svg>
