<svg width="1440" height="964" viewBox="0 0 1440 964" fill="none" xmlns="http://www.w3.org/2000/svg">
<path d="M491.967 22.0596L559.741 89.8336C546.452 103.123 524.658 103.123 511.369 89.8336L491.967 70.4316C478.678 57.1426 478.678 35.3486 491.967 22.0596Z" fill="#B62220"/>
<path d="M491.967 22.0594L513.229 0.796875C524.392 11.9597 524.392 30.0328 513.229 41.1956L512.166 42.2587L491.967 22.0594Z" fill="#B62220"/>
<path d="M511.369 15.1495L526.518 0C532.897 6.37873 532.897 16.7442 526.518 23.1229L523.063 26.5781L511.369 15.1495Z" fill="#B62220"/>
<path d="M506.319 36.4117L540.605 2.12598C551.502 13.023 551.502 30.5645 540.605 41.4615L525.987 56.0794L506.319 36.4117Z" fill="#B62220"/>
<path d="M518.545 48.6375L551.502 15.6807C562.399 26.5777 562.399 44.1192 551.502 55.0162L538.213 68.3053L518.545 48.6375Z" fill="#B62220"/>
<path d="M559.741 89.8338L581.003 68.5713C569.841 57.4085 551.768 57.4085 540.605 68.5713L539.542 69.6344L559.741 89.8338Z" fill="#B62220"/>
<path d="M566.651 70.4316L581.801 55.2821C575.422 48.9034 565.057 48.9034 558.678 55.2821L554.957 59.003L566.651 70.4316Z" fill="#B62220"/>
<path d="M545.389 75.4819L579.675 41.1962C568.777 30.2992 551.236 30.2992 540.339 41.1962L525.721 55.8141L545.389 75.4819Z" fill="#B62220"/>
<path d="M533.429 63.5211L566.386 30.5644C555.489 19.6673 537.947 19.6673 527.05 30.5644L513.761 43.8534L533.429 63.5211Z" fill="#B62220"/>
<path d="M559.741 89.8336L491.967 22.0596C478.678 35.3486 478.678 57.1426 491.967 70.4316L511.369 89.8336C524.658 103.388 546.452 103.388 559.741 89.8336Z" fill="#B62220"/>
<path d="M500.528 85.2491C500.528 85.2491 510.096 69.8339 497.87 60C497.87 60 489.897 71.1628 500.528 85.2491Z" fill="#031941"/>
<path d="M500 83.5623C500 83.5623 515.415 73.9942 525.249 86.2201C524.983 86.2201 513.821 94.1934 500 83.5623Z" fill="#031941"/>
<path d="M501.989 82.769C501.989 82.769 513.081 75.2745 507.985 65.3818C507.985 65.3818 499.291 70.1783 501.989 82.769Z" fill="#031941"/>
<path d="M501.989 82.7691C501.989 82.7691 508.284 71.0777 519.076 75.2746C518.777 75.2746 514.58 84.5678 501.989 82.7691Z" fill="#031941"/>
<path d="M503.405 79C503.405 79 459.73 130.286 459.73 157.15C459.73 184.014 533.735 227.973 532.522 268.269C531.309 308.566 494.913 331.766 479.141 340.314C479.141 340.314 538.588 381.831 474.288 434.338C409.989 486.845 509.471 543.015 488.847 630.934C468.222 718.853 386.938 724.958 303.227 722.516C261.85 721.309 241.749 756.15 232.001 791.697C177.214 991.474 -34 962.541 -34 962.541H1529C1529 962.541 965.32 943.384 858.285 894.608C751.251 845.832 796.766 778.253 668.886 760.37C598.156 750.479 493.335 764.033 497.339 635.818C498.552 596.744 532.522 561.332 528.882 530.805C525.243 500.277 498.431 471.948 492.365 453.754C486.42 435.559 497.218 409.794 513.111 406.253C524.029 403.811 534.948 411.137 534.948 411.137C534.948 411.137 504.497 385.494 504.012 352.525C503.405 319.555 547.566 309.665 543.441 260.943C542.227 246.29 461.428 175.344 464.583 149.823C468.222 120.517 504.618 81.4422 504.618 81.4422L503.405 79Z" fill="#031941"/>
</svg>
