<svg  viewBox="0 0 59 176" fill="none" xmlns="http://www.w3.org/2000/svg">
    <path d="M6 31.8672C6 18.8885 16.5213 8.36719 29.5 8.36719V8.36719C42.4787 8.36719 53 18.8885 53 31.8672V175.367H6V31.8672Z" fill="#C8DEFB"/>
    <path fill-rule="evenodd" clip-rule="evenodd" d="M34.6573 5.15734C34.6573 2.30902 32.3483 0 29.5 0C26.6517 0 24.3426 2.30902 24.3426 5.15734V7.12875C13.3815 9.45368 5.15732 19.1867 5.15732 30.8406V90.5633H3.09441C1.38541 90.5633 0 91.9487 0 93.6577C0 95.3667 1.38541 96.7521 3.09441 96.7521H55.9056C57.6146 96.7521 59 95.3667 59 93.6577C59 91.9487 57.6146 90.5633 55.9056 90.5633H53.6363V30.8406C53.6363 19.2599 45.5152 9.57607 34.6573 7.17346V5.15734Z" fill="#B62220"/>
</svg>
