<svg viewBox="0 0 64 151" fill="none" xmlns="http://www.w3.org/2000/svg">
<path d="M33.1147 150.545L33.1147 33.6" stroke="#5C90B6" stroke-width="3" stroke-miterlimit="10"/>
<path d="M20.2837 30.4187C20.2837 30.4187 3.99456 28.541 0.862562 24.7855C-2.26944 21.03 3.99456 16.0487 5.87376 14.171C7.75296 12.2932 10.8688 3.94537 14.6461 7.29578C20.2917 12.2959 27.1741 14.171 25.9213 24.7989C24.6685 35.4269 20.2837 30.4187 20.2837 30.4187Z" fill="#B62220"/>
<path d="M26.5584 40.4198C26.5584 40.4198 17.0414 52.3139 12.1485 52.2978C7.2556 52.2817 6.11571 47.4399 5.88451 44.7869C5.6533 42.1339 1.06687 37.8903 1.98631 33.6734C3.37891 27.2837 20.4584 23.8689 27.8112 31.6589C35.164 39.4488 26.5584 40.4198 26.5584 40.4198Z" fill="#B62220"/>
<path d="M35.2232 42.4129C35.2232 42.4129 40.35 57.5984 44.716 59.8007C49.082 62.003 53.2087 56.233 54.6174 53.9851C56.0262 51.7372 61.4756 49.3873 59.1259 44.7976C56.7762 40.2079 49.5444 32.0559 39.4494 35.6772C29.3544 39.2985 35.2232 42.4129 35.2232 42.4129Z" fill="#B62220"/>
<path d="M24.8513 39.2392C24.8513 39.2392 14.5493 51.8469 15.665 56.5975C16.7807 61.3482 24.0932 61.8525 26.7278 61.4823C29.3625 61.1121 35.4598 65.887 38.4547 62.7753C45.7134 55.2375 42.0087 43.5285 32.7472 38.1314C23.4856 32.7342 24.8513 39.2392 24.8513 39.2392Z" fill="#B62220"/>
<path d="M37.1992 19.1671C37.1992 19.1671 42.4927 3.53636 47.2216 2.28901C51.9505 1.04166 55.9052 6.81165 56.8138 9.30635C57.7225 11.801 61.6315 9.79187 59.7523 16.042C58.2817 20.9805 47.5281 28.6362 38.452 26.045C28.1419 23.0943 37.1992 19.1671 37.1992 19.1671Z" fill="#B62220"/>
<path d="M23.4157 22.1628C23.4157 22.1628 15.9634 7.69621 18.0388 3.27817C20.1143 -1.13988 27.3784 -0.112488 29.8679 0.794189C32.3573 1.70087 39.3284 -1.70052 41.6108 1.96375C47.1328 10.8401 41.0732 21.5271 30.8921 24.8828C20.7111 28.2386 23.4157 22.1628 23.4157 22.1628Z" fill="#B62220"/>
<path d="M44.5439 37.3835C44.5439 37.3835 55.0099 42.2442 59.7522 41.0451C64.4946 39.846 63.9273 36.1657 63.516 33.5342C63.1047 30.9027 65.5323 22.3643 62.2632 20.4061C59.1312 18.5284 50.3616 21.0311 42.2157 26.0393C33.0778 31.6511 44.5439 37.3835 44.5439 37.3835Z" fill="#B62220"/>
<path d="M26.5854 41.3403L26.5128 32.692C26.511 32.5297 26.4625 32.3714 26.373 32.236L21.636 24.9933C21.5525 24.8655 21.5051 24.7176 21.4986 24.5652C21.4922 24.4128 21.5269 24.2614 21.5992 24.127C21.6715 23.9926 21.7787 23.8801 21.9096 23.8013C22.0404 23.7224 22.1902 23.6801 22.343 23.6789L31.0105 23.6064C31.1729 23.6035 31.3312 23.5552 31.4675 23.467L38.7262 18.7404C38.8541 18.6573 39.0021 18.61 39.1546 18.6034C39.3071 18.5968 39.4586 18.6312 39.5932 18.7031C39.7278 18.7749 39.8407 18.8815 39.9199 19.0117C39.9991 19.1419 40.0418 19.2909 40.0435 19.4433L40.1161 28.0916C40.1187 28.2545 40.1672 28.4134 40.2559 28.5502L44.9929 35.7929C45.0762 35.9206 45.1237 36.0682 45.1303 36.2204C45.1368 36.3725 45.1023 36.5237 45.0304 36.658C44.9584 36.7923 44.8516 36.9049 44.7211 36.9839C44.5906 37.063 44.4412 37.1056 44.2886 37.1073L35.6211 37.1798C35.4578 37.1823 35.2985 37.2307 35.1614 37.3193L27.9027 42.0458C27.7746 42.129 27.6264 42.1764 27.4736 42.1828C27.3209 42.1893 27.1692 42.1546 27.0345 42.0825C26.8998 42.0104 26.787 41.9034 26.708 41.7728C26.629 41.6422 26.5866 41.4928 26.5854 41.3403Z" fill="#5C90B6"/>
<path d="M30.1072 18.0667L36.2905 24.1291C36.4057 24.2443 36.5526 24.3228 36.7126 24.3545L45.1945 26.1329C45.344 26.1644 45.4822 26.2354 45.5948 26.3384C45.7073 26.4414 45.79 26.5728 45.8343 26.7187C45.8785 26.8645 45.8827 27.0196 45.8463 27.1676C45.8099 27.3156 45.7343 27.4511 45.6274 27.56L39.5489 33.7297C39.4364 33.8468 39.3582 33.9925 39.3231 34.1509L37.5406 42.606C37.5095 42.7554 37.4386 42.8937 37.3352 43.0062C37.2319 43.1188 37.1 43.2014 36.9535 43.2453C36.8071 43.2893 36.6514 43.293 36.503 43.256C36.3546 43.219 36.219 43.1427 36.1104 43.0352L29.9271 36.9728C29.8108 36.859 29.6644 36.7808 29.505 36.7475L21.023 34.969C20.8736 34.9376 20.7354 34.8666 20.6228 34.7635C20.5103 34.6605 20.4275 34.5292 20.3833 34.3833C20.3391 34.2374 20.3349 34.0824 20.3713 33.9344C20.4077 33.7863 20.4833 33.6508 20.5902 33.5419L26.666 27.3722C26.7808 27.2564 26.8601 27.1103 26.8945 26.9511L28.6743 18.4879C28.707 18.3391 28.7791 18.2018 28.8832 18.0904C28.9873 17.979 29.1194 17.8975 29.2659 17.8544C29.4123 17.8114 29.5676 17.8084 29.7156 17.8457C29.8636 17.8831 29.9989 17.9594 30.1072 18.0667Z" fill="#5C90B6"/>
<path d="M41.7722 30.393C41.7722 25.7322 37.9855 21.9539 33.3144 21.9539C28.6434 21.9539 24.8567 25.7322 24.8567 30.393C24.8567 35.0537 28.6434 38.832 33.3144 38.832C37.9855 38.832 41.7722 35.0537 41.7722 30.393Z" fill="#C8DEFB"/>
<path d="M11.1323 87.8894C13.6789 90.4324 16.7463 92.3962 20.1244 93.6463C23.5024 94.8963 27.1113 95.4032 30.704 95.1321C30.958 95.1113 31.1963 95.0012 31.3766 94.8214C31.5568 94.6416 31.6671 94.4038 31.6879 94.1503C31.9559 90.5653 31.4455 86.9648 30.1915 83.5947C28.9374 80.2245 26.9694 77.164 24.4216 74.6221C21.8738 72.0803 18.8064 70.1169 15.4286 68.8659C12.0509 67.615 8.44239 67.1061 4.84949 67.3739C4.59548 67.3946 4.35712 67.5047 4.17691 67.6845C3.9967 67.8644 3.88635 68.1022 3.86553 68.3556C3.59408 71.9418 4.10293 75.5441 5.35721 78.9157C6.61148 82.2873 8.58152 85.3485 11.1323 87.8894Z" fill="#5C90B6"/>
<path d="M53.3887 87.8894C50.8421 90.4324 47.7747 92.3962 44.3967 93.6463C41.0186 94.8963 37.4097 95.4032 33.8171 95.1321C33.5631 95.1113 33.3247 95.0012 33.1445 94.8214C32.9643 94.6416 32.854 94.4038 32.8331 94.1503C32.5651 90.5653 33.0756 86.9648 34.3296 83.5947C35.5836 80.2245 37.5517 77.164 40.0995 74.6221C42.6472 72.0803 45.7147 70.1169 49.0924 68.8659C52.4702 67.615 56.0787 67.1061 59.6716 67.3739C59.9256 67.3946 60.1639 67.5047 60.3442 67.6845C60.5244 67.8644 60.6347 68.1022 60.6555 68.3556C60.927 71.9418 60.4181 75.5441 59.1639 78.9157C57.9096 82.2873 55.9395 85.3485 53.3887 87.8894Z" fill="#5C90B6"/>
<path d="M48.5173 119.823C46.4302 121.701 43.9607 123.107 41.2782 123.944C38.5956 124.781 35.7634 125.03 32.9756 124.673C32.7783 124.647 32.5966 124.552 32.4635 124.404C32.3303 124.257 32.2545 124.067 32.2498 123.868C32.1873 121.065 32.7319 118.281 33.8463 115.707C34.9608 113.133 36.6188 110.829 38.7073 108.952C40.7957 107.076 43.2653 105.672 45.9476 104.835C48.6298 103.998 51.4614 103.749 54.249 104.104C54.4464 104.13 54.6281 104.225 54.7616 104.372C54.8951 104.52 54.9717 104.71 54.9776 104.908C55.0415 107.712 54.4973 110.496 53.3823 113.071C52.2672 115.645 50.6077 117.948 48.5173 119.823Z" fill="#5C90B6"/>
<path d="M16.8891 119.731C18.9763 121.609 21.4457 123.015 24.1283 123.852C26.8108 124.689 29.643 124.938 32.4308 124.581C32.6282 124.555 32.8099 124.46 32.943 124.313C33.0761 124.165 33.1519 123.975 33.1567 123.776C33.2192 120.973 32.6746 118.189 31.5601 115.615C30.4457 113.041 28.7877 110.737 26.6992 108.861C24.6108 106.984 22.1411 105.58 19.4589 104.743C16.7767 103.906 13.9451 103.657 11.1574 104.012C10.96 104.038 10.7783 104.133 10.6449 104.28C10.5114 104.428 10.4348 104.618 10.4289 104.816C10.365 107.62 10.9092 110.404 12.0242 112.979C13.1392 115.553 14.7988 117.856 16.8891 119.731Z" fill="#5C90B6"/>
</svg>
