<svg viewBox="0 0 157 186" fill="none" xmlns="http://www.w3.org/2000/svg">
<g clip-path="url(#clip0)">
<path d="M80.8822 149.909C80.8822 149.909 80.8822 134.842 74.0337 127.536C67.1853 120.231 63.0762 122.057 59.4237 117.035C55.7713 112.013 51.6622 107.447 48.9228 102.881C47.1331 99.8998 43.9006 92.3799 43.9006 91.0102C43.9006 89.6405 43.9006 86.901 47.0966 85.5313C50.2925 84.1615 53.4884 85.0747 55.3147 88.2707C57.1409 91.4668 60.1086 99.8039 62.3914 100.772C64.6742 101.74 69.2398 103.566 73.8055 100.37C78.3711 97.174 78.3711 90.7819 77.0014 88.0424C75.6317 85.303 69.2398 72.0622 69.2398 72.0622L54.6298 77.0846C54.6298 77.0846 49.6077 78.9109 47.7814 73.432C45.9552 67.953 55.0864 65.2136 55.0864 65.2136L74.7186 58.3649C74.7186 58.3649 87.0458 81.6504 87.9589 83.4767C88.872 85.303 90.2417 86.2161 91.6114 85.303C92.9811 84.3898 94.8073 83.0201 92.0679 78.9109C89.3286 74.8017 67.4136 29.6006 67.4136 29.6006C67.4136 29.6006 65.5873 25.4914 71.0661 23.2085C76.5448 20.9256 77.9145 24.5782 78.3711 25.4914L99.3729 67.4965C99.8004 68.1576 100.44 68.6535 101.187 68.9024C101.934 69.1514 102.743 69.1386 103.482 68.8662C106.221 67.953 105.308 66.5833 104.395 64.757C103.482 62.9307 86.1326 26.4045 86.1326 26.4045C86.1326 26.4045 85.6761 22.7519 90.2417 21.3822C94.8073 20.0124 96.177 23.665 96.177 23.665L111.7 55.6255C111.7 55.6255 112.157 56.9952 114.439 56.082C116.722 55.1689 114.896 53.3426 114.896 53.3426L103.025 26.4045C103.025 26.4045 102.569 23.665 106.221 21.8387C109.874 20.0124 111.244 21.8387 112.157 23.2085C113.07 24.5782 136.811 71.1491 138.181 73.8885C139.55 76.628 153.704 104.936 155.987 127.308C158.269 149.68 155.987 185.513 155.987 185.513H77.4123C77.4123 185.513 81.567 162.017 80.8822 149.909Z" fill="black"/>
</g>
<path d="M7.61517 26.6048L39.8445 26.6048C39.8445 32.9243 34.6625 38.1062 28.343 38.1062L19.1166 38.1062C12.7971 38.1062 7.61516 32.9243 7.61517 26.6048Z" fill="#B62220"/>
<path d="M7.61521 26.6054L7.61523 16.4942C12.9236 16.4942 17.2208 20.7914 17.2208 26.0998L17.2208 26.6054L7.61521 26.6054Z" fill="#B62220"/>
<path d="M10.5854 20.3482L10.5854 13.144C13.6187 13.144 16.0833 15.6086 16.0833 18.6419L16.0833 20.285L10.5854 20.3482Z" fill="#B62220"/>
<path d="M14.4401 26.6043L14.4401 10.3C19.6221 10.3 23.793 14.4709 23.793 19.6528L23.793 26.6043L14.4401 26.6043Z" fill="#B62220"/>
<path d="M20.2541 26.6047L20.2542 10.9324C25.4361 10.9324 29.607 15.1032 29.607 20.2852L29.607 26.6047L20.2541 26.6047Z" fill="#B62220"/>
<path d="M39.8445 26.6038L39.8445 16.4926C34.5361 16.4926 30.2389 20.7899 30.2389 26.0982L30.2389 26.6038L39.8445 26.6038Z" fill="#B62220"/>
<path d="M36.8744 20.3477L36.8744 13.1435C33.8411 13.1435 31.3765 15.6081 31.3765 18.6415L31.3765 20.4109L36.8744 20.3477Z" fill="#B62220"/>
<path d="M33.0194 26.6035L33.0194 10.2993C27.8375 10.2993 23.6666 14.4701 23.6666 19.6521L23.6666 26.6035L33.0194 26.6035Z" fill="#B62220"/>
<path d="M27.3319 26.6049L27.332 10.9326C22.15 10.9326 17.9791 15.1035 17.9791 20.2854L17.9791 26.6049L27.3319 26.6049Z" fill="#B62220"/>
<path d="M39.8445 26.6048L7.61517 26.6048C7.61516 32.9243 12.7971 38.1062 19.1166 38.1062L28.343 38.1062C34.7257 38.1694 39.9077 32.9874 39.8445 26.6048Z" fill="#B62220"/>
<path d="M24.7722 39.6617C24.7722 39.6617 23.3819 33.7214 18.1367 34.2902C18.1367 34.2902 18.8951 38.8402 24.7722 39.6617Z" fill="black"/>
<path d="M24.5018 39.6615C24.5018 39.6615 25.8921 33.7212 31.1373 34.2899C31.0741 34.3531 30.3157 38.9031 24.5018 39.6615Z" fill="black"/>
<path d="M24.6698 39.4855C24.6698 39.4855 25.5214 35.0854 21.9729 33.9499C21.9729 33.9499 21.0503 37.1435 24.6698 39.4855Z" fill="black"/>
<path d="M24.6697 39.4856C24.6697 39.4856 23.3923 35.2274 26.9407 33.6661C26.8698 33.7371 28.0762 36.9307 24.6697 39.4856Z" fill="black"/>
<path fill-rule="evenodd" clip-rule="evenodd" d="M24.1422 56.045C23.6988 52.8325 21.9785 49.8042 19.1223 47.7833C16.2662 45.7625 12.8382 45.148 9.66134 45.7988C10.1048 49.0113 11.8251 52.0397 14.6813 54.0605C17.5373 56.0813 20.9654 56.6958 24.1422 56.045Z" fill="#5C90B6"/>
<path d="M24.6787 38.6924V73.788C24.5547 76.1442 25.2244 80.9311 28.8952 81.2287C32.5659 81.5264 51.5068 81.3527 60.5184 81.2287" stroke="black" stroke-width="2"/>
<path fill-rule="evenodd" clip-rule="evenodd" d="M24.142 72.6622C23.6986 69.4497 21.9783 66.4214 19.1221 64.4005C16.2661 62.3798 12.8381 61.7653 9.66129 62.416C10.1047 65.6285 11.825 68.6569 14.6812 70.6777C17.5373 72.6985 20.9653 73.313 24.142 72.6622Z" fill="#5C90B6"/>
<path fill-rule="evenodd" clip-rule="evenodd" d="M25.2869 64.2286C25.7303 61.0161 27.4507 57.9877 30.3069 55.9669C33.1629 53.9461 36.591 53.3316 39.7678 53.9824C39.3244 57.1949 37.604 60.2233 34.7478 62.2441C31.8918 64.2649 28.4637 64.8794 25.2869 64.2286Z" fill="#5C90B6"/>
<defs>
<clipPath id="clip0">
<rect width="113.1" height="164.441" fill="white" transform="translate(43.9006 21.082)"/>
</clipPath>
</defs>
</svg>
