<svg width="419" height="863" viewBox="0 0 419 863" fill="none" xmlns="http://www.w3.org/2000/svg">
<path d="M135.631 88.7305H306.753C306.753 123.734 278.378 152.109 243.375 152.109H199.009C164.006 152.109 135.631 123.734 135.631 88.7305Z" fill="#B62220"/>
<path d="M135.631 88.7305L135.631 38.0274C163.283 38.0274 185.7 60.4442 185.7 88.0967L185.7 88.7305L135.631 88.7305Z" fill="url(#paint0_linear)"/>
<path d="M148.306 88.7305L148.306 19.0138C169.308 19.0138 186.334 36.0392 186.334 57.0411L186.334 88.7305L148.306 88.7305Z" fill="url(#paint1_linear)"/>
<path d="M205.347 88.7305L205.347 6.33805C214.098 6.33805 221.192 13.432 221.192 22.1827L221.192 88.7305L205.347 88.7305Z" fill="url(#paint2_linear)"/>
<path d="M173.658 88.7305L173.658 0.000175476C199.91 0.000174324 221.192 21.2819 221.192 47.5343L221.192 88.7305L173.658 88.7305Z" fill="url(#paint3_linear)"/>
<path d="M306.753 88.7305L306.753 38.0274C279.101 38.0274 256.684 60.4442 256.684 88.0967L256.684 88.7305L306.753 88.7305Z" fill="url(#paint4_linear)"/>
<path d="M294.077 88.7305L294.077 19.0138C273.076 19.0138 256.05 36.0392 256.05 57.0411L256.05 88.7305L294.077 88.7305Z" fill="url(#paint5_linear)"/>
<path d="M237.037 88.7305L237.037 6.33805C228.286 6.33805 221.192 13.432 221.192 22.1827L221.192 88.7305L237.037 88.7305Z" fill="url(#paint6_linear)"/>
<path d="M268.726 88.7305L268.726 0.000175476C242.474 0.000174324 221.192 21.2819 221.192 47.5343L221.192 88.7305L268.726 88.7305Z" fill="url(#paint7_linear)"/>
<path fill-rule="evenodd" clip-rule="evenodd" d="M173.658 0V28.6965C166.93 22.6751 158.046 19.0136 148.306 19.0136L148.306 39.6457C144.258 38.5895 140.01 38.0273 135.631 38.0273L135.631 88.7303H148.306H173.658H185.7H186.334H205.347H221.192H221.192H237.037H256.05H256.684H268.726H294.077H306.753V38.0273C302.374 38.0273 298.126 38.5895 294.077 39.6457V19.0136C284.338 19.0136 275.454 22.6751 268.726 28.6966V0C256.552 0 245.446 4.57678 237.037 12.1036V6.33788C228.291 6.33788 221.2 13.4235 221.192 22.1673C221.184 13.4235 214.093 6.33788 205.347 6.33788V12.1036C196.938 4.57679 185.832 0 173.658 0Z" fill="url(#paint8_linear)"/>
<path fill-rule="evenodd" clip-rule="evenodd" d="M214 163.516V189.087C213.778 189.105 213.554 189.055 213.301 188.998C212.544 188.827 211.524 188.597 209.505 189.96C208.012 190.967 208.569 192.485 208.881 193.326C209.193 191.222 211.112 191.665 212 192.064C212.689 192.374 213.288 193.247 213.997 194.281L214 194.286V237.755C213.71 237.852 213.444 238.039 213.217 238.346C212.499 239.315 212.045 239.213 211.399 239.067C210.643 238.897 209.622 238.667 207.604 240.029C206.111 241.036 206.668 242.554 206.98 243.396C207.292 241.292 209.211 241.734 210.099 242.133C210.788 242.444 211.387 243.317 212.095 244.351C212.348 244.72 212.615 245.109 212.905 245.5C213.218 245.922 213.591 246.182 214 246.337V287.046C213.534 287.43 213.156 287.345 212.667 287.235C211.911 287.064 210.89 286.835 208.871 288.197C207.378 289.204 207.936 290.722 208.248 291.564C208.559 289.459 210.479 289.902 211.366 290.301C212.056 290.611 212.654 291.485 213.363 292.518C213.565 292.813 213.776 293.12 214 293.431V360.566C213.534 360.95 213.156 360.865 212.667 360.755C211.911 360.584 210.89 360.354 208.871 361.716C207.378 362.724 207.936 364.242 208.248 365.083C208.559 362.979 210.479 363.422 211.366 363.821C212.056 364.131 212.654 365.004 213.363 366.038C213.565 366.332 213.776 366.64 214 366.951V435.353C213.534 435.737 213.156 435.652 212.667 435.542C211.911 435.371 210.89 435.141 208.871 436.504C207.378 437.511 207.936 439.029 208.248 439.871C208.559 437.766 210.479 438.209 211.366 438.608C212.056 438.918 212.654 439.791 213.363 440.825C213.565 441.119 213.776 441.427 214 441.738V491.126C213.534 491.51 213.156 491.425 212.667 491.315C211.911 491.144 210.89 490.915 208.871 492.277C207.378 493.284 207.936 494.802 208.248 495.644C208.871 493.855 210.479 493.982 211.366 494.381C212.056 494.691 212.654 495.565 213.363 496.598L213.365 496.602C213.443 496.716 213.523 496.831 213.604 496.948C213.731 497.133 213.863 497.322 214 497.511V538.511L213.918 538.353L213.782 538.094C206.505 524.217 196.548 509.914 183.395 498.818C179.078 483.749 167.476 449.997 147.141 436.613C147.141 436.613 156.756 451.38 156.831 458.202C156.831 458.202 141.751 427.297 118.281 420.703C118.281 420.703 124.02 426.525 124.44 429.155C124.44 429.155 103.028 407.226 85.2987 409.358C85.2987 409.358 91.6903 412.245 93.0498 415.482C93.0498 415.482 86.0462 407.543 61.0642 409.952C61.0642 409.952 46.2346 410.025 39.9944 407.841C39.9944 407.841 42.97 413.119 49.2632 415.549C49.2632 415.549 33.3822 415.518 24.7393 413.779C16.0963 412.039 0 407.091 0 407.091C0 407.091 5.32152 414.216 11.4159 417.939C17.5102 421.662 21.3212 423.487 21.3212 423.487C21.3212 423.487 12.7238 421.959 12.117 420.509C12.117 420.509 13.7123 427.224 19.7344 431.294C25.7565 435.363 30.5082 438.824 30.7982 439.828C31.0806 440.796 23.6161 436.854 23.2097 435.14C23.2097 435.14 24.5896 449.035 36.9866 460.003C49.3836 470.97 62.3775 481.809 75.2157 485.622C75.2157 485.622 62.4655 487.158 56.8653 481.637C56.8653 481.637 68.4133 504.002 91.3143 511.197C114.215 518.391 129.131 515.138 129.131 515.138C129.131 515.138 118.741 519.952 116.144 517.792C116.144 517.792 126.111 529.761 152.926 519.492C163.384 515.47 170.619 512.575 175.555 510.54C186.301 519.948 194.848 532.133 201.384 544.596C206.53 554.409 210.314 564.177 212.893 572.488C212.856 572.481 212.819 572.473 212.781 572.465C212.744 572.457 212.706 572.448 212.667 572.44C211.911 572.269 210.89 572.039 208.871 573.401C207.378 574.409 207.936 575.927 208.248 576.768C208.559 574.664 210.479 575.106 211.366 575.506C212.056 575.816 212.654 576.689 213.363 577.723C213.565 578.017 213.776 578.325 214 578.636V605.208C213.534 605.592 213.156 605.507 212.667 605.397C211.911 605.226 210.89 604.996 208.871 606.358C207.378 607.366 207.936 608.884 208.248 609.725C208.559 607.621 210.479 608.064 211.366 608.463C212.056 608.773 212.654 609.646 213.363 610.68C213.565 610.974 213.776 611.282 214 611.593V664.279C213.858 664.38 213.724 664.51 213.602 664.675C212.884 665.644 212.431 665.542 211.785 665.396C211.028 665.226 210.008 664.996 207.989 666.358C206.496 667.366 207.053 668.883 207.365 669.725C207.677 667.621 209.596 668.063 210.484 668.463C211.173 668.773 211.772 669.646 212.48 670.679L212.481 670.68C212.734 671.049 213.001 671.438 213.29 671.83C213.502 672.115 213.741 672.326 214 672.481V714.279C213.858 714.38 213.724 714.51 213.602 714.675C212.884 715.644 212.431 715.542 211.785 715.396C211.028 715.226 210.008 714.996 207.989 716.358C206.496 717.366 207.053 718.884 207.365 719.725C207.677 717.621 209.596 718.063 210.484 718.463C211.173 718.773 211.772 719.646 212.48 720.68L212.481 720.681L212.486 720.688C212.738 721.055 213.003 721.441 213.29 721.83C213.502 722.115 213.741 722.326 214 722.481V778.279C213.858 778.38 213.724 778.51 213.602 778.675C212.884 779.644 212.431 779.542 211.785 779.396C211.028 779.226 210.008 778.996 207.989 780.358C206.496 781.366 207.053 782.883 207.365 783.725C207.677 781.621 209.596 782.063 210.484 782.463C211.173 782.773 211.772 783.646 212.48 784.68C212.733 785.049 213 785.438 213.29 785.83C213.502 786.115 213.741 786.326 214 786.481V871H231V833.675C231.418 833.521 231.799 833.259 232.118 832.83C232.408 832.438 232.675 832.049 232.928 831.68C233.636 830.646 234.235 829.773 234.924 829.463C235.812 829.063 237.731 828.621 238.043 830.725C238.355 829.883 238.912 828.366 237.419 827.358C235.401 825.996 234.38 826.226 233.624 826.396C232.978 826.542 232.524 826.644 231.806 825.675C231.573 825.36 231.299 825.171 231 825.076V749.675C231.418 749.521 231.799 749.259 232.118 748.83C232.408 748.438 232.675 748.049 232.928 747.68C233.636 746.646 234.235 745.773 234.924 745.463C235.812 745.063 237.731 744.621 238.043 746.725C238.355 745.883 238.912 744.366 237.419 743.358C235.401 741.996 234.38 742.226 233.624 742.396C232.978 742.542 232.524 742.644 231.806 741.675C231.573 741.36 231.299 741.171 231 741.076V704.429C231.181 704.174 231.353 703.922 231.52 703.68C232.228 702.646 232.827 701.773 233.516 701.463C234.404 701.063 236.323 700.621 236.635 702.725C236.947 701.883 237.504 700.366 236.011 699.358C233.992 697.996 232.972 698.226 232.215 698.396C231.769 698.497 231.414 698.577 231 698.296V648.226C231.212 648.019 231.427 647.858 231.652 647.757C232.539 647.358 234.458 646.916 234.77 649.02C235.082 648.178 235.639 646.66 234.146 645.653C232.647 644.642 231.699 644.508 231 644.576V591.199C231.194 590.927 231.378 590.658 231.556 590.399L231.556 590.399C232.265 589.365 232.864 588.492 233.553 588.182C234.441 587.782 236.36 587.34 236.672 589.444C236.983 588.602 237.541 587.084 236.048 586.077C234.029 584.715 233.009 584.945 232.252 585.115C231.792 585.219 231.43 585.3 231 584.989V536.822C231.134 536.705 231.262 536.568 231.38 536.409C231.67 536.017 231.937 535.628 232.19 535.259C232.899 534.225 233.497 533.352 234.187 533.042C235.074 532.642 236.993 532.2 237.305 534.304C237.617 533.463 238.174 531.945 236.682 530.937C234.663 529.575 233.642 529.805 232.886 529.975C232.24 530.121 231.786 530.223 231.068 529.254C231.046 529.224 231.023 529.195 231 529.167V463.06C231.378 462.902 231.722 462.649 232.014 462.256C232.304 461.864 232.571 461.475 232.824 461.106C233.532 460.072 234.131 459.199 234.82 458.889C235.708 458.489 237.627 458.047 237.939 460.151C238.251 459.309 238.808 457.792 237.315 456.784C235.297 455.422 234.276 455.652 233.52 455.822C232.874 455.968 232.42 456.07 231.702 455.101C231.496 454.823 231.258 454.643 231 454.54V430.974C231.87 430.953 232.685 430.737 233.281 429.932C233.571 429.541 233.838 429.152 234.091 428.783C234.8 427.749 235.399 426.876 236.088 426.566C236.976 426.166 238.895 425.724 239.207 427.828C239.519 426.986 240.076 425.469 238.583 424.461C236.564 423.099 235.544 423.329 234.787 423.499C234.141 423.645 233.688 423.747 232.969 422.778C232.455 422.083 231.741 422.001 231 422.193V412.866C235.507 368.902 249.536 337.477 264.189 316.66C267.56 315.342 272.756 313.999 280.25 313.724C295.793 313.154 310.563 310.917 315.69 309.818C320.817 308.719 349.788 297.611 358.21 283.818C358.21 283.818 348.567 289.351 338.517 289.758C338.517 289.758 361.343 281.254 368.383 271.082C369.049 270.12 369.736 269.14 370.439 268.138C377.171 258.542 385.37 246.856 390.233 228.399C390.233 228.399 365.738 250.859 361.303 251.755C361.303 251.755 370.824 242.681 376.765 236.944C379.13 234.651 383.114 231.572 387.088 228.502C392.069 224.653 397.035 220.815 398.778 218.552C401.911 214.483 406.183 207.892 408.584 196.539C408.584 196.539 405.166 203.172 404.189 203.863C404.189 203.863 410.089 187.303 410.944 181.851C411.757 176.398 413.304 169.888 413.304 169.888C413.304 169.888 406.915 178.311 404.311 180.06C401.707 181.851 409.642 171.76 410.293 170.986C412.53 168.342 416.274 156.013 419 143.236C419 143.236 401.137 150.642 398.818 160.122C398.818 160.122 398.859 155.036 402.114 151.781C402.114 151.781 393.773 154.548 386.774 165.941C386.774 165.941 389.094 157.518 391.372 155.809C391.372 155.809 339.331 163.988 317.318 197.19C317.318 197.19 318.009 189.744 328.67 182.095C328.67 182.095 298.153 188.727 283.383 208.38C271.136 224.696 269.874 230.759 268.654 277.429C268.654 277.429 264.218 248.499 266.538 243.861C266.538 243.861 250.75 248.133 254.819 302.29C254.823 302.29 254.831 302.382 254.845 302.556C254.881 302.995 254.96 303.954 255.136 305.277C246.371 317.075 237.868 332.016 231 350.334V307.262C231.194 306.99 231.379 306.721 231.556 306.462C232.265 305.428 232.864 304.555 233.553 304.245C234.441 303.846 236.36 303.403 236.672 305.507C236.983 304.666 237.541 303.148 236.048 302.141C234.029 300.778 233.009 301.008 232.252 301.179C231.792 301.282 231.43 301.364 231 301.052V266.586C231.378 266.428 231.722 266.176 232.014 265.782C232.304 265.39 232.571 265.001 232.823 264.632L232.824 264.632L232.824 264.632C233.532 263.598 234.131 262.725 234.82 262.415C235.708 262.016 237.627 261.573 237.939 263.677C238.251 262.836 238.808 261.318 237.315 260.31C235.297 258.948 234.276 259.178 233.52 259.349C232.874 259.494 232.42 259.596 231.702 258.627C231.496 258.349 231.258 258.169 231 258.066V218.66C231.134 218.544 231.262 218.407 231.38 218.248C231.67 217.856 231.937 217.467 232.19 217.098L232.19 217.098C232.899 216.064 233.497 215.191 234.187 214.881C235.074 214.481 236.993 214.039 237.305 216.143C237.617 215.301 238.174 213.784 236.682 212.776C234.663 211.414 233.642 211.644 232.886 211.814C232.24 211.96 231.786 212.062 231.068 211.093C231.06 211.082 231.052 211.071 231.044 211.061C231.036 211.05 231.028 211.04 231.019 211.03L231 211.006V163.514C237.511 163.354 242.741 158.026 242.741 151.476V135.631C239.856 135.631 237.209 136.645 235.135 138.336V135.631C231.833 135.631 228.899 137.21 227.048 139.654C226.021 136.817 224.572 134.184 222.777 131.829C220.854 134.35 219.329 137.19 218.295 140.256C216.487 137.472 213.351 135.631 209.784 135.631V138.336C207.71 136.645 205.063 135.631 202.178 135.631V151.476C202.178 158.053 207.451 163.398 214 163.516Z" fill="url(#paint9_linear)"/>
<path d="M215.118 188.276C216.366 186.593 218.781 188.504 219.924 189.206V196.361C218.261 196.22 216.054 197.115 214.807 195.431C213.704 193.943 212.935 192.485 212 192.064C211.112 191.665 209.193 191.222 208.881 193.327C208.569 192.485 208.012 190.967 209.505 189.96C213.247 187.435 213.559 190.381 215.118 188.276Z" fill="url(#paint10_linear)"/>
<path d="M231.068 211.092C229.821 209.409 227.406 211.32 226.262 212.022V219.176C227.925 219.036 230.132 219.93 231.38 218.247C232.483 216.759 233.251 215.301 234.187 214.88C235.074 214.481 236.993 214.038 237.305 216.143C237.617 215.301 238.174 213.783 236.682 212.776C232.939 210.251 232.627 213.197 231.068 211.092Z" fill="url(#paint11_linear)"/>
<path d="M231.702 258.627C230.454 256.943 228.04 258.855 226.896 259.556V266.711C228.559 266.571 230.766 267.465 232.014 265.782C233.116 264.294 233.885 262.836 234.82 262.415C235.708 262.015 237.627 261.573 237.939 263.677C238.251 262.836 238.808 261.318 237.315 260.31C233.573 257.785 233.261 260.731 231.702 258.627Z" fill="url(#paint12_linear)"/>
<path d="M230.435 300.457C229.187 298.773 226.772 300.685 225.629 301.386V308.541C227.292 308.4 229.499 309.295 230.746 307.611C231.849 306.123 232.618 304.665 233.553 304.244C234.441 303.845 236.36 303.403 236.672 305.507C236.984 304.665 237.541 303.147 236.048 302.14C232.306 299.615 231.994 302.561 230.435 300.457Z" fill="url(#paint13_linear)"/>
<path d="M232.969 422.777C231.722 421.094 229.307 423.005 228.164 423.707V430.862C229.827 430.721 232.034 431.616 233.281 429.932C234.384 428.444 235.152 426.986 236.088 426.565C236.976 426.166 238.895 425.723 239.207 427.828C239.518 426.986 240.076 425.468 238.583 424.461C234.841 421.936 234.529 424.882 232.969 422.777Z" fill="url(#paint14_linear)"/>
<path d="M231.702 455.101C230.454 453.417 228.04 455.329 226.896 456.03V463.185C228.559 463.044 230.766 463.939 232.014 462.255C233.116 460.767 233.885 459.309 234.82 458.888C235.708 458.489 237.627 458.047 237.939 460.151C238.251 459.309 238.808 457.791 237.315 456.784C233.573 454.259 233.261 457.205 231.702 455.101Z" fill="url(#paint15_linear)"/>
<path d="M231.068 529.254C229.821 527.571 227.406 529.482 226.262 530.184V537.339C227.925 537.198 230.132 538.093 231.38 536.409C232.483 534.921 233.251 533.463 234.187 533.042C235.074 532.643 236.993 532.2 237.305 534.305C237.617 533.463 238.174 531.945 236.682 530.938C232.939 528.413 232.627 531.359 231.068 529.254Z" fill="url(#paint16_linear)"/>
<path d="M230.435 584.394C229.187 582.71 226.772 584.622 225.629 585.323V592.478C227.292 592.337 229.499 593.232 230.746 591.548C231.849 590.06 232.618 588.602 233.553 588.181C234.441 587.782 236.36 587.34 236.672 589.444C236.984 588.602 237.541 587.084 236.048 586.077C232.306 583.552 231.994 586.498 230.435 584.394Z" fill="url(#paint17_linear)"/>
<path d="M228.533 643.969C227.285 642.286 224.871 644.197 223.727 644.899V652.053C225.39 651.913 227.597 652.807 228.845 651.124C229.947 649.636 230.716 648.178 231.652 647.757C232.539 647.358 234.458 646.915 234.77 649.02C235.082 648.178 235.639 646.66 234.146 645.653C230.404 643.127 230.092 646.074 228.533 643.969Z" fill="url(#paint18_linear)"/>
<path d="M231.806 741.675C230.558 739.991 228.144 741.903 227 742.604V749.759C228.663 749.619 230.87 750.513 232.118 748.83C233.22 747.342 233.989 745.883 234.924 745.463C235.812 745.063 237.731 744.621 238.043 746.725C238.355 745.883 238.912 744.366 237.419 743.358C233.677 740.833 233.365 743.779 231.806 741.675Z" fill="url(#paint19_linear)"/>
<path d="M231.806 825.675C230.558 823.991 228.144 825.903 227 826.604V833.759C228.663 833.619 230.87 834.513 232.118 832.83C233.22 831.342 233.989 829.883 234.924 829.463C235.812 829.063 237.731 828.621 238.043 830.725C238.355 829.883 238.912 828.366 237.419 827.358C233.677 824.833 233.365 827.779 231.806 825.675Z" fill="url(#paint20_linear)"/>
<path d="M230.398 697.675C229.15 695.991 226.735 697.903 225.592 698.604V705.759C227.255 705.619 229.462 706.513 230.709 704.83C231.812 703.342 232.581 701.883 233.516 701.463C234.404 701.063 236.323 700.621 236.635 702.725C236.947 701.883 237.504 700.366 236.011 699.358C232.269 696.833 231.957 699.779 230.398 697.675Z" fill="url(#paint21_linear)"/>
<path d="M213.217 238.345C214.465 236.662 216.879 238.573 218.023 239.275V246.429C216.36 246.289 214.153 247.183 212.905 245.5C211.803 244.012 211.034 242.554 210.098 242.133C209.211 241.734 207.292 241.291 206.98 243.396C206.668 242.554 206.111 241.036 207.604 240.029C211.346 237.503 211.658 240.45 213.217 238.345Z" fill="url(#paint22_linear)"/>
<path d="M214.485 286.513C215.732 284.83 218.147 286.741 219.291 287.443V294.597C217.627 294.457 215.421 295.351 214.173 293.668C213.07 292.18 212.302 290.722 211.366 290.301C210.479 289.902 208.56 289.459 208.248 291.564C207.936 290.722 207.379 289.204 208.871 288.197C212.614 285.671 212.926 288.617 214.485 286.513Z" fill="url(#paint23_linear)"/>
<path d="M214.485 360.033C215.732 358.349 218.147 360.261 219.291 360.962V368.117C217.627 367.977 215.421 368.871 214.173 367.187C213.07 365.699 212.302 364.241 211.366 363.82C210.479 363.421 208.56 362.979 208.248 365.083C207.936 364.241 207.379 362.723 208.871 361.716C212.614 359.191 212.926 362.137 214.485 360.033Z" fill="url(#paint24_linear)"/>
<path d="M214.485 434.82C215.732 433.136 218.147 435.048 219.291 435.749V442.904C217.627 442.764 215.421 443.658 214.173 441.975C213.07 440.487 212.302 439.028 211.366 438.608C210.479 438.208 208.56 437.766 208.248 439.87C207.936 439.028 207.379 437.511 208.871 436.503C212.614 433.978 212.926 436.924 214.485 434.82Z" fill="url(#paint25_linear)"/>
<path d="M214.485 490.593C215.732 488.909 218.147 490.821 219.291 491.522V498.677C217.627 498.537 215.421 499.431 214.173 497.747C213.07 496.259 212.302 494.801 211.366 494.381C210.479 493.981 208.56 493.539 208.248 495.643C207.936 494.801 207.379 493.284 208.871 492.276C212.614 489.751 212.926 492.697 214.485 490.593Z" fill="url(#paint26_linear)"/>
<path fill-rule="evenodd" clip-rule="evenodd" d="M222.776 167.534C223.739 166.271 224.603 164.928 225.354 163.517H228.135C229.04 163.517 229.905 163.346 230.699 163.033V163.517C237.349 163.517 242.741 158.126 242.741 151.475V135.631C239.856 135.631 237.209 136.645 235.135 138.336V135.631C231.833 135.631 228.899 137.209 227.047 139.653C226.021 136.817 224.572 134.183 222.776 131.828C220.854 134.349 219.329 137.19 218.295 140.256C216.487 137.472 213.35 135.631 209.784 135.631V138.336C207.71 136.645 205.063 135.631 202.178 135.631V151.475C202.178 158.126 207.57 163.517 214.22 163.517V163.033C215.014 163.345 215.879 163.517 216.784 163.517H219.924V162.99C220.738 164.595 221.694 166.115 222.776 167.534Z" fill="url(#paint27_linear)"/>
<path d="M185.353 506.284C185.353 506.284 173.692 454.088 147.141 436.613C147.141 436.613 156.756 451.379 156.831 458.202C156.831 458.202 141.751 427.296 118.281 420.702C118.281 420.702 124.02 426.524 124.44 429.155C124.44 429.155 103.028 407.226 85.2987 409.358C85.2987 409.358 91.6903 412.245 93.0498 415.481C93.0498 415.481 86.0462 407.542 61.0642 409.952C61.0642 409.952 46.2346 410.025 39.9944 407.841C39.9944 407.841 42.97 413.119 49.2632 415.549C49.2632 415.549 33.3822 415.517 24.7393 413.778C16.0963 412.039 0 407.09 0 407.09C0 407.09 5.32152 414.216 11.4159 417.938C17.5102 421.661 21.3212 423.487 21.3212 423.487C21.3212 423.487 12.7238 421.958 12.117 420.508C12.117 420.508 13.7123 427.224 19.7344 431.293C25.7565 435.363 30.5082 438.823 30.7982 439.827C31.0806 440.796 23.6161 436.854 23.2097 435.14C23.2097 435.14 24.5896 449.035 36.9866 460.002C49.3836 470.97 62.3775 481.808 75.2157 485.621C75.2157 485.621 62.4655 487.158 56.8653 481.637C56.8653 481.637 68.4133 504.002 91.3143 511.196C114.215 518.391 129.131 515.137 129.131 515.137C129.131 515.137 118.741 519.952 116.144 517.791C116.144 517.791 126.111 529.761 152.926 519.492C179.698 509.195 185.353 506.284 185.353 506.284Z" fill="url(#paint28_linear)"/>
<path d="M259.051 319.461C259.051 319.461 264.707 314.294 280.25 313.724C295.793 313.154 310.563 310.916 315.69 309.818C320.817 308.719 349.788 297.611 358.21 283.817C358.21 283.817 348.567 289.351 338.517 289.758C338.517 289.758 361.343 281.254 368.383 271.082C375.422 260.909 384.862 248.784 390.233 228.399C390.233 228.399 365.738 250.859 361.303 251.754C361.303 251.754 370.824 242.681 376.765 236.944C382.095 231.776 395.644 222.621 398.777 218.552C401.911 214.483 406.183 207.891 408.584 196.539C408.584 196.539 405.166 203.171 404.189 203.863C404.189 203.863 410.089 187.303 410.944 181.85C411.757 176.398 413.303 169.888 413.303 169.888C413.303 169.888 406.915 178.31 404.311 180.06C401.707 181.85 409.641 171.759 410.292 170.986C412.53 168.342 416.274 156.013 419 143.236C419 143.236 401.137 150.642 398.818 160.122C398.818 160.122 398.859 155.036 402.114 151.781C402.114 151.781 393.773 154.548 386.774 165.941C386.774 165.941 389.093 157.518 391.372 155.809C391.372 155.809 339.331 163.988 317.318 197.19C317.318 197.19 318.009 189.744 328.67 182.094C328.67 182.094 298.153 188.727 283.383 208.38C271.136 224.696 269.874 230.759 268.653 277.429C268.653 277.429 264.218 248.499 266.538 243.861C266.538 243.861 250.75 248.133 254.819 302.29C254.86 302.29 255.226 311.079 259.051 319.461Z" fill="url(#paint29_linear)"/>
<path d="M214.485 571.718C215.732 570.034 218.147 571.946 219.291 572.647V579.802C217.627 579.662 215.421 580.556 214.173 578.872C213.07 577.384 212.302 575.926 211.366 575.506C210.479 575.106 208.56 574.664 208.248 576.768C207.936 575.926 207.379 574.409 208.871 573.401C212.614 570.876 212.926 573.822 214.485 571.718Z" fill="url(#paint30_linear)"/>
<path d="M214.485 604.675C215.732 602.991 218.147 604.903 219.291 605.604V612.759C217.627 612.619 215.421 613.513 214.173 611.83C213.07 610.342 212.302 608.883 211.366 608.463C210.479 608.063 208.56 607.621 208.248 609.725C207.936 608.883 207.379 607.366 208.871 606.358C212.614 603.833 212.926 606.779 214.485 604.675Z" fill="url(#paint31_linear)"/>
<path d="M213.602 664.675C214.85 662.991 217.265 664.903 218.408 665.604V672.759C216.745 672.619 214.538 673.513 213.291 671.83C212.188 670.342 211.419 668.883 210.484 668.463C209.596 668.063 207.677 667.621 207.365 669.725C207.053 668.883 206.496 667.366 207.989 666.358C211.731 663.833 212.043 666.779 213.602 664.675Z" fill="url(#paint32_linear)"/>
<path d="M213.602 714.675C214.85 712.991 217.265 714.903 218.408 715.604V722.759C216.745 722.619 214.538 723.513 213.291 721.83C212.188 720.342 211.419 718.883 210.484 718.463C209.596 718.063 207.677 717.621 207.365 719.725C207.053 718.883 206.496 717.366 207.989 716.358C211.731 713.833 212.043 716.779 213.602 714.675Z" fill="url(#paint33_linear)"/>
<path d="M213.602 778.675C214.85 776.991 217.265 778.903 218.408 779.604V786.759C216.745 786.619 214.538 787.513 213.291 785.83C212.188 784.342 211.419 782.883 210.484 782.463C209.596 782.063 207.677 781.621 207.365 783.725C207.053 782.883 206.496 781.366 207.989 780.358C211.731 777.833 212.043 780.779 213.602 778.675Z" fill="url(#paint34_linear)"/>
<defs>
<linearGradient id="paint0_linear" x1="140.779" y1="51.8256" x2="176.099" y2="67.1263" gradientUnits="userSpaceOnUse">
<stop stop-color="#FF9488"/>
<stop offset="0.494792" stop-color="#B62220"/>
<stop offset="1" stop-color="#560900"/>
</linearGradient>
<linearGradient id="paint1_linear" x1="152.217" y1="37.9862" x2="182.351" y2="45.1969" gradientUnits="userSpaceOnUse">
<stop stop-color="#FF9488"/>
<stop offset="0.494792" stop-color="#B62220"/>
<stop offset="1" stop-color="#560900"/>
</linearGradient>
<linearGradient id="paint2_linear" x1="206.976" y1="28.76" x2="220.157" y2="29.872" gradientUnits="userSpaceOnUse">
<stop stop-color="#FF9488"/>
<stop offset="0.494792" stop-color="#B62220"/>
<stop offset="1" stop-color="#560900"/>
</linearGradient>
<linearGradient id="paint3_linear" x1="178.546" y1="24.1469" x2="216.286" y2="33.0162" gradientUnits="userSpaceOnUse">
<stop stop-color="#FF9488"/>
<stop offset="0.494792" stop-color="#B62220"/>
<stop offset="1" stop-color="#560900"/>
</linearGradient>
<linearGradient id="paint4_linear" x1="301.605" y1="51.8256" x2="266.285" y2="67.1263" gradientUnits="userSpaceOnUse">
<stop stop-color="#FF9488"/>
<stop offset="0.494792" stop-color="#B62220"/>
<stop offset="1" stop-color="#560900"/>
</linearGradient>
<linearGradient id="paint5_linear" x1="290.167" y1="37.9862" x2="260.033" y2="45.1969" gradientUnits="userSpaceOnUse">
<stop stop-color="#FF9488"/>
<stop offset="0.494792" stop-color="#B62220"/>
<stop offset="1" stop-color="#560900"/>
</linearGradient>
<linearGradient id="paint6_linear" x1="235.407" y1="28.76" x2="222.226" y2="29.872" gradientUnits="userSpaceOnUse">
<stop stop-color="#FF9488"/>
<stop offset="0.494792" stop-color="#B62220"/>
<stop offset="1" stop-color="#560900"/>
</linearGradient>
<linearGradient id="paint7_linear" x1="263.838" y1="24.1469" x2="226.098" y2="33.0162" gradientUnits="userSpaceOnUse">
<stop stop-color="#FF9488"/>
<stop offset="0.494792" stop-color="#B62220"/>
<stop offset="1" stop-color="#560900"/>
</linearGradient>
<linearGradient id="paint8_linear" x1="221.192" y1="0" x2="221.192" y2="88.7303" gradientUnits="userSpaceOnUse">
<stop stop-color="#E84735" stop-opacity="0"/>
<stop offset="1" stop-color="#B62220"/>
</linearGradient>
<linearGradient id="paint9_linear" x1="-77.0029" y1="-23.8068" x2="-7.88398" y2="927.061" gradientUnits="userSpaceOnUse">
<stop stop-color="#5C90B6"/>
<stop offset="1" stop-color="#031941"/>
</linearGradient>
<linearGradient id="paint10_linear" x1="208.516" y1="187.602" x2="211.051" y2="192.038" gradientUnits="userSpaceOnUse">
<stop stop-color="#C8DEFB"/>
<stop offset="1" stop-color="#C8DEFB" stop-opacity="0"/>
</linearGradient>
<linearGradient id="paint11_linear" x1="237.67" y1="210.417" x2="235.135" y2="214.854" gradientUnits="userSpaceOnUse">
<stop stop-color="#C8DEFB"/>
<stop offset="1" stop-color="#C8DEFB" stop-opacity="0"/>
</linearGradient>
<linearGradient id="paint12_linear" x1="238.304" y1="257.952" x2="235.769" y2="262.389" gradientUnits="userSpaceOnUse">
<stop stop-color="#C8DEFB"/>
<stop offset="1" stop-color="#C8DEFB" stop-opacity="0"/>
</linearGradient>
<linearGradient id="paint13_linear" x1="237.037" y1="299.782" x2="234.502" y2="304.218" gradientUnits="userSpaceOnUse">
<stop stop-color="#C8DEFB"/>
<stop offset="1" stop-color="#C8DEFB" stop-opacity="0"/>
</linearGradient>
<linearGradient id="paint14_linear" x1="239.572" y1="422.103" x2="237.037" y2="426.539" gradientUnits="userSpaceOnUse">
<stop stop-color="#C8DEFB"/>
<stop offset="1" stop-color="#C8DEFB" stop-opacity="0"/>
</linearGradient>
<linearGradient id="paint15_linear" x1="238.304" y1="454.426" x2="235.769" y2="458.862" gradientUnits="userSpaceOnUse">
<stop stop-color="#C8DEFB"/>
<stop offset="1" stop-color="#C8DEFB" stop-opacity="0"/>
</linearGradient>
<linearGradient id="paint16_linear" x1="237.67" y1="528.58" x2="235.135" y2="533.016" gradientUnits="userSpaceOnUse">
<stop stop-color="#C8DEFB"/>
<stop offset="1" stop-color="#C8DEFB" stop-opacity="0"/>
</linearGradient>
<linearGradient id="paint17_linear" x1="237.037" y1="583.719" x2="234.502" y2="588.155" gradientUnits="userSpaceOnUse">
<stop stop-color="#C8DEFB"/>
<stop offset="1" stop-color="#C8DEFB" stop-opacity="0"/>
</linearGradient>
<linearGradient id="paint18_linear" x1="235.135" y1="643.294" x2="232.6" y2="647.731" gradientUnits="userSpaceOnUse">
<stop stop-color="#C8DEFB"/>
<stop offset="1" stop-color="#C8DEFB" stop-opacity="0"/>
</linearGradient>
<linearGradient id="paint19_linear" x1="238.408" y1="741" x2="235.873" y2="745.437" gradientUnits="userSpaceOnUse">
<stop stop-color="#C8DEFB"/>
<stop offset="1" stop-color="#C8DEFB" stop-opacity="0"/>
</linearGradient>
<linearGradient id="paint20_linear" x1="238.408" y1="825" x2="235.873" y2="829.437" gradientUnits="userSpaceOnUse">
<stop stop-color="#C8DEFB"/>
<stop offset="1" stop-color="#C8DEFB" stop-opacity="0"/>
</linearGradient>
<linearGradient id="paint21_linear" x1="237" y1="697" x2="234.465" y2="701.437" gradientUnits="userSpaceOnUse">
<stop stop-color="#C8DEFB"/>
<stop offset="1" stop-color="#C8DEFB" stop-opacity="0"/>
</linearGradient>
<linearGradient id="paint22_linear" x1="206.615" y1="237.67" x2="209.15" y2="242.107" gradientUnits="userSpaceOnUse">
<stop stop-color="#C8DEFB"/>
<stop offset="1" stop-color="#C8DEFB" stop-opacity="0"/>
</linearGradient>
<linearGradient id="paint23_linear" x1="207.883" y1="285.838" x2="210.418" y2="290.275" gradientUnits="userSpaceOnUse">
<stop stop-color="#C8DEFB"/>
<stop offset="1" stop-color="#C8DEFB" stop-opacity="0"/>
</linearGradient>
<linearGradient id="paint24_linear" x1="207.883" y1="359.358" x2="210.418" y2="363.794" gradientUnits="userSpaceOnUse">
<stop stop-color="#C8DEFB"/>
<stop offset="1" stop-color="#C8DEFB" stop-opacity="0"/>
</linearGradient>
<linearGradient id="paint25_linear" x1="207.883" y1="434.145" x2="210.418" y2="438.582" gradientUnits="userSpaceOnUse">
<stop stop-color="#C8DEFB"/>
<stop offset="1" stop-color="#C8DEFB" stop-opacity="0"/>
</linearGradient>
<linearGradient id="paint26_linear" x1="207.883" y1="489.918" x2="210.418" y2="494.354" gradientUnits="userSpaceOnUse">
<stop stop-color="#C8DEFB"/>
<stop offset="1" stop-color="#C8DEFB" stop-opacity="0"/>
</linearGradient>
<linearGradient id="paint27_linear" x1="222.459" y1="131.194" x2="222.459" y2="155.278" gradientUnits="userSpaceOnUse">
<stop stop-color="#031941"/>
<stop offset="1" stop-color="#031941" stop-opacity="0"/>
</linearGradient>
<linearGradient id="paint28_linear" x1="8.55614" y1="410.694" x2="122.321" y2="488.967" gradientUnits="userSpaceOnUse">
<stop stop-color="#5C90B6"/>
<stop offset="1" stop-color="#5C90B6" stop-opacity="0"/>
</linearGradient>
<linearGradient id="paint29_linear" x1="413.547" y1="150.208" x2="297.247" y2="293.761" gradientUnits="userSpaceOnUse">
<stop stop-color="#031941"/>
<stop offset="1" stop-color="#031941" stop-opacity="0"/>
</linearGradient>
<linearGradient id="paint30_linear" x1="207.883" y1="571.043" x2="210.418" y2="575.479" gradientUnits="userSpaceOnUse">
<stop stop-color="#C8DEFB"/>
<stop offset="1" stop-color="#C8DEFB" stop-opacity="0"/>
</linearGradient>
<linearGradient id="paint31_linear" x1="207.883" y1="604" x2="210.418" y2="608.437" gradientUnits="userSpaceOnUse">
<stop stop-color="#C8DEFB"/>
<stop offset="1" stop-color="#C8DEFB" stop-opacity="0"/>
</linearGradient>
<linearGradient id="paint32_linear" x1="207" y1="664" x2="209.535" y2="668.437" gradientUnits="userSpaceOnUse">
<stop stop-color="#C8DEFB"/>
<stop offset="1" stop-color="#C8DEFB" stop-opacity="0"/>
</linearGradient>
<linearGradient id="paint33_linear" x1="207" y1="714" x2="209.535" y2="718.437" gradientUnits="userSpaceOnUse">
<stop stop-color="#C8DEFB"/>
<stop offset="1" stop-color="#C8DEFB" stop-opacity="0"/>
</linearGradient>
<linearGradient id="paint34_linear" x1="207" y1="778" x2="209.535" y2="782.437" gradientUnits="userSpaceOnUse">
<stop stop-color="#C8DEFB"/>
<stop offset="1" stop-color="#C8DEFB" stop-opacity="0"/>
</linearGradient>
</defs>
</svg>
