<svg width="328" height="375" viewBox="0 0 328 375" fill="none" xmlns="http://www.w3.org/2000/svg">
<path d="M80.107 7.39647C80.651 8.21802 80.9202 9.19085 80.8761 10.1751V31.8437C80.8807 32.208 80.8054 32.5688 80.6554 32.9009C80.5055 33.2329 80.2845 33.5281 80.0081 33.7656C79.4614 34.2702 78.7416 34.5454 77.9976 34.5344C77.6317 34.5879 77.2584 34.5552 76.9074 34.4389C76.5564 34.3226 76.2375 34.126 75.976 33.8646C75.7145 33.6032 75.5178 33.2844 75.4014 32.9335C75.2851 32.5826 75.2524 32.2094 75.306 31.8437C75.306 28.5489 75.24 25.4848 75.1192 22.7391C75.0423 20.1396 74.0944 17.6411 72.4275 15.6444C70.7686 13.6565 68.033 12.13 64.0888 11.0317C60.1447 9.93344 54.4537 9.40627 46.917 9.40627H26.3504V67.7127H42.5005C43.5222 67.7127 45.0274 67.6469 47.0049 67.5151C49.075 67.3742 51.112 66.9225 53.0475 66.1752C55.1205 65.3937 56.9456 64.0699 58.3319 62.3423C59.7931 60.5521 60.5292 57.9492 60.5292 54.6545C60.4756 54.2902 60.508 53.9184 60.6237 53.5688C60.7395 53.2192 60.9354 52.9016 61.1959 52.6412C61.4564 52.3808 61.7742 52.1849 62.1239 52.0692C62.4736 51.9535 62.8455 51.9211 63.2099 51.9747C63.5779 51.9491 63.9471 51.9994 64.2948 52.1224C64.6425 52.2455 64.9612 52.4386 65.2311 52.6899C65.501 52.9412 65.7164 53.2452 65.8639 53.5832C66.0113 53.9211 66.0877 54.2858 66.0883 54.6545V83.9999C66.0751 84.6837 65.7999 85.3363 65.3193 85.823C65.0817 86.0993 64.7864 86.3201 64.4543 86.47C64.1221 86.6199 63.7611 86.6952 63.3967 86.6907C61.7377 86.6907 60.7819 85.7242 60.5292 83.8132C60.6181 81.4516 59.9057 79.1294 58.5077 77.2237C57.215 75.5422 55.5387 74.1941 53.6188 73.2919C51.7214 72.4092 49.7209 71.7672 47.6641 71.3809C45.9603 71.0314 44.2284 70.8366 42.4895 70.7989H26.3504V120.473C26.4647 123.143 26.7546 125.803 27.2184 128.435C27.6578 130.928 28.6576 132.169 30.1847 132.169C30.6091 132.14 31.0349 132.202 31.4331 132.351C31.8313 132.501 32.1924 132.735 32.4919 133.037C32.9796 133.559 33.254 134.245 33.2609 134.959C33.2562 135.32 33.1766 135.677 33.0272 136.005C32.8778 136.334 32.6619 136.629 32.393 136.87C32.1061 137.158 31.7629 137.384 31.3848 137.533C31.0068 137.682 30.6019 137.752 30.1957 137.738H4.12491C3.73102 137.758 3.33756 137.69 2.97284 137.54C2.60811 137.39 2.28118 137.161 2.01551 136.87C1.5275 136.353 1.25283 135.67 1.24645 134.959C1.24558 134.259 1.48616 133.58 1.92762 133.037C2.20006 132.73 2.54092 132.492 2.92264 132.341C3.30437 132.19 3.71624 132.132 4.12491 132.169C5.14298 132.169 5.91202 131.532 6.43204 130.259C6.99476 128.809 7.36414 127.291 7.53069 125.745C7.72508 123.921 7.82045 122.088 7.81635 120.253V24.0131C7.82472 21.2826 7.60052 18.5564 7.14617 15.864C6.69573 13.2502 5.70694 11.9323 4.16884 11.9323C3.7458 11.9658 3.32056 11.9054 2.9236 11.7554C2.52664 11.6054 2.16777 11.3695 1.87268 11.0646C1.38089 10.5497 1.10561 9.86563 1.10364 9.15368C1.10725 8.43878 1.3821 7.7519 1.87268 7.23173C2.17011 6.93066 2.52964 6.69806 2.9262 6.55011C3.32276 6.40216 3.74683 6.34243 4.16884 6.37509H77.2725C77.7919 6.31317 78.3186 6.37326 78.8106 6.55057C79.3027 6.72788 79.7466 7.01752 80.107 7.39647Z" fill="white"/>
<path d="M119.625 132.148C120.05 132.118 120.475 132.18 120.874 132.329C121.272 132.479 121.633 132.713 121.932 133.015C122.417 133.538 122.688 134.224 122.69 134.937C122.685 135.297 122.606 135.652 122.459 135.981C122.312 136.309 122.099 136.605 121.833 136.848C121.545 137.134 121.202 137.359 120.824 137.508C120.446 137.657 120.042 137.728 119.636 137.716H93.5324C93.1078 137.748 92.6814 137.687 92.2828 137.537C91.8843 137.387 91.5234 137.152 91.2253 136.848C90.7379 136.329 90.4666 135.644 90.4666 134.932C90.4666 134.22 90.7379 133.534 91.2253 133.015C91.5247 132.713 91.8858 132.479 92.284 132.329C92.6822 132.18 93.108 132.118 93.5324 132.148C94.5505 132.148 95.2829 131.159 95.7297 129.182C96.2252 126.935 96.592 124.662 96.8283 122.373C97.0906 119.056 97.1529 115.726 97.0151 112.401V18.8074C97.0317 18.0917 96.8326 17.3877 96.4438 16.7866C96.0474 16.2051 95.5988 15.6611 95.1034 15.1612C94.5871 14.656 94.0048 14.1398 93.3786 13.6236C92.4133 13.2696 91.5468 12.6897 90.8517 11.9323C90.6666 11.6522 90.5443 11.3355 90.4931 11.0037C90.4419 10.672 90.463 10.3331 90.5551 10.0103C90.7528 9.37333 91.6537 8.67045 93.1479 7.90167C96.6165 6.21844 100.17 4.71548 103.794 3.39882C107.189 2.17975 109.386 1.4549 110.386 1.2023C111.385 0.949702 112.429 0.499413 113.066 0.246814C113.543 0.0114121 114.084 -0.0581663 114.604 0.0491274C114.989 0.180918 115.242 0.565308 115.373 1.14738C115.527 2.23855 115.59 3.34062 115.56 4.44216V18.8293L115.758 114.916V119.99C115.749 121.883 115.845 123.774 116.044 125.657C116.178 127.243 116.567 128.797 117.197 130.259C117.357 130.785 117.677 131.25 118.112 131.588C118.546 131.926 119.075 132.122 119.625 132.148Z" fill="white"/>
<path d="M161.637 132.148C162.062 132.118 162.488 132.18 162.886 132.329C163.284 132.479 163.645 132.713 163.944 133.015C164.432 133.537 164.707 134.223 164.714 134.937C164.706 135.298 164.625 135.653 164.476 135.982C164.327 136.31 164.112 136.605 163.846 136.848C163.559 137.136 163.216 137.362 162.837 137.511C162.459 137.66 162.055 137.73 161.648 137.716H135.545C135.122 137.749 134.696 137.689 134.299 137.539C133.902 137.389 133.543 137.153 133.248 136.848C132.756 136.331 132.481 135.645 132.481 134.932C132.481 134.218 132.756 133.532 133.248 133.015C133.545 132.713 133.904 132.478 134.301 132.329C134.697 132.179 135.122 132.117 135.545 132.148C136.951 132.148 138.006 130.936 138.709 128.512C139.437 126.015 139.807 123.426 139.807 120.824V66.3729C139.821 65.6425 139.585 64.9293 139.137 64.3521C138.693 63.78 138.212 63.2371 137.698 62.7267C137.061 62.2105 136.358 61.7053 135.589 61.1891C134.633 60.8185 133.779 60.2277 133.095 59.4649C132.911 59.184 132.791 58.8668 132.742 58.5351C132.692 58.2034 132.715 57.8649 132.809 57.5429C133.007 56.9059 133.908 56.203 135.402 55.4343C139.232 53.6478 142.843 52.1139 146.234 50.8326C149.626 49.5513 151.768 48.7825 152.661 48.5262L155.254 47.6696C155.677 47.4848 156.15 47.4499 156.595 47.5707C156.913 47.7025 157.111 48.0869 157.177 48.669C157.243 49.2511 157.276 50.3933 157.276 51.9638V121.582C157.378 124.024 157.796 126.441 158.517 128.776C159.176 131.038 160.231 132.148 161.637 132.148ZM147.443 42.969C146.09 42.9865 144.746 42.732 143.493 42.2207C142.24 41.7095 141.103 40.9518 140.148 39.9928C139.177 39.0246 138.406 37.8743 137.88 36.6078C137.354 35.3414 137.084 33.9837 137.084 32.6125C137.084 31.2413 137.354 29.8835 137.88 28.6171C138.406 27.3507 139.177 26.2004 140.148 25.2322C141.103 24.2731 142.24 23.5155 143.493 23.0042C144.746 22.4929 146.09 22.2385 147.443 22.2559C150.191 22.2559 152.826 23.347 154.769 25.2893C156.712 27.2315 157.803 29.8657 157.803 32.6125C157.803 35.3592 156.712 37.9934 154.769 39.9357C152.826 41.8779 150.191 42.969 147.443 42.969Z" fill="white"/>
<path d="M220.733 47.384C222.734 47.3459 224.719 47.7369 226.556 48.5307C228.392 49.3245 230.037 50.5026 231.379 51.9857C234.151 54.7946 235.703 58.5833 235.697 62.529C235.853 65.7121 234.828 68.8407 232.818 71.3151C232.019 72.3333 231.001 73.1582 229.838 73.7287C228.676 74.2991 227.4 74.6003 226.106 74.6098C224.612 74.6251 223.135 74.2983 221.788 73.6543C220.546 73.0936 219.46 72.2377 218.624 71.1613C217.827 70.0714 217.362 68.7749 217.284 67.4272C217.192 65.7245 217.572 64.0294 218.382 62.529C220.041 59.3331 220.656 56.84 220.206 55.0499C220.04 54.2226 219.578 53.4842 218.906 52.9728C218.235 52.4614 217.4 52.212 216.558 52.2713C214.581 52.2054 211.959 53.1023 208.692 54.962C204.688 57.4094 200.998 60.3379 197.706 63.6822V119.496C197.798 121.621 198.055 123.736 198.475 125.822C198.703 127.317 199.071 128.788 199.573 130.215C200.024 131.489 200.672 132.126 201.595 132.126C202.018 132.096 202.442 132.158 202.838 132.308C203.235 132.457 203.594 132.691 203.891 132.993C204.379 133.515 204.653 134.201 204.66 134.915C204.655 135.276 204.576 135.633 204.427 135.962C204.277 136.29 204.061 136.585 203.792 136.826C203.506 137.115 203.163 137.341 202.784 137.49C202.406 137.639 202.001 137.709 201.595 137.694H175.458C175.033 137.728 174.606 137.668 174.208 137.518C173.809 137.368 173.448 137.132 173.151 136.826C172.659 136.309 172.384 135.623 172.384 134.91C172.384 134.196 172.659 133.51 173.151 132.993C173.449 132.689 173.81 132.454 174.209 132.304C174.607 132.154 175.034 132.093 175.458 132.126C176.191 132.126 176.795 131.489 177.271 130.215C177.774 128.788 178.142 127.317 178.37 125.822C178.795 123.737 179.052 121.621 179.139 119.496V65.022C179.157 64.3097 178.957 63.6088 178.567 63.0122C178.174 62.4287 177.725 61.8844 177.227 61.3868C176.679 60.8446 176.104 60.3314 175.502 59.8492C174.548 59.476 173.694 58.8856 173.008 58.125C172.824 57.8446 172.702 57.5279 172.651 57.1963C172.6 56.8646 172.62 56.5259 172.712 56.203C172.909 55.566 173.81 54.8631 175.304 54.0944L186.752 47.1863C187.471 46.6888 188.29 46.3544 189.151 46.2064C190.013 46.0585 190.897 46.1005 191.74 46.3297C193.475 46.74 194.986 47.8018 195.959 49.295C196.642 50.4456 197.097 51.7172 197.299 53.04C197.604 55.2964 197.732 57.573 197.684 59.8492C198.321 59.2122 199.376 58.1909 200.848 56.7741C202.493 55.2284 204.26 53.818 206.132 52.5568C208.269 51.1059 210.552 49.8837 212.944 48.9106C215.414 47.8935 218.062 47.3747 220.733 47.384Z" fill="white"/>
<path d="M289.607 48.5262C290.364 48.5483 291.083 48.8586 291.618 49.3935C292.153 49.9284 292.463 50.6475 292.486 51.4037C292.494 51.7685 292.42 52.1306 292.27 52.4633C292.12 52.7959 291.897 53.0906 291.618 53.3256C291.071 53.8302 290.351 54.1054 289.607 54.0944H273.875V118.54C273.787 120.861 274.18 123.176 275.028 125.338C275.669 126.887 276.614 128.291 277.808 129.468C278.785 130.421 279.964 131.142 281.257 131.576C282.281 131.925 283.351 132.118 284.433 132.148C284.855 132.118 285.279 132.18 285.676 132.33C286.072 132.479 286.431 132.713 286.729 133.015C287.216 133.537 287.491 134.223 287.498 134.937C287.493 135.298 287.413 135.655 287.264 135.984C287.115 136.312 286.899 136.607 286.63 136.848C286.343 137.137 286 137.363 285.622 137.512C285.244 137.661 284.839 137.731 284.433 137.716H273.875C271.421 137.751 268.985 137.294 266.711 136.372C264.437 135.449 262.371 134.08 260.635 132.346C258.9 130.611 257.531 128.546 256.608 126.273C255.685 123.999 255.228 121.564 255.264 119.111V54.0944H243.563C242.816 54.1038 242.093 53.8289 241.542 53.3256C241.265 53.0885 241.045 52.7932 240.897 52.4608C240.749 52.1285 240.676 51.7674 240.685 51.4037C240.684 51.0281 240.759 50.6562 240.906 50.3106C241.054 49.9651 241.27 49.6532 241.542 49.3938C241.802 49.1203 242.116 48.9025 242.464 48.7534C242.811 48.6043 243.185 48.527 243.563 48.5262C245.812 48.3269 247.998 47.677 249.99 46.6152C252.917 45.2256 255.684 43.5205 258.241 41.5303C260.984 39.4239 263.378 36.9001 265.338 34.0512C267.23 31.4501 268.27 28.3271 268.315 25.1114C268.305 24.3697 268.576 23.6515 269.074 23.1016C269.31 22.8235 269.605 22.6014 269.937 22.4514C270.27 22.3013 270.631 22.227 270.996 22.2339C271.753 22.256 272.472 22.5663 273.007 23.1012C273.542 23.6361 273.852 24.3552 273.875 25.1114V41.5852C273.807 42.9528 274.001 44.3208 274.446 45.6158C274.673 46.0901 274.995 46.513 275.392 46.8586C275.789 47.2042 276.252 47.4652 276.753 47.6256C278.301 48.1422 279.922 48.4019 281.554 48.3944C283.598 48.5042 286.278 48.5262 289.607 48.5262Z" fill="white"/>
<path d="M20.8573 185.38C23.9994 186.676 26.8779 187.961 29.4706 189.224C31.8758 190.366 34.1214 191.817 36.1504 193.54C37.9337 195.056 39.3817 196.926 40.4021 199.031C41.4527 201.401 41.963 203.974 41.8963 206.565C41.8901 208.979 41.474 211.375 40.6658 213.649C39.8404 215.974 38.5466 218.104 36.8645 219.909C35.0102 221.848 32.7627 223.368 30.2727 224.368C27.2358 225.566 23.9891 226.141 20.7255 226.06C18.2868 226.054 15.8583 225.744 13.4964 225.137C11.1539 224.56 8.90752 223.646 6.82762 222.424C4.8881 221.296 3.20746 219.773 1.89473 217.954C0.615014 216.122 -0.0469212 213.929 0.00506166 211.694C-0.0488619 209.97 0.328779 208.26 1.1037 206.719C1.73475 205.483 2.64961 204.415 3.7734 203.6C4.79991 202.854 5.99751 202.378 7.25609 202.216C8.43941 202.036 9.64801 202.123 10.7937 202.469C11.8782 202.803 12.8087 203.512 13.4195 204.468C14.0811 205.454 14.4552 206.606 14.4998 207.793C14.5444 208.98 14.2579 210.156 13.6722 211.189C12.9528 212.444 11.83 213.42 10.4861 213.957C9.83538 214.195 9.25031 214.584 8.7787 215.092C8.30708 215.6 7.96228 216.212 7.77246 216.878C7.66124 217.5 7.69563 218.138 7.87291 218.744C8.05018 219.35 8.36553 219.907 8.7942 220.371C9.99693 221.69 11.5062 222.694 13.1888 223.292C15.5986 224.182 18.1575 224.6 20.7255 224.522C23.1116 224.626 25.4791 224.059 27.559 222.886C29.222 221.878 30.5428 220.393 31.3493 218.624C32.1526 216.787 32.4886 214.78 32.3271 212.782C32.1767 210.581 31.6374 208.424 30.7341 206.412C29.7512 204.241 28.4147 202.248 26.779 200.514C25.0448 198.651 22.9522 197.157 20.6266 196.121C17.8287 194.825 15.1956 193.507 12.7273 192.167C10.3876 190.921 8.21357 189.386 6.25634 187.599C4.43702 185.944 2.9461 183.962 1.86177 181.756C0.752713 179.309 0.211856 176.643 0.279722 173.958C0.250079 171.241 0.734675 168.544 1.70796 166.007C2.62936 163.642 4.00679 161.481 5.76194 159.648C7.53845 157.817 9.66915 156.368 12.0242 155.387C14.6147 154.333 17.3906 153.81 20.1871 153.849C23.1394 153.807 26.0753 154.294 28.8554 155.288C31.234 156.136 33.4408 157.404 35.3704 159.033C37.0855 160.496 38.4837 162.293 39.4793 164.315C40.4045 166.165 40.8967 168.2 40.9185 170.268C40.9726 171.946 40.6926 173.619 40.0945 175.188C39.6368 176.362 38.9151 177.414 37.9851 178.263C37.185 178.991 36.2137 179.505 35.1616 179.757C34.2183 179.976 33.2375 179.976 32.2942 179.757C31.2054 179.444 30.2147 178.858 29.4157 178.055C28.5562 177.251 27.9364 176.224 27.6249 175.089C27.3213 173.903 27.3748 172.654 27.7787 171.498C28.3319 170.04 29.3366 168.797 30.6462 167.951C31.8805 167.095 32.7595 165.818 33.1182 164.359C33.2848 163.657 33.3113 162.929 33.1963 162.217C33.0813 161.505 32.827 160.822 32.448 160.208C31.4143 158.673 29.9506 157.477 28.2402 156.77C25.6921 155.712 22.9441 155.221 20.1871 155.332C17.749 155.234 15.3365 155.86 13.2547 157.133C11.5189 158.235 10.1469 159.824 9.31057 161.702C8.4786 163.66 8.10292 165.782 8.21192 167.907C8.28706 170.245 8.82866 172.545 9.80495 174.672C10.8449 176.975 12.2844 179.076 14.0567 180.877C15.9566 182.87 18.281 184.409 20.8573 185.38Z" fill="white"/>
<path d="M83.9743 222.205C84.2006 222.187 84.428 222.22 84.6405 222.299C84.853 222.379 85.0456 222.504 85.2048 222.666C85.469 222.945 85.6181 223.314 85.6223 223.698C85.6189 223.891 85.5762 224.081 85.4969 224.257C85.4175 224.432 85.3032 224.59 85.1608 224.72C85.005 224.873 84.8194 224.994 84.6153 225.073C84.4112 225.152 84.1931 225.189 83.9743 225.181H73.5921C73.19 225.176 72.802 225.032 72.4935 224.775C72.1538 224.502 71.9332 224.108 71.8782 223.676V221.699C70.5103 222.909 68.97 223.908 67.3079 224.665C65.1183 225.576 62.7564 226 60.3864 225.906C58.8093 225.893 57.2457 225.614 55.7612 225.082C54.2075 224.545 52.7661 223.726 51.5094 222.666C50.2066 221.558 49.1416 220.198 48.3783 218.668C47.4961 216.792 47.0776 214.731 47.1579 212.66C47.2382 210.588 47.815 208.566 48.8397 206.763C49.9809 204.949 51.5263 203.423 53.3551 202.304C55.3377 201.103 57.5058 200.238 59.7712 199.745C62.1603 199.197 64.6039 198.92 67.0552 198.922C68.0806 198.922 69.0035 198.955 69.8238 199.02L71.8782 199.229V191.948C71.8782 190.377 71.8782 188.785 71.8782 187.17C71.9253 185.726 71.8036 184.281 71.5157 182.865C71.2945 181.721 70.8009 180.648 70.0765 179.735C69.6752 179.303 69.1808 178.967 68.6307 178.754C68.0807 178.541 67.4893 178.456 66.9014 178.505C65.4542 178.505 64.0159 178.731 62.6387 179.175C61.4019 179.548 60.2645 180.194 59.3098 181.064C58.8986 181.427 58.5642 181.868 58.3265 182.363C58.0887 182.857 57.9524 183.394 57.9255 183.941C57.9716 185.35 58.5577 186.687 59.5624 187.675C60.3743 188.614 60.9238 189.751 61.1555 190.97C61.3305 191.972 61.224 193.002 60.8479 193.946C60.4589 194.842 59.8176 195.605 59.0021 196.143C58.1671 196.719 57.1911 197.057 56.1786 197.12C55.3243 197.259 54.4498 197.204 53.6199 196.958C52.79 196.712 52.0263 196.283 51.3854 195.701C50.7446 195.12 50.2431 194.401 49.9184 193.599C49.5937 192.797 49.4541 191.932 49.5099 191.069C49.5446 189.521 49.8572 187.992 50.4327 186.555C51.0925 184.84 52.1071 183.283 53.4101 181.986C54.9506 180.471 56.7818 179.283 58.7934 178.494C61.3977 177.504 64.171 177.033 66.9563 177.11C72.0833 177.11 75.7931 178.326 78.0856 180.756C80.3781 183.187 81.5243 186.998 81.5243 192.189L81.6232 214.967C81.6232 215.791 81.6232 216.626 81.7331 217.482C81.792 218.277 81.9095 219.066 82.0846 219.843C82.2209 220.464 82.4664 221.055 82.8097 221.59C82.9382 221.78 83.1117 221.936 83.3148 222.043C83.518 222.15 83.7445 222.206 83.9743 222.205ZM64.0669 223.237C65.6751 223.286 67.2675 222.907 68.6812 222.139C69.8634 221.478 70.9378 220.641 71.8672 219.657V201.316C71.3012 201.052 70.7175 200.829 70.1204 200.646C69.1188 200.372 68.0819 200.25 67.0442 200.283C63.6164 200.283 61.0786 201.459 59.3537 203.787C57.6288 206.115 56.8378 209.278 56.8378 213.276C56.8378 216.783 57.4897 219.324 58.7934 220.898C59.4287 221.672 60.2365 222.287 61.1523 222.693C62.068 223.1 63.0662 223.286 64.0669 223.237Z" fill="white"/>
<path d="M128.107 222.205C128.333 222.187 128.56 222.22 128.773 222.299C128.985 222.379 129.178 222.504 129.337 222.666C129.598 222.946 129.744 223.315 129.744 223.698C129.74 223.891 129.698 224.081 129.618 224.257C129.539 224.432 129.425 224.59 129.282 224.72C129.128 224.873 128.944 224.992 128.742 225.072C128.54 225.151 128.324 225.188 128.107 225.181H114.923C114.697 225.198 114.469 225.166 114.257 225.086C114.044 225.006 113.852 224.881 113.692 224.72C113.432 224.443 113.287 224.078 113.286 223.698C113.286 223.315 113.431 222.946 113.692 222.666C113.852 222.504 114.044 222.379 114.257 222.299C114.469 222.22 114.697 222.187 114.923 222.205C115.134 222.201 115.34 222.142 115.521 222.035C115.702 221.927 115.852 221.773 115.956 221.59C116.255 221.1 116.463 220.561 116.571 219.997C116.712 219.271 116.814 218.538 116.879 217.801C116.944 216.977 116.977 216.186 116.977 215.439V187.225C116.977 186.401 116.977 185.622 116.879 184.864C116.821 184.173 116.646 183.497 116.362 182.865C116.061 182.254 115.577 181.751 114.978 181.426C114.169 181.017 113.268 180.824 112.363 180.866C111.188 180.844 110.019 181.053 108.924 181.481C107.978 181.86 107.093 182.379 106.299 183.019C105.589 183.589 104.955 184.246 104.409 184.974C103.896 185.655 103.468 186.27 103.124 186.819V215.439C103.124 216.186 103.124 216.977 103.178 217.801C103.199 218.542 103.302 219.279 103.486 219.997C103.612 220.562 103.835 221.101 104.145 221.59C104.248 221.774 104.397 221.928 104.579 222.036C104.76 222.144 104.967 222.202 105.178 222.205C105.404 222.188 105.631 222.221 105.844 222.3C106.056 222.38 106.249 222.505 106.408 222.666C106.67 222.946 106.815 223.315 106.815 223.698C106.812 223.891 106.769 224.081 106.69 224.257C106.61 224.432 106.496 224.59 106.354 224.72C106.199 224.873 106.016 224.992 105.813 225.072C105.611 225.151 105.395 225.188 105.178 225.181H91.2582C91.0319 225.198 90.8045 225.166 90.592 225.086C90.3795 225.006 90.1869 224.881 90.0277 224.72C89.7673 224.443 89.6219 224.078 89.6212 223.698C89.6213 223.315 89.7666 222.946 90.0277 222.666C90.1869 222.504 90.3795 222.379 90.592 222.299C90.8045 222.22 91.0319 222.187 91.2582 222.205C91.4622 222.203 91.6618 222.145 91.8345 222.036C92.0072 221.927 92.1462 221.773 92.236 221.59C92.5165 221.091 92.7238 220.555 92.8512 219.997C93.035 219.279 93.1381 218.542 93.1588 217.801C93.1588 216.977 93.2138 216.186 93.2138 215.439V187.434C93.2141 187.046 93.1077 186.666 92.9062 186.336C92.7017 186.001 92.4583 185.691 92.1811 185.413C91.9079 185.134 91.5973 184.893 91.2582 184.699C90.7493 184.499 90.2942 184.183 89.9288 183.777C89.8304 183.626 89.7657 183.455 89.7392 183.277C89.7126 183.099 89.7249 182.917 89.775 182.744C89.8739 182.404 90.3353 182.03 91.1593 181.646L94.1916 180.262C95.1804 179.823 96.1032 179.457 96.9601 179.164C97.8171 178.845 98.5532 178.593 99.1574 178.384L100.388 177.978C101.111 177.681 101.867 177.475 102.64 177.363C102.981 177.363 103.157 178.154 103.157 179.724V184.238C103.699 183.463 104.297 182.729 104.947 182.041C105.822 181.111 106.786 180.269 107.826 179.526C110.502 177.614 113.721 176.609 117.01 176.66C118.691 176.579 120.366 176.911 121.888 177.626C123.009 178.218 123.961 179.083 124.657 180.141C125.309 181.186 125.728 182.358 125.887 183.579C126.052 184.82 126.137 186.071 126.14 187.324V215.439C126.14 216.186 126.14 216.977 126.195 217.801C126.221 218.538 126.305 219.273 126.448 219.997C126.55 220.562 126.759 221.102 127.063 221.59C127.167 221.776 127.318 221.931 127.501 222.039C127.685 222.147 127.894 222.204 128.107 222.205Z" fill="white"/>
<path d="M147.289 196.769C149.618 197.79 152.002 198.823 154.43 199.844C156.694 200.784 158.874 201.915 160.945 203.227C162.74 204.352 164.333 205.77 165.658 207.422C166.898 209.002 167.554 210.961 167.515 212.968C167.62 215.274 167.01 217.557 165.768 219.503C164.634 221.144 163.128 222.495 161.374 223.446C159.569 224.43 157.606 225.092 155.573 225.401C153.605 225.73 151.614 225.902 149.618 225.917C147.7 225.89 145.791 225.647 143.927 225.192C141.869 224.734 139.884 223.995 138.028 222.995C136.255 222.063 134.683 220.79 133.402 219.25C132.184 217.783 131.529 215.929 131.557 214.023C131.537 212.765 131.8 211.519 132.326 210.376C132.804 209.373 133.489 208.482 134.336 207.763C135.114 207.084 136.076 206.654 137.1 206.527C138.124 206.4 139.162 206.581 140.082 207.049C140.981 207.406 141.748 208.031 142.279 208.839C142.679 209.526 142.891 210.306 142.894 211.101C142.882 211.926 142.671 212.736 142.279 213.462C141.841 214.272 141.286 215.012 140.631 215.659C140.232 215.99 139.931 216.424 139.761 216.914C139.59 217.403 139.557 217.93 139.665 218.438C139.956 219.483 140.611 220.39 141.51 220.997C142.618 221.812 143.845 222.452 145.147 222.897C146.596 223.413 148.124 223.673 149.662 223.665C151.986 223.767 154.285 223.158 156.254 221.919C157.808 220.969 158.946 219.466 159.44 217.713C159.621 216.812 159.617 215.885 159.428 214.986C159.239 214.087 158.869 213.237 158.341 212.485C157.213 210.64 155.108 209.033 152.024 207.664C150.453 206.983 148.574 206.17 146.377 205.248C144.187 204.328 142.094 203.195 140.126 201.865C138.196 200.591 136.467 199.036 134.995 197.252C133.543 195.514 132.763 193.312 132.798 191.047C132.721 189.174 133.048 187.306 133.757 185.57C134.466 183.834 135.54 182.271 136.907 180.987C139.646 178.461 143.887 177.198 149.629 177.198C152.019 177.157 154.397 177.529 156.66 178.296C158.488 178.908 160.205 179.809 161.747 180.965C163.012 181.912 164.061 183.118 164.823 184.501C165.46 185.63 165.81 186.897 165.845 188.192C165.893 189.574 165.665 190.951 165.175 192.244C164.812 193.197 164.215 194.043 163.439 194.704C162.765 195.276 161.949 195.655 161.077 195.803C160.259 195.952 159.415 195.844 158.66 195.495C157.856 195.238 157.136 194.769 156.578 194.137C156.019 193.504 155.641 192.733 155.485 191.904C155.133 190.201 155.858 188.455 157.682 186.676C158.427 185.995 158.945 185.102 159.165 184.117C159.252 183.675 159.238 183.22 159.124 182.784C159.01 182.349 158.799 181.945 158.506 181.602C157.68 180.675 156.61 179.998 155.419 179.647C153.559 179.077 151.618 178.817 149.673 178.878C146.531 178.878 144.224 179.633 142.752 181.141C141.326 182.536 140.499 184.43 140.445 186.423C140.429 188.643 141.074 190.818 142.296 192.671C143.519 194.525 145.264 195.974 147.311 196.835L147.289 196.769Z" fill="white"/>
<path d="M60.1886 247.992C60.5877 248.608 60.7837 249.334 60.7489 250.067V266.19C60.7507 266.471 60.6951 266.749 60.5856 267.008C60.476 267.267 60.3147 267.5 60.1117 267.694C59.9199 267.898 59.6882 268.059 59.4311 268.169C59.174 268.278 58.897 268.334 58.6176 268.331C58.347 268.339 58.0783 268.285 57.8312 268.175C57.5841 268.065 57.3647 267.9 57.1893 267.694C56.8154 267.283 56.6112 266.746 56.618 266.19C56.618 263.719 56.5631 261.456 56.4752 259.414C56.4168 257.479 55.713 255.62 54.4757 254.131C52.7872 252.4 50.6233 251.207 48.2574 250.704C44.0661 249.766 39.7731 249.36 35.4802 249.496H20.209V292.878H32.1952C32.9643 292.878 34.0739 292.878 35.5571 292.735C37.0966 292.629 38.6113 292.292 40.0505 291.735C41.5946 291.154 42.9533 290.168 43.9837 288.88C45.1736 287.227 45.7523 285.212 45.6206 283.18C45.5797 282.908 45.6033 282.63 45.6893 282.369C45.7753 282.108 45.9215 281.871 46.116 281.676C46.3105 281.482 46.5479 281.336 46.8091 281.25C47.0704 281.164 47.3482 281.14 47.6202 281.181C48.1723 281.177 48.7057 281.381 49.1143 281.752C49.3218 281.927 49.4877 282.146 49.5998 282.393C49.7119 282.64 49.7675 282.909 49.7625 283.18V304.87C49.7486 305.434 49.5184 305.971 49.1196 306.369C48.7208 306.768 48.184 306.998 47.6202 307.012C47.3489 307.017 47.0799 306.962 46.8328 306.849C46.5857 306.737 46.3668 306.572 46.1919 306.364C45.8205 305.956 45.6166 305.422 45.6206 304.87C45.7503 302.835 45.1719 300.817 43.9837 299.16C42.9503 297.875 41.5925 296.889 40.0505 296.304C38.6095 295.753 37.0957 295.417 35.5571 295.305C34.0739 295.217 32.9643 295.162 32.1952 295.162H20.209V342.694H35.4802C39.7738 342.833 44.0676 342.424 48.2574 341.475C50.6266 340.981 52.7929 339.788 54.4757 338.049C55.7129 336.564 56.4169 334.708 56.4752 332.777C56.5631 330.723 56.618 328.472 56.618 325.99C56.5796 325.719 56.6047 325.442 56.6916 325.182C56.7785 324.922 56.9247 324.685 57.1186 324.492C57.3126 324.298 57.5489 324.152 57.8091 324.065C58.0692 323.978 58.346 323.953 58.6176 323.991C59.1697 323.987 59.7031 324.191 60.1117 324.562C60.3166 324.739 60.48 324.958 60.5901 325.205C60.7003 325.452 60.7545 325.72 60.7489 325.99V342.123C60.7851 342.854 60.5889 343.576 60.1886 344.188C59.9148 344.489 59.5713 344.719 59.1883 344.856C58.8053 344.994 58.3943 345.036 57.9913 344.979H3.6415C3.326 345 3.00955 344.954 2.71376 344.842C2.41798 344.73 2.14982 344.556 1.92762 344.331C1.56212 343.945 1.3584 343.434 1.3584 342.903C1.3584 342.372 1.56212 341.861 1.92762 341.475C2.15079 341.252 2.41938 341.08 2.71512 340.97C3.01086 340.86 3.32682 340.815 3.6415 340.838C4.03467 340.822 4.41255 340.682 4.72059 340.437C5.02864 340.192 5.25093 339.856 5.35538 339.477C5.77733 338.422 6.04379 337.313 6.1464 336.182C6.29085 334.828 6.36054 333.468 6.35515 332.107V260.336C6.3597 258.305 6.19433 256.277 5.86076 254.274C5.52018 252.319 4.76212 251.352 3.66348 251.352C3.34798 251.374 3.03153 251.327 2.73574 251.216C2.43995 251.104 2.17178 250.929 1.94958 250.704C1.58408 250.319 1.38038 249.808 1.38038 249.277C1.38038 248.745 1.58408 248.235 1.94958 247.849C2.17275 247.626 2.44136 247.454 2.7371 247.344C3.03284 247.234 3.3488 247.189 3.66348 247.212H58.0682C58.458 247.169 58.8525 247.216 59.2205 247.352C59.5885 247.487 59.92 247.706 60.1886 247.992Z" fill="white"/>
<path d="M102.585 278.04C104.505 278.126 106.392 278.562 108.155 279.325C110.663 280.423 112.849 282.143 114.506 284.322C116.896 287.455 118.668 291.014 119.724 294.81C121.189 299.328 121.903 305.204 121.866 312.437C121.83 319.671 121.119 325.499 119.735 329.922C118.682 333.632 116.908 337.099 114.517 340.125C112.854 342.229 110.663 343.855 108.166 344.836C106.381 345.501 104.5 345.872 102.596 345.934C100.522 345.962 98.4544 345.696 96.4549 345.144C94.8048 344.691 93.2232 344.019 91.7527 343.145C90.5286 342.433 89.3991 341.569 88.3908 340.575C87.602 339.795 86.8679 338.962 86.1935 338.082V355.489C86.1935 356.445 86.1935 357.774 86.2595 359.487C86.3021 361.185 86.4452 362.879 86.6879 364.561C86.885 366.047 87.1972 367.516 87.6218 368.954C87.9953 370.195 88.5227 370.81 89.1928 370.81C89.5075 370.787 89.8235 370.832 90.1192 370.942C90.415 371.052 90.6835 371.224 90.9067 371.447C91.263 371.838 91.4659 372.345 91.478 372.875C91.4731 373.144 91.413 373.41 91.3016 373.655C91.1901 373.901 91.0296 374.121 90.8298 374.302C90.6164 374.517 90.3608 374.686 90.0791 374.797C89.7974 374.909 89.4956 374.961 89.1928 374.95H69.7469C69.4314 374.972 69.1149 374.925 68.8191 374.813C68.5233 374.702 68.2552 374.527 68.033 374.302C67.665 373.918 67.4596 373.407 67.4596 372.875C67.4596 372.343 67.665 371.831 68.033 371.447C68.2562 371.224 68.5248 371.052 68.8205 370.942C69.1162 370.832 69.4322 370.787 69.7469 370.81C70.3182 370.81 70.7906 370.217 71.1751 369.031C71.5963 367.656 71.8833 366.243 72.032 364.813C72.2231 363.155 72.3185 361.486 72.3177 359.816V292.306C72.3289 291.777 72.1796 291.256 71.8892 290.813C71.5971 290.374 71.2622 289.966 70.8894 289.594C70.5049 289.22 70.0765 288.836 69.604 288.495C68.8907 288.223 68.2538 287.782 67.7473 287.21C67.611 287.004 67.5216 286.77 67.4856 286.525C67.4495 286.28 67.4676 286.031 67.5386 285.794C67.6814 285.31 68.3186 284.794 69.4612 284.223C72.2152 282.883 74.8812 281.741 77.4593 280.797C80.0302 279.841 81.6452 279.27 82.3153 279.083C83.3329 278.729 84.3868 278.49 85.4575 278.37C85.9299 278.37 86.1716 279.468 86.1716 281.664V286.793C86.7429 286.061 87.4753 285.182 88.3689 284.157C89.3714 283.075 90.5 282.116 91.7307 281.302C93.1921 280.339 94.7729 279.571 96.4329 279.017C98.4161 278.356 100.495 278.026 102.585 278.04ZM98.5862 343.123C99.6265 343.166 100.66 342.939 101.586 342.463C102.513 341.988 103.3 341.28 103.871 340.41C105.256 338.234 106.204 335.81 106.661 333.271C107.301 330.013 107.669 326.707 107.76 323.387C107.899 319.77 107.969 316.109 107.969 312.405V301.202C107.994 297.81 107.755 294.421 107.255 291.065C106.92 288.442 105.992 285.929 104.541 283.718C103.868 282.77 102.964 282.009 101.913 281.51C100.863 281.01 99.7028 280.787 98.5423 280.863C96.9614 280.832 95.3957 281.175 93.9719 281.862C92.6789 282.497 91.4987 283.339 90.4782 284.355C89.4899 285.344 88.6265 286.451 87.9074 287.65C87.1933 288.836 86.6 289.912 86.1276 290.857V333.821C86.7868 334.677 87.5998 335.655 88.5556 336.742C89.4906 337.828 90.4923 338.855 91.5549 339.817C92.5634 340.745 93.6901 341.535 94.9058 342.167C96.0332 342.789 97.2987 343.117 98.5862 343.123Z" fill="white"/>
<path d="M151.848 340.838C152.163 340.815 152.479 340.86 152.775 340.97C153.07 341.08 153.339 341.252 153.562 341.475C153.919 341.867 154.121 342.374 154.134 342.903C154.129 343.173 154.069 343.438 153.957 343.684C153.846 343.93 153.685 344.15 153.485 344.331C153.272 344.546 153.016 344.714 152.735 344.826C152.453 344.937 152.151 344.99 151.848 344.979H132.424C132.109 345 131.792 344.954 131.497 344.842C131.201 344.73 130.933 344.556 130.71 344.331C130.345 343.945 130.141 343.434 130.141 342.903C130.141 342.372 130.345 341.861 130.71 341.475C130.934 341.252 131.202 341.08 131.498 340.97C131.794 340.86 132.11 340.815 132.424 340.838C133.468 340.838 134.259 339.938 134.786 338.126C135.311 336.268 135.574 334.345 135.566 332.415V291.878C135.576 291.338 135.402 290.812 135.072 290.384C134.73 289.957 134.363 289.55 133.973 289.165C133.501 288.792 132.974 288.408 132.402 288.067C131.689 287.794 131.052 287.354 130.546 286.782C130.409 286.576 130.32 286.342 130.284 286.097C130.248 285.852 130.266 285.602 130.337 285.365C130.48 284.882 131.117 284.366 132.26 283.795C135.116 282.455 137.804 281.313 140.324 280.368C142.85 279.413 144.443 278.842 145.114 278.655L147.036 278.007C147.352 277.869 147.705 277.846 148.036 277.941C148.278 278.029 148.421 278.315 148.465 278.798C148.519 279.27 148.541 280.083 148.541 281.225V333.03C148.613 334.845 148.923 336.644 149.464 338.378C150.014 340.004 150.794 340.838 151.848 340.838ZM141.279 274.471C140.274 274.486 139.275 274.3 138.343 273.923C137.411 273.545 136.564 272.985 135.852 272.274C135.121 271.558 134.541 270.704 134.144 269.761C133.748 268.818 133.544 267.806 133.544 266.783C133.544 265.76 133.748 264.748 134.144 263.805C134.541 262.862 135.121 262.007 135.852 261.292C136.564 260.581 137.411 260.021 138.343 259.643C139.275 259.266 140.274 259.08 141.279 259.095C143.319 259.095 145.275 259.905 146.717 261.347C148.16 262.789 148.97 264.744 148.97 266.783C148.97 268.822 148.16 270.777 146.717 272.219C145.275 273.661 143.319 274.471 141.279 274.471Z" fill="white"/>
<path d="M215.669 340.838C215.983 340.815 216.299 340.86 216.595 340.97C216.891 341.08 217.159 341.252 217.382 341.475C217.739 341.867 217.942 342.374 217.954 342.903C217.949 343.173 217.889 343.438 217.777 343.684C217.666 343.93 217.505 344.15 217.306 344.331C217.092 344.546 216.837 344.714 216.555 344.826C216.273 344.937 215.971 344.99 215.669 344.979H197.387C197.072 345 196.755 344.954 196.459 344.842C196.164 344.73 195.895 344.556 195.673 344.331C195.308 343.945 195.104 343.434 195.104 342.903C195.104 342.372 195.308 341.861 195.673 341.475C195.896 341.252 196.165 341.08 196.461 340.97C196.757 340.86 197.072 340.815 197.387 340.838C197.679 340.832 197.964 340.75 198.215 340.599C198.465 340.449 198.672 340.236 198.815 339.982C199.24 339.312 199.531 338.566 199.672 337.785C199.875 336.773 200.018 335.75 200.101 334.721C200.2 333.623 200.244 332.525 200.244 331.426V292.164C200.244 291.065 200.244 289.967 200.101 288.869C200.027 287.908 199.785 286.968 199.387 286.09C198.964 285.244 198.293 284.547 197.464 284.091C196.335 283.523 195.079 283.255 193.817 283.312C192.183 283.28 190.558 283.571 189.037 284.168C187.726 284.698 186.5 285.42 185.401 286.31C184.41 287.098 183.521 288.005 182.753 289.012C182.021 289.971 181.428 290.827 180.973 291.582V331.415C180.973 332.514 180.973 333.612 181.039 334.71C181.068 335.744 181.212 336.772 181.468 337.774C181.657 338.553 181.972 339.295 182.402 339.971C182.544 340.226 182.751 340.439 183.001 340.59C183.252 340.74 183.538 340.822 183.83 340.827C184.145 340.804 184.461 340.849 184.756 340.959C185.052 341.069 185.321 341.241 185.544 341.464C185.9 341.856 186.103 342.363 186.115 342.892C186.11 343.162 186.05 343.427 185.939 343.673C185.827 343.919 185.667 344.139 185.467 344.32C185.253 344.535 184.998 344.703 184.716 344.815C184.434 344.926 184.133 344.979 183.83 344.968H164.406C164.09 344.99 163.774 344.943 163.478 344.831C163.182 344.719 162.914 344.545 162.692 344.32C162.324 343.936 162.119 343.424 162.119 342.892C162.119 342.36 162.324 341.849 162.692 341.464C162.915 341.241 163.184 341.069 163.48 340.959C163.775 340.849 164.091 340.804 164.406 340.827C164.69 340.824 164.968 340.743 165.208 340.591C165.449 340.44 165.642 340.225 165.768 339.971C166.147 339.278 166.435 338.54 166.625 337.774C166.871 336.77 167.014 335.743 167.054 334.71C167.054 333.612 167.12 332.514 167.12 331.415V292.449C167.124 291.896 166.976 291.353 166.691 290.879C166.411 290.411 166.075 289.98 165.691 289.594C165.302 289.213 164.871 288.878 164.406 288.594C163.693 288.322 163.056 287.881 162.549 287.309C162.413 287.101 162.323 286.865 162.287 286.619C162.251 286.372 162.269 286.12 162.34 285.882C162.483 285.409 163.121 284.893 164.263 284.322C165.691 283.652 167.098 283.015 168.482 282.389C169.866 281.763 171.141 281.291 172.327 280.819C173.514 280.346 174.524 280.039 175.403 279.72L177.117 279.149C178.124 278.732 179.18 278.444 180.259 278.293C180.732 278.293 180.973 279.391 180.973 281.587V287.858C181.725 286.774 182.558 285.75 183.467 284.794C184.684 283.503 186.023 282.334 187.466 281.302C189.176 280.086 191.052 279.125 193.037 278.446C195.357 277.667 197.796 277.296 200.244 277.348C202.58 277.237 204.907 277.701 207.022 278.699C208.589 279.514 209.918 280.721 210.878 282.202C211.797 283.648 212.382 285.28 212.592 286.98C212.832 288.705 212.953 290.444 212.955 292.186V331.415C212.955 332.514 212.955 333.612 213.021 334.71C213.051 335.74 213.173 336.766 213.383 337.774C213.525 338.555 213.816 339.301 214.24 339.971C214.381 340.228 214.587 340.444 214.838 340.596C215.089 340.748 215.375 340.832 215.669 340.838Z" fill="white"/>
<path d="M270.249 294.184C270.359 297.399 269.672 300.591 268.25 303.476C267.027 305.833 265.265 307.869 263.108 309.417C260.964 310.92 258.573 312.035 256.044 312.712C253.494 313.415 250.893 313.918 248.265 314.217C245.848 314.495 243.415 314.616 240.981 314.579C238.696 314.524 236.839 314.502 235.411 314.502C235.422 317.489 235.59 320.473 235.917 323.442C236.216 326.492 236.887 329.495 237.916 332.382C238.782 334.93 240.166 337.27 241.981 339.257C242.843 340.16 243.888 340.869 245.045 341.336C246.202 341.804 247.446 342.02 248.694 341.97C251.844 342.075 254.982 341.513 257.9 340.322C260.108 339.389 262.081 337.979 263.679 336.193C265.057 334.608 266.103 332.763 266.755 330.767C267.35 328.944 267.661 327.04 267.678 325.122C267.678 324.463 268.063 324.123 268.777 324.123C268.913 324.105 269.05 324.118 269.18 324.162C269.31 324.206 269.427 324.279 269.524 324.376C269.621 324.472 269.694 324.59 269.738 324.72C269.781 324.849 269.795 324.987 269.777 325.122C269.83 328.185 269.246 331.226 268.063 334.051C267.006 336.537 265.45 338.779 263.492 340.641C261.567 342.448 259.284 343.832 256.791 344.704C254.13 345.641 251.328 346.11 248.507 346.088C244.151 346.311 239.814 345.375 235.939 343.375C232.57 341.532 229.703 338.893 227.589 335.688C225.352 332.234 223.735 328.417 222.81 324.408C221.728 319.922 221.153 315.328 221.096 310.713C220.98 306.287 221.626 301.873 223.008 297.666C224.221 293.835 226.156 290.271 228.709 287.167C231.125 284.273 234.119 281.917 237.499 280.248C240.896 278.581 244.635 277.728 248.419 277.755C255.56 277.755 260.984 279.303 264.69 282.4C266.46 283.805 267.882 285.6 268.846 287.643C269.81 289.687 270.29 291.925 270.249 294.184ZM235.411 311.987C237.132 311.942 238.848 311.799 240.553 311.559C243.003 311.221 245.374 310.448 247.551 309.274C249.997 307.978 252.119 306.146 253.759 303.915C255.516 301.587 256.406 298.336 256.406 294.141C256.514 290.525 255.855 286.929 254.473 283.586C253.191 280.731 251.169 279.303 248.408 279.303C246.274 279.246 244.201 280.013 242.618 281.445C240.991 282.963 239.703 284.808 238.839 286.859C237.848 289.173 237.129 291.595 236.697 294.075C236.235 296.578 235.902 299.104 235.697 301.642C235.51 304.058 235.411 306.232 235.411 308.132V311.987Z" fill="white"/>
<path d="M298.902 305.442C302.146 306.906 305.442 308.334 308.789 309.725C311.943 311.034 314.979 312.61 317.864 314.436C320.376 315.998 322.605 317.973 324.456 320.279C326.167 322.473 327.074 325.186 327.027 327.967C327.172 331.169 326.324 334.337 324.599 337.038C323.038 339.32 320.96 341.202 318.534 342.53C316.022 343.89 313.294 344.808 310.47 345.242C307.732 345.698 304.962 345.937 302.187 345.956C299.517 345.917 296.861 345.582 294.265 344.957C291.404 344.305 288.643 343.271 286.059 341.882C283.59 340.592 281.405 338.822 279.631 336.676C277.933 334.633 277.021 332.051 277.061 329.395C277.036 327.645 277.412 325.913 278.159 324.332C278.819 322.931 279.77 321.688 280.95 320.685C282.034 319.746 283.374 319.15 284.798 318.974C286.223 318.798 287.667 319.049 288.948 319.697C290.179 320.197 291.224 321.069 291.936 322.19C292.495 323.143 292.791 324.227 292.793 325.331C292.781 326.483 292.487 327.614 291.936 328.626C291.337 329.759 290.566 330.792 289.651 331.69C289.097 332.149 288.679 332.751 288.441 333.43C288.203 334.109 288.154 334.84 288.3 335.545C288.713 336.998 289.623 338.261 290.871 339.114C294.174 341.504 298.142 342.802 302.22 342.826C305.442 342.959 308.629 342.113 311.36 340.399C313.508 339.068 315.076 336.978 315.755 334.545C316.014 333.293 316.014 332.001 315.755 330.749C315.496 329.497 314.984 328.311 314.25 327.264C312.675 324.694 309.745 322.457 305.461 320.554C303.263 319.609 300.648 318.489 297.605 317.259C294.56 315.973 291.646 314.395 288.904 312.547C286.222 310.766 283.817 308.601 281.763 306.122C279.765 303.695 278.701 300.633 278.764 297.49C278.764 291.691 280.668 287.031 284.476 283.509C288.285 279.988 294.185 278.227 302.176 278.227C305.496 278.163 308.803 278.668 311.953 279.72C314.492 280.579 316.88 281.831 319.029 283.432C320.789 284.748 322.246 286.426 323.302 288.353C324.191 289.924 324.682 291.688 324.731 293.493C324.793 295.416 324.479 297.334 323.808 299.138C323.295 300.463 322.461 301.641 321.38 302.564C320.433 303.345 319.295 303.86 318.084 304.058C316.949 304.251 315.783 304.102 314.733 303.629C313.619 303.268 312.623 302.614 311.849 301.734C311.076 300.855 310.554 299.783 310.338 298.632C309.855 296.26 310.855 293.833 313.338 291.351C314.371 290.397 315.091 289.153 315.403 287.782C315.521 287.168 315.499 286.535 315.339 285.93C315.18 285.326 314.886 284.765 314.48 284.289C313.331 283.006 311.848 282.067 310.196 281.576C307.609 280.769 304.906 280.398 302.198 280.478C297.803 280.478 294.606 281.522 292.562 283.619C290.581 285.561 289.427 288.194 289.343 290.967C289.326 294.057 290.226 297.082 291.929 299.661C293.633 302.24 296.063 304.255 298.913 305.453L298.902 305.442Z" fill="white"/>
</svg>
