<svg width="1438" height="1455" viewBox="0 0 1438 1455" fill="none" xmlns="http://www.w3.org/2000/svg">
    <path d="M1438 0H0V1189H1438V0Z" fill="#B62220"/>
    <path d="M712.5 466V478.75H711C711 474.3 710.1 471.325 708.3 469.825C706.55 468.275 703.7 467.5 699.75 467.5H693V487.15H696C699.6 487.15 701.875 486.7 702.825 485.8C703.775 484.9 704.25 483.1 704.25 480.4H705.75V495.4H704.25C704.25 492.6 703.775 490.775 702.825 489.925C701.875 489.075 699.6 488.65 696 488.65H693V506.5H697.5V508H678V506.5H681.75V467.5H678V466H712.5ZM732.771 506.5H736.521V508H717.771V506.5H721.521V459.25H717.771V457.75H732.771V506.5ZM756.794 506.5H760.544V508H741.794V506.5H745.544V475H742.544V473.5H756.794V506.5ZM757.469 463.6C757.469 465.4 756.819 466.95 755.519 468.25C754.269 469.5 752.719 470.125 750.869 470.125C749.069 470.125 747.519 469.5 746.219 468.25C744.919 466.95 744.269 465.4 744.269 463.6C744.269 461.75 744.919 460.175 746.219 458.875C747.519 457.575 749.069 456.925 750.869 456.925C752.719 456.925 754.269 457.575 755.519 458.875C756.819 460.175 757.469 461.75 757.469 463.6ZM784.567 508H765.817V506.5H769.567V475H765.817V473.5H780.817V482.425C781.267 479.975 782.067 477.975 783.217 476.425C784.417 474.875 785.717 473.85 787.117 473.35C788.567 472.85 789.942 472.6 791.242 472.6C792.592 472.6 793.867 472.85 795.067 473.35C796.317 473.8 797.242 474.75 797.842 476.2C798.442 477.6 798.467 479.025 797.917 480.475C797.367 481.875 796.392 482.875 794.992 483.475C793.642 484.075 792.392 484.15 791.242 483.7C790.092 483.25 789.267 482.65 788.767 481.9C788.267 481.1 787.917 480.35 787.717 479.65C787.217 477.8 786.542 476.875 785.692 476.875C784.742 476.875 783.692 478.525 782.542 481.825C781.392 485.075 780.817 488.525 780.817 492.175V506.5H784.567V508ZM815.872 475V493.3C815.872 497.6 816.047 500.225 816.397 501.175C816.747 502.075 817.122 502.85 817.522 503.5C818.272 504.8 819.572 505.45 821.422 505.45C823.322 505.45 824.647 505.2 825.397 504.7V506.2C822.997 507.9 820.372 508.75 817.522 508.75C813.322 508.75 810.122 507.75 807.922 505.75C805.722 503.75 804.622 500.175 804.622 495.025V475H799.072V473.5H804.622C807.022 473.1 809.147 471.95 810.997 470.05C812.847 468.1 814.122 465.425 814.822 462.025H815.872V473.5H824.572V475H815.872ZM862.322 493H839.672C840.172 501.8 843.597 506.2 849.947 506.2C851.647 506.2 853.572 505.8 855.722 505C857.922 504.2 859.522 503.075 860.522 501.625L861.572 502.375C860.472 504.225 858.597 505.75 855.947 506.95C853.297 508.15 850.647 508.75 847.997 508.75C845.397 508.75 843.047 508.5 840.947 508C838.847 507.45 836.797 506.55 834.797 505.3C832.797 504.05 831.222 502.175 830.072 499.675C828.972 497.175 828.422 494.15 828.422 490.6C828.422 484.55 830.097 480.075 833.447 477.175C836.797 474.225 840.847 472.75 845.597 472.75C850.397 472.75 854.372 474.35 857.522 477.55C860.722 480.75 862.322 485.9 862.322 493ZM839.597 491.5H851.822C851.822 486.9 851.322 482.875 850.322 479.425C849.372 475.975 847.822 474.25 845.672 474.25C843.522 474.25 841.972 475.925 841.022 479.275C840.072 482.575 839.597 486.375 839.597 490.675V491.5ZM900.759 507.4C905.959 507.4 908.559 505.975 908.559 503.125C908.559 501.525 907.659 500.225 905.859 499.225C904.059 498.175 901.884 497.325 899.334 496.675C896.784 496.025 894.259 495.275 891.759 494.425C889.309 493.575 887.259 492.225 885.609 490.375C884.009 488.525 883.359 486.1 883.659 483.1C883.959 480.1 885.484 477.625 888.234 475.675C891.034 473.725 894.459 472.75 898.509 472.75C902.609 472.75 905.909 473.4 908.409 474.7C910.909 476 912.309 477.75 912.609 479.95C912.809 481.3 912.584 482.55 911.934 483.7C911.334 484.85 910.309 485.45 908.859 485.5C907.459 485.55 906.284 485.175 905.334 484.375C904.434 483.575 904.009 482.65 904.059 481.6C904.109 480.55 904.509 479.625 905.259 478.825C906.009 477.975 906.384 477.3 906.384 476.8C906.384 475.95 905.559 475.325 903.909 474.925C902.309 474.475 900.434 474.25 898.284 474.25C896.184 474.25 894.459 474.725 893.109 475.675C891.759 476.625 891.084 477.8 891.084 479.2C891.084 480.6 891.909 481.8 893.559 482.8C895.259 483.8 897.309 484.625 899.709 485.275C902.109 485.875 904.484 486.575 906.834 487.375C909.234 488.125 911.259 489.35 912.909 491.05C914.609 492.75 915.459 494.9 915.459 497.5C915.459 500.95 914.234 503.725 911.784 505.825C909.334 507.875 905.634 508.9 900.684 508.9C895.734 508.9 891.709 508.15 888.609 506.65C885.559 505.15 883.884 503.225 883.584 500.875C883.384 499.525 883.609 498.275 884.259 497.125C884.909 495.975 885.934 495.375 887.334 495.325C888.734 495.275 889.884 495.65 890.784 496.45C891.734 497.25 892.184 498.175 892.134 499.225C892.084 500.275 891.684 501.225 890.934 502.075C890.184 502.875 889.809 503.525 889.809 504.025C889.809 505.025 890.959 505.85 893.259 506.5C895.609 507.1 898.109 507.4 900.759 507.4ZM955.854 506.5C955.354 507 954.404 507.45 953.004 507.85C951.604 508.2 949.979 508.375 948.129 508.375C944.029 508.375 941.454 507.15 940.404 504.7C937.904 507.3 934.079 508.6 928.929 508.6C926.179 508.6 923.904 507.975 922.104 506.725C920.354 505.425 919.479 503.525 919.479 501.025C919.479 497.675 920.779 495.1 923.379 493.3C925.979 491.45 930.529 490.15 937.029 489.4L940.029 489.025V485.35C940.029 481 939.704 478.075 939.054 476.575C938.404 475.075 937.104 474.325 935.154 474.325C933.254 474.325 932.029 474.6 931.479 475.15C930.929 475.65 930.729 476.25 930.879 476.95C931.029 477.6 931.279 478.475 931.629 479.575C931.979 480.675 932.154 481.55 932.154 482.2C932.154 483.75 931.604 485.075 930.504 486.175C929.454 487.225 928.154 487.75 926.604 487.75C925.104 487.75 923.804 487.225 922.704 486.175C921.604 485.075 921.054 483.75 921.054 482.2C921.054 479.65 922.354 477.475 924.954 475.675C927.604 473.825 931.529 472.9 936.729 472.9C941.979 472.9 945.704 473.925 947.904 475.975C950.154 478.025 951.279 481.65 951.279 486.85V500.35C951.279 503 951.604 504.675 952.254 505.375C952.904 506.025 954.104 506.15 955.854 505.75V506.5ZM929.904 499.525C930.154 501.425 930.854 502.9 932.004 503.95C933.154 504.95 934.479 505.45 935.979 505.45C937.529 505.45 938.879 504.7 940.029 503.2V490.45L937.329 490.825C935.029 491.125 933.154 492 931.704 493.45C930.304 494.9 929.704 496.925 929.904 499.525ZM999.724 506.5H1003.47V508H984.724V506.5H988.474V485.5C988.474 481.95 987.949 479.425 986.899 477.925C985.849 476.425 984.274 475.675 982.174 475.675C979.324 475.675 977.049 477.175 975.349 480.175V506.5H979.099V508H960.349V506.5H964.099V475H960.349V473.5H975.349V477.4C976.299 476.1 977.774 475 979.774 474.1C981.824 473.15 984.024 472.675 986.374 472.675C995.274 472.675 999.724 477.5 999.724 487.15V506.5ZM1025.56 507.4C1030.76 507.4 1033.36 505.975 1033.36 503.125C1033.36 501.525 1032.46 500.225 1030.66 499.225C1028.86 498.175 1026.69 497.325 1024.14 496.675C1021.59 496.025 1019.06 495.275 1016.56 494.425C1014.11 493.575 1012.06 492.225 1010.41 490.375C1008.81 488.525 1008.16 486.1 1008.46 483.1C1008.76 480.1 1010.29 477.625 1013.04 475.675C1015.84 473.725 1019.26 472.75 1023.31 472.75C1027.41 472.75 1030.71 473.4 1033.21 474.7C1035.71 476 1037.11 477.75 1037.41 479.95C1037.61 481.3 1037.39 482.55 1036.74 483.7C1036.14 484.85 1035.11 485.45 1033.66 485.5C1032.26 485.55 1031.09 485.175 1030.14 484.375C1029.24 483.575 1028.81 482.65 1028.86 481.6C1028.91 480.55 1029.31 479.625 1030.06 478.825C1030.81 477.975 1031.19 477.3 1031.19 476.8C1031.19 475.95 1030.36 475.325 1028.71 474.925C1027.11 474.475 1025.24 474.25 1023.09 474.25C1020.99 474.25 1019.26 474.725 1017.91 475.675C1016.56 476.625 1015.89 477.8 1015.89 479.2C1015.89 480.6 1016.71 481.8 1018.36 482.8C1020.06 483.8 1022.11 484.625 1024.51 485.275C1026.91 485.875 1029.29 486.575 1031.64 487.375C1034.04 488.125 1036.06 489.35 1037.71 491.05C1039.41 492.75 1040.26 494.9 1040.26 497.5C1040.26 500.95 1039.04 503.725 1036.59 505.825C1034.14 507.875 1030.44 508.9 1025.49 508.9C1020.54 508.9 1016.51 508.15 1013.41 506.65C1010.36 505.15 1008.69 503.225 1008.39 500.875C1008.19 499.525 1008.41 498.275 1009.06 497.125C1009.71 495.975 1010.74 495.375 1012.14 495.325C1013.54 495.275 1014.69 495.65 1015.59 496.45C1016.54 497.25 1016.99 498.175 1016.94 499.225C1016.89 500.275 1016.49 501.225 1015.74 502.075C1014.99 502.875 1014.61 503.525 1014.61 504.025C1014.61 505.025 1015.76 505.85 1018.06 506.5C1020.41 507.1 1022.91 507.4 1025.56 507.4ZM1093.55 493H1070.9C1071.4 501.8 1074.82 506.2 1081.17 506.2C1082.87 506.2 1084.8 505.8 1086.95 505C1089.15 504.2 1090.75 503.075 1091.75 501.625L1092.8 502.375C1091.7 504.225 1089.82 505.75 1087.17 506.95C1084.52 508.15 1081.87 508.75 1079.22 508.75C1076.62 508.75 1074.27 508.5 1072.17 508C1070.07 507.45 1068.02 506.55 1066.02 505.3C1064.02 504.05 1062.45 502.175 1061.3 499.675C1060.2 497.175 1059.65 494.15 1059.65 490.6C1059.65 484.55 1061.32 480.075 1064.67 477.175C1068.02 474.225 1072.07 472.75 1076.82 472.75C1081.62 472.75 1085.6 474.35 1088.75 477.55C1091.95 480.75 1093.55 485.9 1093.55 493ZM1070.82 491.5H1083.05C1083.05 486.9 1082.55 482.875 1081.55 479.425C1080.6 475.975 1079.05 474.25 1076.9 474.25C1074.75 474.25 1073.2 475.925 1072.25 479.275C1071.3 482.575 1070.82 486.375 1070.82 490.675V491.5ZM1075.92 470.425L1074.87 469.675C1075.72 468.425 1076.25 466.875 1076.45 465.025C1076.7 463.175 1077.17 461.775 1077.87 460.825C1078.57 459.825 1079.45 459.2 1080.5 458.95C1081.55 458.65 1082.47 458.75 1083.27 459.25C1084.32 459.7 1084.97 460.55 1085.22 461.8C1085.47 463 1085.22 464.125 1084.47 465.175C1083.72 466.225 1082.35 467.025 1080.35 467.575C1078.35 468.125 1076.87 469.075 1075.92 470.425ZM1112.5 489.925V502.3C1113.85 505 1115.6 506.35 1117.75 506.35C1119.95 506.35 1121.82 505.1 1123.37 502.6C1124.92 500.1 1125.7 496.1 1125.7 490.6C1125.7 485.05 1125.1 481.175 1123.9 478.975C1122.7 476.725 1120.87 475.6 1118.42 475.6C1115.97 475.6 1114.37 476.6 1113.62 478.6C1112.87 480.6 1112.5 484.375 1112.5 489.925ZM1112.5 476.95C1114.2 474.05 1117.25 472.6 1121.65 472.6C1126.05 472.6 1129.72 474.2 1132.67 477.4C1135.62 480.6 1137.1 485.125 1137.1 490.975C1137.1 496.825 1135.65 501.4 1132.75 504.7C1129.85 508 1126.32 509.65 1122.17 509.65C1120.12 509.65 1118.2 509.225 1116.4 508.375C1114.6 507.525 1113.3 506.25 1112.5 504.55V522.25H1116.25V523.75H1101.25V475H1097.5V473.5H1112.5V476.95ZM1157.36 506.5H1161.11V508H1142.36V506.5H1146.11V475H1143.11V473.5H1157.36V506.5ZM1158.03 463.6C1158.03 465.4 1157.38 466.95 1156.08 468.25C1154.83 469.5 1153.28 470.125 1151.43 470.125C1149.63 470.125 1148.08 469.5 1146.78 468.25C1145.48 466.95 1144.83 465.4 1144.83 463.6C1144.83 461.75 1145.48 460.175 1146.78 458.875C1148.08 457.575 1149.63 456.925 1151.43 456.925C1153.28 456.925 1154.83 457.575 1156.08 458.875C1157.38 460.175 1158.03 461.75 1158.03 463.6ZM1205.75 506.5H1209.5V508H1190.75V506.5H1194.5V485.5C1194.5 481.95 1193.98 479.425 1192.93 477.925C1191.88 476.425 1190.3 475.675 1188.2 475.675C1185.35 475.675 1183.08 477.175 1181.38 480.175V506.5H1185.13V508H1166.38V506.5H1170.13V475H1166.38V473.5H1181.38V477.4C1182.33 476.1 1183.8 475 1185.8 474.1C1187.85 473.15 1190.05 472.675 1192.4 472.675C1201.3 472.675 1205.75 477.5 1205.75 487.15V506.5ZM1247.87 493H1225.22C1225.72 501.8 1229.14 506.2 1235.49 506.2C1237.19 506.2 1239.12 505.8 1241.27 505C1243.47 504.2 1245.07 503.075 1246.07 501.625L1247.12 502.375C1246.02 504.225 1244.14 505.75 1241.49 506.95C1238.84 508.15 1236.19 508.75 1233.54 508.75C1230.94 508.75 1228.59 508.5 1226.49 508C1224.39 507.45 1222.34 506.55 1220.34 505.3C1218.34 504.05 1216.77 502.175 1215.62 499.675C1214.52 497.175 1213.97 494.15 1213.97 490.6C1213.97 484.55 1215.64 480.075 1218.99 477.175C1222.34 474.225 1226.39 472.75 1231.14 472.75C1235.94 472.75 1239.92 474.35 1243.07 477.55C1246.27 480.75 1247.87 485.9 1247.87 493ZM1225.14 491.5H1237.37C1237.37 486.9 1236.87 482.875 1235.87 479.425C1234.92 475.975 1233.37 474.25 1231.22 474.25C1229.07 474.25 1227.52 475.925 1226.57 479.275C1225.62 482.575 1225.14 486.375 1225.14 490.675V491.5ZM1270.19 507.4C1275.39 507.4 1277.99 505.975 1277.99 503.125C1277.99 501.525 1277.09 500.225 1275.29 499.225C1273.49 498.175 1271.32 497.325 1268.77 496.675C1266.22 496.025 1263.69 495.275 1261.19 494.425C1258.74 493.575 1256.69 492.225 1255.04 490.375C1253.44 488.525 1252.79 486.1 1253.09 483.1C1253.39 480.1 1254.92 477.625 1257.67 475.675C1260.47 473.725 1263.89 472.75 1267.94 472.75C1272.04 472.75 1275.34 473.4 1277.84 474.7C1280.34 476 1281.74 477.75 1282.04 479.95C1282.24 481.3 1282.02 482.55 1281.37 483.7C1280.77 484.85 1279.74 485.45 1278.29 485.5C1276.89 485.55 1275.72 485.175 1274.77 484.375C1273.87 483.575 1273.44 482.65 1273.49 481.6C1273.54 480.55 1273.94 479.625 1274.69 478.825C1275.44 477.975 1275.82 477.3 1275.82 476.8C1275.82 475.95 1274.99 475.325 1273.34 474.925C1271.74 474.475 1269.87 474.25 1267.72 474.25C1265.62 474.25 1263.89 474.725 1262.54 475.675C1261.19 476.625 1260.52 477.8 1260.52 479.2C1260.52 480.6 1261.34 481.8 1262.99 482.8C1264.69 483.8 1266.74 484.625 1269.14 485.275C1271.54 485.875 1273.92 486.575 1276.27 487.375C1278.67 488.125 1280.69 489.35 1282.34 491.05C1284.04 492.75 1284.89 494.9 1284.89 497.5C1284.89 500.95 1283.67 503.725 1281.22 505.825C1278.77 507.875 1275.07 508.9 1270.12 508.9C1265.17 508.9 1261.14 508.15 1258.04 506.65C1254.99 505.15 1253.32 503.225 1253.02 500.875C1252.82 499.525 1253.04 498.275 1253.69 497.125C1254.34 495.975 1255.37 495.375 1256.77 495.325C1258.17 495.275 1259.32 495.65 1260.22 496.45C1261.17 497.25 1261.62 498.175 1261.57 499.225C1261.52 500.275 1261.12 501.225 1260.37 502.075C1259.62 502.875 1259.24 503.525 1259.24 504.025C1259.24 505.025 1260.39 505.85 1262.69 506.5C1265.04 507.1 1267.54 507.4 1270.19 507.4Z" fill="white"/>
    <path d="M1438 1007.88C1438 1007.88 913.21 971.622 855.05 955.882C796.89 940.142 707 938.312 666.77 874.491C626.54 810.67 621.84 820.94 587 808.74C552.16 796.54 489.47 807.07 468.19 744.879C468.19 744.879 459.13 691.418 486.02 663.238C512.91 635.057 482.4 591.166 482.4 591.166C482.4 591.166 466.15 567.616 482.4 547.666C498.65 527.715 513.64 550.396 513.64 550.396C513.64 550.396 508.77 537.686 499.84 531.625C491.52 525.985 489.44 510.875 490.24 501.785C491.04 492.695 498.97 480.415 512.09 470.115C521.17 462.984 524.8 449.394 524.09 441.724C522.38 423.864 512.86 416.034 510.82 413.264C500.51 399.263 481.92 377.623 476.14 359.313C473.07 349.603 484.82 329.002 496.52 316.792C498.13 315.112 499.75 313.542 501.34 312.112H501.19C501.19 312.112 524.31 293.812 528.19 276.461C532.07 259.111 518.56 235.041 523.37 232.151H522.5C521.256 233.448 520.543 235.164 520.5 236.961C520.5 239.851 524.36 259.121 524.36 264.901C524.36 270.681 522.43 283.212 515.69 291.902C509.4 299.982 482 325.592 473.3 333.332C464.6 341.072 464.63 359.333 473.3 370.903C481.97 382.473 492.48 398.873 492.48 398.873C481.641 389.089 467.602 383.598 453 383.433C428.92 383.433 434.14 356.933 431.81 346.823C428.92 334.292 417.36 328.512 397.13 327.552C376.9 326.592 399.24 300.922 386.53 282.272C372.08 261.071 355.9 276.101 347.03 271.671C343.54 269.921 340.03 264.241 349.41 233.921C352.617 223.776 352.822 212.919 350 202.66C349.69 201.56 349.34 200.47 348.95 199.41C345.1 188.81 338.36 184.96 336.43 184L335.1 186.22C343.35 190.54 348.93 206.4 347.99 216.751C346.99 227.351 339.32 242.751 337.39 256.251C335.46 269.751 339.56 273.161 347.03 276.481C355.7 280.342 366.3 276.481 374.97 283.232C383.64 289.982 384.6 308.232 381.71 316.952C378.82 325.672 361.45 340.072 356.63 345.873C351.81 351.673 350.85 362.253 351.81 359.363C352.77 356.473 358.56 347.803 364.34 343.953C368.34 341.272 388.34 332.442 402.88 333.352C418.29 334.352 426.96 338.162 426.96 355.513C426.96 362.253 424.07 390.193 457.79 391.153C491.51 392.113 504 419.074 504 442.204C504 465.334 469.31 511.565 442.34 552.996C427.78 575.356 422.76 602.437 421.22 622.627C420.185 636.542 420.965 650.533 423.54 664.248C431.33 706.108 453.64 845.48 421.14 921.032C383.14 1009.42 7.86 1186.98 -1 1191.76L1438 1191.89" fill="white"/>
    <path d="M495.227 184.95L574.208 223.447C566.66 238.933 547.771 245.443 532.285 237.894L509.674 226.874C494.188 219.325 487.679 200.437 495.227 184.95Z" fill="white"/>
    <path d="M495.227 184.95L507.304 160.172C520.313 166.512 525.711 182.176 519.37 195.185L518.767 196.424L495.227 184.95Z" fill="white"/>
    <path d="M509.978 173.166L518.584 155.512C526.017 159.135 529.113 168.118 525.49 175.552L523.527 179.578L509.978 173.166Z" fill="white"/>
    <path d="M511.952 193.102L531.427 153.147C544.126 159.337 549.365 174.54 543.176 187.239L534.873 204.274L511.952 193.102Z" fill="white"/>
    <path d="M526.2 200.047L544.92 161.64C557.619 167.83 562.858 183.033 556.669 195.732L549.12 211.218L526.2 200.047Z" fill="white"/>
    <path d="M574.208 223.447L586.286 198.668C573.277 192.328 557.613 197.726 551.273 210.734L550.669 211.973L574.208 223.447Z" fill="white"/>
    <path d="M574.403 204.567L583.008 186.912C575.574 183.289 566.59 186.385 562.967 193.819L560.854 198.155L574.403 204.567Z" fill="white"/>
    <path d="M557.483 215.294L576.958 175.339C564.259 169.15 549.056 174.389 542.866 187.088L534.563 204.123L557.483 215.294Z" fill="white"/>
    <path d="M543.545 208.501L562.265 170.094C549.566 163.905 534.363 169.144 528.173 181.843L520.625 197.33L543.545 208.501Z" fill="white"/>
    <path d="M574.208 223.447L495.227 184.95C487.679 200.437 494.188 219.325 509.674 226.874L532.285 237.894C547.851 245.673 566.739 239.164 574.208 223.447Z" fill="white"/>
    <path d="M521.52 237.159C521.52 237.159 525.209 220.941 511.675 216.069C511.675 216.069 508.099 228.125 521.52 237.159Z" fill="#5C90B6"/>
    <path d="M520.559 235.854C520.559 235.854 531.061 222.958 543.235 230.616C543.005 230.696 535.712 240.94 520.559 235.854Z" fill="#5C90B6"/>
    <path d="M521.243 236.257C521.243 236.257 529.233 225.63 521.246 217.99C521.246 217.99 514.635 225.307 521.243 236.257Z" fill="#5C90B6"/>
    <path d="M521.243 236.257C521.243 236.257 523.371 223.241 534.863 223.69C534.582 223.787 533.648 233.871 521.243 236.257Z" fill="#5C90B6"/>
    <path d="M280.825 172.404L372.522 136.985C379.467 154.965 370.418 175.403 352.438 182.348L326.188 192.487C308.208 199.432 287.77 190.384 280.825 172.404Z" fill="white"/>
    <path d="M280.825 172.404L269.714 143.636C284.817 137.803 301.765 145.306 307.599 160.409L308.155 161.848L280.825 172.404Z" fill="white"/>
    <path d="M282.4 151.34L274.483 130.843C283.114 127.509 292.834 131.813 296.168 140.443L297.973 145.118L282.4 151.34Z" fill="white"/>
    <path d="M300.243 164.903L282.326 118.516C297.069 112.821 313.519 120.104 319.214 134.847L326.853 154.625L300.243 164.903Z" fill="white"/>
    <path d="M316.785 158.514L299.562 113.924C314.305 108.23 330.755 115.512 336.45 130.256L343.395 148.236L316.785 158.514Z" fill="white"/>
    <path d="M372.522 136.985L361.41 108.217C346.307 114.051 338.803 131 344.637 146.103L345.193 147.541L372.522 136.985Z" fill="white"/>
    <path d="M357.196 122.449L349.279 101.952C340.648 105.286 336.345 115.006 339.678 123.637L341.623 128.671L357.196 122.449Z" fill="white"/>
    <path d="M353.104 144.485L335.186 98.0979C320.443 103.793 313.16 120.243 318.854 134.986L326.494 154.764L353.104 144.485Z" fill="white"/>
    <path d="M336.922 150.736L319.699 106.146C304.955 111.841 297.672 128.291 303.367 143.035L310.312 161.014L336.922 150.736Z" fill="white"/>
    <path d="M372.522 136.985L280.825 172.404C287.77 190.384 308.208 199.432 326.188 192.487L352.438 182.348C370.667 175.513 379.716 155.075 372.522 136.985Z" fill="white"/>
    <path d="M343.638 190.61C343.638 190.61 333.154 175.237 318.856 182.62C318.856 182.62 326.014 194.732 343.638 190.61Z" fill="#5C90B6"/>
    <path d="M341.837 190.405C341.837 190.405 339.264 171.977 354.812 167.83C354.702 168.08 357.545 181.858 341.837 190.405Z" fill="#5C90B6"/>
    <path d="M342.688 190.151C342.688 190.151 340.063 175.51 327.718 176.238C327.718 176.238 328.681 187.229 342.688 190.151Z" fill="#5C90B6"/>
    <path d="M342.688 190.151C342.688 190.151 333.641 178.495 342.76 169.418C342.625 169.722 350.179 178.167 342.688 190.151Z" fill="#5C90B6"/>
</svg>
