<svg viewBox="0 0 711 33" fill="none" xmlns="http://www.w3.org/2000/svg">
<path fill-rule="evenodd" clip-rule="evenodd" d="M710.018 14.2222L710.018 13.5884L709.384 13.5884L709.384 14.2222L710.018 14.2222ZM709 24.3852L709 7.38524L681.913 7.38524C681.895 7.16338 681.945 6.93952 682.002 6.68601C682.173 5.92945 682.403 4.90894 681.04 2.89025C680.033 1.39739 678.515 1.95468 677.674 2.26654C679.778 2.5784 679.335 4.49757 678.936 5.38515C678.626 6.07457 677.753 6.6733 676.719 7.38183L676.714 7.38524L633.245 7.38524C633.148 7.09538 632.961 6.82951 632.654 6.60236C631.685 5.88417 631.787 5.43061 631.933 4.78461C632.103 4.02805 632.333 3.00754 630.971 0.988853C629.964 -0.504005 628.446 0.0532821 627.604 0.365137C629.708 0.676996 629.266 2.59617 628.867 3.48375C628.556 4.17317 627.683 4.77191 626.649 5.48044C626.28 5.73342 625.891 6.0004 625.5 6.2905C625.078 6.60305 624.818 6.97585 624.663 7.38523L583.954 7.38523C583.57 6.91922 583.655 6.54079 583.765 6.05233C583.936 5.29576 584.165 4.27525 582.803 2.25657C581.796 0.763708 580.278 1.321 579.436 1.63285C581.541 1.94471 581.098 3.86389 580.699 4.75146C580.389 5.44088 579.515 6.03962 578.482 6.74815C578.187 6.95005 577.88 7.16086 577.569 7.38523L510.434 7.38523C510.05 6.91922 510.135 6.54078 510.245 6.05232C510.416 5.29576 510.646 4.27524 509.284 2.25656C508.276 0.763705 506.758 1.32099 505.917 1.63285C508.021 1.94471 507.578 3.86388 507.179 4.75146C506.869 5.44088 505.996 6.03961 504.962 6.74814C504.668 6.95004 504.36 7.16086 504.049 7.38523L435.647 7.38523C435.263 6.91922 435.348 6.54078 435.458 6.05232C435.629 5.29576 435.859 4.27524 434.496 2.25656C433.489 0.763702 431.971 1.32099 431.129 1.63284C433.234 1.9447 432.791 3.86388 432.392 4.75145C432.082 5.44089 431.209 6.03963 430.175 6.74817C429.881 6.95006 429.573 7.16087 429.262 7.38523L379.874 7.38522C379.49 6.91927 379.575 6.54086 379.685 6.05248L379.685 6.05232C379.856 5.29576 380.085 4.27524 378.723 2.25656C377.716 0.763699 376.198 1.32099 375.356 1.63284C377.145 2.25656 377.018 3.86388 376.619 4.75145C376.309 5.44086 375.435 6.03959 374.402 6.74811C374.107 6.95002 373.8 7.16084 373.489 7.38522L298.749 7.38522C298.365 6.91921 298.45 6.54077 298.56 6.05232C298.731 5.29575 298.961 4.27524 297.599 2.25655C296.591 0.763696 295.073 1.32098 294.232 1.63284C296.336 1.9447 295.894 3.86387 295.494 4.75145C295.184 5.44088 294.311 6.03962 293.277 6.74817C292.983 6.95006 292.675 7.16086 292.364 7.38522L265.792 7.38522C265.408 6.91921 265.493 6.54077 265.603 6.05231C265.774 5.29575 266.004 4.27524 264.642 2.25655C263.634 0.763694 262.116 1.32098 261.275 1.63284C263.379 1.9447 262.936 3.86387 262.537 4.75145C262.227 5.44088 261.354 6.03962 260.32 6.74816C260.026 6.95005 259.718 7.16086 259.407 7.38522L206.721 7.38522C206.62 7.24301 206.49 7.1097 206.325 6.98758C205.356 6.26939 205.458 5.81583 205.604 5.16983C205.774 4.41327 206.004 3.39276 204.642 1.37407C203.634 -0.118785 202.117 0.438502 201.275 0.750356C203.379 1.06222 202.937 2.98139 202.537 3.86897C202.227 4.5584 201.354 5.15714 200.32 5.86568L200.319 5.86643C199.951 6.11918 199.562 6.38591 199.17 6.67572C198.885 6.8871 198.674 7.12604 198.519 7.38522L156.721 7.38521C156.62 7.24301 156.49 7.1097 156.325 6.98758C155.356 6.26939 155.458 5.81583 155.604 5.16984C155.774 4.41327 156.004 3.39276 154.642 1.37407C153.634 -0.118787 152.116 0.4385 151.275 0.750354C153.379 1.06221 152.937 2.98139 152.537 3.86896C152.227 4.55838 151.354 5.15711 150.32 5.86564L150.319 5.86632C149.951 6.1191 149.562 6.38587 149.17 6.67571C148.885 6.8871 148.674 7.12604 148.519 7.38521L92.7208 7.38521C92.6204 7.243 92.49 7.10969 92.3252 6.98757C91.356 6.26938 91.4581 5.81582 91.6036 5.16982C91.774 4.41326 92.0038 3.39275 90.6417 1.37407C89.6344 -0.11879 88.1165 0.438497 87.2748 0.750352C89.3791 1.06221 88.9366 2.98139 88.5374 3.86896C88.2272 4.55833 87.354 5.15702 86.3206 5.86548L86.3204 5.86561L86.3195 5.86629C85.9507 6.11908 85.5616 6.38585 85.1704 6.67571C84.8851 6.8871 84.6738 7.12604 84.519 7.38521L-6.1358e-05 7.38521L-6.21011e-05 24.3852L37.3251 24.3852C37.4789 24.8036 37.7407 25.1845 38.1704 25.5029C38.5616 25.7928 38.9507 26.0595 39.3193 26.3123L39.3204 26.313C40.3539 27.0215 41.2272 27.6203 41.5374 28.3097C41.9366 29.1972 42.3791 31.1164 40.2748 31.4283C41.1165 31.7401 42.6344 32.2974 43.6417 30.8046C45.0038 28.7859 44.774 27.7654 44.6036 27.0088C44.4581 26.3628 44.356 25.9092 45.3252 25.1911C45.6398 24.9579 45.8289 24.684 45.9238 24.3852L121.325 24.3852C121.479 24.8036 121.741 25.1845 122.17 25.5029C122.561 25.7922 122.949 26.0585 123.317 26.3109L123.319 26.3123L123.32 26.313C124.354 27.0215 125.227 27.6203 125.537 28.3097C125.937 29.1972 126.379 31.1164 124.275 31.4283C125.117 31.7401 126.634 32.2974 127.642 30.8046C129.004 28.7859 128.774 27.7654 128.604 27.0088C128.458 26.3628 128.356 25.9092 129.325 25.1911C129.64 24.9579 129.829 24.684 129.924 24.3852L166.571 24.3852C166.826 24.5656 167.076 24.7375 167.318 24.9033L167.32 24.9048C168.354 25.6133 169.227 26.2121 169.537 26.9015C169.937 27.789 170.379 29.7082 168.275 30.0201C169.117 30.3319 170.634 30.8892 171.642 29.3964C173.004 27.3777 172.774 26.3572 172.604 25.6006C172.503 25.1538 172.423 24.7991 172.704 24.3852L222.774 24.3852C222.981 24.5974 223.142 24.8123 223.243 25.0368C223.642 25.9244 224.084 27.8436 221.98 28.1554C222.822 28.4673 224.34 29.0246 225.347 27.5317C226.358 26.0327 226.492 25.0841 226.424 24.3852L279.801 24.3852C280.074 24.5796 280.343 24.764 280.601 24.9415C281.635 25.6501 282.508 26.2488 282.818 26.9382C283.218 27.8258 283.66 29.745 281.556 30.0568C282.398 30.3687 283.915 30.926 284.923 29.4331C286.285 27.4144 286.055 26.3939 285.885 25.6374C285.781 25.1774 285.7 24.815 286.011 24.3852L334.178 24.3852C334.295 24.5197 334.432 24.6467 334.591 24.7652C334.982 25.055 335.372 25.3218 335.74 25.5746L335.741 25.5753C336.775 26.2838 337.648 26.8825 337.958 27.5719C338.358 28.4595 338.8 30.3787 336.696 30.6905C337.537 31.0024 339.055 31.5597 340.063 30.0668C341.425 28.0481 341.195 27.0276 341.025 26.271C340.879 25.625 340.777 25.1715 341.746 24.4533C341.776 24.431 341.805 24.4083 341.833 24.3852L407.94 24.3852C408.098 24.7628 408.351 25.1071 408.744 25.3989C409.136 25.6887 409.525 25.9554 409.893 26.2081L409.894 26.2089C410.928 26.9174 411.801 27.5162 412.111 28.2056C412.511 29.0932 412.953 31.0124 410.849 31.3242C411.691 31.6361 413.208 32.1934 414.216 30.7005C415.578 28.6818 415.348 27.6613 415.178 26.9047C415.032 26.2588 414.93 25.8052 415.899 25.087C416.177 24.8812 416.357 24.6436 416.46 24.3852L440.026 24.3852C440.047 25.2554 440.263 26.0705 441.068 26.6666C441.459 26.9564 441.848 27.2231 442.216 27.4758L442.217 27.4766C443.251 28.1851 444.124 28.7839 444.434 29.4733C444.834 30.3609 445.276 32.2801 443.172 32.5919C444.014 32.9038 445.531 33.4611 446.539 31.9682C447.901 29.9495 447.671 28.929 447.501 28.1724C447.355 27.5265 447.253 27.0729 448.222 26.3547C448.917 25.8399 448.999 25.1263 448.807 24.3852L563.738 24.3852C564.01 24.5797 564.279 24.7641 564.538 24.9416C565.572 25.6501 566.445 26.2488 566.755 26.9382C567.154 27.8258 567.597 29.745 565.493 30.0568C566.334 30.3687 567.852 30.926 568.859 29.4331C570.222 27.4145 569.992 26.3939 569.821 25.6374C569.718 25.1774 569.636 24.815 569.948 24.3852L604.414 24.3852C604.572 24.7628 604.824 25.1071 605.218 25.3989C605.61 25.689 605.999 25.9559 606.368 26.2089C607.402 26.9175 608.275 27.5162 608.585 28.2056C608.984 29.0932 609.427 31.0124 607.323 31.3242C608.164 31.6361 609.682 32.1934 610.69 30.7005C612.052 28.6818 611.822 27.6613 611.651 26.9048C611.506 26.2588 611.404 25.8052 612.373 25.087C612.651 24.8812 612.831 24.6436 612.934 24.3852L652.34 24.3852C652.456 24.5197 652.593 24.6467 652.752 24.7652C653.144 25.0553 653.533 25.3223 653.902 25.5752C654.936 26.2838 655.809 26.8825 656.119 27.5719C656.519 28.4595 656.961 30.3787 654.857 30.6905C655.699 31.0024 657.216 31.5597 658.224 30.0668C659.586 28.0481 659.356 27.0276 659.186 26.2711C659.04 25.6251 658.938 25.1715 659.907 24.4533C659.937 24.431 659.966 24.4083 659.994 24.3852L709 24.3852Z" fill="url(#paint0_linear)"/>
<path d="M682.723 8.50373C684.407 9.75117 682.495 12.1661 681.794 13.3095L674.639 13.3095C674.779 11.6463 673.885 9.43931 675.569 8.19187C677.057 7.08927 678.515 6.3207 678.936 5.38512C679.335 4.49754 679.777 2.57837 677.673 2.26651C678.515 1.95465 680.033 1.39737 681.04 2.89022C683.565 6.63256 680.619 6.94442 682.723 8.50373Z" fill="url(#paint1_linear)"/>
<path d="M659.907 24.4533C661.591 23.2059 659.679 20.791 658.978 19.6475L651.823 19.6475C651.963 21.3107 651.069 23.5177 652.753 24.7652C654.241 25.8678 655.699 26.6363 656.119 27.5719C656.519 28.4595 656.961 30.3787 654.857 30.6905C655.699 31.0024 657.216 31.5597 658.224 30.0668C660.749 26.3245 657.803 26.0126 659.907 24.4533Z" fill="url(#paint2_linear)"/>
<path d="M612.373 25.0871C614.057 23.8396 612.145 21.4248 611.444 20.2813L604.289 20.2813C604.429 21.9445 603.535 24.1515 605.218 25.399C606.706 26.5015 608.164 27.2701 608.585 28.2057C608.985 29.0933 609.427 31.0125 607.323 31.3243C608.164 31.6362 609.682 32.1935 610.69 30.7006C613.215 26.9583 610.269 26.6464 612.373 25.0871Z" fill="url(#paint3_linear)"/>
<path d="M570.543 23.8195C572.226 22.5721 570.315 20.1572 569.613 19.0137L562.459 19.0137C562.599 20.677 561.705 22.8839 563.388 24.1314C564.876 25.234 566.334 26.0025 566.755 26.9381C567.154 27.8257 567.597 29.7449 565.493 30.0567C566.334 30.3686 567.852 30.9259 568.86 29.433C571.385 25.6907 568.439 25.3788 570.543 23.8195Z" fill="url(#paint4_linear)"/>
<path d="M448.222 26.3547C449.906 25.1072 447.994 22.6923 447.293 21.5489L440.138 21.5489C440.278 23.2121 439.384 25.4191 441.068 26.6665C442.556 27.7691 444.014 28.5377 444.435 29.4733C444.834 30.3609 445.276 32.28 443.172 32.5919C444.014 32.9037 445.532 33.461 446.539 31.9682C449.064 28.2258 446.118 27.914 448.222 26.3547Z" fill="url(#paint5_linear)"/>
<path d="M415.899 25.0871C417.583 23.8396 415.671 21.4248 414.97 20.2813L407.815 20.2813C407.955 21.9445 407.061 24.1515 408.745 25.399C410.233 26.5015 411.691 27.2701 412.112 28.2057C412.511 29.0933 412.953 31.0125 410.849 31.3243C411.691 31.6362 413.209 32.1935 414.216 30.7006C416.741 26.9583 413.795 26.6464 415.899 25.0871Z" fill="url(#paint6_linear)"/>
<path d="M341.746 24.4533C343.429 23.2059 341.517 20.791 340.816 19.6475L333.661 19.6475C333.802 21.3107 332.907 23.5177 334.591 24.7652C336.079 25.8678 337.537 26.6363 337.958 27.5719C338.357 28.4595 338.799 30.3787 336.695 30.6905C337.537 31.0024 339.055 31.5597 340.062 30.0668C342.587 26.3245 339.641 26.0126 341.746 24.4533Z" fill="url(#paint7_linear)"/>
<path d="M286.606 23.8195C288.29 22.5721 286.378 20.1572 285.677 19.0137L278.522 19.0137C278.662 20.677 277.768 22.8839 279.452 24.1314C280.94 25.234 282.398 26.0025 282.819 26.9381C283.218 27.8257 283.66 29.7449 281.556 30.0567C282.398 30.3686 283.916 30.9259 284.923 29.433C287.448 25.6907 284.502 25.3788 286.606 23.8195Z" fill="url(#paint8_linear)"/>
<path d="M227.03 21.9181C228.714 20.6707 226.802 18.2558 226.101 17.1123L218.946 17.1123C219.086 18.7756 218.192 20.9826 219.876 22.23C221.364 23.3326 222.822 24.1012 223.243 25.0368C223.642 25.9243 224.084 27.8435 221.98 28.1554C222.822 28.4672 224.34 29.0245 225.347 27.5317C227.872 23.7893 224.926 23.4775 227.03 21.9181Z" fill="url(#paint9_linear)"/>
<path d="M129.325 25.1911C131.008 23.9437 129.097 21.5288 128.395 20.3853L121.241 20.3853C121.381 22.0485 120.487 24.2555 122.17 25.503C123.658 26.6056 125.116 27.3741 125.537 28.3097C125.936 29.1973 126.379 31.1165 124.274 31.4283C125.116 31.7402 126.634 32.2975 127.641 30.8046C130.166 27.0623 127.22 26.7504 129.325 25.1911Z" fill="url(#paint10_linear)"/>
<path d="M45.3247 25.1911C47.0082 23.9437 45.0967 21.5288 44.3952 20.3853L37.2405 20.3853C37.3808 22.0485 36.4865 24.2555 38.17 25.503C39.658 26.6056 41.1161 27.3741 41.5369 28.3097C41.9362 29.1973 42.3787 31.1165 40.2743 31.4283C41.1161 31.7402 42.6339 32.2975 43.6413 30.8046C46.1665 27.0623 43.2204 26.7504 45.3247 25.1911Z" fill="url(#paint11_linear)"/>
<path d="M173.325 23.7829C175.008 22.5354 173.097 20.1206 172.395 18.9771L165.241 18.9771C165.381 20.6403 164.487 22.8473 166.17 24.0948C167.658 25.1973 169.116 25.9659 169.537 26.9015C169.936 27.7891 170.379 29.7083 168.274 30.0201C169.116 30.332 170.634 30.8893 171.641 29.3964C174.166 25.6541 171.22 25.3422 173.325 23.7829Z" fill="url(#paint12_linear)"/>
<path d="M632.654 6.60236C634.338 7.84981 632.426 10.2647 631.725 11.4082L624.57 11.4082C624.711 9.74492 623.816 7.53794 625.5 6.2905C626.988 5.1879 628.446 4.41933 628.867 3.48375C629.266 2.59618 629.708 0.677 627.604 0.36514C628.446 0.0532854 629.964 -0.504002 630.971 0.988856C633.496 4.73119 630.55 5.04306 632.654 6.60236Z" fill="url(#paint13_linear)"/>
<path d="M584.487 7.86994C586.17 9.11738 584.259 11.5323 583.557 12.6758L576.403 12.6758C576.543 11.0125 575.649 8.80552 577.332 7.55808C578.82 6.45548 580.278 5.68691 580.699 4.75133C581.098 3.86376 581.541 1.94458 579.436 1.63272C580.278 1.32086 581.796 0.763576 582.803 2.25643C585.329 5.99877 582.383 6.31063 584.487 7.86994Z" fill="url(#paint14_linear)"/>
<path d="M510.967 7.86994C512.651 9.11738 510.739 11.5323 510.038 12.6758L502.883 12.6758C503.023 11.0125 502.129 8.80552 503.812 7.55808C505.3 6.45548 506.758 5.68691 507.179 4.75133C507.579 3.86376 508.021 1.94458 505.917 1.63272C506.758 1.32086 508.276 0.763576 509.284 2.25643C511.809 5.99877 508.863 6.31063 510.967 7.86994Z" fill="url(#paint15_linear)"/>
<path d="M436.18 7.86994C437.863 9.11738 435.952 11.5323 435.25 12.6758L428.096 12.6758C428.236 11.0125 427.342 8.80552 429.025 7.55808C430.513 6.45548 431.971 5.68691 432.392 4.75133C432.791 3.86376 433.234 1.94458 431.13 1.63272C431.971 1.32086 433.489 0.763576 434.497 2.25643C437.022 5.99877 434.076 6.31063 436.18 7.86994Z" fill="url(#paint16_linear)"/>
<path d="M380.407 7.86994C382.09 9.11738 380.179 11.5323 379.477 12.6758L372.323 12.6758C372.463 11.0125 371.569 8.80552 373.252 7.55808C374.74 6.45548 376.198 5.68691 376.619 4.75133C377.018 3.86376 377.461 1.94458 375.356 1.63272C376.198 1.32086 377.716 0.763576 378.723 2.25643C381.249 5.99877 378.302 6.31063 380.407 7.86994Z" fill="url(#paint17_linear)"/>
<path d="M299.282 7.86994C300.966 9.11738 299.054 11.5323 298.353 12.6758L291.198 12.6758C291.338 11.0125 290.444 8.80552 292.127 7.55808C293.615 6.45548 295.073 5.68691 295.494 4.75133C295.894 3.86376 296.336 1.94458 294.232 1.63272C295.073 1.32086 296.591 0.763576 297.599 2.25643C300.124 5.99877 297.178 6.31063 299.282 7.86994Z" fill="url(#paint18_linear)"/>
<path d="M266.325 7.86994C268.009 9.11738 266.097 11.5323 265.396 12.6758L258.241 12.6758C258.381 11.0125 257.487 8.80552 259.17 7.55808C260.658 6.45548 262.116 5.68691 262.537 4.75133C262.937 3.86376 263.379 1.94458 261.275 1.63272C262.116 1.32086 263.634 0.763576 264.642 2.25643C267.167 5.99877 264.221 6.31063 266.325 7.86994Z" fill="url(#paint19_linear)"/>
<path d="M206.325 6.98762C208.008 8.23506 206.097 10.6499 205.395 11.7934L198.24 11.7934C198.381 10.1302 197.486 7.9232 199.17 6.67575C200.658 5.57316 202.116 4.80459 202.537 3.869C202.936 2.98143 203.379 1.06225 201.274 0.750394C202.116 0.438539 203.634 -0.118748 204.641 1.37411C207.166 5.11645 204.22 5.42831 206.325 6.98762Z" fill="url(#paint20_linear)"/>
<path d="M156.325 6.98762C158.008 8.23506 156.097 10.6499 155.395 11.7934L148.24 11.7934C148.381 10.1302 147.486 7.9232 149.17 6.67575C150.658 5.57316 152.116 4.80459 152.537 3.869C152.936 2.98143 153.379 1.06225 151.274 0.750394C152.116 0.438539 153.634 -0.118748 154.641 1.37411C157.166 5.11645 154.22 5.42831 156.325 6.98762Z" fill="url(#paint21_linear)"/>
<path d="M92.3247 6.98762C94.0082 8.23506 92.0966 10.6499 91.3952 11.7934L84.2405 11.7934C84.3808 10.1302 83.4865 7.9232 85.17 6.67575C86.658 5.57316 88.116 4.80459 88.5369 3.869C88.9362 2.98143 89.3786 1.06225 87.2743 0.750394C88.116 0.438539 89.6339 -0.118748 90.6413 1.37411C93.1665 5.11645 90.2204 5.42831 92.3247 6.98762Z" fill="url(#paint22_linear)"/>
<defs>
<linearGradient id="paint0_linear" x1="859.515" y1="-6.05677" x2="345.989" y2="449.8" gradientUnits="userSpaceOnUse">
<stop stop-color="#5C90B6"/>
<stop offset="1" stop-color="#031941"/>
</linearGradient>
<linearGradient id="paint1_linear" x1="683.398" y1="1.90137" x2="678.962" y2="4.43652" gradientUnits="userSpaceOnUse">
<stop stop-color="#C8DEFB"/>
<stop offset="1" stop-color="#C8DEFB" stop-opacity="0"/>
</linearGradient>
<linearGradient id="paint2_linear" x1="660.582" y1="31.0557" x2="656.146" y2="28.5205" gradientUnits="userSpaceOnUse">
<stop stop-color="#C8DEFB"/>
<stop offset="1" stop-color="#C8DEFB" stop-opacity="0"/>
</linearGradient>
<linearGradient id="paint3_linear" x1="613.048" y1="31.6895" x2="608.611" y2="29.1543" gradientUnits="userSpaceOnUse">
<stop stop-color="#C8DEFB"/>
<stop offset="1" stop-color="#C8DEFB" stop-opacity="0"/>
</linearGradient>
<linearGradient id="paint4_linear" x1="571.218" y1="30.4219" x2="566.781" y2="27.8867" gradientUnits="userSpaceOnUse">
<stop stop-color="#C8DEFB"/>
<stop offset="1" stop-color="#C8DEFB" stop-opacity="0"/>
</linearGradient>
<linearGradient id="paint5_linear" x1="448.897" y1="32.957" x2="444.461" y2="30.4219" gradientUnits="userSpaceOnUse">
<stop stop-color="#C8DEFB"/>
<stop offset="1" stop-color="#C8DEFB" stop-opacity="0"/>
</linearGradient>
<linearGradient id="paint6_linear" x1="416.574" y1="31.6895" x2="412.138" y2="29.1543" gradientUnits="userSpaceOnUse">
<stop stop-color="#C8DEFB"/>
<stop offset="1" stop-color="#C8DEFB" stop-opacity="0"/>
</linearGradient>
<linearGradient id="paint7_linear" x1="342.42" y1="31.0557" x2="337.984" y2="28.5205" gradientUnits="userSpaceOnUse">
<stop stop-color="#C8DEFB"/>
<stop offset="1" stop-color="#C8DEFB" stop-opacity="0"/>
</linearGradient>
<linearGradient id="paint8_linear" x1="287.281" y1="30.4219" x2="282.845" y2="27.8867" gradientUnits="userSpaceOnUse">
<stop stop-color="#C8DEFB"/>
<stop offset="1" stop-color="#C8DEFB" stop-opacity="0"/>
</linearGradient>
<linearGradient id="paint9_linear" x1="227.705" y1="28.5205" x2="223.269" y2="25.9854" gradientUnits="userSpaceOnUse">
<stop stop-color="#C8DEFB"/>
<stop offset="1" stop-color="#C8DEFB" stop-opacity="0"/>
</linearGradient>
<linearGradient id="paint10_linear" x1="130" y1="31.7935" x2="125.563" y2="29.2583" gradientUnits="userSpaceOnUse">
<stop stop-color="#C8DEFB"/>
<stop offset="1" stop-color="#C8DEFB" stop-opacity="0"/>
</linearGradient>
<linearGradient id="paint11_linear" x1="45.9995" y1="31.7935" x2="41.563" y2="29.2583" gradientUnits="userSpaceOnUse">
<stop stop-color="#C8DEFB"/>
<stop offset="1" stop-color="#C8DEFB" stop-opacity="0"/>
</linearGradient>
<linearGradient id="paint12_linear" x1="174" y1="30.3853" x2="169.563" y2="27.8501" gradientUnits="userSpaceOnUse">
<stop stop-color="#C8DEFB"/>
<stop offset="1" stop-color="#C8DEFB" stop-opacity="0"/>
</linearGradient>
<linearGradient id="paint13_linear" x1="633.329" y1="0" x2="628.893" y2="2.53515" gradientUnits="userSpaceOnUse">
<stop stop-color="#C8DEFB"/>
<stop offset="1" stop-color="#C8DEFB" stop-opacity="0"/>
</linearGradient>
<linearGradient id="paint14_linear" x1="585.162" y1="1.26758" x2="580.725" y2="3.80273" gradientUnits="userSpaceOnUse">
<stop stop-color="#C8DEFB"/>
<stop offset="1" stop-color="#C8DEFB" stop-opacity="0"/>
</linearGradient>
<linearGradient id="paint15_linear" x1="511.642" y1="1.26758" x2="507.205" y2="3.80273" gradientUnits="userSpaceOnUse">
<stop stop-color="#C8DEFB"/>
<stop offset="1" stop-color="#C8DEFB" stop-opacity="0"/>
</linearGradient>
<linearGradient id="paint16_linear" x1="436.855" y1="1.26758" x2="432.418" y2="3.80273" gradientUnits="userSpaceOnUse">
<stop stop-color="#C8DEFB"/>
<stop offset="1" stop-color="#C8DEFB" stop-opacity="0"/>
</linearGradient>
<linearGradient id="paint17_linear" x1="381.082" y1="1.26758" x2="376.645" y2="3.80273" gradientUnits="userSpaceOnUse">
<stop stop-color="#C8DEFB"/>
<stop offset="1" stop-color="#C8DEFB" stop-opacity="0"/>
</linearGradient>
<linearGradient id="paint18_linear" x1="299.957" y1="1.26758" x2="295.52" y2="3.80273" gradientUnits="userSpaceOnUse">
<stop stop-color="#C8DEFB"/>
<stop offset="1" stop-color="#C8DEFB" stop-opacity="0"/>
</linearGradient>
<linearGradient id="paint19_linear" x1="267" y1="1.26758" x2="262.563" y2="3.80273" gradientUnits="userSpaceOnUse">
<stop stop-color="#C8DEFB"/>
<stop offset="1" stop-color="#C8DEFB" stop-opacity="0"/>
</linearGradient>
<linearGradient id="paint20_linear" x1="207" y1="0.385254" x2="202.563" y2="2.92041" gradientUnits="userSpaceOnUse">
<stop stop-color="#C8DEFB"/>
<stop offset="1" stop-color="#C8DEFB" stop-opacity="0"/>
</linearGradient>
<linearGradient id="paint21_linear" x1="157" y1="0.385254" x2="152.563" y2="2.92041" gradientUnits="userSpaceOnUse">
<stop stop-color="#C8DEFB"/>
<stop offset="1" stop-color="#C8DEFB" stop-opacity="0"/>
</linearGradient>
<linearGradient id="paint22_linear" x1="92.9995" y1="0.385254" x2="88.563" y2="2.92041" gradientUnits="userSpaceOnUse">
<stop stop-color="#C8DEFB"/>
<stop offset="1" stop-color="#C8DEFB" stop-opacity="0"/>
</linearGradient>
</defs>
</svg>
