<svg  viewBox="0 0 147 345" fill="none" xmlns="http://www.w3.org/2000/svg">
<path d="M75.8881 345L75.8881 77" stroke="white" stroke-width="11" stroke-miterlimit="10"/>
<path d="M46.4836 69.7113C46.4836 69.7113 9.15424 65.4081 1.97671 56.8018C-5.20082 48.1955 9.15424 36.7799 13.4608 32.4767C17.7673 28.1736 24.9078 9.04298 33.564 16.721C46.5021 28.1797 62.2741 32.4767 59.4031 56.8326C56.5321 81.1884 46.4836 69.7113 46.4836 69.7113Z" fill="white"/>
<path d="M60.8633 92.629C60.8633 92.629 39.0534 119.886 27.8405 119.85C16.6275 119.813 14.0152 108.717 13.4854 102.637C12.9556 96.5572 2.44493 86.8321 4.55199 77.1684C7.74337 62.5254 46.884 54.6998 63.7343 72.5517C80.5846 90.4037 60.8633 92.629 60.8633 92.629Z" fill="white"/>
<path d="M80.7202 97.1965C80.7202 97.1965 92.4692 131.997 102.475 137.044C112.48 142.091 121.937 128.868 125.165 123.716C128.394 118.565 140.882 113.18 135.497 102.662C130.113 92.1434 113.54 73.4615 90.4053 81.7605C67.2708 90.0594 80.7202 97.1965 80.7202 97.1965Z" fill="white"/>
<path d="M56.9511 89.9239C56.9511 89.9239 33.3423 118.816 35.8991 129.703C38.4559 140.59 55.2137 141.746 61.2515 140.898C67.2892 140.05 81.2623 150.992 88.1256 143.861C104.76 126.587 96.2704 99.7535 75.0459 87.385C53.8213 75.0165 56.9511 89.9239 56.9511 89.9239Z" fill="white"/>
<path d="M85.2485 43.9231C85.2485 43.9231 97.3795 8.10245 108.217 5.24393C119.054 2.38541 128.117 15.6084 130.199 21.3254C132.281 27.0424 141.239 22.4381 136.933 36.7614C133.563 48.0787 108.919 65.6233 88.1195 59.6849C64.4922 52.9228 85.2485 43.9231 85.2485 43.9231Z" fill="white"/>
<path d="M53.6611 50.7902C53.6611 50.7902 36.5829 17.6374 41.3392 7.51269C46.0955 -2.61203 62.7424 -0.257596 68.4475 1.82022C74.1525 3.89803 90.1279 -3.89685 95.3586 4.50046C108.013 24.8421 94.1264 49.3333 70.7948 57.0236C47.4632 64.714 53.6611 50.7902 53.6611 50.7902Z" fill="white"/>
<path d="M102.08 85.6699C102.08 85.6699 126.065 96.8089 136.933 94.0611C147.801 91.3132 146.501 82.879 145.558 76.8484C144.616 70.8179 150.179 51.2508 142.687 46.7632C135.51 42.4601 115.413 48.1956 96.7448 59.6727C75.8036 72.533 102.08 85.6699 102.08 85.6699Z" fill="white"/>
<path d="M60.925 94.7374L60.7586 74.9182C60.7546 74.5464 60.6434 74.1836 60.4383 73.8732L49.5826 57.2753C49.3914 56.9824 49.2827 56.6435 49.2679 56.2943C49.253 55.945 49.3326 55.5982 49.4983 55.2901C49.664 54.9821 49.9097 54.7243 50.2096 54.5436C50.5095 54.3629 50.8526 54.266 51.203 54.2631L71.0659 54.0971C71.4382 54.0904 71.801 53.9797 72.1133 53.7775L88.7479 42.9458C89.0411 42.7553 89.3801 42.6468 89.7296 42.6317C90.0791 42.6167 90.4263 42.6956 90.7348 42.8601C91.0433 43.0247 91.3019 43.269 91.4834 43.5674C91.6649 43.8658 91.7628 44.2074 91.7668 44.5564L91.9332 64.3755C91.9391 64.749 92.0501 65.1132 92.2535 65.4267L103.109 82.0246C103.3 82.3171 103.409 82.6554 103.424 83.0041C103.439 83.3529 103.36 83.6993 103.195 84.0071C103.03 84.3149 102.785 84.5729 102.486 84.754C102.187 84.9352 101.845 85.0328 101.495 85.0368L81.632 85.2028C81.2578 85.2087 80.8927 85.3194 80.5785 85.5224L63.9439 96.3541C63.6503 96.5449 63.3107 96.6534 62.9606 96.6682C62.6106 96.683 62.263 96.6036 61.9543 96.4382C61.6456 96.2729 61.3872 96.0278 61.2061 95.7285C61.025 95.4293 60.9279 95.0869 60.925 94.7374Z" fill="white"/>
<path d="M68.9959 41.403L83.1661 55.2961C83.4301 55.56 83.7668 55.7398 84.1334 55.8125L103.571 59.8882C103.914 59.9603 104.231 60.1229 104.488 60.359C104.746 60.5951 104.936 60.8961 105.037 61.2304C105.139 61.5647 105.148 61.92 105.065 62.2592C104.981 62.5984 104.808 62.909 104.563 63.1585L90.6332 77.2975C90.3753 77.5658 90.1963 77.8997 90.1157 78.2626L86.031 97.6391C85.9597 97.9815 85.797 98.2984 85.5602 98.5563C85.3234 98.8142 85.0212 99.0035 84.6855 99.1042C84.3498 99.2049 83.9931 99.2134 83.653 99.1286C83.313 99.0439 83.0021 98.8691 82.7533 98.6227L68.5831 84.7296C68.3167 84.4688 67.9811 84.2896 67.6158 84.2132L48.178 80.1376C47.8355 80.0655 47.5187 79.9028 47.2608 79.6667C47.0029 79.4306 46.8133 79.1296 46.7119 78.7953C46.6105 78.461 46.601 78.1057 46.6844 77.7665C46.7678 77.4273 46.9411 77.1167 47.186 76.8672L61.1098 62.7282C61.3729 62.4628 61.5546 62.128 61.6335 61.7631L65.7121 42.3682C65.787 42.0272 65.9524 41.7126 66.1909 41.4573C66.4294 41.2019 66.7323 41.0151 67.0679 40.9165C67.4035 40.8179 67.7594 40.811 68.0986 40.8966C68.4377 40.9822 68.7476 41.1571 68.9959 41.403Z" fill="white"/>
<path d="M95.7284 69.6497C95.7284 58.9687 87.0505 50.3101 76.3459 50.3101C65.6413 50.3101 56.9635 58.9687 56.9635 69.6497C56.9635 80.3306 65.6413 88.9893 76.3459 88.9893C87.0505 88.9893 95.7284 80.3306 95.7284 69.6497Z" fill="#C8DEFB"/>
<path d="M25.5116 201.412C31.3477 207.24 38.3771 211.74 46.1185 214.605C53.8599 217.47 62.1304 218.631 70.3635 218.01C70.9457 217.962 71.4919 217.71 71.9049 217.298C72.3179 216.886 72.5708 216.341 72.6185 215.76C73.2326 207.545 72.0629 199.293 69.1891 191.57C66.3153 183.847 61.8051 176.833 55.9664 171.008C50.1278 165.183 43.0981 160.683 35.3574 157.817C27.6167 154.95 19.3472 153.784 11.1134 154.397C10.5313 154.445 9.9851 154.697 9.5721 155.109C9.15911 155.521 8.90622 156.066 8.85853 156.647C8.23645 164.865 9.40257 173.121 12.277 180.847C15.1514 188.574 19.6661 195.589 25.5116 201.412Z" fill="white"/>
<path d="M122.35 201.412C116.514 207.24 109.484 211.74 101.743 214.605C94.0015 217.47 85.731 218.631 77.4979 218.01C76.9158 217.962 76.3695 217.71 75.9565 217.298C75.5436 216.886 75.2907 216.341 75.243 215.76C74.6288 207.545 75.7986 199.293 78.6724 191.57C81.5462 183.847 86.0564 176.833 91.895 171.008C97.7337 165.183 104.763 160.683 112.504 157.817C120.245 154.95 128.514 153.784 136.748 154.397C137.33 154.445 137.876 154.697 138.289 155.109C138.702 155.521 138.955 156.066 139.003 156.647C139.625 164.865 138.459 173.121 135.584 180.847C132.71 188.574 128.195 195.589 122.35 201.412Z" fill="white"/>
<path d="M111.186 274.597C106.403 278.901 100.744 282.123 94.5963 284.042C88.4488 285.96 81.9583 286.53 75.5695 285.711C75.1173 285.653 74.7009 285.435 74.3958 285.096C74.0907 284.758 73.917 284.322 73.9061 283.867C73.7629 277.443 75.011 271.063 77.5649 265.164C80.1188 259.265 83.9185 253.985 88.7046 249.685C93.4906 245.385 99.1502 242.167 105.297 240.249C111.444 238.331 117.933 237.76 124.321 238.573C124.774 238.633 125.19 238.851 125.496 239.189C125.802 239.527 125.977 239.963 125.991 240.418C126.137 246.843 124.89 253.224 122.335 259.123C119.78 265.022 115.977 270.301 111.186 274.597Z" fill="white"/>
<path d="M38.7044 274.383C43.4875 278.688 49.1467 281.909 55.2942 283.828C61.4417 285.746 67.9322 286.316 74.321 285.498C74.7733 285.439 75.1896 285.221 75.4947 284.883C75.7998 284.544 75.9735 284.108 75.9844 283.653C76.1276 277.229 74.8795 270.849 72.3256 264.95C69.7717 259.051 65.972 253.771 61.1859 249.471C56.3999 245.172 50.7403 241.953 44.5935 240.035C38.4467 238.118 31.9576 237.546 25.5692 238.36C25.1168 238.419 24.7004 238.637 24.3945 238.975C24.0886 239.313 23.9132 239.749 23.8996 240.204C23.7531 246.629 25.0002 253.01 27.5556 258.909C30.1109 264.808 33.914 270.087 38.7044 274.383Z" fill="white"/>
</svg>
